<?xml version="1.0" encoding="UTF-8" standalone="no"?>
<!DOCTYPE svg PUBLIC "-//W3C//DTD SVG 1.1//EN" "http://www.w3.org/Graphics/SVG/1.1/DTD/svg11.dtd">
<svg width="100%" height="100%" viewBox="0 0 42 50" version="1.1" xmlns="http://www.w3.org/2000/svg" xmlns:xlink="http://www.w3.org/1999/xlink" xml:space="preserve" xmlns:serif="http://www.serif.com/" style="fill-rule:evenodd;clip-rule:evenodd;stroke-linejoin:round;stroke-miterlimit:2;">
    <rect id="Artboard1" x="0" y="0" width="41.006" height="49.237" style="fill:none;"/>
    <g id="Artboard11" serif:id="Artboard1">
        <g transform="matrix(1,0,0,1,-3490.31,-1501.28)">
            <g transform="matrix(1,0,0,1.02073,3090.26,17.8656)">
                <g>
                    <g transform="matrix(1,0,0,0.979688,394,1449.09)">
                        <path d="M45.378,35.48C49.508,22.594 44.372,9.428 33.906,6.074C23.44,2.72 11.608,10.447 7.478,23.333C3.348,36.219 8.484,49.384 18.95,52.738C29.416,56.093 41.249,48.366 45.378,35.48Z" style="fill:rgb(195,153,103);fill-rule:nonzero;"/>
                    </g>
                    <g transform="matrix(1.16206,0,0,1.04909,386.374,1447.76)">
                        <path d="M12.863,13.171C12.682,13.402 12.646,13.726 12.771,13.997C12.895,14.267 13.156,14.43 13.434,14.412C18.562,14.104 34.147,13.739 40.587,20.394L40.283,28.264L46.021,33.321C46.021,33.321 52.279,11.395 34.026,6.07C23.172,2.904 15.573,10.04 12.863,13.171Z" style="fill:rgb(29,29,27);fill-rule:nonzero;"/>
                    </g>
                </g>
            </g>
            <g transform="matrix(0.875522,0,0,0.795728,3486.66,1503.75)">
                <path d="M26.272,45.074C25.032,48.037 21.738,49.501 18.906,48.315C15.956,47.081 14.638,43.566 15.93,40.481C17.17,37.518 20.465,36.053 23.297,37.24C26.247,38.476 27.564,41.989 26.272,45.074ZM23.286,43.561C23.774,42.397 23.241,41.086 22.127,40.62C20.897,40.105 19.454,40.707 18.916,41.994C18.428,43.158 18.961,44.469 20.075,44.935C21.305,45.45 22.748,44.848 23.286,43.561Z" style="fill:rgb(133,45,32);"/>
            </g>
            <g transform="matrix(1,0,0,0.999997,3484.26,1496.99)">
                <path d="M20.758,23.007L22.238,24.621C22.238,24.621 20.148,26.534 18.899,28.578C18.533,29.178 18.236,29.784 18.13,30.351C18.066,30.692 18.063,31.013 18.27,31.264C18.587,31.649 19.204,31.854 20.161,31.972C21.43,32.129 23.189,32.057 25.575,31.697L25.901,33.863C22.694,34.347 20.495,34.325 19.046,34.002C17.828,33.73 17.054,33.233 16.579,32.656C15.712,31.604 15.732,30.163 16.388,28.656C17.559,25.967 20.758,23.007 20.758,23.007Z" style="fill:rgb(133,45,32);"/>
            </g>
            <g transform="matrix(1.19223,0.375628,-0.338065,1.073,3512.34,1495.85)">
                <circle cx="8" cy="20" r="4" style="fill:white;"/>
            </g>
            <g transform="matrix(1.19075,-0.380283,0.342255,1.07167,3482.94,1501.29)">
                <circle cx="8" cy="20" r="4" style="fill:white;"/>
            </g>
            <g transform="matrix(1.32271,0,0,1.32271,3490.27,1492.57)">
                <circle cx="7" cy="22" r="2"/>
            </g>
            <g transform="matrix(1.32271,0,0,1.32271,3505.86,1493.07)">
                <circle cx="7" cy="22" r="2"/>
            </g>
        </g>
    </g>
</svg>
