<?xml version="1.0" encoding="UTF-8" standalone="no"?>
<!DOCTYPE svg PUBLIC "-//W3C//DTD SVG 1.1//EN" "http://www.w3.org/Graphics/SVG/1.1/DTD/svg11.dtd">
<svg width="100%" height="100%" viewBox="0 0 333 89" version="1.1" xmlns="http://www.w3.org/2000/svg" xmlns:xlink="http://www.w3.org/1999/xlink" xml:space="preserve" xmlns:serif="http://www.serif.com/" style="fill-rule:evenodd;clip-rule:evenodd;stroke-linejoin:round;stroke-miterlimit:2;">
    <g transform="matrix(1,0,0,1,0,-217)">
        <g id="Artboard1" transform="matrix(0.982301,0,0,1,0,216.559)">
            <rect x="0" y="0.441" width="339" height="88.559" style="fill:none;"/>
            <clipPath id="_clip1">
                <rect x="0" y="0.441" width="339" height="88.559"/>
            </clipPath>
            <g clip-path="url(#_clip1)">
                <g transform="matrix(1.01802,0,0,1,0,0.440917)">
                    <path d="M179.26,84.007C176.96,81.747 176.07,76.927 178.18,74.297C183.16,68.077 191.43,71.877 192.24,79.047C192.69,83.027 191.63,85.037 187.57,85.707C184.85,86.157 181.33,86.037 179.26,84.007Z" style="fill:rgb(1,1,1);fill-rule:nonzero;"/>
                </g>
                <g transform="matrix(1.01802,0,0,1,714.649,-189.078)">
                    <g transform="matrix(1,0,0,1,-701,190)">
                        <path d="M36.15,58.807L36.61,57.157C39.59,41.047 42.28,24.867 43.46,8.487C44.21,5.597 51.69,4.367 52.79,7.027C53.24,8.127 52.12,12.007 51.88,13.397C48.49,33.287 46.14,53.237 43.68,73.257C43.43,75.317 42.85,81.757 41.67,83.057C38.98,86.017 35.48,85.057 33.83,81.667L17.14,25.417L9.16,83.377C6.97,88.437 0.27,89.607 0,82.717C4.33,61.707 7.01,40.387 10.93,19.297C11.62,15.597 12.2,11.117 13.22,7.567C13.73,5.797 14.49,4.407 16.5,4.207C20.87,3.787 22.19,8.187 23.18,11.537C26.04,21.207 27.96,31.377 30.66,41.127C32.31,47.077 34.33,52.897 36.14,58.797L36.15,58.807Z" style="fill:rgb(1,1,1);fill-rule:nonzero;"/>
                    </g>
                    <g transform="matrix(1,0,0,1,-701,190)">
                        <path d="M101.22,66.967C99.32,72.707 98.78,78.797 97.43,84.667C97.28,85.327 97.12,86.487 96.83,87.017C95.66,89.107 89.61,89.057 89.93,85.837L103.89,6.647C105.17,0.567 110.89,-0.903 114.17,4.787C115.15,6.487 115.58,8.587 116.03,10.487C118.31,20.067 119.75,30.747 121.41,40.517C123.86,54.907 126.16,69.367 128.28,83.797C126.73,87.677 121.5,87.607 120.41,83.387L117.61,65.167L101.22,66.977L101.22,66.967ZM116.49,58.437L109.12,18.597L102.29,60.097L116.49,58.437Z" style="fill:rgb(1,1,1);fill-rule:nonzero;"/>
                    </g>
                    <g transform="matrix(0.999782,-0.0208841,0.0208841,0.999782,-701.901,191.491)">
                        <path d="M70.56,11.777C68.82,21.707 68.73,31.837 67.61,41.837C71.7,42.777 75.97,41.737 80.07,42.017C82.52,42.187 85.19,43.097 86.01,45.677C86.63,47.627 85.94,49.817 83.74,50.127C80.87,50.537 77.6,49.997 74.72,49.947C72.44,49.907 70.16,50.017 67.88,49.957C67.47,49.947 66.81,49.597 66.59,49.937L62.82,75.397C64.64,75.487 66.44,75.607 68.27,75.597C71.57,75.567 80,74.427 81.67,78.227C82.24,79.517 81.87,80.777 80.91,81.767C79.13,83.627 77.7,83.017 75.45,83.137C69.58,83.447 61.41,84.267 55.85,82.277C54.32,81.727 53.73,81.327 53.77,79.547C54.05,68.517 57.78,55.807 59.29,44.667C60.8,33.527 61.12,22.367 62.85,11.337C63.06,9.967 63.51,6.097 64.29,5.207C64.49,4.977 64.75,4.777 65.03,4.657C65.95,4.687 67.05,4.407 67.91,4.387C72.16,4.247 77.69,4.107 81.92,4.387C83.42,4.487 87.16,5.057 87.87,6.547C88.58,8.037 87.26,11.747 85.56,12.087C83.46,12.507 79.76,11.837 77.5,11.747C75.24,11.667 72.89,11.627 70.58,11.747L70.56,11.777Z" style="fill:rgb(1,1,1);fill-rule:nonzero;"/>
                    </g>
                    <g transform="matrix(1,0,0,1,-701,190)">
                        <path d="M139.68,2.076C141.13,1.836 143.88,1.906 145.07,2.866C146.63,4.136 146.44,7.217 146.38,9.097C145.97,20.397 145.55,31.707 145.26,43.027C144.97,54.337 145.03,65.637 144.93,76.927C145.19,78.157 147.1,77.857 148.13,77.807C152.97,77.577 157.79,75.877 162.69,76.327C166.96,76.717 168.31,80.757 164.26,82.687L138.34,86.087C137.21,86.297 136.02,85.787 135.75,84.627C135.41,83.207 135.64,79.527 135.66,77.877C135.97,59.857 137.37,41.847 137.87,23.837C138.04,17.587 136.98,11.137 137.32,5.207C137.42,3.407 137.49,2.436 139.68,2.066L139.68,2.076Z" style="fill:rgb(1,1,1);fill-rule:nonzero;"/>
                    </g>
                </g>
                <g transform="matrix(1.01802,0,0,1,639.243,-186.628)">
                    <g transform="matrix(0.999542,-0.0302536,0.0302536,0.999542,-630.24,198.142)">
                        <path d="M319.41,58.807C319.76,58.847 319.566,58.416 319.54,58.217C317.444,41.903 317.26,24.509 314.771,7.958C314.582,2.21 322.107,0.507 323.361,7.958C323.614,9.462 323.421,11.498 323.561,13.108C325.291,31.808 326.77,52.077 329.39,70.687C329.89,74.277 331.17,78.857 331.22,82.347C331.28,87.267 326.05,87.197 323.68,83.967L293.77,24.697L299.68,83.817C298.31,90.637 291.65,89.357 290.66,82.867C289.77,77.067 290.08,70.527 289.71,64.627C288.74,48.877 287.07,33.167 286.21,17.407C286.02,13.947 285.52,9.297 285.65,5.987C285.81,1.677 290.35,2.607 292.57,4.777C294.47,6.637 297.75,14.267 299.09,17.067C302.53,24.257 305.62,31.617 309.1,38.777C312.38,45.537 316.01,52.117 319.41,58.817L319.41,58.807Z" style="fill:rgb(1,1,1);fill-rule:nonzero;"/>
                    </g>
                    <g transform="matrix(1,0,0,1,-628,188.79)">
                        <path d="M238.84,2.876C243.11,2.816 243.71,5.427 244.05,8.727C245.92,27.367 241.94,49.257 247.28,67.287C248.85,72.607 253.73,81.187 260.27,76.217C267.31,70.857 267.34,51.607 267.66,43.397C268.03,33.757 268.47,23.717 267.48,14.077C267.2,11.317 265.86,7.826 266.41,5.346C266.73,3.906 269.43,3.316 270.68,3.386C275.68,3.686 275.63,6.157 275.96,10.017C276.86,20.557 276.57,31.357 276.32,41.917C275.98,56.637 277.09,89.297 253.79,84.757C238.34,81.747 237.86,63.707 236.86,51.147C235.82,38.007 235.24,24.847 235.02,11.667C234.98,9.147 234.58,8.216 234.82,5.666C235.01,3.666 237.03,2.896 238.84,2.866L238.84,2.876Z" style="fill:rgb(1,1,1);fill-rule:nonzero;"/>
                    </g>
                    <g transform="matrix(1,0,0,1,-629,188.79)">
                        <path d="M207.52,7.527L209.76,27.057L225.51,27.127C228.66,27.907 230.56,32.437 226.57,33.637C221.97,35.017 214.45,33.577 210,34.087C208.78,34.227 208.95,34.787 208.99,35.847C209.26,42.347 210.41,49.197 210.83,55.767C211.12,60.287 211.19,64.887 211.38,69.427C211.53,73.157 212.1,77.537 211.76,81.227C211.49,84.227 208.09,85.177 205.62,84.027C204.06,83.297 203.89,82.207 203.66,80.637C202.63,73.657 203.22,65.807 202.91,58.707C202.17,42.087 199,25.387 198.47,8.917C198.42,7.487 198.23,3.747 198.91,2.697C200.33,0.507 206.5,1.197 208.9,1.067C212.57,0.867 223.52,-0.523 226.47,1.627C227.58,2.437 228.62,4.557 227.93,5.857C226.99,7.607 218.95,7.137 217.21,7.537L207.52,7.537L207.52,7.527Z" style="fill:rgb(1,1,1);fill-rule:nonzero;"/>
                    </g>
                </g>
            </g>
        </g>
    </g>
</svg>
