<svg id="eoCBuj47PnM1" xmlns="http://www.w3.org/2000/svg" xmlns:xlink="http://www.w3.org/1999/xlink" viewBox="0 0 343 335" shape-rendering="geometricPrecision" text-rendering="geometricPrecision"><style><![CDATA[#eoCBuj47PnM11_to {animation: eoCBuj47PnM11_to__to 600ms linear infinite alternate-reverse forwards}@keyframes eoCBuj47PnM11_to__to { 0% {transform: translate(66.124498px,215.183594px);animation-timing-function: cubic-bezier(0.42,0,0.58,1)} 100% {transform: translate(69.124498px,220.183594px)}} #eoCBuj47PnM15_to {animation: eoCBuj47PnM15_to__to 600ms linear infinite alternate-reverse forwards}@keyframes eoCBuj47PnM15_to__to { 0% {transform: translate(195.279183px,215.67926px);animation-timing-function: cubic-bezier(0.42,0,0.58,1)} 100% {transform: translate(197.279183px,213.67926px)}} #eoCBuj47PnM23_to {animation: eoCBuj47PnM23_to__to 600ms linear infinite alternate-reverse forwards}@keyframes eoCBuj47PnM23_to__to { 0% {transform: translate(67.219937px,278.342361px);animation-timing-function: cubic-bezier(0.42,0,0.58,1)} 100% {transform: translate(71.219937px,277.342361px)}} #eoCBuj47PnM28_to {animation: eoCBuj47PnM28_to__to 600ms linear infinite alternate-reverse forwards}@keyframes eoCBuj47PnM28_to__to { 0% {transform: translate(196.378891px,284.291733px);animation-timing-function: cubic-bezier(0.42,0,0.58,1)} 100% {transform: translate(198.378891px,278.291733px)}} #eoCBuj47PnM35_tr {animation: eoCBuj47PnM35_tr__tr 600ms linear infinite alternate-reverse forwards}@keyframes eoCBuj47PnM35_tr__tr { 0% {transform: translate(147.57061px,125.975391px) rotate(-15.924348deg);animation-timing-function: cubic-bezier(0.42,0,0.58,1)} 100% {transform: translate(147.57061px,125.975391px) rotate(20.547353deg)}}]]></style><g clip-rule="evenodd"><path d="M4.25,51.48L51.48,4.25h286.642v278.029l-47.983,47.983h-285.889v-278.782Z" clip-rule="evenodd" fill="#fff" fill-rule="evenodd" stroke="#000" stroke-width="8.5" stroke-linecap="round" stroke-linejoin="round" stroke-miterlimit="1.5"/><rect width="285.889" height="278.782" rx="0" ry="0" transform="translate(4.25 51.48)" clip-rule="evenodd" fill="#fff" fill-rule="evenodd" stroke="#000" stroke-width="8.5" stroke-linecap="round" stroke-linejoin="round" stroke-miterlimit="1.5"/><path d="M4.25,51.48L51.48,4.25" clip-rule="evenodd" fill="none" fill-rule="evenodd" stroke="#000" stroke-width="8.5" stroke-linecap="round" stroke-linejoin="round" stroke-miterlimit="1.5"/><path d="M290.139,51.48L336.3,4.25" clip-rule="evenodd" fill="none" fill-rule="evenodd" stroke="#000" stroke-width="8.5" stroke-linecap="round" stroke-linejoin="round" stroke-miterlimit="1.5"/><path d="M51.48,4.25h284.82" clip-rule="evenodd" fill="none" fill-rule="evenodd" stroke="#000" stroke-width="8.5" stroke-linecap="round" stroke-linejoin="round" stroke-miterlimit="1.5"/><path d="M290.139,330.262l47.983-47.983" clip-rule="evenodd" fill="none" fill-rule="evenodd" stroke="#000" stroke-width="8.5" stroke-linecap="round" stroke-linejoin="round" stroke-miterlimit="1.5"/><path d="M338.122,4.25v278.029" clip-rule="evenodd" fill="none" fill-rule="evenodd" stroke="#000" stroke-width="8.5" stroke-linecap="round" stroke-linejoin="round" stroke-miterlimit="1.5"/><g clip-rule="evenodd"><g id="eoCBuj47PnM11_to" transform="translate(69.124498,220.183594)"><g transform="translate(-66.124498,-215.183593)"><path d="M34.419,208.651c0-.465-.025-.823-.075-1.072-.051-.249-.143-.432-.276-.549-.134-.116-.318-.191-.553-.224-.234-.033-.535-.083-.903-.15-.904-.1-1.523-.349-1.857-.748-.335-.399-.477-.873-.427-1.422.05-.548.234-1.138.552-1.77s.686-1.239,1.104-1.821c.419-.582.854-1.105,1.306-1.571.451-.465.811-.814,1.079-1.047.334-.266.912-.482,1.731-.649.82-.166,1.657-.183,2.51-.05.854.133,1.606.458,2.259.973s.996,1.305,1.029,2.369c.033.832.084,2.062.151,3.691.066,1.63.142,3.408.225,5.337.084,1.929.168,3.891.251,5.886.084,1.995.159,3.79.226,5.386.034.699.034,1.688,0,2.968-.033,1.28-.175,2.544-.426,3.791s-.653,2.336-1.205,3.267-1.33,1.413-2.334,1.446c-.803.033-1.498-.149-2.083-.548-.586-.399-1.063-.956-1.431-1.671s-.636-1.571-.803-2.569-.251-2.062-.251-3.192c0-1.962.017-3.849.05-5.661.034-1.812.059-3.434.076-4.863.016-1.43.033-2.636.05-3.616.017-.981.025-1.621.025-1.921Z" clip-rule="evenodd" stroke-linecap="round" stroke-linejoin="round" stroke-miterlimit="1.5"/><path d="M60.57,232.742c-2.275-.033-4.233-.49-5.872-1.372-1.64-.881-2.995-2.053-4.066-3.516s-1.882-3.126-2.435-4.988c-.552-1.862-.861-3.79-.928-5.785-.067-1.597.033-3.359.301-5.287.268-1.929.745-3.791,1.431-5.587.686-1.795,1.606-3.4,2.76-4.813c1.155-1.413,2.619-2.402,4.392-2.968c1.74-.565,3.322-.773,4.744-.623s2.694.574,3.815,1.272s2.108,1.612,2.961,2.743s1.556,2.361,2.108,3.691.979,2.735,1.28,4.215c.301,1.479.469,2.901.502,4.264v2.369c0,1.114-.084,2.37-.251,3.766-.167,1.397-.46,2.843-.878,4.339-.419,1.497-1.038,2.86-1.857,4.09-.82,1.231-1.883,2.237-3.188,3.018s-2.911,1.172-4.819,1.172Zm-4.015-10.025c.167,1.064.585,1.837,1.255,2.319.669.482,1.388.707,2.158.673.77-.033,1.498-.299,2.184-.798.686-.498,1.112-1.23,1.28-2.194.2-1.164.359-2.278.476-3.342.118-1.064.176-2.145.176-3.242s-.05-2.245-.15-3.442c-.101-1.197-.268-2.494-.502-3.89-.201-1.164-.645-2.053-1.331-2.669-.686-.615-1.439-.914-2.258-.897-.82.016-1.59.357-2.309,1.022-.72.665-1.197,1.713-1.431,3.142-.201,1.164-.326,2.228-.376,3.193-.051.964-.051,1.953,0,2.967.05,1.014.142,2.095.276,3.242.134,1.148.318,2.453.552,3.916Z" clip-rule="evenodd" stroke-linecap="round" stroke-linejoin="round" stroke-miterlimit="1.5"/><path d="M95.657,211.295c-1.004,2.061-2.033,4.09-3.087,6.085s-2.167,3.973-3.338,5.935c-.402.699-.787,1.355-1.155,1.97-.368.616-.769,1.239-1.204,1.871s-.904,1.28-1.406,1.945-1.071,1.363-1.707,2.095c-.468.565-1.154.997-2.058,1.297-.903.299-1.773.424-2.61.374-.836-.05-1.531-.316-2.083-.798s-.728-1.239-.527-2.27c.134-.698.402-1.454.803-2.269.402-.815.87-1.663,1.406-2.544.535-.881,1.104-1.762,1.706-2.643.603-.882,1.172-1.754,1.707-2.619.602-.964,1.163-1.829,1.682-2.594.518-.764,1.012-1.488,1.48-2.169.469-.682.929-1.372,1.381-2.07.451-.698.928-1.463,1.43-2.295c1.105-1.828,2.167-3.674,3.188-5.536c1.02-1.862,2.133-3.691,3.338-5.486.568-.832,1.221-1.347,1.957-1.547.736-.199,1.414-.166,2.033.1s1.088.723,1.406,1.372c.317.648.343,1.388.075,2.219-.201.566-.469,1.239-.803,2.02-.335.782-.711,1.605-1.13,2.469-.418.865-.845,1.738-1.28,2.619s-.836,1.704-1.204,2.469Zm-19.024-5.936c-.168-.764-.126-1.596.125-2.494.251-.897.67-1.737,1.255-2.518.586-.782,1.322-1.43,2.209-1.946.887-.515,1.882-.773,2.986-.773c1.841,0,3.213.64,4.116,1.921.904,1.28,1.389,2.884,1.456,4.813.033.765-.142,1.521-.527,2.269s-.87,1.43-1.456,2.045c-.585.615-1.23,1.114-1.932,1.497-.703.382-1.372.59-2.008.623-1.472.066-2.786-.341-3.94-1.222-1.155-.881-1.916-2.286-2.284-4.215Zm6.425-2.095c-.335-.033-.586.059-.753.275s-.251.465-.251.748.058.557.176.823c.117.266.292.399.527.399.368,0,.635-.108.803-.324.167-.216.251-.457.251-.723s-.067-.524-.201-.774c-.134-.249-.318-.39-.552-.424Zm18.471,20.65c.469,1.463.527,2.735.176,3.815-.351,1.081-.945,1.946-1.782,2.594-.836.648-1.798,1.056-2.886,1.222s-2.125.067-3.112-.299-1.807-1.014-2.46-1.945c-.652-.932-.962-2.178-.928-3.741c0-.699.209-1.43.627-2.195.419-.765.954-1.455,1.606-2.07.653-.615,1.381-1.105,2.184-1.471s1.606-.499,2.409-.399s1.573.499,2.309,1.197s1.355,1.795,1.857,3.292Zm-6.324,1.496c.033.499.159.84.376,1.023.218.182.452.232.703.149s.469-.249.653-.499c.184-.249.276-.54.276-.872c0-.233-.109-.433-.327-.599-.217-.166-.46-.249-.727-.249-.268,0-.502.083-.703.249s-.285.432-.251.798Z" clip-rule="evenodd" stroke-linecap="round" stroke-linejoin="round" stroke-miterlimit="1.5"/></g></g><g id="eoCBuj47PnM15_to" transform="translate(197.279183,213.67926)"><g transform="translate(-195.279182,-215.67926)"><path d="M139.828,211.045c.803.266,1.548.64,2.234,1.123.686.482,1.112,1.155,1.28,2.02.033.299-.009.656-.126,1.072s-.309.806-.577,1.172-.619.657-1.054.873-.954.258-1.556.125-1.297-.241-2.083-.325c-.787-.083-1.54-.049-2.259.1-.719.15-1.322.491-1.807,1.023s-.728,1.346-.728,2.444c0,1.23.184,2.194.552,2.893.368.698.837,1.18,1.406,1.446s1.213.333,1.932.2c.72-.133,1.414-.399,2.083-.798c1.004-.599,1.858-.84,2.56-.724.703.117,1.238.449,1.607.998.368.549.543,1.222.527,2.02-.017.798-.226,1.579-.628,2.344-.435.798-1.062,1.463-1.882,1.995s-1.723.931-2.711,1.197c-.987.266-1.982.408-2.986.424-1.004.017-1.924-.075-2.761-.274-1.071-.299-1.999-.748-2.786-1.347-.786-.598-1.439-1.297-1.957-2.095-.519-.798-.912-1.687-1.18-2.668s-.452-1.987-.552-3.018c-.067-.731-.059-1.637.025-2.718s.293-2.186.627-3.317c.335-1.13.804-2.219,1.406-3.267.602-1.047,1.414-1.895,2.434-2.544c1.021-.648,2.267-1.039,3.74-1.172c1.472-.133,3.212.133,5.22.798Z" clip-rule="evenodd" stroke-linecap="round" stroke-linejoin="round" stroke-miterlimit="1.5"/><path d="M157.145,210.996c.469-.1.921-.208,1.356-.325.435-.116.886-.224,1.355-.324.468-.1.979-.191,1.531-.274s1.196-.125,1.932-.125c1.506,0,2.82.59,3.941,1.771c1.121,1.18,1.765,2.818,1.932,4.913c0,.199.025.598.075,1.197.051.598.092,1.297.126,2.095.033.798.075,1.654.125,2.568.051.915.101,1.788.151,2.619s.084,1.563.1,2.194c.017.632.025,1.064.025,1.297c0,1.264-.334,2.236-1.003,2.918-.67.682-1.414,1.081-2.234,1.197-.82.117-1.581-.05-2.284-.499s-1.088-1.188-1.154-2.219c-.034-.466-.034-1.106,0-1.92.033-.815.041-1.688.025-2.619-.017-.931-.076-1.87-.176-2.818s-.293-1.796-.577-2.544c-.285-.748-.678-1.355-1.18-1.82-.502-.466-1.154-.682-1.957-.649-1.038.067-1.766.474-2.184,1.222s-.678,1.671-.778,2.768c-.1,1.098-.109,2.278-.025,3.542.084,1.263.109,2.444.075,3.541-.033,1.064-.242,1.904-.627,2.519s-.845,1.039-1.381,1.272c-.535.232-1.104.291-1.706.174-.603-.116-1.171-.365-1.707-.748-.535-.382-.979-.898-1.33-1.546-.351-.649-.527-1.388-.527-2.22-.034-1.33-.059-2.66-.075-3.99-.017-1.33-.042-2.394-.076-3.192-.033-1.596-.067-3.134-.1-4.614-.033-1.479-.067-2.934-.1-4.364-.034-1.43-.051-2.86-.051-4.289c0-1.43.034-2.877.101-4.34.033-.665.1-1.33.201-1.995.1-.665.284-1.255.552-1.771.267-.515.636-.939,1.104-1.271.468-.333,1.104-.516,1.907-.549.703-.033,1.255.125,1.657.474.401.349.703.806.903,1.371.201.566.327,1.197.377,1.896.05.698.075,1.396.075,2.095c0,.332.017.914.05,1.745.034.832.109,1.68.226,2.544.117.865.285,1.613.502,2.245.218.631.494.914.828.848Z" clip-rule="evenodd" stroke-linecap="round" stroke-linejoin="round" stroke-miterlimit="1.5"/><path d="M194.691,218.627c.368,1.928.661,3.948.878,6.06.218,2.111.21,4.015-.025,5.711-.067.598-.276,1.114-.627,1.546s-.778.748-1.28.948c-.736.266-1.497.474-2.284.623-.786.15-1.564.058-2.334-.274-.201-.1-.376-.241-.527-.424s-.293-.358-.427-.524c-.133-.166-.276-.299-.426-.399-.151-.1-.343-.1-.578,0-1.74.632-3.354.873-4.843.723-1.489-.149-2.786-.615-3.89-1.396-1.105-.782-2-1.854-2.686-3.217-.686-1.364-1.096-2.943-1.23-4.739-.133-1.762.076-3.449.628-5.062s1.372-3.026,2.459-4.24c1.088-1.213,2.393-2.169,3.916-2.868c1.522-.698,3.204-1.014,5.044-.947c1.272.066,2.384.332,3.338.798.954.465,1.757,1.089,2.409,1.87.653.781,1.18,1.671,1.582,2.668.401.998.702,2.045.903,3.143Zm-7.077,2.045c-.067-.366-.134-.765-.201-1.197-.067-.433-.193-.832-.377-1.197-.184-.366-.418-.657-.702-.873-.285-.216-.678-.308-1.18-.275-.468.067-.954.25-1.456.549s-.945.698-1.33,1.197-.677,1.073-.878,1.721-.218,1.322-.05,2.02c.133.598.41,1.081.828,1.446.418.366.912.624,1.481.774.568.149,1.188.216,1.857.199s1.305-.108,1.907-.274c.134-.034.226-.225.276-.574s.067-.74.05-1.172c-.016-.432-.05-.873-.1-1.322s-.092-.79-.125-1.022Z" clip-rule="evenodd" stroke-linecap="round" stroke-linejoin="round" stroke-miterlimit="1.5"/><path d="M217.781,212.442c.803.798,1.372,1.912,1.706,3.342.335,1.43.552,2.934.653,4.514.1,1.579.117,3.125.05,4.638s-.1,2.752-.1,3.716c0,1.23-.335,2.186-1.004,2.868s-1.397,1.048-2.184,1.097c-.786.05-1.506-.241-2.158-.872-.653-.632-.962-1.663-.929-3.093c0-.665.017-1.563.051-2.693.033-1.131,0-2.278-.101-3.442-.1-1.164-.301-2.244-.602-3.242-.301-.997-.77-1.679-1.406-2.045-.368-.199-.761-.341-1.179-.424-.419-.083-.803-.075-1.155.025-.351.1-.652.291-.903.574-.251.282-.377.656-.377,1.122c0,.998-.016,2.078-.05,3.242-.033,1.164-.067,2.261-.1,3.292-.034,1.031-.076,1.937-.126,2.718-.05.782-.075,1.305-.075,1.571-.034,1.031-.427,1.829-1.18,2.395-.753.565-1.572.856-2.459.872-.887.017-1.69-.266-2.41-.848-.719-.581-1.062-1.488-1.029-2.718.067-2.261.059-4.63-.025-7.107-.083-2.478-.092-4.814-.025-7.008.034-.765.101-1.496.201-2.195.1-.698.259-1.313.477-1.845.217-.532.502-.965.853-1.297.352-.333.795-.515,1.33-.549.469-.033,1.029.025,1.682.175.652.149,1.196.64,1.631,1.471.201.399.452.59.753.574.301-.017.686-.117,1.155-.299.468-.183,1.029-.383,1.681-.599.653-.216,1.414-.324,2.284-.324.803,0,1.656.208,2.56.623.903.416,1.74,1.006,2.51,1.771Z" clip-rule="evenodd" stroke-linecap="round" stroke-linejoin="round" stroke-miterlimit="1.5"/><path d="M238.361,211.045c.803.266,1.547.64,2.233,1.123.686.482,1.113,1.155,1.28,2.02.034.299-.008.656-.125,1.072s-.31.806-.578,1.172c-.267.366-.619.657-1.054.873s-.953.258-1.556.125c-.602-.133-1.296-.241-2.083-.325-.786-.083-1.539-.049-2.258.1-.72.15-1.322.491-1.808,1.023-.485.532-.727,1.346-.727,2.444c0,1.23.184,2.194.552,2.893.368.698.836,1.18,1.405,1.446s1.213.333,1.933.2c.719-.133,1.414-.399,2.083-.798c1.004-.599,1.857-.84,2.56-.724.703.117,1.238.449,1.606.998s.544,1.222.527,2.02-.226,1.579-.627,2.344c-.435.798-1.063,1.463-1.883,1.995s-1.723.931-2.71,1.197-1.983.408-2.987.424c-1.004.017-1.924-.075-2.76-.274-1.071-.299-2-.748-2.786-1.347-.787-.598-1.439-1.297-1.958-2.095s-.912-1.687-1.179-2.668c-.268-.981-.452-1.987-.553-3.018-.067-.731-.058-1.637.025-2.718.084-1.081.293-2.186.628-3.317.335-1.13.803-2.219,1.405-3.267.603-1.047,1.414-1.895,2.435-2.544c1.02-.648,2.267-1.039,3.739-1.172c1.473-.133,3.213.133,5.221.798Z" clip-rule="evenodd" stroke-linecap="round" stroke-linejoin="round" stroke-miterlimit="1.5"/><path d="M255.377,210.247c1.338,0,2.509.225,3.513.674s1.849,1.022,2.535,1.72c.686.699,1.205,1.48,1.556,2.345.352.864.544,1.712.577,2.543.034.832-.092,1.588-.376,2.27-.285.682-.728,1.222-1.33,1.621-.201.133-.502.224-.904.274-.401.05-.845.083-1.33.1s-.987.017-1.506,0c-.518-.017-.995-.025-1.43-.025-.402,0-.904.017-1.506.05s-1.272.05-2.008.05c-.301,0-.502.174-.602.524-.101.349-.117.806-.05,1.371.066.665.443,1.197,1.129,1.596s1.43.615,2.234.649c.669,0,1.254-.142,1.756-.424.502-.283.979-.599,1.431-.948s.895-.657,1.33-.923.92-.382,1.456-.349c1.071.1,1.765.532,2.083,1.297s.376,1.629.176,2.594c-.168.731-.494,1.371-.979,1.92-.485.548-1.054,1.022-1.707,1.421-.652.399-1.347.74-2.083,1.023-.736.282-1.439.507-2.108.673-1.707.466-3.221.499-4.543.1s-2.451-1.081-3.388-2.045-1.665-2.145-2.183-3.541c-.519-1.397-.829-2.843-.929-4.34-.1-1.496.017-2.992.351-4.489.335-1.496.879-2.826,1.632-3.99s1.731-2.095,2.936-2.793s2.627-1.014,4.267-.948Zm1.455,7.133c.235,0,.301-.225.201-.674-.1-.448-.268-.806-.502-1.072-.167-.199-.393-.332-.678-.399-.284-.066-.585-.075-.903-.025s-.619.158-.904.324c-.284.167-.493.399-.627.699-.1.199-.184.415-.251.648s-.033.399.1.499c.034.066.226.1.578.1.351,0,.728-.009,1.129-.025.402-.017.786-.034,1.155-.05.368-.017.602-.025.702-.025Z" clip-rule="evenodd" stroke-linecap="round" stroke-linejoin="round" stroke-miterlimit="1.5"/></g></g></g><g clip-rule="evenodd"><g id="eoCBuj47PnM23_to" transform="translate(71.219937,277.342361)"><g transform="translate(-67.219936,-278.342361)"><path d="M45.714,296.053c-1.239.106-2.426.062-3.559-.131-1.133-.194-2.001-.572-2.603-1.135-.567-.493-1.009-1.083-1.328-1.769s-.567-1.443-.744-2.27-.301-1.698-.372-2.613-.106-1.847-.106-2.797c-.035-1.302-.088-2.666-.159-4.091-.071-1.426-.142-2.807-.213-4.144-.035-.563-.177-.977-.425-1.241-.248-.263-.549-.448-.903-.554-.354-.105-.717-.158-1.089-.158s-.699-.053-.983-.159c-.425-.14-.752-.501-.982-1.082-.231-.58-.328-1.205-.293-1.874.036-.668.195-1.293.479-1.874.283-.58.708-.941,1.274-1.082.248-.035.549-.07.904-.105.354-.035.699-.079,1.035-.132.337-.053.62-.159.85-.317.231-.158.346-.396.346-.713c0-.985.017-1.909.053-2.771.035-.862.177-1.61.425-2.243.248-.634.646-1.144,1.195-1.531s1.337-.616,2.364-.686c.673-.036,1.231.105,1.673.422.443.317.806.721,1.089,1.214.284.493.487,1.038.611,1.636.124.599.186,1.179.186,1.742c0,.704.045,1.267.133,1.69.089.422.257.739.505.95s.566.343.956.396c.39.052.885.079,1.487.079.638,0,1.098.334,1.382,1.003.283.668.398,1.416.345,2.243s-.283,1.601-.691,2.323c-.407.721-.982,1.1-1.726,1.135-.602.035-1.08.097-1.435.185-.354.088-.628.237-.823.448s-.328.502-.398.871c-.071.37-.107.871-.107,1.505v1.715c0,.616.009,1.241.027,1.874.018.634.062,1.258.133,1.874s.177,1.17.319,1.663c.177.598.371,1.091.584,1.478.212.387.46.616.744.686.283.071.611-.017.982-.264.372-.246.806-.704,1.302-1.372.637-.845,1.355-1.25,2.151-1.214.797.035,1.532.29,2.205.765s1.204,1.091,1.594,1.848c.389.756.212,1.979.212,1.979s-.637,1.32-1.062,2.059-.983,1.425-1.674,2.058c-.69.634-1.514,1.179-2.47,1.637-.956.457-2.089.739-3.4.844Z" clip-rule="evenodd" stroke-linecap="round" stroke-linejoin="round" stroke-miterlimit="1.5"/><path d="M67.76,272.352c1.417,0,2.656.238,3.719.713c1.062.475,1.956,1.082,2.683,1.821.726.739,1.274,1.566,1.646,2.481s.576,1.812.611,2.692c.036.88-.097,1.68-.398,2.402-.301.721-.77,1.293-1.408,1.715-.212.141-.531.238-.956.291s-.894.088-1.408.105c-.513.018-1.045.018-1.594,0-.549-.017-1.053-.026-1.514-.026-.425,0-.956.018-1.593.053-.638.035-1.346.052-2.125.052-.319,0-.531.185-.638.555-.106.369-.124.853-.053,1.451.071.704.469,1.267,1.195,1.69.726.422,1.514.651,2.364.686.709,0,1.328-.15,1.86-.449.531-.299,1.036-.633,1.514-1.003.478-.369.947-.695,1.407-.976.461-.282.974-.405,1.541-.37c1.133.106,1.868.563,2.205,1.373.336.809.398,1.724.186,2.744-.178.775-.523,1.452-1.036,2.033-.514.58-1.116,1.082-1.806,1.504-.691.423-1.426.783-2.205,1.082s-1.523.537-2.231.713c-1.806.493-3.409.528-4.808.106-1.399-.423-2.594-1.144-3.586-2.165-.991-1.02-1.762-2.27-2.311-3.748-.548-1.478-.876-3.008-.982-4.592-.107-1.584.017-3.167.372-4.751.354-1.583.929-2.991,1.726-4.223s1.833-2.217,3.108-2.956s2.78-1.073,4.515-1.003Zm1.541,7.549c.248,0,.318-.238.212-.713s-.283-.853-.531-1.135c-.177-.211-.416-.352-.717-.422-.301-.071-.62-.079-.956-.027-.337.053-.656.168-.957.344s-.522.422-.664.739c-.106.211-.194.439-.265.686-.071.246-.036.422.106.528.035.07.239.105.611.105s.77-.009,1.195-.026c.425-.018.832-.035,1.222-.053s.638-.026.744-.026Z" clip-rule="evenodd" stroke-linecap="round" stroke-linejoin="round" stroke-miterlimit="1.5"/><path d="M99.9,274.675c.849.844,1.452,2.023,1.806,3.536.354,1.514.584,3.106.69,4.778.107,1.671.124,3.308.053,4.909-.07,1.601-.106,2.912-.106,3.933c0,1.302-.354,2.313-1.062,3.035-.709.721-1.479,1.108-2.311,1.161s-1.594-.255-2.284-.924c-.691-.668-1.019-1.759-.983-3.272c0-.704.018-1.654.053-2.851.035-1.196,0-2.411-.106-3.642-.107-1.232-.319-2.376-.638-3.431-.319-1.056-.814-1.778-1.487-2.165-.39-.211-.806-.36-1.249-.448-.442-.088-.85-.08-1.221.026-.372.106-.691.308-.957.607-.265.299-.398.695-.398,1.188c0,1.056-.018,2.199-.053,3.431-.036,1.232-.071,2.393-.106,3.484-.036,1.091-.08,2.05-.133,2.877s-.08,1.381-.08,1.663c-.035,1.09-.451,1.935-1.248,2.533-.797.599-1.665.906-2.603.924-.939.018-1.789-.281-2.55-.897-.762-.616-1.125-1.575-1.089-2.877.071-2.393.062-4.901-.027-7.522-.088-2.622-.097-5.094-.026-7.417.035-.809.106-1.583.212-2.323.106-.739.275-1.39.505-1.953s.531-1.02.903-1.372.841-.546,1.408-.581c.495-.035,1.089.027,1.779.185.691.158,1.266.677,1.727,1.557.212.423.478.625.797.607.318-.017.726-.123,1.221-.316.496-.194,1.089-.405,1.78-.634s1.496-.343,2.417-.343c.85,0,1.753.22,2.709.66.957.44,1.842,1.064,2.657,1.874Z" clip-rule="evenodd" stroke-linecap="round" stroke-linejoin="round" stroke-miterlimit="1.5"/></g></g><g><g id="eoCBuj47PnM28_to" transform="translate(198.378891,278.291733)"><g transform="translate(-196.378891,-284.291733)"><path d="M134.536,271.613c.46.106.788.29.982.554.195.264.363.502.505.713s.31.378.505.501c.194.124.558.115,1.089-.026c2.018-.563,3.842-.633,5.471-.211s3.011,1.188,4.144,2.296c1.133,1.109,2.01,2.464,2.63,4.065.619,1.601.929,3.281.929,5.041c0,1.443-.31,2.815-.929,4.117-.62,1.302-1.461,2.455-2.524,3.458-1.062,1.003-2.293,1.812-3.692,2.428s-2.895.941-4.489.977c-.602,0-1.071.105-1.407.316-.337.211-.594.493-.771.845s-.283.757-.318,1.214c-.036.458-.036.933,0,1.425l-.107,6.282c0,1.056-.239,1.9-.717,2.534-.478.633-1.053,1.055-1.726,1.267-.673.211-1.373.211-2.099,0-.726-.212-1.354-.616-1.886-1.215-.814-.914-1.301-2.085-1.46-3.51-.16-1.425-.24-3.193-.24-5.305c0-3.273.027-6.44.08-9.502.053-3.061.115-6.228.186-9.501v-2.481c0-.845.027-1.637.08-2.376s.141-1.39.265-1.953.328-.985.611-1.267c.496-.492,1.187-.765,2.072-.818s1.824-.009,2.816.132Zm2.125,15.783c.035.212.398.308,1.089.291.69-.018,1.452-.15,2.284-.396s1.576-.598,2.231-1.056c.655-.457.983-1.02.983-1.689c0-.985-.239-1.76-.717-2.323-.479-.563-1.036-.967-1.674-1.214-.637-.246-1.275-.378-1.912-.396-.638-.017-1.116-.009-1.435.027-.318.07-.548.413-.69,1.029s-.23,1.311-.266,2.085c-.035.774-.035,1.513,0,2.217.036.704.071,1.179.107,1.425Z" clip-rule="evenodd" stroke-linecap="round" stroke-linejoin="round" stroke-miterlimit="1.5"/><path d="M164.497,272.352c1.416,0,2.656.238,3.718.713c1.063.475,1.957,1.082,2.683,1.821s1.275,1.566,1.647,2.481.575,1.812.611,2.692c.035.88-.097,1.68-.399,2.402-.301.721-.77,1.293-1.407,1.715-.213.141-.531.238-.956.291s-.895.088-1.408.105c-.514.018-1.045.018-1.594,0-.549-.017-1.054-.026-1.514-.026-.425,0-.956.018-1.594.053-.637.035-1.345.052-2.125.052-.318,0-.531.185-.637.555-.106.369-.124.853-.053,1.451.071.704.469,1.267,1.195,1.69.726.422,1.514.651,2.364.686.708,0,1.328-.15,1.859-.449.532-.299,1.036-.633,1.514-1.003.479-.369.948-.695,1.408-.976.461-.282.974-.405,1.541-.37c1.133.106,1.868.563,2.204,1.373.337.809.399,1.724.186,2.744-.177.775-.522,1.452-1.036,2.033-.513.58-1.115,1.082-1.806,1.504-.69.423-1.425.783-2.204,1.082-.78.299-1.523.537-2.232.713-1.806.493-3.408.528-4.807.106-1.399-.423-2.594-1.144-3.586-2.165-.992-1.02-1.762-2.27-2.311-3.748s-.876-3.008-.983-4.592c-.106-1.584.018-3.167.372-4.751.354-1.583.93-2.991,1.727-4.223s1.833-2.217,3.107-2.956c1.275-.739,2.781-1.073,4.516-1.003Zm1.54,7.549c.248,0,.319-.238.213-.713s-.283-.853-.531-1.135c-.177-.211-.416-.352-.717-.422-.301-.071-.62-.079-.957-.027-.336.053-.655.168-.956.344s-.522.422-.664.739c-.106.211-.195.439-.266.686-.07.246-.035.422.107.528.035.07.239.105.611.105s.77-.009,1.195-.026c.425-.018.832-.035,1.222-.053.389-.018.637-.026.743-.026Z" clip-rule="evenodd" stroke-linecap="round" stroke-linejoin="round" stroke-miterlimit="1.5"/><path d="M178.043,284.176c.036-1.9.337-3.598.903-5.094.567-1.495,1.346-2.771,2.338-3.827.991-1.055,2.178-1.847,3.559-2.375s2.939-.774,4.675-.739c1.664.07,3.143.554,4.436,1.452c1.292.897,2.381,2.014,3.267,3.352.885,1.337,1.549,2.797,1.992,4.381.442,1.584.628,3.097.557,4.54-.177,3.624-1.177,6.237-3.001,7.838-1.824,1.602-4.524,2.402-8.101,2.402-1.417,0-2.78-.228-4.091-.686-1.31-.457-2.452-1.179-3.426-2.164-.974-.986-1.753-2.226-2.338-3.722-.584-1.495-.841-3.281-.77-5.358Zm7.703-.897c-.142,1.302.106,2.34.744,3.114.637.775,1.39,1.241,2.257,1.399.868.159,1.709-.017,2.524-.528.814-.51,1.31-1.416,1.487-2.718.142-1.302-.106-2.402-.743-3.299-.638-.898-1.391-1.469-2.258-1.716-.868-.246-1.709-.088-2.524.475-.814.563-1.31,1.654-1.487,3.273Z" transform="translate(-.769231 0)" clip-rule="evenodd" stroke-linecap="round" stroke-linejoin="round" stroke-miterlimit="1.5"/><path d="M210.82,271.613c.46.106.788.29.983.554s.363.502.504.713c.142.211.31.378.505.501.195.124.558.115,1.089-.026c2.019-.563,3.843-.633,5.472-.211s3.01,1.188,4.143,2.296c1.134,1.109,2.01,2.464,2.63,4.065s.93,3.281.93,5.041c0,1.443-.31,2.815-.93,4.117s-1.461,2.455-2.523,3.458c-1.063,1.003-2.294,1.812-3.692,2.428-1.399.616-2.896.941-4.489.977-.602,0-1.072.105-1.408.316-.337.211-.593.493-.77.845s-.284.757-.319,1.214c-.035.458-.035.933,0,1.425l-.106,6.282c0,1.056-.239,1.9-.717,2.534-.479.633-1.054,1.055-1.727,1.267-.673.211-1.372.211-2.098,0-.726-.212-1.355-.616-1.886-1.215-.815-.914-1.302-2.085-1.461-3.51s-.239-3.193-.239-5.305c0-3.273.026-6.44.08-9.502.053-3.061.115-6.228.185-9.501v-2.481c0-.845.027-1.637.08-2.376s.142-1.39.266-1.953.327-.985.611-1.267c.496-.492,1.186-.765,2.071-.818.886-.053,1.824-.009,2.816.132Zm2.125,15.783c.035.212.398.308,1.089.291.691-.018,1.452-.15,2.284-.396s1.576-.598,2.231-1.056c.656-.457.983-1.02.983-1.689c0-.985-.239-1.76-.717-2.323s-1.036-.967-1.673-1.214c-.638-.246-1.275-.378-1.913-.396-.637-.017-1.115-.009-1.434.027-.319.07-.549.413-.691,1.029-.141.616-.23,1.311-.265,2.085-.036.774-.036,1.513,0,2.217.035.704.071,1.179.106,1.425Z" clip-rule="evenodd" stroke-linecap="round" stroke-linejoin="round" stroke-miterlimit="1.5"/><path d="M232.335,274.464c.071-2.112.106-4.056.106-5.833c0-1.778.071-3.563.212-5.358.107-1.373.532-2.411,1.275-3.115.744-.703,1.559-1.082,2.444-1.135.885-.052,1.7.194,2.444.739.743.546,1.168,1.347,1.275,2.402.141,1.865.23,3.493.265,4.883.036,1.39.071,2.824.107,4.302.035,1.865.053,3.572.053,5.121v4.592c0,1.513-.027,3.053-.08,4.619s-.115,3.299-.186,5.199c-.035.599-.115,1.206-.239,1.822-.124.615-.345,1.178-.664,1.689-.319.51-.761.923-1.328,1.24s-1.275.475-2.125.475-1.514-.431-1.992-1.293-.824-1.883-1.036-3.062c-.213-1.179-.336-2.375-.372-3.589-.035-1.214-.053-2.173-.053-2.877c0-.669-.009-1.434-.027-2.296-.017-.862-.035-1.769-.053-2.719-.017-.95-.035-1.918-.053-2.903s-.009-1.953.027-2.903Z" clip-rule="evenodd" stroke-linecap="round" stroke-linejoin="round" stroke-miterlimit="1.5"/><path d="M254.965,272.352c1.417,0,2.656.238,3.719.713c1.062.475,1.956,1.082,2.682,1.821s1.275,1.566,1.647,2.481.576,1.812.611,2.692c.036.88-.097,1.68-.398,2.402-.301.721-.771,1.293-1.408,1.715-.213.141-.531.238-.956.291s-.895.088-1.408.105c-.514.018-1.045.018-1.594,0-.549-.017-1.053-.026-1.514-.026-.425,0-.956.018-1.593.053-.638.035-1.346.052-2.125.052-.319,0-.532.185-.638.555-.106.369-.124.853-.053,1.451.071.704.469,1.267,1.195,1.69.726.422,1.514.651,2.364.686.709,0,1.328-.15,1.86-.449.531-.299,1.036-.633,1.514-1.003.478-.369.947-.695,1.407-.976.461-.282.974-.405,1.541-.37c1.133.106,1.868.563,2.205,1.373.336.809.398,1.724.185,2.744-.177.775-.522,1.452-1.035,2.033-.514.58-1.116,1.082-1.807,1.504-.69.423-1.425.783-2.204,1.082s-1.523.537-2.231.713c-1.807.493-3.409.528-4.808.106-1.399-.423-2.594-1.144-3.586-2.165-.991-1.02-1.762-2.27-2.311-3.748s-.876-3.008-.982-4.592c-.107-1.584.017-3.167.371-4.751.355-1.583.93-2.991,1.727-4.223s1.833-2.217,3.108-2.956s2.78-1.073,4.515-1.003Zm1.541,7.549c.248,0,.318-.238.212-.713s-.283-.853-.531-1.135c-.177-.211-.416-.352-.717-.422-.301-.071-.62-.079-.956-.027-.337.053-.656.168-.957.344s-.522.422-.664.739c-.106.211-.194.439-.265.686-.071.246-.036.422.106.528.035.07.239.105.611.105s.77-.009,1.195-.026c.425-.018.832-.035,1.222-.053.389-.018.637-.026.744-.026Z" clip-rule="evenodd" stroke-linecap="round" stroke-linejoin="round" stroke-miterlimit="1.5"/></g></g></g></g><g id="eoCBuj47PnM35_tr" transform="translate(147.57061,125.975391) rotate(20.547353)"><path d="M160.867,116.695c-.834,1.212-1.933,2.425-3.297,3.637-1.364,1.213-2.311,2.539-2.842,3.979-.379,1.137-.663,2.103-.853,2.899-.189.796-.322,1.592-.398,2.388-.075.795-.075,1.705,0,2.728.076,1.023.152,2.368.228,4.036.076,1.97-.625,3.467-2.103,4.49s-3.146,1.516-5.002,1.478c-1.857-.038-3.6-.682-5.23-1.933-1.629-1.25-2.52-3.202-2.671-5.854-.076-1.44-.152-2.975-.228-4.604-.075-1.63-.038-3.297.114-5.002.152-1.706.436-3.354.853-4.946.416-1.591,1.08-3.031,1.989-4.32.985-1.364,2.236-2.576,3.752-3.637c1.515-1.061,2.917-2.123,4.206-3.184.834-.682,1.383-1.496,1.648-2.444.266-.947.247-1.762-.057-2.444-.303-.682-.852-1.137-1.648-1.364s-1.838-.038-3.126.568c-1.213.607-2.634,1.232-4.263,1.876-1.63.644-3.221,1.004-4.775,1.08s-2.975-.265-4.263-1.023c-1.289-.758-2.198-2.236-2.729-4.434-.378-1.44-.132-2.993.739-4.661.872-1.667,2.123-3.202,3.752-4.604s3.486-2.577,5.57-3.524c2.085-.947,4.188-1.421,6.31-1.421c3.335-.076,6.461.758,9.379,2.501s5.21,4.055,6.877,6.935c1.668,2.88,2.445,6.138,2.331,9.776s-1.535,7.314-4.263,11.028Zm-12.278,32.627c2.501,0,4.301.814,5.4,2.444c1.099,1.629,1.554,3.429,1.364,5.4-.189,1.97-1.004,3.808-2.444,5.513-1.44,1.706-3.448,2.634-6.025,2.785-1.667.152-3.089-.17-4.263-.966-1.175-.796-2.065-1.781-2.672-2.956-.606-1.174-.928-2.482-.966-3.922s.284-2.785.966-4.035c.682-1.251,1.724-2.274,3.126-3.07c1.403-.796,3.24-1.193,5.514-1.193Z" transform="translate(-147.57061,-125.975391)" clip-rule="evenodd" stroke="#000" stroke-linejoin="round" stroke-miterlimit="2"/></g></g></svg>