<svg id="euAy769YGeS1" xmlns="http://www.w3.org/2000/svg" xmlns:xlink="http://www.w3.org/1999/xlink" viewBox="0 0 343 335" shape-rendering="geometricPrecision" text-rendering="geometricPrecision"><style><![CDATA[#euAy769YGeS10_to {animation: euAy769YGeS10_to__to 600ms linear infinite alternate-reverse forwards}@keyframes euAy769YGeS10_to__to { 0% {transform: translate(67.645804px,215.252861px);animation-timing-function: cubic-bezier(0.42,0,0.58,1)} 100% {transform: translate(69.645804px,219.252861px)}} #euAy769YGeS14_to {animation: euAy769YGeS14_to__to 600ms linear infinite alternate-reverse forwards}@keyframes euAy769YGeS14_to__to { 0% {transform: translate(201.159813px,215.67926px);animation-timing-function: cubic-bezier(0.42,0,0.58,1)} 100% {transform: translate(203.159813px,219.67926px)}} #euAy769YGeS21_to {animation: euAy769YGeS21_to__to 600ms linear infinite alternate-reverse forwards}@keyframes euAy769YGeS21_to__to { 0% {transform: translate(68.491879px,278.654495px);animation-timing-function: cubic-bezier(0.42,0,0.58,1)} 100% {transform: translate(70.491879px,282.654495px)}} #euAy769YGeS25_to {animation: euAy769YGeS25_to__to 600ms linear infinite alternate-reverse forwards}@keyframes euAy769YGeS25_to__to { 0% {transform: translate(203.162865px,284.291733px);animation-timing-function: cubic-bezier(0.42,0,0.58,1)} 100% {transform: translate(205.162865px,280.291733px)}} #euAy769YGeS32_tr {animation: euAy769YGeS32_tr__tr 600ms linear infinite alternate-reverse forwards}@keyframes euAy769YGeS32_tr__tr { 0% {transform: translate(147.57061px,125.975391px) rotate(23.52587deg);animation-timing-function: cubic-bezier(0.42,0,0.58,1)} 100% {transform: translate(147.57061px,125.975391px) rotate(-21.088051deg)}}]]></style><g clip-rule="evenodd"><path d="M4.25,51.48L51.48,4.25h286.642v278.029l-47.983,47.983h-285.889v-278.782Z" clip-rule="evenodd" fill="#fff" fill-rule="evenodd" stroke="#000" stroke-width="8.5" stroke-linecap="round" stroke-linejoin="round" stroke-miterlimit="1.5"/><rect width="285.889" height="278.782" rx="0" ry="0" transform="translate(4.25 51.48)" clip-rule="evenodd" fill="#fff" fill-rule="evenodd" stroke="#000" stroke-width="8.5" stroke-linecap="round" stroke-linejoin="round" stroke-miterlimit="1.5"/><path d="M4.25,51.48L51.48,4.25" clip-rule="evenodd" fill="none" fill-rule="evenodd" stroke="#000" stroke-width="8.5" stroke-linecap="round" stroke-linejoin="round" stroke-miterlimit="1.5"/><path d="M290.139,51.48L336.3,4.25" clip-rule="evenodd" fill="none" fill-rule="evenodd" stroke="#000" stroke-width="8.5" stroke-linecap="round" stroke-linejoin="round" stroke-miterlimit="1.5"/><path d="M51.48,4.25h284.82" clip-rule="evenodd" fill="none" fill-rule="evenodd" stroke="#000" stroke-width="8.5" stroke-linecap="round" stroke-linejoin="round" stroke-miterlimit="1.5"/><path d="M290.139,330.262l47.983-47.983" clip-rule="evenodd" fill="none" fill-rule="evenodd" stroke="#000" stroke-width="8.5" stroke-linecap="round" stroke-linejoin="round" stroke-miterlimit="1.5"/><path d="M338.122,4.25v278.029" clip-rule="evenodd" fill="none" fill-rule="evenodd" stroke="#000" stroke-width="8.5" stroke-linecap="round" stroke-linejoin="round" stroke-miterlimit="1.5"/><g id="euAy769YGeS10_to" transform="translate(69.645804,219.252861)"><g transform="translate(-67.645803,-215.252861)"><path d="M29.859,198.626c1.539-.133,3.095-.2,4.668-.2h4.267c2.175,0,3.689.374,4.542,1.123.854.748,1.314,1.787,1.381,3.117.067.931-.076,1.663-.427,2.195s-.862.922-1.531,1.172c-.669.249-1.472.399-2.409.449-.937.049-1.924.074-2.962.074-.301,0-.51.067-.627.2s-.193.307-.226.524c-.034.216-.042.449-.025.698s.025.474.025.673v.898c0,.299.067.557.201.773s.359.391.677.524.812.183,1.481.15c1.606-.067,3.003.282,4.191,1.047s2.167,1.771,2.937,3.018c.769,1.246,1.305,2.643,1.606,4.189s.36,3.076.176,4.589-.619,2.909-1.305,4.19c-.686,1.28-1.648,2.286-2.887,3.017-.937.532-2.049.948-3.338,1.247-1.288.299-2.601.416-3.94.349-1.338-.066-2.635-.332-3.89-.798-1.255-.465-2.301-1.18-3.137-2.144-.502-.566-.912-1.164-1.23-1.796s-.51-1.264-.577-1.895c-.067-.632.033-1.239.301-1.821s.753-1.106,1.456-1.571c.836-.532,1.547-.757,2.133-.673.586.083,1.129.299,1.631.648s.996.756,1.481,1.222s1.062.798,1.732.998c.702.266,1.338.291,1.907.074.569-.216,1.029-.548,1.381-.997.351-.449.577-.981.677-1.596.101-.615.034-1.206-.201-1.771-.267-.598-.602-1.064-1.004-1.396-.401-.333-.853-.574-1.355-.724-.502-.149-1.037-.249-1.606-.299s-1.121-.091-1.656-.125c-.402-.033-.887-.074-1.456-.124s-1.113-.15-1.631-.3c-.519-.149-.996-.357-1.431-.623s-.736-.632-.903-1.097c-.168-.433-.293-1.156-.377-2.17s-.142-2.153-.176-3.417c-.033-1.263-.033-2.577,0-3.94.034-1.363.109-2.61.226-3.741.117-1.13.276-2.061.477-2.793.201-.731.452-1.114.753-1.147Z" clip-rule="evenodd" stroke-linecap="round" stroke-linejoin="round" stroke-miterlimit="1.5"/><path d="M66.451,232.742c-2.275-.033-4.233-.49-5.873-1.372-1.639-.881-2.995-2.053-4.066-3.516-1.07-1.463-1.882-3.126-2.434-4.988s-.862-3.79-.929-5.785c-.067-1.597.034-3.359.302-5.287.267-1.929.744-3.791,1.43-5.587.686-1.795,1.606-3.4,2.761-4.813c1.154-1.413,2.618-2.402,4.392-2.968c1.74-.565,3.321-.773,4.743-.623c1.423.15,2.694.574,3.815,1.272s2.108,1.612,2.962,2.743c.853,1.131,1.556,2.361,2.108,3.691s.979,2.735,1.28,4.215c.301,1.479.468,2.901.502,4.264v2.369c0,1.114-.084,2.37-.251,3.766-.168,1.397-.46,2.843-.879,4.339-.418,1.497-1.037,2.86-1.857,4.09-.82,1.231-1.882,2.237-3.187,3.018s-2.912,1.172-4.819,1.172Zm-4.016-10.025c.168,1.064.586,1.837,1.255,2.319.67.482,1.389.707,2.159.673.769-.033,1.497-.299,2.183-.798.686-.498,1.113-1.23,1.28-2.194.201-1.164.36-2.278.477-3.342s.176-2.145.176-3.242-.051-2.245-.151-3.442-.268-2.494-.502-3.89c-.201-1.164-.644-2.053-1.33-2.669-.686-.615-1.439-.914-2.259-.897-.82.016-1.589.357-2.309,1.022-.719.665-1.196,1.713-1.43,3.142-.201,1.164-.327,2.228-.377,3.193-.05.964-.05,1.953,0,2.967s.142,2.095.276,3.242c.134,1.148.318,2.453.552,3.916Z" clip-rule="evenodd" stroke-linecap="round" stroke-linejoin="round" stroke-miterlimit="1.5"/><path d="M101.537,211.295c-1.004,2.061-2.033,4.09-3.087,6.085s-2.166,3.973-3.338,5.935c-.401.699-.786,1.355-1.154,1.97-.368.616-.77,1.239-1.205,1.871s-.903,1.28-1.405,1.945-1.071,1.363-1.707,2.095c-.468.565-1.154.997-2.058,1.297-.903.299-1.773.424-2.61.374s-1.531-.316-2.083-.798-.728-1.239-.527-2.27c.134-.698.401-1.454.803-2.269.401-.815.87-1.663,1.405-2.544.536-.881,1.105-1.762,1.707-2.643.602-.882,1.171-1.754,1.707-2.619.602-.964,1.162-1.829,1.681-2.594.519-.764,1.012-1.488,1.481-2.169.468-.682.929-1.372,1.38-2.07.452-.698.929-1.463,1.431-2.295c1.104-1.828,2.167-3.674,3.187-5.536c1.021-1.862,2.133-3.691,3.338-5.486.569-.832,1.222-1.347,1.958-1.547.736-.199,1.414-.166,2.033.1s1.087.723,1.405,1.372c.318.648.343,1.388.075,2.219-.2.566-.468,1.239-.803,2.02-.334.782-.711,1.605-1.129,2.469-.418.865-.845,1.738-1.28,2.619s-.837,1.704-1.205,2.469Zm-19.024-5.936c-.167-.764-.125-1.596.126-2.494.251-.897.669-1.737,1.255-2.518.585-.782,1.322-1.43,2.208-1.946.887-.515,1.883-.773,2.987-.773c1.84,0,3.212.64,4.116,1.921.903,1.28,1.389,2.884,1.456,4.813.033.765-.143,1.521-.527,2.269-.385.748-.871,1.43-1.456,2.045-.586.615-1.23,1.114-1.933,1.497-.702.382-1.372.59-2.007.623-1.473.066-2.786-.341-3.941-1.222-1.154-.881-1.916-2.286-2.284-4.215Zm6.425-2.095c-.334-.033-.585.059-.753.275-.167.216-.251.465-.251.748s.059.557.176.823.293.399.527.399c.368,0,.636-.108.803-.324.168-.216.251-.457.251-.723s-.067-.524-.201-.774c-.133-.249-.317-.39-.552-.424Zm18.472,20.65c.469,1.463.527,2.735.176,3.815-.352,1.081-.946,1.946-1.782,2.594-.837.648-1.799,1.056-2.886,1.222-1.088.166-2.125.067-3.112-.299-.988-.366-1.807-1.014-2.46-1.945-.653-.932-.962-2.178-.929-3.741c0-.699.21-1.43.628-2.195s.954-1.455,1.606-2.07c.653-.615,1.38-1.105,2.184-1.471.803-.366,1.606-.499,2.409-.399s1.573.499,2.309,1.197s1.355,1.795,1.857,3.292Zm-6.325,1.496c.034.499.159.84.377,1.023.217.182.452.232.703.149s.468-.249.652-.499c.184-.249.276-.54.276-.872c0-.233-.108-.433-.326-.599-.217-.166-.46-.249-.728-.249s-.502.083-.703.249c-.2.166-.284.432-.251.798Z" clip-rule="evenodd" stroke-linecap="round" stroke-linejoin="round" stroke-miterlimit="1.5"/></g></g><g id="euAy769YGeS14_to" transform="translate(203.159813,219.67926)"><g transform="translate(-201.159813,-215.67926)"><path d="M145.709,211.045c.803.266,1.547.64,2.233,1.123.686.482,1.113,1.155,1.28,2.02.034.299-.008.656-.125,1.072s-.31.806-.577,1.172c-.268.366-.619.657-1.054.873-.436.216-.954.258-1.557.125-.602-.133-1.296-.241-2.083-.325-.786-.083-1.539-.049-2.258.1-.72.15-1.322.491-1.807,1.023-.486.532-.728,1.346-.728,2.444c0,1.23.184,2.194.552,2.893.368.698.837,1.18,1.405,1.446.569.266,1.213.333,1.933.2.719-.133,1.414-.399,2.083-.798c1.004-.599,1.857-.84,2.56-.724.703.117,1.238.449,1.606.998s.544,1.222.527,2.02-.226,1.579-.627,2.344c-.435.798-1.063,1.463-1.883,1.995-.819.532-1.723.931-2.71,1.197s-1.983.408-2.987.424c-1.004.017-1.924-.075-2.76-.274-1.071-.299-2-.748-2.786-1.347-.787-.598-1.439-1.297-1.958-2.095-.518-.798-.912-1.687-1.179-2.668-.268-.981-.452-1.987-.553-3.018-.066-.731-.058-1.637.026-2.718.083-1.081.292-2.186.627-3.317.335-1.13.803-2.219,1.405-3.267.603-1.047,1.414-1.895,2.435-2.544c1.021-.648,2.267-1.039,3.739-1.172c1.473-.133,3.213.133,5.221.798Z" clip-rule="evenodd" stroke-linecap="round" stroke-linejoin="round" stroke-miterlimit="1.5"/><path d="M163.026,210.996c.468-.1.92-.208,1.355-.325.435-.116.887-.224,1.355-.324.469-.1.979-.191,1.531-.274.553-.083,1.197-.125,1.933-.125c1.506,0,2.819.59,3.94,1.771c1.121,1.18,1.765,2.818,1.933,4.913c0,.199.025.598.075,1.197.05.598.092,1.297.125,2.095.034.798.076,1.654.126,2.568.05.915.1,1.788.151,2.619.05.831.083,1.563.1,2.194.017.632.025,1.064.025,1.297c0,1.264-.335,2.236-1.004,2.918s-1.414,1.081-2.234,1.197c-.819.117-1.581-.05-2.283-.499-.703-.449-1.088-1.188-1.155-2.219-.033-.466-.033-1.106,0-1.92.034-.815.042-1.688.025-2.619s-.075-1.87-.175-2.818c-.101-.948-.293-1.796-.578-2.544-.284-.748-.677-1.355-1.179-1.82-.502-.466-1.155-.682-1.958-.649-1.037.067-1.765.474-2.183,1.222-.419.748-.678,1.671-.778,2.768-.101,1.098-.109,2.278-.025,3.542.083,1.263.108,2.444.075,3.541-.034,1.064-.243,1.904-.628,2.519-.384.615-.845,1.039-1.38,1.272-.535.232-1.104.291-1.707.174-.602-.116-1.171-.365-1.706-.748-.536-.382-.979-.898-1.33-1.546-.352-.649-.527-1.388-.527-2.22-.034-1.33-.059-2.66-.076-3.99-.016-1.33-.042-2.394-.075-3.192-.033-1.596-.067-3.134-.1-4.614-.034-1.479-.067-2.934-.101-4.364-.033-1.43-.05-2.86-.05-4.289c0-1.43.033-2.877.1-4.34.034-.665.101-1.33.201-1.995.101-.665.285-1.255.552-1.771.268-.515.636-.939,1.105-1.271.468-.333,1.104-.516,1.907-.549.703-.033,1.255.125,1.656.474.402.349.703.806.904,1.371.201.566.326,1.197.376,1.896.051.698.076,1.396.076,2.095c0,.332.016.914.05,1.745.033.832.109,1.68.226,2.544.117.865.284,1.613.502,2.245.217.631.493.914.828.848Z" clip-rule="evenodd" stroke-linecap="round" stroke-linejoin="round" stroke-miterlimit="1.5"/><path d="M200.572,218.627c.368,1.928.661,3.948.878,6.06.218,2.111.209,4.015-.025,5.711-.067.598-.276,1.114-.627,1.546-.352.432-.778.748-1.28.948-.737.266-1.498.474-2.284.623-.787.15-1.565.058-2.334-.274-.201-.1-.377-.241-.527-.424-.151-.183-.293-.358-.427-.524s-.276-.299-.427-.399c-.15-.1-.343-.1-.577,0-1.74.632-3.355.873-4.844.723-1.489-.149-2.786-.615-3.89-1.396-1.104-.782-1.999-1.854-2.685-3.217-.686-1.364-1.096-2.943-1.23-4.739-.134-1.762.075-3.449.627-5.062.553-1.613,1.372-3.026,2.46-4.24c1.087-1.213,2.393-2.169,3.915-2.868c1.523-.698,3.204-1.014,5.045-.947c1.271.066,2.384.332,3.338.798.953.465,1.756,1.089,2.409,1.87s1.18,1.671,1.581,2.668c.402.998.703,2.045.904,3.143Zm-7.078,2.045c-.067-.366-.134-.765-.201-1.197-.067-.433-.192-.832-.376-1.197-.184-.366-.418-.657-.703-.873-.284-.216-.677-.308-1.179-.275-.469.067-.954.25-1.456.549s-.945.698-1.33,1.197-.678,1.073-.879,1.721c-.2.648-.217,1.322-.05,2.02.134.598.41,1.081.828,1.446.419.366.912.624,1.481.774.569.149,1.188.216,1.857.199.67-.017,1.305-.108,1.908-.274.134-.034.226-.225.276-.574s.067-.74.05-1.172-.05-.873-.1-1.322c-.051-.449-.092-.79-.126-1.022Z" clip-rule="evenodd" stroke-linecap="round" stroke-linejoin="round" stroke-miterlimit="1.5"/><path d="M223.661,212.442c.803.798,1.372,1.912,1.707,3.342s.552,2.934.652,4.514c.101,1.579.118,3.125.051,4.638s-.101,2.752-.101,3.716c0,1.23-.334,2.186-1.004,2.868-.669.682-1.397,1.048-2.183,1.097-.787.05-1.506-.241-2.158-.872-.653-.632-.963-1.663-.929-3.093c0-.665.017-1.563.05-2.693.034-1.131,0-2.278-.1-3.442-.101-1.164-.301-2.244-.603-3.242-.301-.997-.769-1.679-1.405-2.045-.368-.199-.761-.341-1.18-.424-.418-.083-.803-.075-1.154.025-.352.1-.653.291-.904.574-.251.282-.376.656-.376,1.122c0,.998-.017,2.078-.05,3.242-.034,1.164-.067,2.261-.101,3.292-.033,1.031-.075,1.937-.125,2.718-.05.782-.075,1.305-.075,1.571-.034,1.031-.427,1.829-1.18,2.395-.753.565-1.573.856-2.46.872-.886.017-1.69-.266-2.409-.848-.719-.581-1.062-1.488-1.029-2.718.067-2.261.059-4.63-.025-7.107-.084-2.478-.092-4.814-.025-7.008.033-.765.1-1.496.201-2.195.1-.698.259-1.313.476-1.845.218-.532.502-.965.854-1.297.351-.333.795-.515,1.33-.549.468-.033,1.029.025,1.681.175.653.149,1.197.64,1.632,1.471.201.399.452.59.753.574.301-.017.686-.117,1.154-.299.469-.183,1.029-.383,1.682-.599.652-.216,1.414-.324,2.284-.324.803,0,1.656.208,2.56.623.903.416,1.74,1.006,2.509,1.771Z" clip-rule="evenodd" stroke-linecap="round" stroke-linejoin="round" stroke-miterlimit="1.5"/><path d="M244.241,211.045c.803.266,1.548.64,2.234,1.123.686.482,1.112,1.155,1.28,2.02.033.299-.009.656-.126,1.072s-.309.806-.577,1.172-.619.657-1.054.873-.954.258-1.556.125-1.297-.241-2.083-.325c-.787-.083-1.539-.049-2.259.1-.719.15-1.322.491-1.807,1.023s-.728,1.346-.728,2.444c0,1.23.184,2.194.552,2.893.369.698.837,1.18,1.406,1.446s1.213.333,1.932.2c.72-.133,1.414-.399,2.083-.798c1.004-.599,1.858-.84,2.56-.724.703.117,1.239.449,1.607.998s.543,1.222.527,2.02c-.017.798-.226,1.579-.628,2.344-.435.798-1.062,1.463-1.882,1.995s-1.723.931-2.711,1.197c-.987.266-1.982.408-2.986.424-1.004.017-1.924-.075-2.761-.274-1.071-.299-1.999-.748-2.786-1.347-.786-.598-1.439-1.297-1.957-2.095-.519-.798-.912-1.687-1.18-2.668s-.452-1.987-.552-3.018c-.067-.731-.059-1.637.025-2.718s.293-2.186.627-3.317c.335-1.13.804-2.219,1.406-3.267.602-1.047,1.414-1.895,2.434-2.544c1.021-.648,2.268-1.039,3.74-1.172s3.212.133,5.22.798Z" transform="translate(0-1.152985)" clip-rule="evenodd" stroke-linecap="round" stroke-linejoin="round" stroke-miterlimit="1.5"/><path d="M261.257,210.247c1.339,0,2.51.225,3.514.674s1.849,1.022,2.535,1.72c.686.699,1.204,1.48,1.556,2.345.351.864.544,1.712.577,2.543.033.832-.092,1.588-.376,2.27-.285.682-.728,1.222-1.331,1.621-.2.133-.502.224-.903.274-.402.05-.845.083-1.33.1-.486.017-.987.017-1.506,0s-.996-.025-1.431-.025c-.401,0-.903.017-1.506.05-.602.033-1.271.05-2.007.05-.302,0-.502.174-.603.524-.1.349-.117.806-.05,1.371.067.665.444,1.197,1.13,1.596s1.43.615,2.233.649c.669,0,1.255-.142,1.757-.424.502-.283.979-.599,1.431-.948.451-.349.895-.657,1.33-.923s.92-.382,1.455-.349c1.071.1,1.766.532,2.083,1.297.318.765.377,1.629.176,2.594-.167.731-.493,1.371-.979,1.92-.485.548-1.054,1.022-1.706,1.421-.653.399-1.347.74-2.083,1.023-.737.282-1.439.507-2.109.673-1.706.466-3.22.499-4.542.1s-2.451-1.081-3.388-2.045-1.665-2.145-2.184-3.541c-.519-1.397-.828-2.843-.928-4.34-.101-1.496.016-2.992.351-4.489.335-1.496.878-2.826,1.631-3.99s1.732-2.095,2.937-2.793c1.204-.698,2.627-1.014,4.266-.948Zm1.456,7.133c.234,0,.301-.225.201-.674-.101-.448-.268-.806-.502-1.072-.168-.199-.393-.332-.678-.399-.284-.066-.586-.075-.903-.025-.318.05-.619.158-.904.324-.284.167-.494.399-.627.699-.101.199-.184.415-.251.648s-.034.399.1.499c.034.066.226.1.577.1.352,0,.728-.009,1.13-.025.401-.017.786-.034,1.154-.05.368-.017.602-.025.703-.025Z" clip-rule="evenodd" stroke-linecap="round" stroke-linejoin="round" stroke-miterlimit="1.5"/></g></g><g id="euAy769YGeS21_to" transform="translate(70.491879,282.654495)"><g transform="translate(-68.491878,-278.654495)"><path d="M41.714,296.053c-1.239.106-2.426.062-3.559-.131-1.133-.194-2.001-.572-2.603-1.135-.567-.493-1.009-1.083-1.328-1.769s-.567-1.443-.744-2.27-.301-1.698-.372-2.613-.106-1.847-.106-2.797c-.035-1.302-.088-2.666-.159-4.091-.071-1.426-.142-2.807-.213-4.144-.035-.563-.177-.977-.425-1.241-.248-.263-.549-.448-.903-.554-.354-.105-.717-.158-1.089-.158s-.699-.053-.983-.159c-.425-.14-.752-.501-.982-1.082-.231-.58-.328-1.205-.293-1.874.036-.668.195-1.293.479-1.874.283-.58.708-.941,1.274-1.082.248-.035.549-.07.904-.105.354-.035.699-.079,1.035-.132.337-.053.62-.159.85-.317.231-.158.346-.396.346-.713c0-.985.017-1.909.053-2.771.035-.862.177-1.61.425-2.243.248-.634.646-1.144,1.195-1.531s1.337-.616,2.364-.686c.673-.036,1.231.105,1.673.422.443.317.806.721,1.089,1.214.284.493.487,1.038.611,1.636.124.599.186,1.179.186,1.742c0,.704.045,1.267.133,1.69.089.422.257.739.505.95s.566.343.956.396c.39.052.885.079,1.487.079.638,0,1.098.334,1.382,1.003.283.668.398,1.416.345,2.243s-.283,1.601-.691,2.323c-.407.721-.982,1.1-1.726,1.135-.602.035-1.08.097-1.435.185-.354.088-.628.237-.823.448s-.328.502-.398.871c-.071.37-.107.871-.107,1.505v1.715c0,.616.009,1.241.027,1.874.018.634.062,1.258.133,1.874s.177,1.17.319,1.663c.177.598.371,1.091.584,1.478.212.387.46.616.744.686.283.071.611-.017.982-.264.372-.246.806-.704,1.302-1.372.637-.845,1.355-1.25,2.151-1.214.797.035,1.532.29,2.205.765s1.204,1.091,1.594,1.848c.389.756.46,1.416.212,1.979-.283.634-.637,1.32-1.062,2.059s-.983,1.425-1.674,2.058c-.69.634-1.514,1.179-2.47,1.637-.956.457-2.089.739-3.4.844Z" clip-rule="evenodd" stroke-linecap="round" stroke-linejoin="round" stroke-miterlimit="1.5"/><path d="M60.573,276.997c.248.634.46,1.32.637,2.059s.372,1.425.585,2.059c.212.633.469,1.152.77,1.557s.664.572,1.089.501c.425-.07.797-.351,1.116-.844.318-.493.646-1.029.982-1.61.337-.581.7-1.117,1.089-1.61.39-.493.886-.739,1.488-.739.566,0,1.062.246,1.487.739s.797,1.029,1.116,1.61.62,1.117.903,1.61.584.704.903.633c.425.036.806-.211,1.142-.739.337-.528.638-1.17.903-1.926.266-.757.496-1.54.691-2.349.195-.81.363-1.461.504-1.954.39-1.513,1.036-2.498,1.939-2.956.904-.457,1.798-.58,2.683-.369.886.211,1.656.66,2.311,1.346s.93,1.399.823,2.138c-.177,1.302-.371,2.71-.584,4.223-.212,1.513-.478,3.044-.797,4.592-.319,1.549-.699,3.053-1.142,4.514-.443,1.46-.983,2.771-1.62,3.932-.284.493-.682,1.003-1.195,1.531-.514.528-1.089.897-1.727,1.108-.637.212-1.319.194-2.045-.052-.726-.247-1.426-.898-2.099-1.953-.212-.317-.451-.713-.717-1.188-.265-.475-.566-.941-.903-1.399-.336-.457-.69-.862-1.062-1.214s-.771-.546-1.195-.581c-.39-.035-.718.185-.983.66-.266.475-.549,1.047-.85,1.716-.301.668-.62,1.355-.956,2.058-.337.704-.771,1.25-1.302,1.637-.602.457-1.239.756-1.912.897s-1.311.132-1.913-.026c-.602-.159-1.16-.44-1.673-.845-.514-.405-.912-.941-1.195-1.61-.567-1.232-1.01-2.516-1.329-3.853-.318-1.338-.708-2.622-1.168-3.854-.319-.844-.602-1.627-.85-2.349-.248-.721-.478-1.425-.691-2.111-.212-.686-.425-1.39-.637-2.112-.213-.721-.425-1.522-.638-2.402-.177-.668-.177-1.354,0-2.058s.461-1.32.85-1.848c.39-.528.868-.932,1.435-1.214.566-.281,1.177-.334,1.832-.158s1.32.642,1.992,1.399c.673.756,1.311,1.891,1.913,3.404Z" clip-rule="evenodd" stroke-linecap="round" stroke-linejoin="round" stroke-miterlimit="1.5"/><path d="M87.294,284.176c.035-1.9.336-3.598.903-5.094.566-1.495,1.345-2.771,2.337-3.827.992-1.055,2.178-1.847,3.559-2.375c1.382-.528,2.94-.774,4.675-.739c1.665.07,3.143.554,4.436,1.452c1.293.897,2.382,2.014,3.267,3.352.885,1.337,1.549,2.797,1.992,4.381s.629,3.097.558,4.54c-.177,3.624-1.178,6.237-3.002,7.838-1.823,1.602-4.524,2.402-8.101,2.402-1.416,0-2.78-.228-4.09-.686-1.311-.457-2.453-1.179-3.427-2.164-.974-.986-1.753-2.226-2.337-3.722-.584-1.495-.841-3.281-.77-5.358Zm7.702-.897c-.141,1.302.107,2.34.744,3.114.638.775,1.39,1.241,2.258,1.399.868.159,1.709-.017,2.523-.528.815-.51,1.311-1.416,1.488-2.718.141-1.302-.107-2.402-.744-3.299-.638-.898-1.39-1.469-2.258-1.716-.867-.246-1.709-.088-2.523.475-.815.563-1.31,1.654-1.488,3.273Z" clip-rule="evenodd" stroke-linecap="round" stroke-linejoin="round" stroke-miterlimit="1.5"/></g></g><g id="euAy769YGeS25_to" transform="translate(205.162865,280.291733)"><g transform="translate(-203.162865,-284.291733)"><path d="M141.32,271.613c.46.106.788.29.982.554.195.264.363.502.505.713s.31.378.505.501c.194.124.557.115,1.089-.026c2.018-.563,3.842-.633,5.471-.211s3.011,1.188,4.144,2.296c1.133,1.109,2.01,2.464,2.629,4.065.62,1.601.93,3.281.93,5.041c0,1.443-.31,2.815-.93,4.117-.619,1.302-1.46,2.455-2.523,3.458-1.062,1.003-2.293,1.812-3.692,2.428s-2.895.941-4.489.977c-.602,0-1.071.105-1.408.316-.336.211-.593.493-.77.845s-.283.757-.319,1.214c-.035.458-.035.933,0,1.425l-.106,6.282c0,1.056-.239,1.9-.717,2.534-.478.633-1.054,1.055-1.726,1.267-.673.211-1.373.211-2.099,0-.726-.212-1.354-.616-1.886-1.215-.814-.914-1.301-2.085-1.461-3.51-.159-1.425-.239-3.193-.239-5.305c0-3.273.027-6.44.08-9.502.053-3.061.115-6.228.186-9.501v-2.481c0-.845.027-1.637.08-2.376s.141-1.39.265-1.953.328-.985.611-1.267c.496-.492,1.187-.765,2.072-.818s1.824-.009,2.816.132Zm2.124,15.783c.036.212.399.308,1.089.291.691-.018,1.453-.15,2.285-.396s1.576-.598,2.231-1.056c.655-.457.983-1.02.983-1.689c0-.985-.239-1.76-.717-2.323-.479-.563-1.036-.967-1.674-1.214-.637-.246-1.275-.378-1.912-.396-.638-.017-1.116-.009-1.435.027-.318.07-.549.413-.69,1.029-.142.616-.23,1.311-.266,2.085-.035.774-.035,1.513,0,2.217.036.704.071,1.179.106,1.425Z" clip-rule="evenodd" stroke-linecap="round" stroke-linejoin="round" stroke-miterlimit="1.5"/><path d="M171.281,272.352c1.416,0,2.656.238,3.718.713c1.063.475,1.957,1.082,2.683,1.821s1.275,1.566,1.647,2.481.575,1.812.611,2.692c.035.88-.098,1.68-.399,2.402-.301.721-.77,1.293-1.407,1.715-.213.141-.532.238-.957.291s-.894.088-1.407.105c-.514.018-1.045.018-1.594,0-.549-.017-1.054-.026-1.514-.026-.425,0-.956.018-1.594.053-.637.035-1.345.052-2.125.052-.318,0-.531.185-.637.555-.106.369-.124.853-.053,1.451.071.704.469,1.267,1.195,1.69.726.422,1.514.651,2.364.686.708,0,1.328-.15,1.859-.449.532-.299,1.036-.633,1.514-1.003.478-.369.948-.695,1.408-.976.461-.282.974-.405,1.541-.37c1.133.106,1.868.563,2.204,1.373.337.809.399,1.724.186,2.744-.177.775-.522,1.452-1.036,2.033-.513.58-1.115,1.082-1.806,1.504-.69.423-1.425.783-2.204,1.082-.78.299-1.523.537-2.232.713-1.806.493-3.408.528-4.807.106-1.399-.423-2.594-1.144-3.586-2.165-.992-1.02-1.762-2.27-2.311-3.748s-.876-3.008-.983-4.592c-.106-1.584.018-3.167.372-4.751.354-1.583.93-2.991,1.727-4.223s1.832-2.217,3.107-2.956s2.78-1.073,4.516-1.003Zm1.54,7.549c.248,0,.319-.238.213-.713s-.283-.853-.531-1.135c-.177-.211-.416-.352-.718-.422-.301-.071-.619-.079-.956-.027-.336.053-.655.168-.956.344s-.522.422-.664.739c-.106.211-.195.439-.266.686-.07.246-.035.422.107.528.035.07.239.105.611.105.371,0,.77-.009,1.195-.026.425-.018.832-.035,1.222-.053.389-.018.637-.026.743-.026Z" clip-rule="evenodd" stroke-linecap="round" stroke-linejoin="round" stroke-miterlimit="1.5"/><path d="M184.827,284.176c.036-1.9.337-3.598.903-5.094.567-1.495,1.346-2.771,2.338-3.827.991-1.055,2.178-1.847,3.559-2.375s2.939-.774,4.675-.739c1.664.07,3.143.554,4.435,1.452c1.293.897,2.382,2.014,3.267,3.352.886,1.337,1.55,2.797,1.993,4.381.442,1.584.628,3.097.557,4.54-.177,3.624-1.177,6.237-3.001,7.838-1.824,1.602-4.524,2.402-8.101,2.402-1.417,0-2.78-.228-4.091-.686-1.31-.457-2.452-1.179-3.426-2.164-.974-.986-1.753-2.226-2.338-3.722-.584-1.495-.841-3.281-.77-5.358Zm7.703-.897c-.142,1.302.106,2.34.744,3.114.637.775,1.39,1.241,2.257,1.399.868.159,1.709-.017,2.524-.528.814-.51,1.31-1.416,1.487-2.718.142-1.302-.106-2.402-.744-3.299-.637-.898-1.39-1.469-2.257-1.716-.868-.246-1.709-.088-2.524.475-.814.563-1.31,1.654-1.487,3.273Z" clip-rule="evenodd" stroke-linecap="round" stroke-linejoin="round" stroke-miterlimit="1.5"/><path d="M217.604,271.613c.46.106.788.29.983.554.194.264.363.502.504.713.142.211.31.378.505.501.195.124.558.115,1.089-.026c2.019-.563,3.843-.633,5.472-.211s3.01,1.188,4.143,2.296c1.134,1.109,2.01,2.464,2.63,4.065s.93,3.281.93,5.041c0,1.443-.31,2.815-.93,4.117s-1.461,2.455-2.523,3.458c-1.063,1.003-2.294,1.812-3.692,2.428-1.399.616-2.896.941-4.489.977-.602,0-1.072.105-1.408.316-.337.211-.593.493-.77.845s-.284.757-.319,1.214c-.036.458-.036.933,0,1.425l-.106,6.282c0,1.056-.239,1.9-.718,2.534-.478.633-1.053,1.055-1.726,1.267-.673.211-1.372.211-2.098,0-.726-.212-1.355-.616-1.886-1.215-.815-.914-1.302-2.085-1.461-3.51s-.239-3.193-.239-5.305c0-3.273.026-6.44.08-9.502.053-3.061.115-6.228.185-9.501v-2.481c0-.845.027-1.637.08-2.376s.142-1.39.266-1.953.327-.985.611-1.267c.495-.492,1.186-.765,2.071-.818.886-.053,1.824-.009,2.816.132Zm2.125,15.783c.035.212.398.308,1.089.291.69-.018,1.452-.15,2.284-.396s1.576-.598,2.231-1.056c.655-.457.983-1.02.983-1.689c0-.985-.239-1.76-.717-2.323s-1.036-.967-1.673-1.214c-.638-.246-1.275-.378-1.913-.396-.637-.017-1.115-.009-1.434.027-.319.07-.549.413-.691,1.029-.141.616-.23,1.311-.265,2.085-.036.774-.036,1.513,0,2.217.035.704.07,1.179.106,1.425Z" clip-rule="evenodd" stroke-linecap="round" stroke-linejoin="round" stroke-miterlimit="1.5"/><path d="M239.119,274.464c.071-2.112.106-4.056.106-5.833c0-1.778.071-3.563.212-5.358.107-1.373.532-2.411,1.275-3.115.744-.703,1.559-1.082,2.444-1.135.885-.052,1.7.194,2.444.739.743.546,1.168,1.347,1.275,2.402.141,1.865.23,3.493.265,4.883.036,1.39.071,2.824.106,4.302.036,1.865.054,3.572.054,5.121v4.592c0,1.513-.027,3.053-.08,4.619s-.115,3.299-.186,5.199c-.035.599-.115,1.206-.239,1.822-.124.615-.345,1.178-.664,1.689-.319.51-.762.923-1.328,1.24-.567.317-1.275.475-2.125.475s-1.514-.431-1.992-1.293-.824-1.883-1.036-3.062c-.213-1.179-.337-2.375-.372-3.589s-.053-2.173-.053-2.877c0-.669-.009-1.434-.027-2.296-.017-.862-.035-1.769-.053-2.719-.017-.95-.035-1.918-.053-2.903s-.009-1.953.027-2.903Z" clip-rule="evenodd" stroke-linecap="round" stroke-linejoin="round" stroke-miterlimit="1.5"/><path d="M261.749,272.352c1.417,0,2.656.238,3.719.713c1.062.475,1.956,1.082,2.682,1.821s1.275,1.566,1.647,2.481.576,1.812.611,2.692-.097,1.68-.398,2.402c-.301.721-.771,1.293-1.408,1.715-.213.141-.531.238-.956.291s-.895.088-1.408.105c-.514.018-1.045.018-1.594,0-.549-.017-1.053-.026-1.514-.026-.425,0-.956.018-1.593.053-.638.035-1.346.052-2.125.052-.319,0-.532.185-.638.555-.106.369-.124.853-.053,1.451.071.704.469,1.267,1.195,1.69.726.422,1.514.651,2.364.686.709,0,1.328-.15,1.86-.449.531-.299,1.035-.633,1.514-1.003.478-.369.947-.695,1.407-.976.461-.282.974-.405,1.541-.37c1.133.106,1.868.563,2.204,1.373.337.809.399,1.724.186,2.744-.177.775-.522,1.452-1.035,2.033-.514.58-1.116,1.082-1.807,1.504-.69.423-1.425.783-2.204,1.082s-1.523.537-2.231.713c-1.807.493-3.409.528-4.808.106-1.399-.423-2.594-1.144-3.586-2.165-.991-1.02-1.762-2.27-2.311-3.748s-.876-3.008-.982-4.592c-.107-1.584.017-3.167.371-4.751.355-1.583.93-2.991,1.727-4.223s1.833-2.217,3.108-2.956s2.78-1.073,4.515-1.003Zm1.541,7.549c.247,0,.318-.238.212-.713s-.283-.853-.531-1.135c-.177-.211-.416-.352-.717-.422-.301-.071-.62-.079-.957-.027-.336.053-.655.168-.956.344s-.522.422-.664.739c-.106.211-.195.439-.265.686-.071.246-.036.422.106.528.035.07.239.105.611.105s.77-.009,1.195-.026c.425-.018.832-.035,1.222-.053.389-.018.637-.026.744-.026Z" clip-rule="evenodd" stroke-linecap="round" stroke-linejoin="round" stroke-miterlimit="1.5"/></g></g><g id="euAy769YGeS32_tr" transform="translate(147.57061,125.975391) rotate(-21.088051)"><path d="M160.867,116.695c-.834,1.212-1.933,2.425-3.297,3.637-1.364,1.213-2.311,2.539-2.842,3.979-.379,1.137-.663,2.103-.853,2.899-.189.796-.322,1.592-.398,2.388-.075.795-.075,1.705,0,2.728.076,1.023.152,2.368.228,4.036.076,1.97-.625,3.467-2.103,4.49s-3.146,1.516-5.002,1.478c-1.857-.038-3.6-.682-5.23-1.933-1.629-1.25-2.52-3.202-2.671-5.854-.076-1.44-.152-2.975-.228-4.604-.075-1.63-.038-3.297.114-5.002.152-1.706.436-3.354.853-4.946.416-1.591,1.08-3.031,1.989-4.32.985-1.364,2.236-2.576,3.752-3.637c1.515-1.061,2.917-2.123,4.206-3.184.834-.682,1.383-1.496,1.648-2.444.266-.947.247-1.762-.057-2.444-.303-.682-.852-1.137-1.648-1.364s-1.838-.038-3.126.568c-1.213.607-2.634,1.232-4.263,1.876-1.63.644-3.221,1.004-4.775,1.08s-2.975-.265-4.263-1.023c-1.289-.758-2.198-2.236-2.729-4.434-.378-1.44-.132-2.993.739-4.661.872-1.667,2.123-3.202,3.752-4.604s3.486-2.577,5.57-3.524c2.085-.947,4.188-1.421,6.31-1.421c3.335-.076,6.461.758,9.379,2.501s5.21,4.055,6.877,6.935c1.668,2.88,2.445,6.138,2.331,9.776s-1.535,7.314-4.263,11.028Zm-12.278,32.627c2.501,0,4.301.814,5.4,2.444c1.099,1.629,1.554,3.429,1.364,5.4-.189,1.97-1.004,3.808-2.444,5.513-1.44,1.706-3.448,2.634-6.025,2.785-1.667.152-3.089-.17-4.263-.966-1.175-.796-2.065-1.781-2.672-2.956-.606-1.174-.928-2.482-.966-3.922s.284-2.785.966-4.035c.682-1.251,1.724-2.274,3.126-3.07c1.403-.796,3.24-1.193,5.514-1.193Z" transform="translate(-147.57061,-125.975391)" clip-rule="evenodd" stroke="#000" stroke-linejoin="round" stroke-miterlimit="2"/></g></g></svg>