<svg id="eH7nPCKs9ia1" xmlns="http://www.w3.org/2000/svg" xmlns:xlink="http://www.w3.org/1999/xlink" viewBox="0 0 301 305" shape-rendering="geometricPrecision" text-rendering="geometricPrecision"><style><![CDATA[#eH7nPCKs9ia14_ts {animation: eH7nPCKs9ia14_ts__ts 500ms linear infinite alternate-reverse forwards}@keyframes eH7nPCKs9ia14_ts__ts { 0% {transform: translate(1779.22998px,2083.22998px) scale(1,1);animation-timing-function: cubic-bezier(0.42,0,0.58,1)} 100% {transform: translate(1779.22998px,2083.22998px) scale(1.527203,1.398919)}} #eH7nPCKs9ia31_to {animation: eH7nPCKs9ia31_to__to 500ms linear infinite alternate-reverse forwards}@keyframes eH7nPCKs9ia31_to__to { 0% {transform: translate(95.2066px,82.789px);animation-timing-function: cubic-bezier(0.42,0,0.58,1)} 100% {transform: translate(94.532973px,86.789px)}} #eH7nPCKs9ia37_to {animation: eH7nPCKs9ia37_to__to 500ms linear infinite alternate-reverse forwards}@keyframes eH7nPCKs9ia37_to__to { 0% {transform: translate(1836.760009px,2278.647827px);animation-timing-function: cubic-bezier(0.42,0,0.58,1)} 100% {transform: translate(1839.966567px,2284.099241px)}} #eH7nPCKs9ia41_to {animation: eH7nPCKs9ia41_to__to 500ms linear infinite alternate-reverse forwards}@keyframes eH7nPCKs9ia41_to__to { 0% {transform: translate(1942.76178px,2278.902466px);animation-timing-function: cubic-bezier(0.42,0,0.58,1)} 100% {transform: translate(1943.80385px,2283.792666px)}}]]></style><g transform="translate(-1681.15-2241.92)" clip-rule="evenodd"><g transform="matrix(1.4845 0 0 1-.005292 0)" clip-rule="evenodd"><g transform="translate(32.2225 280.504)" clip-rule="evenodd"><g transform="matrix(.673629 0 0 1 0.003565 0)" clip-rule="evenodd"><path d="M1681.13,2262.32c0,0-20.73-2.78-31.13-7.32s-20.9-60.72,2-37.93c9.93-14.47,35.59-39.8,42.49-68.63c6.89-28.82,30.61-60.37,68.9-54.44-5.99-13.8-16.59-47.61,39.61-34c14.69,18.38,19.35,29.35,10,41-17.27,7.11-6.6.86-18,7-2.66,17.27-1.69,42.69-37,69.93-38.86,47.51-55.89,68.07-55.89,68.07s-3.35,18.25-20.98,16.32Z" clip-rule="evenodd" fill="#fff" fill-rule="evenodd" stroke-linecap="round" stroke-linejoin="round" stroke-miterlimit="1.5"/></g><g transform="matrix(.673629 0 0 1 0.003565 0)" clip-rule="evenodd"><path d="M1788.84,2052.1c-4.73.66-11.43,1.21-17.46,2.8-4.5,1.19-8.64,2.98-11.6,5.63-11,9.87-8.58,24.87.96,34.53c11.8,11.97,29.17,16.74,45.57,15.34c4.75-.41,8.31-3.48,10.68-7.84c2.98-5.48,4-13.01,3.79-17.65-.75-16.18-12.53-35.55-31.94-32.81v0Zm.98,6.93c7.26-1.03,12.97,2.23,16.98,7.19c4.29,5.31,6.69,12.53,6.98,19.01.17,3.67-.58,9.65-2.94,13.99-1.18,2.18-2.75,4-5.12,4.2-14.38,1.23-29.65-2.79-40-13.27-6.74-6.84-9.05-17.42-1.26-24.41c2.2-1.98,5.35-3.19,8.71-4.07c5.75-1.52,12.14-2.01,16.65-2.64v0Z" clip-rule="evenodd" fill-rule="evenodd" stroke-linecap="round" stroke-linejoin="round" stroke-miterlimit="1.5"/></g><g transform="matrix(.673629 0 0 1 0.003565 0)" clip-rule="evenodd"><circle r="4" transform="translate(1800.8 2076)" clip-rule="evenodd" fill-rule="evenodd" stroke-linecap="round" stroke-linejoin="round" stroke-miterlimit="1.5"/></g><g transform="matrix(.673629 0 0 1-13.3912-9.31067)" clip-rule="evenodd"><circle r="4" transform="translate(1800.8 2076)" clip-rule="evenodd" fill-rule="evenodd" stroke-linecap="round" stroke-linejoin="round" stroke-miterlimit="1.5"/></g><g transform="matrix(.673629 0 0 1 0.003565 0)" clip-rule="evenodd"><g id="eH7nPCKs9ia14_ts" transform="translate(1779.22998,2083.22998) scale(1.527203,1.398919)"><circle r="4.229" transform="translate(0.00002,0.00002)" clip-rule="evenodd" fill-rule="evenodd" stroke="#000" stroke-width="7" stroke-linecap="round" stroke-linejoin="round" stroke-miterlimit="1.5"/></g></g><g transform="matrix(.673629 0 0 1 0.003565 0)" clip-rule="evenodd"><path d="M1651.38,2211.09c-.65-.17-1.31-.42-1.98-.66-1.74-.62-3.49-1.25-5.15-1.47-3.16-.42-6.1.29-8.48,3.88-3.22,4.86-2.98,10.52-.92,16.27c2.55,7.06,7.99,14.28,10.51,19.59.49,1.02,2.08,6.25,3.54,8.62.89,1.45,1.99,2.24,2.81,2.54c3.32,1.19,6.94.76,10.31,1.64c8.72,2.28,16.19,5.23,25.46,4.04c1.75-.23,7.3-1.44,10.51-3.26c2.52-1.43,3.78-3.46,3.84-5.27.53-15.08-12.56-34.06-24.66-42.1-3.54-2.35-8.97-4.57-13.57-4.59-1.27-.01-2.48.15-3.6.47.11-.17.2-.31.26-.4c5.25-7.29,12.02-13.34,17.36-20.57c8.16-11.07,12.37-24.67,17.47-37.27c4.33-10.69,10.8-21.06,17.31-30.57c5.85-8.54,12.72-16.74,22.44-20.86c9.21-3.9,18.11-3.35,27.91-3.64c1.93-.06,3.45-1.67,3.39-3.6s-1.67-3.45-3.6-3.4c-10.69.32-20.38-.07-30.43,4.2-10.97,4.65-18.88,13.71-25.48,23.34-6.79,9.92-13.51,20.75-18.03,31.91-4.88,12.06-8.8,25.14-16.61,35.73-5.36,7.26-12.14,13.33-17.41,20.64-.37.52-2.3,3.42-3.2,4.79Zm43.47,44.87c-.04-12.83-11.36-28.44-21.56-35.22-2.08-1.39-5.03-2.75-7.87-3.25-1.79-.31-3.55-.42-4.68.67-.74.72-1.06,1.89-1.13,3.53-.07,1.63-.03,3.36.39,4.95c3.17,11.95,11.25,20.79,19.7,29.44.72.73,1.05,1.7.99,2.66c1.89.14,3.84.12,5.89-.14c1.16-.15,4.48-.84,6.97-1.93.42-.18.96-.5,1.3-.71Zm-41.8-37.72c-.17.02-.33.03-.47.03-2.21-.02-4.64-.95-7-1.76-1.45-.51-2.93-1.38-3.97.2-2.59,3.9-1.03,8.58,1.16,13.19c2.76,5.78,6.84,11.44,8.91,15.79.33.69,1.15,3.29,2.09,5.63.3.74.78,1.69,1.03,2.18c2.93.83,6.06.46,8.99,1.23c2.34.61,4.58,1.3,6.79,1.93-7.66-8.24-14.38-17.04-17.34-28.23-.6-2.26-.73-4.73-.62-7.05.05-1.16.2-2.2.43-3.14Z" clip-rule="evenodd" fill-rule="evenodd" stroke-linecap="round" stroke-linejoin="round" stroke-miterlimit="1.5"/></g><g transform="matrix(.673629 0 0 1 0.003565 0)" clip-rule="evenodd"><path d="M1703.38,2249.44c6.76-9.37,15.57-17.03,22.43-26.32c8.63-11.7,15.84-23.54,25.91-34.19c12.17-12.87,28.44-24.74,37.14-40.36c6-10.77,8-26.84,8.23-38.98.03-1.93-1.51-3.53-3.44-3.56-1.93-.04-3.53,1.5-3.56,3.43-.21,11.11-1.85,25.85-7.34,35.71-8.43,15.12-24.33,26.49-36.12,38.95-10.27,10.86-17.65,22.91-26.46,34.85-6.86,9.31-15.69,16.98-22.47,26.38-1.13,1.56-.77,3.75.79,4.88c1.57,1.13,3.76.78,4.89-.79Z" clip-rule="evenodd" fill-rule="evenodd" stroke-linecap="round" stroke-linejoin="round" stroke-miterlimit="1.5"/></g><g transform="matrix(.673629 0 0 1 0.003565 0)" clip-rule="evenodd"><path d="M1683.88,2219.24c3.58-4.51,7.61-8.81,10.15-14.03c5.57-11.46,6.15-25.66,7.43-38.22.19-1.92-1.21-3.64-3.13-3.83-1.92-.2-3.64,1.2-3.84,3.12-1.2,11.77-1.54,25.13-6.76,35.87-2.31,4.76-6.07,8.63-9.34,12.74-1.2,1.52-.95,3.72.57,4.92c1.51,1.2,3.71.95,4.92-.57Z" clip-rule="evenodd" fill-rule="evenodd" stroke-linecap="round" stroke-linejoin="round" stroke-miterlimit="1.5"/></g><g transform="matrix(.673629 0 0 1 0.003565 0)" clip-rule="evenodd"><path d="M1687.38,2165.29c20,3.34,37.17,14.31,48.86,30.75c1.12,1.57,3.31,1.94,4.88.82s1.94-3.3.82-4.88c-12.78-17.96-31.55-29.95-53.4-33.59-1.91-.32-3.71.97-4.03,2.87-.32,1.91.97,3.71,2.87,4.03Z" clip-rule="evenodd" fill-rule="evenodd" stroke-linecap="round" stroke-linejoin="round" stroke-miterlimit="1.5"/></g><g transform="matrix(.673629 0 0 1 0.003565 0)" clip-rule="evenodd"><path d="M1694.7,2152.57c4.81-.3,10.08-1.24,14.88-.12c18.99,4.42,25.53,18.93,33.68,35c.87,1.72,2.98,2.41,4.7,1.54c1.72-.88,2.41-2.99,1.54-4.71-9.13-18.01-17.05-33.7-38.33-38.65-5.46-1.27-11.44-.38-16.9-.05-1.93.12-3.4,1.78-3.28,3.71s1.78,3.39,3.71,3.28Z" clip-rule="evenodd" fill-rule="evenodd" stroke-linecap="round" stroke-linejoin="round" stroke-miterlimit="1.5"/></g><g transform="matrix(.673629 0 0 1 0.003565 0)" clip-rule="evenodd"><path d="M1702.05,2140.23c22.43.37,45.65,10.9,58.43,30.07c1.07,1.6,3.25,2.04,4.86.97c1.6-1.07,2.04-3.25.97-4.86-14.05-21.06-39.5-32.77-64.15-33.17-1.93-.04-3.52,1.51-3.55,3.44s1.51,3.52,3.44,3.55Z" clip-rule="evenodd" fill-rule="evenodd" stroke-linecap="round" stroke-linejoin="round" stroke-miterlimit="1.5"/></g><g transform="matrix(.673629 0 0 1 0.003565 0)" clip-rule="evenodd"><path d="M1714.53,2120.7c21.96,4.17,43.27,18.5,58.21,35.01c1.29,1.44,3.51,1.55,4.94.25c1.43-1.29,1.54-3.51.25-4.94-15.92-17.6-38.69-32.76-62.09-37.2-1.9-.36-3.73.89-4.09,2.78-.37,1.9.88,3.74,2.78,4.1Z" clip-rule="evenodd" fill-rule="evenodd" stroke-linecap="round" stroke-linejoin="round" stroke-miterlimit="1.5"/></g><g transform="matrix(.673629 0 0 1 0.003565 0)" clip-rule="evenodd"><path d="M1730.03,2104.81c19.98,4.06,41.17,15.73,53.84,32.44c1.17,1.54,3.37,1.84,4.91.67c1.54-1.16,1.84-3.36.67-4.9-13.67-18.03-36.48-30.69-58.02-35.07-1.89-.38-3.74.84-4.13,2.73-.38,1.9.84,3.75,2.73,4.13Z" clip-rule="evenodd" fill-rule="evenodd" stroke-linecap="round" stroke-linejoin="round" stroke-miterlimit="1.5"/></g><g id="eH7nPCKs9ia31_to" transform="translate(94.532973,86.789)"><g transform="translate(0,0)" clip-rule="evenodd"><g transform="matrix(.673629 0 0 1 0.003565 0)" clip-rule="evenodd"><path d="M1688,1940c0,0-4.86,18.21-11.63,23" clip-rule="evenodd" fill="none" fill-rule="evenodd" stroke="#000" stroke-width="7" stroke-linecap="round" stroke-linejoin="round" stroke-miterlimit="1.5"/></g><g transform="matrix(.673629 0 0 1 0.003565 0)" clip-rule="evenodd"><path d="M1674,1948.97l2.37,14.03l15.44-4" clip-rule="evenodd" fill="none" fill-rule="evenodd" stroke="#000" stroke-width="7" stroke-linecap="round" stroke-linejoin="round" stroke-miterlimit="1.5"/></g></g></g><g transform="matrix(.658837 0.208414-.140394 0.978041 305.366-630.257)" clip-rule="evenodd"><g id="eH7nPCKs9ia37_to" transform="translate(1839.966567,2284.099241)"><g transform="translate(-1836.760009,-2278.647827)"><path d="M1808.19,2267.48c.03-.6.15-1.12.36-1.56.2-.44.46-.81.78-1.11.31-.3.66-.53,1.04-.68.39-.15.78-.22,1.19-.22c1.04,0,1.8.28,2.28.84s.7,1.61.64,3.14c-.03.82-.06,1.5-.08,2.04-.03.53-.05,1.02-.06,1.47-.02.46-.03.92-.04,1.38-.02.47-.02,1.04-.02,1.73c0,.27.11.44.34.51.24.07.53.1.89.1.35,0,.74-.01,1.17-.04.42-.03.84-.03,1.25,0c1.04.11,1.99.43,2.86.95.86.52,1.6,1.17,2.21,1.95.62.78,1.11,1.65,1.46,2.61.36.95.55,1.94.58,2.95.02,1.1-.06,2.19-.27,3.29-.21,1.09-.6,2.07-1.17,2.94-.58.86-1.36,1.56-2.34,2.09-.99.53-2.26.79-3.82.76-.47,0-.89-.08-1.28-.25-.38-.16-.72-.31-1.02-.45s-.56-.23-.78-.29c-.22-.05-.39.02-.5.21-.16.3-.56.54-1.19.72s-1.28.22-1.95.14-1.27-.32-1.79-.72c-.52-.39-.78-1.03-.78-1.91v-19.67c0-1.29.02-2.26.04-2.92Zm6.54,13.64c-.09.03-.15.25-.21.66-.05.41-.1.87-.12,1.37-.03.51-.04.97-.02,1.4.01.42.06.65.14.68.55.27,1.11.46,1.68.57.58.11,1.11.1,1.59-.02s.87-.36,1.17-.72c.3-.35.45-.86.45-1.52c0-.52-.15-.96-.45-1.33s-.68-.66-1.13-.86c-.45-.21-.96-.33-1.52-.38-.56-.04-1.09.01-1.58.15Z" clip-rule="evenodd" stroke-linecap="round" stroke-linejoin="round" stroke-miterlimit="1.5"/><path d="M1845,2281.12c.3,1.59.54,3.25.72,4.99s.17,3.31-.02,4.7c-.06.5-.23.92-.52,1.28-.28.35-.63.61-1.04.78-.6.22-1.23.39-1.87.51-.65.12-1.28.05-1.91-.23-.17-.08-.31-.19-.43-.35-.13-.14-.24-.29-.35-.43-.11-.13-.23-.24-.35-.32-.12-.09-.28-.09-.47,0-1.43.52-2.75.71-3.97.59s-2.28-.51-3.18-1.15c-.91-.64-1.64-1.53-2.2-2.65s-.89-2.42-1.01-3.9c-.1-1.45.07-2.84.52-4.17s1.12-2.49,2.01-3.49s1.96-1.79,3.2-2.36c1.25-.58,2.63-.84,4.13-.78c1.04.05,1.96.27,2.74.65.78.39,1.43.9,1.97,1.54.53.65.96,1.38,1.29,2.2s.58,1.69.74,2.59Zm-5.79,1.68c-.06-.3-.11-.63-.17-.98-.05-.36-.15-.69-.3-.99s-.35-.54-.58-.72-.55-.25-.97-.22c-.38.05-.78.2-1.19.45s-.77.57-1.08.98c-.32.42-.56.89-.72,1.42-.17.54-.18,1.09-.04,1.67.11.49.33.89.67,1.19.35.3.75.51,1.22.63.46.13.97.18,1.52.17.54-.02,1.06-.09,1.56-.23.11-.03.18-.18.22-.47s.06-.61.04-.97c-.01-.35-.04-.72-.08-1.09-.04-.36-.07-.65-.1-.84Z" clip-rule="evenodd" stroke-linecap="round" stroke-linejoin="round" stroke-miterlimit="1.5"/><path d="M1859.79,2265.47c.38-.66.87-1.11,1.48-1.36.6-.24,1.19-.31,1.78-.2s1.1.39,1.54.84.67,1.05.7,1.79c.03.52.05,1.2.06,2.05.02.85.02,1.77.02,2.77v3.15c0,1.09,0,2.14-.02,3.14-.01,1-.02,1.91-.04,2.73-.01.82-.02,1.48-.02,1.97-.03.74-.03,1.61-.02,2.61.02,1,0,1.98-.04,2.94s-.14,1.84-.29,2.65c-.15.8-.39,1.4-.72,1.78-.43.5-.88.78-1.33.87-.45.08-1.03.01-1.75-.21-.24-.08-.44-.18-.59-.29s-.3-.2-.45-.29c-.16-.08-.31-.13-.48-.16-.16-.03-.37,0-.61.08-.96.33-1.98.43-3.06.29s-2.09-.54-3.02-1.21-1.71-1.61-2.34-2.81c-.63-1.21-.96-2.72-.99-4.52-.03-.99.1-2.06.39-3.23.29-1.16.8-2.24,1.54-3.24s1.73-1.81,2.98-2.43c1.25-.61,2.81-.87,4.7-.76.17.03.31-.06.43-.28.13-.22.19-.48.19-.78.03-.69.01-1.43-.06-2.24s-.13-1.59-.19-2.32c-.05-.74-.07-1.41-.06-2.02.01-.6.1-1.04.27-1.31Zm-.29,20.46c.08,0,.14-.29.18-.85.05-.56.06-1.17.05-1.85-.02-.67-.05-1.28-.11-1.82-.05-.55-.13-.82-.24-.82-.33.02-.72.08-1.15.16-.44.08-.86.23-1.26.45-.39.22-.74.53-1.02.92-.29.4-.43.92-.43,1.55c0,.52.13.93.41,1.23.27.3.61.53,1.02.68s.85.24,1.3.28.87.07,1.25.07Z" clip-rule="evenodd" stroke-linecap="round" stroke-linejoin="round" stroke-miterlimit="1.5"/></g></g><g id="eH7nPCKs9ia41_to" transform="translate(1943.80385,2283.792666)"><g transform="translate(-1942.76178,-2278.902466)"><path d="M1897,2274.88c.66.21,1.27.52,1.83.92s.91.95,1.05,1.66c.03.25-.01.54-.1.89-.1.34-.26.66-.48.96s-.5.54-.86.72c-.35.18-.78.21-1.27.1-.5-.11-1.06-.2-1.71-.26-.64-.07-1.26-.04-1.85.08-.58.12-1.08.4-1.48.84-.39.44-.59,1.11-.59,2.01c0,1.02.15,1.81.45,2.38.3.58.69.98,1.15,1.2.47.22.99.27,1.58.16s1.16-.33,1.71-.66c.82-.49,1.52-.69,2.09-.59.58.09,1.02.37,1.32.82s.44,1.01.43,1.66c-.01.66-.19,1.3-.51,1.93-.36.66-.87,1.21-1.54,1.65-.68.43-1.42.76-2.22.98-.81.22-1.63.34-2.45.35-.82.02-1.57-.06-2.26-.22-.87-.25-1.63-.62-2.28-1.11-.64-.5-1.17-1.07-1.6-1.73-.42-.65-.75-1.39-.96-2.2-.22-.8-.37-1.63-.46-2.48-.05-.6-.04-1.35.03-2.24.06-.89.24-1.8.51-2.73s.66-1.83,1.15-2.69s1.16-1.56,1.99-2.1c.84-.53,1.86-.85,3.06-.96c1.21-.11,2.63.11,4.27.66Z" clip-rule="evenodd" stroke-linecap="round" stroke-linejoin="round" stroke-miterlimit="1.5"/><path d="M1911.05,2281.57c.03.71.06,1.48.08,2.3.03.82.03,1.64,0,2.47-.02.82-.09,1.63-.2,2.44s-.26,1.55-.45,2.24c-.14.49-.38.87-.72,1.13-.35.26-.72.43-1.13.51s-.84.1-1.28.06c-.43-.04-.82-.11-1.15-.22-.32-.11-.61-.41-.86-.89-.24-.47-.44-1.02-.57-1.62-.14-.6-.25-1.2-.33-1.81-.08-.6-.13-1.09-.13-1.48-.02-.49-.05-1.17-.08-2.03s-.03-1.78,0-2.75.08-1.94.17-2.9c.08-.95.23-1.79.45-2.5.22-.77.58-1.34,1.09-1.73.5-.38,1.04-.57,1.6-.55.56.01,1.1.22,1.62.62.52.39.92.99,1.19,1.78.22.69.38,1.49.48,2.41.09.91.17,1.75.22,2.52Zm-.86-13.14c.03.68-.1,1.26-.39,1.72-.29.47-.66.82-1.11,1.07s-.95.38-1.48.39-1.03-.08-1.48-.29c-.45-.2-.82-.52-1.11-.96-.28-.44-.42-1-.39-1.69-.03-.65.11-1.21.39-1.66.29-.45.65-.8,1.09-1.05.44-.24.91-.38,1.42-.41.5-.03.98.06,1.42.27.43.2.81.53,1.12.96.32.44.49.99.52,1.65Z" clip-rule="evenodd" stroke-linecap="round" stroke-linejoin="round" stroke-miterlimit="1.5"/><path d="M1925.59,2292.66c-.96.08-1.87.05-2.75-.1s-1.55-.45-2.01-.88c-.44-.39-.78-.85-1.03-1.38s-.44-1.12-.57-1.77c-.14-.64-.24-1.32-.29-2.03-.06-.71-.08-1.44-.08-2.18-.03-1.01-.07-2.07-.13-3.18-.05-1.11-.11-2.18-.16-3.23-.03-.43-.14-.75-.33-.96s-.42-.35-.7-.43c-.27-.08-.55-.13-.84-.13s-.54-.04-.76-.12c-.33-.11-.58-.39-.76-.84s-.25-.94-.23-1.46c.03-.52.15-1,.37-1.46.22-.45.55-.73.99-.84.19-.03.42-.05.7-.08.27-.03.54-.06.8-.1s.48-.13.66-.25c.17-.12.26-.31.26-.56c0-.76.02-1.48.04-2.15.03-.67.14-1.25.33-1.75.19-.49.5-.89.93-1.19.42-.3,1.03-.48,1.82-.53.52-.03.96.08,1.3.33.34.24.62.56.84.94.22.39.38.81.47,1.28.1.46.15.91.15,1.35c0,.55.03.99.1,1.32.07.32.2.57.39.73.19.17.44.27.74.31s.68.06,1.15.06c.49,0,.85.26,1.07.78s.31,1.11.26,1.75c-.04.64-.21,1.25-.53,1.81-.31.56-.76.85-1.34.88-.46.03-.83.08-1.1.14-.28.07-.49.19-.64.35-.15.17-.25.39-.31.68-.05.29-.08.68-.08,1.17v1.34c0,.48.01.96.02,1.46.01.49.05.97.1,1.45.06.48.14.91.25,1.3.14.46.29.85.45,1.15.17.3.36.48.58.53.21.06.47-.01.76-.2.28-.2.62-.55,1-1.07.5-.66,1.05-.97,1.66-.95.62.03,1.19.23,1.71.6s.93.85,1.23,1.44.36,1.1.17,1.54c-.22.49-.5,1.02-.83,1.6-.32.57-.76,1.11-1.29,1.6s-1.17.92-1.91,1.27c-.74.36-1.61.58-2.63.66Z" clip-rule="evenodd" stroke-linecap="round" stroke-linejoin="round" stroke-miterlimit="1.5"/><path d="M1943.17,2281.57c.03.71.06,1.48.09,2.3.02.82.02,1.64,0,2.47-.03.82-.1,1.63-.21,2.44s-.26,1.55-.45,2.24c-.14.49-.38.87-.72,1.13s-.72.43-1.13.51-.84.1-1.27.06c-.44-.04-.83-.11-1.15-.22-.33-.11-.62-.41-.87-.89-.24-.47-.43-1.02-.57-1.62s-.25-1.2-.33-1.81c-.08-.6-.12-1.09-.12-1.48-.03-.49-.06-1.17-.09-2.03-.02-.86-.02-1.78,0-2.75.03-.97.09-1.94.17-2.9.08-.95.23-1.79.45-2.5.22-.77.58-1.34,1.09-1.73.51-.38,1.04-.57,1.6-.55.56.01,1.1.22,1.62.62.52.39.92.99,1.2,1.78.21.69.37,1.49.47,2.41.09.91.17,1.75.22,2.52Zm-.86-13.14c.03.68-.1,1.26-.39,1.72-.29.47-.66.82-1.11,1.07s-.94.38-1.48.39c-.53.01-1.02-.08-1.48-.29-.45-.2-.82-.52-1.11-.96-.28-.44-.41-1-.39-1.69-.02-.65.11-1.21.39-1.66.29-.45.65-.8,1.09-1.05.44-.24.91-.38,1.42-.41s.98.06,1.42.27c.44.2.81.53,1.13.96.31.44.48.99.51,1.65Z" clip-rule="evenodd" stroke-linecap="round" stroke-linejoin="round" stroke-miterlimit="1.5"/><path d="M1962.23,2290.28c0,.77-.35,1.32-1.07,1.66-.71.34-1.55.57-2.52.68s-1.97.15-3,.12c-1.03-.02-1.86-.04-2.49-.04h-1.06c-.41,0-.82-.01-1.24-.04-.41-.03-.8-.09-1.17-.18-.37-.1-.69-.26-.96-.48-.49-.38-.77-.94-.82-1.68-.06-.74.08-1.38.41-1.93.19-.33.43-.69.72-1.09.28-.4.57-.8.86-1.21s.57-.8.84-1.17c.28-.37.49-.69.66-.97.11-.16.32-.46.64-.9.31-.44.62-.9.92-1.38s.52-.9.66-1.27c.13-.37.06-.55-.21-.55-.14,0-.32-.01-.55-.02-.24-.02-.49-.03-.76-.03-.28,0-.54,0-.8-.02-.26-.01-.48-.02-.64-.02-.6,0-1.11-.13-1.52-.41-.41-.27-.73-.61-.95-1.02-.21-.42-.33-.86-.34-1.34-.02-.48.06-.92.24-1.31.18-.4.47-.74.89-1.01.41-.27.93-.41,1.56-.41h2.28c.8,0,1.61-.01,2.42-.02.81-.02,1.59-.02,2.36-.02h2.05c.44,0,.83.14,1.18.43.34.29.58.66.74,1.13.14.46.18.98.1,1.56-.08.57-.33,1.16-.74,1.77-.44.63-.84,1.23-1.21,1.8-.37.58-.78,1.21-1.22,1.89-.19.3-.45.69-.8,1.15-.34.47-.66.93-.96,1.38s-.52.84-.66,1.17-.09.49.12.49c.39.03.92.02,1.61-.02.68-.04,1.35.02,2.01.17s1.22.46,1.7.92c.48.47.72,1.21.72,2.22Z" clip-rule="evenodd" stroke-linecap="round" stroke-linejoin="round" stroke-miterlimit="1.5"/><path d="M1972.71,2274.22c1.09,0,2.05.18,2.87.55s1.52.85,2.08,1.42.98,1.22,1.27,1.93.45,1.41.47,2.1c.03.68-.07,1.3-.31,1.86-.23.57-.59,1.01-1.08,1.34-.17.11-.41.18-.74.22-.33.05-.69.07-1.09.09-.4.01-.81.01-1.24,0-.42-.02-.81-.02-1.16-.02-.33,0-.74.01-1.24.04-.49.03-1.04.04-1.64.04-.25,0-.41.14-.49.43-.09.29-.1.66-.04,1.13.05.55.36.99.92,1.31.56.33,1.17.51,1.83.54.54,0,1.02-.12,1.44-.35.41-.23.8-.49,1.17-.78s.73-.54,1.08-.76c.36-.22.76-.32,1.2-.29.87.08,1.44.44,1.7,1.07s.31,1.34.14,2.13c-.13.61-.4,1.14-.8,1.59-.39.45-.86.84-1.39,1.17-.54.33-1.11.61-1.71.84s-1.18.42-1.72.55c-1.4.39-2.64.41-3.72.09-1.08-.33-2.01-.89-2.77-1.69-.77-.79-1.37-1.76-1.79-2.91-.42-1.16-.68-2.35-.76-3.58s.01-2.46.29-3.69c.27-1.24.72-2.33,1.33-3.29.62-.96,1.42-1.73,2.41-2.3.98-.58,2.15-.84,3.49-.78Zm1.19,5.87c.19,0,.24-.18.16-.55s-.22-.67-.41-.89c-.13-.16-.32-.27-.55-.32-.24-.06-.48-.07-.74-.03-.26.05-.51.13-.74.27s-.41.33-.51.58c-.09.16-.16.34-.21.53s-.03.33.08.41c.03.06.19.08.47.08.29,0,.6,0,.93-.02.33-.01.64-.02.94-.04.3-.01.5-.02.58-.02Z" clip-rule="evenodd" stroke-linecap="round" stroke-linejoin="round" stroke-miterlimit="1.5"/><path d="M1997.56,2276.03c.66.65,1.12,1.57,1.4,2.75.27,1.17.45,2.41.53,3.71.08,1.31.1,2.58.04,3.83-.05,1.24-.08,2.26-.08,3.06c0,1.01-.28,1.8-.82,2.36-.55.56-1.15.86-1.79.9s-1.23-.2-1.77-.72c-.53-.52-.78-1.37-.76-2.54c0-.55.02-1.29.04-2.22.03-.93,0-1.88-.08-2.84s-.24-1.85-.49-2.67-.63-1.38-1.15-1.68c-.3-.17-.62-.28-.97-.35-.34-.07-.65-.06-.94.02s-.54.24-.74.47c-.21.24-.31.54-.31.93c0,.82-.01,1.71-.04,2.67-.03.95-.05,1.86-.08,2.71s-.06,1.59-.11,2.24c-.04.64-.06,1.07-.06,1.29-.02.85-.34,1.51-.96,1.97-.62.47-1.29.71-2.01.72-.73.02-1.39-.22-1.98-.7-.58-.48-.86-1.22-.84-2.24.06-1.86.05-3.81-.02-5.85s-.07-3.96-.02-5.77c.03-.63.08-1.23.17-1.81.08-.57.21-1.08.39-1.52.17-.44.41-.79.69-1.07.29-.27.65-.42,1.09-.45.39-.03.84.02,1.38.15.53.12.98.52,1.33,1.21.17.33.37.48.62.47s.56-.1.94-.25c.39-.15.85-.31,1.38-.49s1.16-.27,1.87-.27c.66,0,1.36.17,2.09.52.74.34,1.43.83,2.06,1.46Z" clip-rule="evenodd" stroke-linecap="round" stroke-linejoin="round" stroke-miterlimit="1.5"/></g></g></g><g transform="translate(-32.2225-280.504)" clip-rule="evenodd"><g transform="matrix(.673629 0 0 1 0.003565 0)" clip-rule="evenodd"><path d="M1765,2474l-6,17-13,8" clip-rule="evenodd" fill="none" fill-rule="evenodd" stroke="#000" stroke-width="7" stroke-linecap="round" stroke-linejoin="round" stroke-miterlimit="1.5"/></g><g transform="matrix(.673629 0 0 1 0.003565 0)" clip-rule="evenodd"><path d="M1724,2482l7-3.06" clip-rule="evenodd" fill="none" fill-rule="evenodd" stroke="#000" stroke-width="7" stroke-linecap="round" stroke-linejoin="round" stroke-miterlimit="1.5"/></g><g transform="matrix(.673629 0 0 1 0.003565 0)" clip-rule="evenodd"><path d="M1858,2460l18-19l16,11.49l15,4.63-11,18.88-14.5,13-12.5-6-4-9-13-7l6-7Z" clip-rule="evenodd" fill="none" fill-rule="evenodd" stroke="#000" stroke-width="7" stroke-linecap="round" stroke-linejoin="round" stroke-miterlimit="1.5"/></g><g transform="matrix(.673629 0 0 1 0.003565 0)" clip-rule="evenodd"><path d="M1723.76,2408l-26.76.9l5-21.61-9-15.33l14,4.32l8.49,3.02l8.13-14.85l7.08,19.15l7.3,8.4-14.24,16Z" clip-rule="evenodd" fill="none" fill-rule="evenodd" stroke="#000" stroke-width="7" stroke-linecap="round" stroke-linejoin="round" stroke-miterlimit="1.5"/></g><g transform="matrix(.673629 0 0 1 0.003565 0)" clip-rule="evenodd"><path d="M1893,2479l-13.5-17" clip-rule="evenodd" fill="none" fill-rule="evenodd" stroke="#000" stroke-width="7" stroke-linecap="round" stroke-linejoin="round" stroke-miterlimit="1.5"/></g><g transform="matrix(.673629 0 0 1 0.003565 0)" clip-rule="evenodd"><path d="M1887.34,2467.65l5.61-3.65" clip-rule="evenodd" fill="none" fill-rule="evenodd" stroke="#000" stroke-width="7" stroke-linecap="round" stroke-linejoin="round" stroke-miterlimit="1.5"/></g><g transform="matrix(.673629 0 0 1 0.003565 0)" clip-rule="evenodd"><path d="M1711,2407.84l4.55-10.84" clip-rule="evenodd" fill="none" fill-rule="evenodd" stroke="#000" stroke-width="7" stroke-linecap="round" stroke-linejoin="round" stroke-miterlimit="1.5"/></g><g transform="matrix(.673629 0 0 1 0.003565 0)" clip-rule="evenodd"><path d="M1738,2391l-10.78.89" clip-rule="evenodd" fill="none" fill-rule="evenodd" stroke="#000" stroke-width="7" stroke-linecap="round" stroke-linejoin="round" stroke-miterlimit="1.5"/></g></g></g></g></g></svg>