<svg id="ePZuMdiyLYV1" xmlns="http://www.w3.org/2000/svg" xmlns:xlink="http://www.w3.org/1999/xlink" viewBox="0 0 266 307" shape-rendering="geometricPrecision" text-rendering="geometricPrecision"><style><![CDATA[#ePZuMdiyLYV15_ts {animation: ePZuMdiyLYV15_ts__ts 500ms linear infinite alternate-reverse forwards}@keyframes ePZuMdiyLYV15_ts__ts { 0% {transform: translate(1779.22998px,2083.22998px) scale(0.569912,0.600699)} 100% {transform: translate(1779.22998px,2083.22998px) scale(1.011415,0.895036)}} #ePZuMdiyLYV37_to {animation: ePZuMdiyLYV37_to__to 500ms linear infinite alternate-reverse forwards}@keyframes ePZuMdiyLYV37_to__to { 0% {transform: translate(1567.785889px,1939.059815px);animation-timing-function: cubic-bezier(0.42,0,0.58,1)} 100% {transform: translate(1568.252361px,1940.459231px)}} #ePZuMdiyLYV46_to {animation: ePZuMdiyLYV46_to__to 500ms linear infinite alternate-reverse forwards}@keyframes ePZuMdiyLYV46_to__to { 0% {transform: translate(1618.616211px,1939.147888px);animation-timing-function: cubic-bezier(0.42,0,0.58,1)} 100% {transform: translate(1617.683267px,1940.547304px)}} #ePZuMdiyLYV59_to {animation: ePZuMdiyLYV59_to__to 500ms linear infinite alternate-reverse forwards}@keyframes ePZuMdiyLYV59_to__to { 0% {transform: translate(1208.757508px,2016.99469px)} 100% {transform: translate(1208.757508px,2013.99469px)}}]]></style><g transform="translate(-1443-1913)" clip-rule="evenodd"><g transform="matrix(1.4845 0 0 1-.005292 0)" clip-rule="evenodd"><g transform="translate(-128.006-46)" clip-rule="evenodd"><g transform="matrix(.673629 0 0 1 0.003565 0)" clip-rule="evenodd"><path d="M1681.13,2262.32c0,0-20.73-2.78-31.13-7.32s-20.9-60.72,2-37.93c9.93-14.47,35.59-39.8,42.49-68.63c6.89-28.82,30.61-60.37,68.9-54.44-5.99-13.8-16.59-47.61,39.61-34c14.69,18.38,19.35,29.35,10,41-17.27,7.11-6.6.86-18,7-2.66,17.27-1.69,42.69-37,69.93-38.86,47.51-55.89,68.07-55.89,68.07s-3.35,18.25-20.98,16.32Z" clip-rule="evenodd" fill="#fff" fill-rule="evenodd" stroke-linecap="round" stroke-linejoin="round" stroke-miterlimit="1.5"/></g><g transform="matrix(.673629 0 0 1 0.003565 0)" clip-rule="evenodd"><path d="M1793.33,2046.56c-7.51-1.99-24.75,10.79-31.21,16.58-9.4,8.42-7.03,21.21,1.11,29.47c11.08,11.22,27.4,15.61,42.78,14.3c8.91-.76,11.89-14.94,11.27-21.84-1.39-15.49-7.85-34.23-23.95-38.51Z" clip-rule="evenodd" fill="#fff" fill-rule="evenodd" stroke-linecap="round" stroke-linejoin="round" stroke-miterlimit="1.5"/><path d="M1794.23,2043.18c-2.82-.75-6.78-.08-11.11,1.77-8.39,3.58-18.62,11.36-23.34,15.58-11,9.87-8.58,24.87.96,34.53c11.8,11.97,29.17,16.74,45.57,15.34c4.73-.41,8.34-3.47,10.76-7.82c3.06-5.53,4.11-13.15,3.7-17.82-.74-8.19-2.84-17.22-6.86-24.79-4.26-8.02-10.66-14.39-19.68-16.79v0Zm-1.8,6.77c7.07,1.87,11.96,7.02,15.3,13.31c3.59,6.74,5.41,14.82,6.07,22.13.32,3.61-.48,9.51-2.86,13.79-1.22,2.21-2.83,4.04-5.22,4.24-14.38,1.23-29.65-2.79-40-13.27-6.74-6.84-9.05-17.42-1.26-24.41c3.73-3.34,11.19-9.11,18.13-12.78c2.18-1.14,4.29-2.08,6.2-2.63c1.4-.41,2.64-.65,3.64-.38Z" clip-rule="evenodd" fill-rule="evenodd" stroke-linecap="round" stroke-linejoin="round" stroke-miterlimit="1.5"/></g><g transform="matrix(.673629 0 0 1 0.003565 0)" clip-rule="evenodd"><circle r="4" transform="translate(1800.8 2076)" clip-rule="evenodd" fill-rule="evenodd" stroke-linecap="round" stroke-linejoin="round" stroke-miterlimit="1.5"/></g><g transform="matrix(.673629 0 0 1-13.3912-9.31067)" clip-rule="evenodd"><circle r="4" transform="translate(1800.8 2076)" clip-rule="evenodd" fill-rule="evenodd" stroke-linecap="round" stroke-linejoin="round" stroke-miterlimit="1.5"/></g><g transform="matrix(.673629 0 0 1 0.003565 0)" clip-rule="evenodd"><g id="ePZuMdiyLYV15_ts" transform="translate(1779.22998,2083.22998) scale(1.011415,0.895036)"><circle r="4.229" transform="translate(0.00002,0.00002)" clip-rule="evenodd" fill-rule="evenodd" stroke="#000" stroke-width="7" stroke-linecap="round" stroke-linejoin="round" stroke-miterlimit="1.5"/></g></g><g transform="matrix(.673629 0 0 1 0.003565 0)" clip-rule="evenodd"><path d="M1651.38,2211.09c-.65-.17-1.31-.42-1.98-.66-1.74-.62-3.49-1.25-5.15-1.47-3.16-.42-6.1.29-8.48,3.88-3.22,4.86-2.98,10.52-.92,16.27c2.55,7.06,7.99,14.28,10.51,19.59.49,1.02,2.08,6.25,3.54,8.62.89,1.45,1.99,2.24,2.81,2.54c3.32,1.19,6.94.76,10.31,1.64c8.72,2.28,16.19,5.23,25.46,4.04c1.75-.23,7.3-1.44,10.51-3.26c2.52-1.43,3.78-3.46,3.84-5.27.53-15.08-12.56-34.06-24.66-42.1-3.54-2.35-8.97-4.57-13.57-4.59-1.27-.01-2.48.15-3.6.47.11-.17.2-.31.26-.4c5.25-7.29,12.02-13.34,17.36-20.57c8.16-11.07,12.37-24.67,17.47-37.27c4.33-10.69,10.8-21.06,17.31-30.57c5.85-8.54,12.72-16.74,22.44-20.86c9.21-3.9,18.11-3.35,27.91-3.64c1.93-.06,3.45-1.67,3.39-3.6s-1.67-3.45-3.6-3.4c-10.69.32-20.38-.07-30.43,4.2-10.97,4.65-18.88,13.71-25.48,23.34-6.79,9.92-13.51,20.75-18.03,31.91-4.88,12.06-8.8,25.14-16.61,35.73-5.36,7.26-12.14,13.33-17.41,20.64-.37.52-2.3,3.42-3.2,4.79Zm43.47,44.87c-.04-12.83-11.36-28.44-21.56-35.22-2.08-1.39-5.03-2.75-7.87-3.25-1.79-.31-3.55-.42-4.68.67-.74.72-1.06,1.89-1.13,3.53-.07,1.63-.03,3.36.39,4.95c3.17,11.95,11.25,20.79,19.7,29.44.72.73,1.05,1.7.99,2.66c1.89.14,3.84.12,5.89-.14c1.16-.15,4.48-.84,6.97-1.93.42-.18.96-.5,1.3-.71Zm-41.8-37.72c-.17.02-.33.03-.47.03-2.21-.02-4.64-.95-7-1.76-1.45-.51-2.93-1.38-3.97.2-2.59,3.9-1.03,8.58,1.16,13.19c2.76,5.78,6.84,11.44,8.91,15.79.33.69,1.15,3.29,2.09,5.63.3.74.78,1.69,1.03,2.18c2.93.83,6.06.46,8.99,1.23c2.34.61,4.58,1.3,6.79,1.93-7.66-8.24-14.38-17.04-17.34-28.23-.6-2.26-.73-4.73-.62-7.05.05-1.16.2-2.2.43-3.14Z" clip-rule="evenodd" fill-rule="evenodd" stroke-linecap="round" stroke-linejoin="round" stroke-miterlimit="1.5"/></g><g transform="matrix(.673629 0 0 1 0.003565 0)" clip-rule="evenodd"><path d="M1703.38,2249.44c6.76-9.37,15.57-17.03,22.43-26.32c8.63-11.7,15.84-23.54,25.91-34.19c12.17-12.87,28.44-24.74,37.14-40.36c6-10.77,8-26.84,8.23-38.98.03-1.93-1.51-3.53-3.44-3.56-1.93-.04-3.53,1.5-3.56,3.43-.21,11.11-1.85,25.85-7.34,35.71-8.43,15.12-24.33,26.49-36.12,38.95-10.27,10.86-17.65,22.91-26.46,34.85-6.86,9.31-15.69,16.98-22.47,26.38-1.13,1.56-.77,3.75.79,4.88c1.57,1.13,3.76.78,4.89-.79Z" clip-rule="evenodd" fill-rule="evenodd" stroke-linecap="round" stroke-linejoin="round" stroke-miterlimit="1.5"/></g><g transform="matrix(.673629 0 0 1 0.003565 0)" clip-rule="evenodd"><path d="M1683.88,2219.24c3.58-4.51,7.61-8.81,10.15-14.03c5.57-11.46,6.15-25.66,7.43-38.22.19-1.92-1.21-3.64-3.13-3.83-1.92-.2-3.64,1.2-3.84,3.12-1.2,11.77-1.54,25.13-6.76,35.87-2.31,4.76-6.07,8.63-9.34,12.74-1.2,1.52-.95,3.72.57,4.92c1.51,1.2,3.71.95,4.92-.57Z" clip-rule="evenodd" fill-rule="evenodd" stroke-linecap="round" stroke-linejoin="round" stroke-miterlimit="1.5"/></g><g transform="matrix(.673629 0 0 1 0.003565 0)" clip-rule="evenodd"><path d="M1687.38,2165.29c20,3.34,37.17,14.31,48.86,30.75c1.12,1.57,3.31,1.94,4.88.82s1.94-3.3.82-4.88c-12.78-17.96-31.55-29.95-53.4-33.59-1.91-.32-3.71.97-4.03,2.87-.32,1.91.97,3.71,2.87,4.03Z" clip-rule="evenodd" fill-rule="evenodd" stroke-linecap="round" stroke-linejoin="round" stroke-miterlimit="1.5"/></g><g transform="matrix(.673629 0 0 1 0.003565 0)" clip-rule="evenodd"><path d="M1694.7,2152.57c4.81-.3,10.08-1.24,14.88-.12c18.99,4.42,25.53,18.93,33.68,35c.87,1.72,2.98,2.41,4.7,1.54c1.72-.88,2.41-2.99,1.54-4.71-9.13-18.01-17.05-33.7-38.33-38.65-5.46-1.27-11.44-.38-16.9-.05-1.93.12-3.4,1.78-3.28,3.71s1.78,3.39,3.71,3.28Z" clip-rule="evenodd" fill-rule="evenodd" stroke-linecap="round" stroke-linejoin="round" stroke-miterlimit="1.5"/></g><g transform="matrix(.673629 0 0 1 0.003565 0)" clip-rule="evenodd"><path d="M1702.05,2140.23c22.43.37,45.65,10.9,58.43,30.07c1.07,1.6,3.25,2.04,4.86.97c1.6-1.07,2.04-3.25.97-4.86-14.05-21.06-39.5-32.77-64.15-33.17-1.93-.04-3.52,1.51-3.55,3.44s1.51,3.52,3.44,3.55Z" clip-rule="evenodd" fill-rule="evenodd" stroke-linecap="round" stroke-linejoin="round" stroke-miterlimit="1.5"/></g><g transform="matrix(.673629 0 0 1 0.003565 0)" clip-rule="evenodd"><path d="M1714.53,2120.7c21.96,4.17,43.27,18.5,58.21,35.01c1.29,1.44,3.51,1.55,4.94.25c1.43-1.29,1.54-3.51.25-4.94-15.92-17.6-38.69-32.76-62.09-37.2-1.9-.36-3.73.89-4.09,2.78-.37,1.9.88,3.74,2.78,4.1Z" clip-rule="evenodd" fill-rule="evenodd" stroke-linecap="round" stroke-linejoin="round" stroke-miterlimit="1.5"/></g><g transform="matrix(.673629 0 0 1 0.003565 0)" clip-rule="evenodd"><path d="M1730.03,2104.81c19.98,4.06,41.17,15.73,53.84,32.44c1.17,1.54,3.37,1.84,4.91.67c1.54-1.16,1.84-3.36.67-4.9-13.67-18.03-36.48-30.69-58.02-35.07-1.89-.38-3.74.84-4.13,2.73-.38,1.9.84,3.75,2.73,4.13Z" clip-rule="evenodd" fill-rule="evenodd" stroke-linecap="round" stroke-linejoin="round" stroke-miterlimit="1.5"/></g><g transform="matrix(.673629 0 0 1 128.009 46)" clip-rule="evenodd"><path d="M1618.35,2027l7.26-2" clip-rule="evenodd" fill="none" fill-rule="evenodd" stroke="#000" stroke-width="3" stroke-linecap="round" stroke-linejoin="round" stroke-miterlimit="1.5"/></g><g transform="matrix(.673629 0 0 1 128.009 46)" clip-rule="evenodd"><path d="M1595,2014l17.11,9" clip-rule="evenodd" fill="none" fill-rule="evenodd" stroke="#000" stroke-width="3" stroke-linecap="round" stroke-linejoin="round" stroke-miterlimit="1.5"/></g><g transform="matrix(1.44409 0 0 2.14375-1092.76-2182.7)" clip-rule="evenodd"><g id="ePZuMdiyLYV37_to" transform="translate(1568.252361,1940.459231)"><g transform="translate(-1567.785889,-1939.059815)"><g transform="translate(-22.8333 0)" clip-rule="evenodd"><path d="M1573.28,1933.82c.01-.29.07-.54.17-.75s.22-.39.38-.53c.15-.15.32-.26.51-.33.18-.07.38-.11.57-.11.51,0,.88.14,1.11.41.24.27.34.77.31,1.51-.01.4-.02.73-.04.98-.01.26-.02.5-.03.72c0,.22-.01.44-.02.66c0,.23-.01.5-.01.84c0,.13.06.21.17.24.11.04.26.05.43.05s.36,0,.57-.02c.21-.01.41-.01.61,0c.5.06.97.21,1.38.46.42.25.78.56,1.08.94s.54.8.71,1.26.27.94.28,1.43c.01.53-.03,1.06-.13,1.58-.1.53-.29,1.01-.57,1.42-.28.42-.66.76-1.14,1.01-.48.26-1.09.38-1.85.37-.23,0-.43-.04-.62-.12s-.35-.15-.5-.22c-.15-.06-.27-.11-.38-.14-.11-.02-.18.01-.24.1-.08.15-.27.27-.58.35-.3.09-.62.11-.94.07-.33-.04-.62-.15-.87-.35-.26-.19-.38-.5-.38-.92v-9.5c0-.62.01-1.09.02-1.41Zm3.17,6.59c-.04.01-.07.12-.1.32-.03.19-.04.41-.06.66-.01.24-.01.47-.01.67.01.21.03.32.07.33.27.13.54.23.82.28s.53.05.77-.01c.23-.06.42-.18.57-.35.14-.17.22-.42.22-.73c0-.25-.08-.47-.22-.65-.15-.17-.33-.31-.55-.41s-.47-.16-.74-.18-.53,0-.77.07Z" clip-rule="evenodd" stroke-linecap="round" stroke-linejoin="round" stroke-miterlimit="1.5"/></g><g transform="translate(-22.8333 0)" clip-rule="evenodd"><path d="M1586.75,1937.08c.53,0,1,.09,1.39.26.4.18.74.41,1.01.69.28.28.48.59.62.93s.22.68.23,1.01-.03.63-.15.9c-.11.27-.29.49-.53.65-.08.05-.2.09-.36.11s-.33.03-.53.04c-.19,0-.39,0-.59,0-.21-.01-.4-.01-.57-.01-.16,0-.36,0-.6.02-.24.01-.51.02-.8.02-.12,0-.2.07-.24.2-.04.14-.05.33-.02.55.03.27.18.48.45.64.27.15.57.24.89.25.26,0,.5-.05.7-.17.2-.11.39-.23.57-.37.17-.14.35-.26.52-.37.18-.1.37-.15.58-.14.43.04.7.21.83.52.13.3.15.64.07,1.03-.07.29-.2.54-.39.76s-.42.41-.68.57-.53.29-.82.4c-.3.12-.58.21-.84.27-.68.19-1.28.2-1.81.04s-.97-.43-1.35-.81c-.37-.39-.66-.85-.86-1.41-.21-.55-.33-1.13-.37-1.73-.04-.59,0-1.18.14-1.78.13-.59.35-1.12.64-1.59.3-.46.69-.83,1.17-1.11.48-.27,1.05-.4,1.7-.37Zm.58,2.83c.09,0,.12-.09.08-.27-.04-.17-.11-.32-.2-.42-.07-.08-.16-.13-.27-.16s-.24-.03-.36-.01c-.13.02-.25.06-.36.13s-.2.16-.25.28c-.04.08-.07.16-.1.25-.03.1-.01.16.04.2.01.03.09.04.23.04s.29,0,.45-.01.31-.01.46-.02c.14-.01.24-.01.28-.01Z" clip-rule="evenodd" stroke-linecap="round" stroke-linejoin="round" stroke-miterlimit="1.5"/></g><g transform="translate(-22.8333 0)" clip-rule="evenodd"><path d="M1597.76,1939.14c-.09.38-.28.62-.58.7-.29.09-.61.03-.95-.17-.12-.06-.25-.14-.4-.22-.15-.09-.29-.16-.44-.22s-.28-.09-.4-.07c-.12.01-.21.09-.26.22-.09.24.01.42.3.55s.66.29,1.1.46c.72.26,1.22.66,1.51,1.2.3.53.39,1.17.28,1.91-.06.44-.2.81-.41,1.12-.22.31-.48.57-.79.78-.32.22-.66.37-1.05.46s-.79.14-1.2.14c-.73-.03-1.33-.27-1.8-.72-.46-.46-.68-1.04-.65-1.76.01-.25.08-.47.2-.67s.27-.34.44-.43c.19-.08.38-.11.58-.07.21.04.41.17.61.38.32.34.64.54.94.59.31.06.49.03.56-.08.12-.19.11-.39-.04-.58s-.33-.36-.55-.51c-.22-.14-.44-.27-.67-.36-.22-.1-.36-.17-.4-.19-.34-.16-.64-.35-.88-.56-.25-.21-.42-.52-.51-.93-.16-.78-.06-1.41.3-1.89.35-.49.9-.86,1.63-1.12.17-.07.39-.11.66-.13s.55-.02.84.02c.29.03.58.1.86.2s.52.23.72.4.34.39.43.65c.1.25.1.56.02.9Z" clip-rule="evenodd" stroke-linecap="round" stroke-linejoin="round" stroke-miterlimit="1.5"/></g><g transform="translate(-22.8333 0)" clip-rule="evenodd"><path d="M1604.69,1945.98c-.47.04-.91.02-1.34-.05-.42-.07-.75-.21-.98-.43-.21-.18-.37-.4-.49-.66s-.22-.54-.28-.85c-.07-.31-.12-.64-.14-.98-.03-.35-.04-.7-.04-1.06-.02-.48-.04-1-.06-1.53-.03-.54-.06-1.06-.08-1.56-.02-.21-.07-.37-.16-.47-.1-.09-.21-.16-.34-.2-.14-.04-.27-.06-.41-.06s-.26-.02-.37-.06c-.16-.05-.28-.19-.37-.41s-.12-.45-.11-.7.07-.49.18-.71c.11-.21.27-.35.48-.4.09-.02.2-.03.34-.04.13-.02.26-.03.39-.05.12-.02.23-.06.32-.12.08-.06.13-.15.13-.27c0-.37,0-.72.02-1.04.01-.32.06-.6.16-.84.09-.24.24-.43.45-.58.2-.14.5-.23.88-.26.26-.01.47.04.63.16.17.12.3.27.41.46.11.18.18.39.23.61.05.23.07.45.07.66c0,.26.02.47.05.63s.1.28.19.36.21.13.36.15c.14.02.33.03.56.03.24,0,.41.12.52.38.1.25.15.53.13.84s-.11.6-.26.87c-.16.27-.37.41-.65.43-.23.01-.41.03-.54.07-.13.03-.24.08-.31.17-.07.07-.12.18-.15.32s-.04.33-.04.57v.64c0,.23,0,.47.01.7.01.24.02.48.05.71s.07.44.12.62c.07.23.14.41.22.56s.17.23.28.26c.11.02.23-.01.37-.1.14-.1.3-.27.49-.52.24-.32.51-.47.8-.45.3.01.58.1.83.28.26.18.46.41.6.7.15.28.18.53.08.74-.1.24-.24.5-.4.78-.16.27-.37.53-.63.77s-.56.44-.92.61c-.36.18-.79.28-1.28.32Z" clip-rule="evenodd" stroke-linecap="round" stroke-linejoin="round" stroke-miterlimit="1.5"/></g></g></g><g id="ePZuMdiyLYV46_to" transform="translate(1617.683267,1940.547304)"><g transform="translate(-1618.616211,-1939.147888)"><g transform="translate(-22.8333 0)" clip-rule="evenodd"><path d="M1619.4,1944.28c0-.2-.01-.53-.01-.98-.01-.45-.02-.93-.02-1.45-.01-.53-.02-1.04-.02-1.55-.01-.51-.01-.92-.01-1.24c0-.24-.05-.43-.15-.58-.1-.14-.31-.22-.61-.23-.35-.02-.59-.12-.74-.32s-.21-.42-.2-.65c.01-.24.1-.46.25-.65s.36-.29.63-.29c.2,0,.39.01.58.02.18.02.29-.06.32-.22.05-.37.08-.7.09-1c0-.29.01-.54.01-.74c0-.62.15-1.11.47-1.48.31-.36.69-.61,1.15-.75s.96-.17,1.5-.08c.54.08,1.03.27,1.49.56.2.12.32.32.36.58s.01.52-.09.75c-.1.24-.27.43-.5.57-.24.14-.53.15-.89.03-.49-.19-.73.06-.7.73c0,.07,0,.15.01.24s.02.19.04.28.06.17.11.25c.05.07.13.11.24.12.12.03.24.06.35.09.11.04.22.1.31.18.09.09.16.2.21.35.04.14.07.34.07.57c0,.24-.04.43-.1.57-.07.14-.16.24-.27.31-.12.06-.24.11-.39.13-.15.03-.31.05-.48.07-.11.01-.16.11-.17.29-.01.19-.01.35-.01.48.01.42.02.83.03,1.23.01.39.01.79.01,1.18s0,.79-.01,1.2-.01.84-.01,1.31c-.01.46-.09.83-.23,1.1s-.31.46-.52.58c-.2.12-.43.16-.67.13s-.46-.12-.68-.26c-.21-.14-.38-.33-.52-.58s-.22-.54-.23-.85Z" clip-rule="evenodd" stroke-linecap="round" stroke-linejoin="round" stroke-miterlimit="1.5"/></g><g transform="translate(-22.8333 0)" clip-rule="evenodd"><path d="M1631.28,1937.45c.14.14.27.32.36.57.11.24.15.49.15.75s-.06.49-.19.71c-.14.21-.35.33-.64.37-.08.02-.22.03-.41.05-.2.02-.4.04-.62.07s-.43.06-.62.09-.32.07-.37.11c-.13.07-.23.29-.29.66-.06.38-.09.8-.11,1.26-.01.47-.01.92-.01,1.36.01.44.01.76.01.94c0,.36-.07.66-.22.91-.14.24-.33.43-.55.55-.22.13-.46.19-.71.2-.26.01-.5-.05-.71-.18-.22-.12-.39-.32-.53-.57-.14-.26-.2-.59-.19-.99.01-.44.02-1.01.03-1.7c0-.69.01-1.37.02-2.05c0-.68.02-1.29.06-1.83.03-.53.08-.87.15-1c.1-.2.25-.35.43-.46.18-.12.37-.19.57-.22.21-.04.42-.04.64,0c.22.03.42.09.59.19.19.09.29.18.3.27.01.1.04.19.08.3.03.07.14.05.35-.06s.45-.21.73-.33c.28-.11.57-.18.88-.22.3-.03.58.06.82.25Z" clip-rule="evenodd" stroke-linecap="round" stroke-linejoin="round" stroke-miterlimit="1.5"/></g><g transform="translate(-22.8333 0)" clip-rule="evenodd"><path d="M1636.9,1940.63c.02.34.03.71.04,1.11.02.39.02.79,0,1.19-.01.39-.04.79-.1,1.18-.05.39-.12.75-.22,1.08-.06.23-.18.42-.34.54-.17.13-.36.21-.55.25-.2.04-.41.05-.62.03-.22-.02-.4-.06-.56-.11s-.3-.19-.42-.42c-.12-.24-.21-.5-.28-.79s-.12-.58-.16-.87-.06-.53-.06-.71c-.01-.24-.03-.57-.04-.99-.01-.41-.01-.86,0-1.32.01-.47.04-.94.08-1.4.04-.47.11-.87.22-1.21.11-.37.28-.65.53-.84.24-.18.5-.27.78-.26.27,0,.53.1.79.29.25.2.44.48.57.87.11.33.19.71.23,1.16.05.44.09.85.11,1.22Zm-.42-6.35c.02.33-.05.61-.18.83-.15.23-.32.4-.54.52s-.46.18-.72.19c-.26,0-.5-.04-.72-.14s-.4-.26-.54-.47-.2-.48-.19-.81c-.01-.32.05-.59.19-.8.14-.22.32-.39.53-.51s.44-.18.69-.2c.24-.01.47.03.69.13.21.1.39.26.55.47.15.21.23.47.24.79Z" clip-rule="evenodd" stroke-linecap="round" stroke-linejoin="round" stroke-miterlimit="1.5"/></g><g transform="translate(-22.8333 0)" clip-rule="evenodd"><path d="M1642.61,1937.08c.53,0,1,.09,1.4.26.4.18.73.41,1.01.69.27.28.47.59.61.93s.22.68.23,1.01c.02.33-.03.63-.15.9-.11.27-.29.49-.53.65-.07.05-.19.09-.35.11s-.34.03-.53.04c-.2,0-.4,0-.6,0-.21-.01-.4-.01-.57-.01-.16,0-.36,0-.6.02-.24.01-.5.02-.8.02-.12,0-.2.07-.24.2-.04.14-.04.33-.02.55.03.27.18.48.45.64.27.15.57.24.89.25.27,0,.5-.05.7-.17.2-.11.39-.23.57-.37s.35-.26.53-.37c.17-.1.36-.15.57-.14.43.04.71.21.83.52.13.3.15.64.07,1.03-.06.29-.19.54-.39.76-.19.22-.41.41-.67.57s-.54.29-.83.4c-.3.12-.57.21-.84.27-.68.19-1.28.2-1.81.04-.52-.16-.97-.43-1.34-.81-.38-.39-.67-.85-.87-1.41-.21-.55-.33-1.13-.37-1.73-.04-.59.01-1.18.14-1.78.13-.59.35-1.12.65-1.59.3-.46.69-.83,1.16-1.11.48-.27,1.05-.4,1.7-.37Zm.58,2.83c.09,0,.12-.09.08-.27-.04-.17-.11-.32-.2-.42-.07-.08-.16-.13-.27-.16s-.23-.03-.36-.01c-.12.02-.25.06-.36.13s-.19.16-.25.28c-.04.08-.07.16-.1.25-.02.1-.01.16.04.2.02.03.09.04.23.04s.29,0,.45-.01.31-.01.46-.02.24-.01.28-.01Z" clip-rule="evenodd" stroke-linecap="round" stroke-linejoin="round" stroke-miterlimit="1.5"/></g><g transform="translate(-22.8333 0)" clip-rule="evenodd"><path d="M1654.68,1937.95c.32.32.55.76.68,1.33.14.57.22,1.16.26,1.79s.05,1.25.02,1.85c-.02.6-.04,1.09-.04,1.47c0,.49-.13.87-.4,1.14-.26.28-.55.42-.86.44-.32.02-.6-.1-.86-.35s-.39-.66-.37-1.23c0-.26,0-.62.02-1.07.01-.45,0-.9-.04-1.37-.04-.46-.12-.89-.24-1.28-.12-.4-.31-.67-.56-.82-.15-.08-.3-.13-.47-.17-.17-.03-.32-.03-.46.01s-.26.12-.36.23-.15.26-.15.45c0,.4,0,.82-.02,1.29-.01.46-.02.9-.04,1.31-.01.41-.03.77-.05,1.08s-.03.52-.03.62c-.01.41-.17.73-.47.95-.3.23-.62.34-.97.35-.36.01-.68-.11-.96-.34-.29-.23-.42-.59-.41-1.08.03-.9.02-1.84-.01-2.82-.03-.99-.04-1.92-.01-2.79.01-.3.04-.59.08-.87s.1-.52.19-.74c.09-.21.2-.38.34-.51s.31-.21.53-.22c.18-.01.41.01.66.07.26.06.48.25.65.59.08.15.18.23.3.22.12,0,.28-.04.46-.12.19-.07.41-.15.67-.23.26-.09.56-.13.91-.13.32,0,.66.08,1.02.25.36.16.69.39.99.7Z" clip-rule="evenodd" stroke-linecap="round" stroke-linejoin="round" stroke-miterlimit="1.5"/></g><g transform="translate(-22.8333 0)" clip-rule="evenodd"><path d="M1662.55,1932.85c.18-.31.42-.53.72-.65.29-.12.58-.15.86-.1.29.05.54.19.75.41.22.21.33.5.34.86.01.25.02.58.03.99s.01.86.01,1.34v1.52c0,.52,0,1.03-.01,1.51-.01.49-.01.92-.02,1.32s-.01.72-.01.95c-.01.36-.02.78-.01,1.26.01.49,0,.96-.02,1.42s-.07.89-.14,1.28-.19.68-.35.86c-.21.24-.43.38-.65.42s-.5.01-.84-.1c-.12-.04-.22-.09-.29-.14-.08-.05-.15-.1-.22-.14-.08-.04-.15-.06-.23-.08-.08-.01-.18,0-.3.04-.47.16-.96.21-1.49.14-.52-.07-1.01-.26-1.47-.58-.45-.33-.83-.78-1.13-1.36-.31-.59-.47-1.31-.48-2.18-.01-.48.05-1,.19-1.56s.39-1.09.75-1.57c.35-.48.84-.87,1.44-1.17.61-.29,1.37-.42,2.29-.36.08.01.15-.04.21-.14.06-.11.09-.23.09-.38.01-.33,0-.69-.03-1.08-.04-.39-.07-.76-.09-1.12-.03-.36-.04-.68-.03-.97c0-.29.05-.5.13-.64Zm-.14,9.88c.04,0,.07-.14.09-.41s.02-.57.02-.89c-.01-.32-.03-.62-.05-.88-.03-.27-.07-.4-.12-.4-.16.01-.35.04-.56.08s-.42.11-.61.22c-.19.1-.36.25-.5.44-.14.2-.21.44-.21.75c0,.25.07.45.2.59.13.15.3.26.5.33s.41.12.63.14.42.03.61.03Z" clip-rule="evenodd" stroke-linecap="round" stroke-linejoin="round" stroke-miterlimit="1.5"/></g></g></g></g><g id="ePZuMdiyLYV59_to" transform="translate(1208.757508,2013.99469)"><g transform="translate(-1208.757508,-2016.99469)"><g transform="matrix(.673629 0 0 1 126.751 59.806988)" clip-rule="evenodd"><path d="M1605.02,1971.36l14.45-9.36" clip-rule="evenodd" fill="none" fill-rule="evenodd" stroke="#000" stroke-width="7" stroke-linecap="round" stroke-linejoin="round" stroke-miterlimit="1.5"/></g><g transform="matrix(.673629 0 0 1 126.751 59.806988)" clip-rule="evenodd"><path d="M1605.02,1971.36L1593,1966" clip-rule="evenodd" fill="none" fill-rule="evenodd" stroke="#000" stroke-width="7" stroke-linecap="round" stroke-linejoin="round" stroke-miterlimit="1.5"/></g><g transform="matrix(.673629 0 0 1.393 126.751-714.929012)" clip-rule="evenodd"><path d="M1599.43,1951c0,0,7.84,9.19,5.59,20.36" clip-rule="evenodd" fill="none" fill-rule="evenodd" stroke="#000" stroke-width="5.77" stroke-linecap="round" stroke-linejoin="round" stroke-miterlimit="1.5"/></g></g></g><g transform="matrix(.349526 0.371006-.219412 0.455531 1088.44 556.741)" clip-rule="evenodd"><ellipse rx="13.807" ry="12.5" transform="translate(1587.19 2020.5)" clip-rule="evenodd" fill="none" fill-rule="evenodd" stroke="#000" stroke-width="5" stroke-linecap="round" stroke-linejoin="round" stroke-miterlimit="1.5"/></g><g transform="matrix(.349526 0.371006-.219412 0.455531 1101.18 566.241)" clip-rule="evenodd"><ellipse rx="13.807" ry="12.5" transform="translate(1587.19 2020.5)" clip-rule="evenodd" fill="none" fill-rule="evenodd" stroke="#000" stroke-width="5" stroke-linecap="round" stroke-linejoin="round" stroke-miterlimit="1.5"/></g></g></g></g></svg>