<svg id="ewtNYrPqQM31" xmlns="http://www.w3.org/2000/svg" xmlns:xlink="http://www.w3.org/1999/xlink" viewBox="0 0 512 420" shape-rendering="geometricPrecision" text-rendering="geometricPrecision"><style><![CDATA[#ewtNYrPqQM310 {animation: ewtNYrPqQM310__m 800ms linear infinite alternate-reverse forwards}@keyframes ewtNYrPqQM310__m { 0% {d: path('M1355,2100C1355,2100,1374.73,2146.47,1424,2149C1473.27,2151.53,1470.34,2153.6,1532.67,2146C1595,2138.4,1636.78,2139.34,1646,2145C1655.22,2150.66,1710.26,2114.14,1718,2086C1725.74,2057.86,1700.11,2002.38,1745,1973C1789.89,1943.62,1788.1,1992.8,1781,1996C1773.9,1999.2,1744.54,2011.76,1745,2032C1745.46,2052.24,1768.56,2114.5,1684,2174C1675.7,2184.35,1670.86,2183.55,1680,2213.4C1679.07,2226.22,1681.38,2237.12,1674,2257C1666.62,2276.89,1683.47,2293.95,1682,2308C1680.53,2322.05,1665.42,2354.58,1657,2366C1648.58,2377.42,1620.98,2362.36,1640,2354C1659.02,2345.64,1651.73,2299.05,1635,2290C1618.27,2280.95,1603.77,2268.77,1598,2260C1592.23,2251.23,1485.24,2279.44,1450,2273C1450.84,2293.37,1460.38,2344.38,1447,2366C1423.83,2365.36,1410.49,2368.32,1430,2353C1424.27,2326.35,1410.37,2296.27,1394,2283C1377.63,2269.73,1365.2,2243.32,1361,2230C1356.8,2216.68,1315.68,2183.91,1304,2190C1295.02,2178.93,1272.56,2176.22,1297,2152C1299.61,2136.88,1303.14,2119.35,1323,2113C1325.56,2096.89,1333.12,2061.23,1355,2100Z');animation-timing-function: cubic-bezier(0.42,0,0.58,1)} 62.5% {d: path('M1355,2100C1355,2100,1374.73,2146.47,1424,2149C1473.27,2151.53,1470.34,2153.6,1532.67,2146C1595,2138.4,1636.78,2139.34,1646,2145C1655.22,2150.66,1703.422144,2123.102801,1711.162144,2094.962801C1718.902144,2066.822801,1700.11,2028.185024,1745,1998.805024C1789.89,1969.425024,1786.950613,2015.322861,1779.850613,2018.522861C1772.750613,2021.722861,1744.54,2038.229187,1745,2058.469187C1745.46,2078.709187,1757.503134,2107.706603,1684,2174C1675.7,2184.35,1670.86,2183.55,1680,2213.4C1679.07,2226.22,1681.38,2237.12,1674,2257C1666.62,2276.89,1683.47,2293.95,1682,2308C1680.53,2322.05,1665.42,2354.58,1657,2366C1648.58,2377.42,1620.98,2362.36,1640,2354C1659.02,2345.64,1651.73,2299.05,1635,2290C1618.27,2280.95,1603.77,2268.77,1598,2260C1592.23,2251.23,1485.24,2279.44,1450,2273C1450.84,2293.37,1460.38,2344.38,1447,2366C1423.83,2365.36,1410.49,2368.32,1430,2353C1424.27,2326.35,1410.37,2296.27,1394,2283C1377.63,2269.73,1365.2,2243.32,1361,2230C1356.8,2216.68,1315.68,2183.91,1304,2190C1295.02,2178.93,1272.56,2176.22,1297,2152C1299.61,2136.88,1303.14,2119.35,1323,2113C1325.56,2096.89,1333.12,2061.23,1355,2100Z')} 100% {d: path('M1355,2100C1355,2100,1374.73,2146.47,1424,2149C1473.27,2151.53,1470.34,2153.6,1532.67,2146C1595,2138.4,1636.78,2139.34,1646,2145C1655.22,2150.66,1703.422144,2123.102801,1711.162144,2094.962801C1718.902144,2066.822801,1700.11,2028.185024,1745,1998.805024C1789.89,1969.425024,1786.950613,2015.322861,1779.850613,2018.522861C1772.750613,2021.722861,1744.54,2038.229187,1745,2058.469187C1745.46,2078.709187,1757.503134,2107.706603,1684,2174C1675.7,2184.35,1670.86,2183.55,1680,2213.4C1679.07,2226.22,1681.38,2237.12,1674,2257C1666.62,2276.89,1683.47,2293.95,1682,2308C1680.53,2322.05,1665.42,2354.58,1657,2366C1648.58,2377.42,1620.98,2362.36,1640,2354C1659.02,2345.64,1651.73,2299.05,1635,2290C1618.27,2280.95,1603.77,2268.77,1598,2260C1592.23,2251.23,1485.24,2279.44,1450,2273C1450.84,2293.37,1460.38,2344.38,1447,2366C1423.83,2365.36,1410.49,2368.32,1430,2353C1424.27,2326.35,1410.37,2296.27,1394,2283C1377.63,2269.73,1365.2,2243.32,1361,2230C1356.8,2216.68,1315.68,2183.91,1304,2190C1295.02,2178.93,1272.56,2176.22,1297,2152C1299.61,2136.88,1303.14,2119.35,1323,2113C1325.56,2096.89,1333.12,2061.23,1355,2100Z')}}]]></style><g transform="translate(-1279.45-1957.18)" clip-rule="evenodd"><g transform="matrix(1.4845 0 0 1-.005292 0)" clip-rule="evenodd"><g clip-rule="evenodd"><g transform="matrix(.673629 0 0 1 0.003565 0)" clip-rule="evenodd"><path d="M1560,2261c0,0,21.27,35.29,24,48.98s-4.06,35.06-8,42.02-13.74,16.58,5,13c18.75-3.58,20.47-21.07,26-29s15.6-36.37,17-55" clip-rule="evenodd" fill="#fff" fill-rule="evenodd" stroke="#000" stroke-width="13" stroke-linecap="round" stroke-linejoin="round" stroke-miterlimit="1.5"/></g><g transform="matrix(.673629 0 0 1 0.003565 0)" clip-rule="evenodd"><path d="M1367,2243c0,0,1.39,75.12-13,100.86-7.13,16.9-20.6,14.76-1,24.14c15.69-1.47,15.56.9,25-16.73s23.03-47.49,26-61.27" clip-rule="evenodd" fill="#fff" fill-rule="evenodd" stroke="#000" stroke-width="13" stroke-linecap="round" stroke-linejoin="round" stroke-miterlimit="1.5"/></g><g transform="matrix(.673629 0 0 1 0.003565 0)" clip-rule="evenodd"><path id="ewtNYrPqQM310" d="M1355,2100c0,0,19.73,46.47,69,49s46.34,4.6,108.67-3s104.11-6.66,113.33-1s57.422144-21.897199,65.162144-50.037199-11.052144-66.777777,33.837856-96.157777s41.950613,16.517837,34.850613,19.717837-35.310613,19.706326-34.850613,39.946326s12.503134,49.237416-61,115.530813c-8.3,10.35-13.14,9.55-4,39.4-.93,12.82,1.38,23.72-6,43.6-7.38,19.89,9.47,36.95,8,51s-16.58,46.58-25,58-36.02-3.64-17-12s11.73-54.95-5-64-31.23-21.23-37-30-112.76,19.44-148,13c.84,20.37,10.38,71.38-3,93-23.17-.64-36.51,2.32-17-13-5.73-26.65-19.63-56.73-36-70s-28.8-39.68-33-53-45.32-46.09-57-40c-8.98-11.07-31.44-13.78-7-38c2.61-15.12,6.14-32.65,26-39c2.56-16.11,10.12-51.77,32-13Z" clip-rule="evenodd" fill="#fff" fill-rule="evenodd" stroke="#000" stroke-width="13" stroke-linecap="round" stroke-linejoin="round" stroke-miterlimit="1.5"/></g><g transform="matrix(.673629 0 0 1 2.02445-1)" clip-rule="evenodd"><circle r="6.5" transform="translate(1318.5 2142.5)" clip-rule="evenodd" fill-rule="evenodd" stroke-linecap="round" stroke-linejoin="round" stroke-miterlimit="1.5"/></g><g transform="matrix(.550131 0 0 0.795455 858.888 1969.98)" clip-rule="evenodd"><path d="M14,243c0,0,1.92,3.296,10,7" clip-rule="evenodd" fill="none" fill-rule="evenodd" stroke="#000" stroke-width="8.68" stroke-linecap="round" stroke-linejoin="round" stroke-miterlimit="1.5"/></g><g transform="matrix(.902984 0 0 0.795455 840.356 1963.98)" clip-rule="evenodd"><path d="M53,250c.509,2.42,17.706.505,21-7" clip-rule="evenodd" fill="none" fill-rule="evenodd" stroke="#000" stroke-width="8.17" stroke-linecap="round" stroke-linejoin="round" stroke-miterlimit="1.5"/></g><g transform="matrix(1.21396 0 0 0.795455 825.204 1964.98)" clip-rule="evenodd"><path d="M51,266c1.787-1.936,15.384.728,16.574,10.286" clip-rule="evenodd" fill="none" fill-rule="evenodd" stroke="#000" stroke-width="6.46" stroke-linecap="round" stroke-linejoin="round" stroke-miterlimit="1.5"/></g></g></g></g></svg>