<svg id="eo5RwfMOAy31" xmlns="http://www.w3.org/2000/svg" xmlns:xlink="http://www.w3.org/1999/xlink" viewBox="0 0 458 443" shape-rendering="geometricPrecision" text-rendering="geometricPrecision"><style><![CDATA[#eo5RwfMOAy313_ts {animation: eo5RwfMOAy313_ts__ts 500ms linear infinite alternate-reverse forwards}@keyframes eo5RwfMOAy313_ts__ts { 0% {transform: translate(1080.363037px,2301px) scale(1,1);animation-timing-function: cubic-bezier(0.445,0.05,0.55,0.95)} 100% {transform: translate(1080.363037px,2301px) scale(1.712809,0.745654)}} #eo5RwfMOAy330_ts {animation: eo5RwfMOAy330_ts__ts 500ms linear infinite alternate-reverse forwards}@keyframes eo5RwfMOAy330_ts__ts { 0% {transform: translate(1080.363037px,2301px) scale(1.712809,1);animation-timing-function: cubic-bezier(0.445,0.05,0.55,0.95)} 100% {transform: translate(1080.363037px,2301px) scale(1.712809,0.28398)}} #eo5RwfMOAy347_ts {animation: eo5RwfMOAy347_ts__ts 500ms linear infinite alternate-reverse forwards}@keyframes eo5RwfMOAy347_ts__ts { 0% {transform: translate(1080.363037px,2301px) scale(1.160237,2.048488);animation-timing-function: cubic-bezier(0.445,0.05,0.55,0.95)} 100% {transform: translate(1080.363037px,2301px) scale(1,1)}} #eo5RwfMOAy364_ts {animation: eo5RwfMOAy364_ts__ts 500ms linear infinite alternate-reverse forwards}@keyframes eo5RwfMOAy364_ts__ts { 0% {transform: translate(1080.363037px,2301px) scale(1,0.208567);animation-timing-function: cubic-bezier(0.445,0.05,0.55,0.95)} 100% {transform: translate(1080.363037px,2301px) scale(1,0.970916)}} #eo5RwfMOAy381_ts {animation: eo5RwfMOAy381_ts__ts 500ms linear infinite alternate-reverse forwards}@keyframes eo5RwfMOAy381_ts__ts { 0% {transform: translate(1080.363037px,2301px) scale(1,1);animation-timing-function: cubic-bezier(0.445,0.05,0.55,0.95)} 100% {transform: translate(1080.363037px,2301px) scale(1.598873,0.802924)}}]]></style><g transform="translate(-1016-2120)" clip-rule="evenodd"><g transform="matrix(1.4845 0 0 1 0.229933-.235226)" clip-rule="evenodd"><g clip-rule="evenodd"><g transform="translate(-5.58514-86.713)" clip-rule="evenodd"><g transform="matrix(.313064 0 0 0.514286 428.959 1127.2)" clip-rule="evenodd"><rect width="210" height="140" rx="0" ry="0" transform="translate(843 2191)" clip-rule="evenodd" fill="#fff" fill-rule="evenodd" stroke="#000" stroke-width="14.28" stroke-linecap="round" stroke-linejoin="round" stroke-miterlimit="1.5"/></g><g transform="matrix(.597668 0 0 0.911392 82.0558 205.19)" clip-rule="evenodd"><circle r="8.5" transform="translate(1056.5 2274.5)" clip-rule="evenodd" fill="#fff" fill-rule="evenodd" stroke="#000" stroke-width="7.78" stroke-linecap="round" stroke-linejoin="round" stroke-miterlimit="1.5"/></g><g transform="matrix(.597668 0 0 0.911392 107.272 205.431)" clip-rule="evenodd"><circle r="8.5" transform="translate(1056.5 2274.5)" clip-rule="evenodd" fill="#fff" fill-rule="evenodd" stroke="#000" stroke-width="7.78" stroke-linecap="round" stroke-linejoin="round" stroke-miterlimit="1.5"/></g><g transform="matrix(.673629 0 0 1-2.01732 5)" clip-rule="evenodd"><g id="eo5RwfMOAy313_ts" transform="translate(1080.363037,2301) scale(1.712809,0.745654)"><rect width="19.666" height="22" rx="0" ry="0" transform="translate(-9.833037,-11)" clip-rule="evenodd" fill-rule="evenodd" stroke="#000" stroke-width="7" stroke-linecap="round" stroke-linejoin="round" stroke-miterlimit="1.5"/></g></g><g transform="matrix(.673629 0 0 1 2.70686 0.854781)" clip-rule="evenodd"><rect width="33.692" height="45.27" rx="0" ry="0" transform="translate(1056.5 2325.16)" clip-rule="evenodd" fill="#fff" fill-rule="evenodd" stroke="#000" stroke-width="7" stroke-linecap="round" stroke-linejoin="round" stroke-miterlimit="1.5"/></g><g transform="matrix(.673629 0 0 1 8.35932-17.8455)" clip-rule="evenodd"><rect width="85.192" height="87.867" rx="0" ry="0" transform="translate(1022 2365.13)" clip-rule="evenodd" fill-rule="evenodd" stroke="#000" stroke-width="7" stroke-linecap="round" stroke-linejoin="round" stroke-miterlimit="1.5"/></g><g transform="matrix(.673629 0 0 1 0.003565-5)" clip-rule="evenodd"><rect width="30.596" height="87.432" rx="0" ry="0" transform="translate(1034.4 2440.57)" clip-rule="evenodd" fill-rule="evenodd" stroke="#000" stroke-width="7" stroke-linecap="round" stroke-linejoin="round" stroke-miterlimit="1.5"/></g><g transform="matrix(.673629 0 0 1 36.3795-5)" clip-rule="evenodd"><rect width="30.596" height="87.432" rx="0" ry="0" transform="translate(1034.4 2440.57)" clip-rule="evenodd" fill-rule="evenodd" stroke="#000" stroke-width="7" stroke-linecap="round" stroke-linejoin="round" stroke-miterlimit="1.5"/></g></g><g transform="translate(39.3576 15.6561)" clip-rule="evenodd"><g transform="matrix(.313064 0 0 0.514286 428.959 1127.2)" clip-rule="evenodd"><rect width="210" height="140" rx="0" ry="0" transform="translate(843 2191)" clip-rule="evenodd" fill="#fff" fill-rule="evenodd" stroke="#000" stroke-width="14.28" stroke-linecap="round" stroke-linejoin="round" stroke-miterlimit="1.5"/></g><g transform="matrix(.597668 0 0 0.911392 77.1568 205.522)" clip-rule="evenodd"><circle r="8.5" transform="translate(1056.5 2274.5)" clip-rule="evenodd" fill="#fff" fill-rule="evenodd" stroke="#000" stroke-width="7.78" stroke-linecap="round" stroke-linejoin="round" stroke-miterlimit="1.5"/></g><g transform="matrix(.597668 0 0 0.911392 111.533 205.417)" clip-rule="evenodd"><circle r="8.5" transform="translate(1056.5 2274.5)" clip-rule="evenodd" fill="#fff" fill-rule="evenodd" stroke="#000" stroke-width="7.78" stroke-linecap="round" stroke-linejoin="round" stroke-miterlimit="1.5"/></g><g transform="matrix(.673629 0 0 0.915511-2.01732 200.339)" clip-rule="evenodd"><g id="eo5RwfMOAy330_ts" transform="translate(1080.363037,2301) scale(1.712809,0.28398)"><rect width="19.666" height="22" rx="0" ry="0" transform="translate(-9.833037,-11)" clip-rule="evenodd" fill-rule="evenodd" stroke="#000" stroke-width="7.3" stroke-linecap="round" stroke-linejoin="round" stroke-miterlimit="1.5"/></g></g><g transform="matrix(.673629 0 0 1 2.70686 0.854781)" clip-rule="evenodd"><rect width="33.692" height="45.27" rx="0" ry="0" transform="translate(1056.5 2325.16)" clip-rule="evenodd" fill="#fff" fill-rule="evenodd" stroke="#000" stroke-width="7" stroke-linecap="round" stroke-linejoin="round" stroke-miterlimit="1.5"/></g><g transform="matrix(.673629 0 0 1 8.35932-17.8455)" clip-rule="evenodd"><rect width="85.192" height="87.867" rx="0" ry="0" transform="translate(1022 2365.13)" clip-rule="evenodd" fill="#fff" fill-rule="evenodd" stroke="#000" stroke-width="7" stroke-linecap="round" stroke-linejoin="round" stroke-miterlimit="1.5"/></g><g transform="matrix(.673629 0 0 1 0.003565-5)" clip-rule="evenodd"><rect width="30.596" height="87.432" rx="0" ry="0" transform="translate(1034.4 2440.57)" clip-rule="evenodd" fill="#fff" fill-rule="evenodd" stroke="#000" stroke-width="7" stroke-linecap="round" stroke-linejoin="round" stroke-miterlimit="1.5"/></g><g transform="matrix(.673629 0 0 1 36.3795-5)" clip-rule="evenodd"><rect width="30.596" height="87.432" rx="0" ry="0" transform="translate(1034.4 2440.57)" clip-rule="evenodd" fill="#fff" fill-rule="evenodd" stroke="#000" stroke-width="7" stroke-linecap="round" stroke-linejoin="round" stroke-miterlimit="1.5"/></g></g><g transform="translate(110.617-75.6691)" clip-rule="evenodd"><g transform="matrix(.313064 0 0 0.514286 428.959 1127.2)" clip-rule="evenodd"><rect width="210" height="140" rx="0" ry="0" transform="translate(843 2191)" clip-rule="evenodd" fill="#fff" fill-rule="evenodd" stroke="#000" stroke-width="14.28" stroke-linecap="round" stroke-linejoin="round" stroke-miterlimit="1.5"/></g><g transform="matrix(.597668 0 0 0.911392 82.0558 205.19)" clip-rule="evenodd"><circle r="8.5" transform="translate(1056.5 2274.5)" clip-rule="evenodd" fill="#fff" fill-rule="evenodd" stroke="#000" stroke-width="7.78" stroke-linecap="round" stroke-linejoin="round" stroke-miterlimit="1.5"/></g><g transform="matrix(.597668 0 0 0.911392 107.272 205.431)" clip-rule="evenodd"><circle r="8.5" transform="translate(1056.5 2274.5)" clip-rule="evenodd" fill="#fff" fill-rule="evenodd" stroke="#000" stroke-width="7.78" stroke-linecap="round" stroke-linejoin="round" stroke-miterlimit="1.5"/></g><g transform="matrix(1.12871 0 0 0.376669-493.618 1439.91)" clip-rule="evenodd"><g id="eo5RwfMOAy347_ts" transform="translate(1080.363037,2301) scale(1,1)"><rect width="19.666" height="22" rx="0" ry="0" transform="translate(-9.833037,-11)" clip-rule="evenodd" fill-rule="evenodd" stroke="#000" stroke-width="5.76" stroke-linecap="round" stroke-linejoin="round" stroke-miterlimit="1.5"/></g></g><g transform="matrix(.673629 0 0 1 2.70686 0.854781)" clip-rule="evenodd"><rect width="33.692" height="45.27" rx="0" ry="0" transform="translate(1056.5 2325.16)" clip-rule="evenodd" fill="#fff" fill-rule="evenodd" stroke="#000" stroke-width="7" stroke-linecap="round" stroke-linejoin="round" stroke-miterlimit="1.5"/></g><g transform="matrix(.673629 0 0 1 8.35932-17.8455)" clip-rule="evenodd"><rect width="85.192" height="87.867" rx="0" ry="0" transform="translate(1022 2365.13)" clip-rule="evenodd" fill-rule="evenodd" stroke="#000" stroke-width="7" stroke-linecap="round" stroke-linejoin="round" stroke-miterlimit="1.5"/></g><g transform="matrix(.673629 0 0 1 0.003565-5)" clip-rule="evenodd"><rect width="30.596" height="87.432" rx="0" ry="0" transform="translate(1034.4 2440.57)" clip-rule="evenodd" fill-rule="evenodd" stroke="#000" stroke-width="7" stroke-linecap="round" stroke-linejoin="round" stroke-miterlimit="1.5"/></g><g transform="matrix(.673629 0 0 1 36.3795-5)" clip-rule="evenodd"><rect width="30.596" height="87.432" rx="0" ry="0" transform="translate(1034.4 2440.57)" clip-rule="evenodd" fill-rule="evenodd" stroke="#000" stroke-width="7" stroke-linecap="round" stroke-linejoin="round" stroke-miterlimit="1.5"/></g></g><g transform="translate(157.846 36)" clip-rule="evenodd"><g transform="matrix(.313064 0 0 0.514286 428.959 1127.2)" clip-rule="evenodd"><rect width="210" height="140" rx="0" ry="0" transform="translate(843 2191)" clip-rule="evenodd" fill="#fff" fill-rule="evenodd" stroke="#000" stroke-width="14.28" stroke-linecap="round" stroke-linejoin="round" stroke-miterlimit="1.5"/></g><g transform="matrix(.597668 0 0 0.911392 82.0558 205.19)" clip-rule="evenodd"><circle r="8.5" transform="translate(1056.5 2274.5)" clip-rule="evenodd" fill="#fff" fill-rule="evenodd" stroke="#000" stroke-width="7.78" stroke-linecap="round" stroke-linejoin="round" stroke-miterlimit="1.5"/></g><g transform="matrix(.597668 0 0 0.911392 107.272 205.431)" clip-rule="evenodd"><circle r="8.5" transform="translate(1056.5 2274.5)" clip-rule="evenodd" fill="#fff" fill-rule="evenodd" stroke="#000" stroke-width="7.78" stroke-linecap="round" stroke-linejoin="round" stroke-miterlimit="1.5"/></g><g transform="matrix(.673629 0 0 1-2.01732 5)" clip-rule="evenodd"><g id="eo5RwfMOAy364_ts" transform="translate(1080.363037,2301) scale(1,0.970916)"><rect width="19.666" height="22" rx="0" ry="0" transform="translate(-9.833037,-11)" clip-rule="evenodd" fill-rule="evenodd" stroke="#000" stroke-width="7" stroke-linecap="round" stroke-linejoin="round" stroke-miterlimit="1.5"/></g></g><g transform="matrix(.673629 0 0 1 2.70686 0.854781)" clip-rule="evenodd"><rect width="33.692" height="45.27" rx="0" ry="0" transform="translate(1056.5 2325.16)" clip-rule="evenodd" fill="#fff" fill-rule="evenodd" stroke="#000" stroke-width="7" stroke-linecap="round" stroke-linejoin="round" stroke-miterlimit="1.5"/></g><g transform="matrix(.673629 0 0 1 8.35932-17.8455)" clip-rule="evenodd"><rect width="85.192" height="87.867" rx="0" ry="0" transform="translate(1022 2365.13)" clip-rule="evenodd" fill="#fff" fill-rule="evenodd" stroke="#000" stroke-width="7" stroke-linecap="round" stroke-linejoin="round" stroke-miterlimit="1.5"/></g><g transform="matrix(.673629 0 0 1 0.003565-5)" clip-rule="evenodd"><rect width="30.596" height="87.432" rx="0" ry="0" transform="translate(1034.4 2440.57)" clip-rule="evenodd" fill="#fff" fill-rule="evenodd" stroke="#000" stroke-width="7" stroke-linecap="round" stroke-linejoin="round" stroke-miterlimit="1.5"/></g><g transform="matrix(.673629 0 0 1 36.3795-5)" clip-rule="evenodd"><rect width="30.596" height="87.432" rx="0" ry="0" transform="translate(1034.4 2440.57)" clip-rule="evenodd" fill="#fff" fill-rule="evenodd" stroke="#000" stroke-width="7" stroke-linecap="round" stroke-linejoin="round" stroke-miterlimit="1.5"/></g></g><g transform="translate(231.704-67.3073)" clip-rule="evenodd"><g transform="matrix(.313064 0 0 0.514286 428.959 1127.2)" clip-rule="evenodd"><rect width="210" height="140" rx="0" ry="0" transform="translate(843 2191)" clip-rule="evenodd" fill="#fff" fill-rule="evenodd" stroke="#000" stroke-width="14.28" stroke-linecap="round" stroke-linejoin="round" stroke-miterlimit="1.5"/></g><g transform="matrix(.597668 0 0 0.911392 82.0558 205.19)" clip-rule="evenodd"><circle r="8.5" transform="translate(1056.5 2274.5)" clip-rule="evenodd" fill="#fff" fill-rule="evenodd" stroke="#000" stroke-width="7.78" stroke-linecap="round" stroke-linejoin="round" stroke-miterlimit="1.5"/></g><g transform="matrix(.597668 0 0 0.911392 107.272 205.431)" clip-rule="evenodd"><circle r="8.5" transform="translate(1056.5 2274.5)" clip-rule="evenodd" fill="#fff" fill-rule="evenodd" stroke="#000" stroke-width="7.78" stroke-linecap="round" stroke-linejoin="round" stroke-miterlimit="1.5"/></g><g transform="matrix(1.0711 0 0 1-431.138 4.69559)" clip-rule="evenodd"><g id="eo5RwfMOAy381_ts" transform="translate(1080.363037,2301) scale(1.598873,0.802924)"><rect width="19.666" height="22" rx="0" ry="0" transform="translate(-9.833037,-11)" clip-rule="evenodd" fill-rule="evenodd" stroke="#000" stroke-width="5.27" stroke-linecap="round" stroke-linejoin="round" stroke-miterlimit="1.5"/></g></g><g transform="matrix(.673629 0 0 1 2.70686 0.854781)" clip-rule="evenodd"><rect width="33.692" height="45.27" rx="0" ry="0" transform="translate(1056.5 2325.16)" clip-rule="evenodd" fill="#fff" fill-rule="evenodd" stroke="#000" stroke-width="7" stroke-linecap="round" stroke-linejoin="round" stroke-miterlimit="1.5"/></g><g transform="matrix(.673629 0 0 1 8.35932-17.8455)" clip-rule="evenodd"><rect width="85.192" height="87.867" rx="0" ry="0" transform="translate(1022 2365.13)" clip-rule="evenodd" fill="#fff" fill-rule="evenodd" stroke="#000" stroke-width="7" stroke-linecap="round" stroke-linejoin="round" stroke-miterlimit="1.5"/></g><g transform="matrix(.673629 0 0 1 0.003565-5)" clip-rule="evenodd"><rect width="30.596" height="87.432" rx="0" ry="0" transform="translate(1034.4 2440.57)" clip-rule="evenodd" fill="#fff" fill-rule="evenodd" stroke="#000" stroke-width="7" stroke-linecap="round" stroke-linejoin="round" stroke-miterlimit="1.5"/></g><g transform="matrix(.673629 0 0 1 36.3795-5)" clip-rule="evenodd"><rect width="30.596" height="87.432" rx="0" ry="0" transform="translate(1034.4 2440.57)" clip-rule="evenodd" fill="#fff" fill-rule="evenodd" stroke="#000" stroke-width="7" stroke-linecap="round" stroke-linejoin="round" stroke-miterlimit="1.5"/></g></g><g transform="matrix(.631874 0 0 0.956522 54.9907 98.5217)" clip-rule="evenodd"><rect width="5.353" height="46" rx="0" ry="0" transform="translate(1236.22 2128)" clip-rule="evenodd" fill-rule="evenodd" stroke="#000" stroke-width="7.39" stroke-linecap="round" stroke-linejoin="round" stroke-miterlimit="1.5"/></g><g transform="matrix(.596004 0 0 0.840909 110.334 347.614)" clip-rule="evenodd"><rect width="8.678" height="44" rx="0" ry="0" transform="translate(1421.32 2141)" clip-rule="evenodd" fill-rule="evenodd" stroke="#000" stroke-width="8.11" stroke-linecap="round" stroke-linejoin="round" stroke-miterlimit="1.5"/></g><g transform="matrix(.537389 0 0 1 174.483 0)" clip-rule="evenodd"><rect width="9.712" height="37" rx="0" ry="0" transform="translate(1315.29 2253)" clip-rule="evenodd" fill-rule="evenodd" stroke="#000" stroke-width="7.74" stroke-linecap="round" stroke-linejoin="round" stroke-miterlimit="1.5"/></g><g transform="matrix(.673629 0 0 1 4.71897 0)" clip-rule="evenodd"><rect width="11.037" height="40" rx="0" ry="0" transform="translate(1126 2229)" clip-rule="evenodd" fill-rule="evenodd" stroke="#000" stroke-width="7" stroke-linecap="round" stroke-linejoin="round" stroke-miterlimit="1.5"/></g><g transform="matrix(.673629 0 0 1 2.69808 0)" clip-rule="evenodd"><rect width="9" height="43" rx="0" ry="0" transform="translate(1061 2124)" clip-rule="evenodd" fill-rule="evenodd" stroke="#000" stroke-width="7" stroke-linecap="round" stroke-linejoin="round" stroke-miterlimit="1.5"/></g></g></g></g></svg>