<svg id="edo1ftu4QgU1" xmlns="http://www.w3.org/2000/svg" xmlns:xlink="http://www.w3.org/1999/xlink" viewBox="0 0 441 399" shape-rendering="geometricPrecision" text-rendering="geometricPrecision"><style><![CDATA[#edo1ftu4QgU74_tr {animation: edo1ftu4QgU74_tr__tr 500ms linear infinite alternate-reverse forwards}@keyframes edo1ftu4QgU74_tr__tr { 0% {transform: translate(267.451004px,19.205885px) rotate(-11.459986deg);animation-timing-function: cubic-bezier(0.42,0,0.58,1)} 100% {transform: translate(267.451004px,19.205885px) rotate(-0.087177deg)}} #edo1ftu4QgU75_tr {animation: edo1ftu4QgU75_tr__tr 500ms linear infinite alternate-reverse forwards}@keyframes edo1ftu4QgU75_tr__tr { 0% {transform: translate(291.669403px,50.313217px) rotate(-22.582226deg);animation-timing-function: cubic-bezier(0.42,0,0.58,1)} 100% {transform: translate(291.669403px,50.313217px) rotate(0.21788deg)}} #edo1ftu4QgU76_tr {animation: edo1ftu4QgU76_tr__tr 500ms linear infinite alternate-reverse forwards}@keyframes edo1ftu4QgU76_tr__tr { 0% {transform: translate(305.27063px,80.422356px) rotate(0deg);animation-timing-function: cubic-bezier(0.42,0,0.58,1)} 100% {transform: translate(305.27063px,80.422356px) rotate(-34.677306deg)}}]]></style><g clip-rule="evenodd"><path d="M16.992,285.37c0,0-12.306,12.471-16.603-32.402s28.347-11.591,33.206-8.387c11.426-30.006,36.947-91.792,56.213-105.613c19.267-13.821,38.193-29.118,71.713-34-.487-14.121-7.896-32.455,11.763-42c19.66-9.544,74.31-10.138,34.524,43-16.022,5.842-20.922,6.826-18,13c2.923,6.174,18.165,9.803,28.222,3s17.803-38.741,37.778-39.233c19.976-.493,42.181,25.836,11,58.233-9.104,9.479-10.676,14.046,29,8-6.309-16.789-11.093-47.787,31-33c10.026,7.275,24.027,22.697,6,43c.831-27.775,64.106-53.156,53-1c9.076-5.928,58.483-31.189,46,36-8.179,7.823-15.095,14.471-24,13-.099,13.743-6.953,47.418-23,56-6.728,13.206-13.957,27.068-19,36-5.042,8.933-65.468,67.704-69,81-12.958,14.774-15,14.608-15,14.608l-34-16.608-3-37-15,13c0,0-20.753,11.622-32,7-11.246-4.622-14.709-23.43-6-38-7.057-.183-13.674,17.691-18.524,22s-21.718,4.878-21.476-12c.243-16.878-18.194,30.589-22-21-.002-10.466-28.672,9.389-23-26.598-7.148,14.841-17.454,40.271-31,11.598-1.944-9.835-5-23-5-23l-8-1c0,0-16.129,45.67-37,6-3.92,2.554-8.816,6.402-8.816,6.402Z" clip-rule="evenodd" fill="#fff" fill-rule="evenodd" stroke-linecap="round" stroke-linejoin="round" stroke-miterlimit="1.5"/><path d="M159.407,103.968c0,0-82.468-7.117-123.599,133-2.064,8.244-43.481-44.857-28,45c8.448,5.625,17.495-2.876,24-9c3.197,15.917,1.145,30.399,23,11c7.849-13.975,9.791-57.123-19-47c0,14.173-4,36-4,36" clip-rule="evenodd" fill="none" fill-rule="evenodd" stroke="#000" stroke-width="7" stroke-linecap="round" stroke-linejoin="round" stroke-miterlimit="1.5"/><path d="M54.808,235.968c0,0,17.029-31.406,27.071-44" clip-rule="evenodd" fill="none" fill-rule="evenodd" stroke="#000" stroke-width="7" stroke-linecap="round" stroke-linejoin="round" stroke-miterlimit="1.5"/><path d="M106.808,279.968c-3.551,9.715-10.33,33.251,11,30.675c13.851-10.082,24.896-18.606,24-33.675-.895-15.068-13.643-55.427-35,3Z" clip-rule="evenodd" fill="none" fill-rule="evenodd" stroke="#000" stroke-width="7" stroke-linecap="round" stroke-linejoin="round" stroke-miterlimit="1.5"/><path d="M123.979,248.506c0,0,4.556-18.021,17.88-34.538" clip-rule="evenodd" fill="none" fill-rule="evenodd" stroke="#000" stroke-width="7" stroke-linecap="round" stroke-linejoin="round" stroke-miterlimit="1.5"/><path d="M173.808,86.968l6,6" clip-rule="evenodd" fill="none" fill-rule="evenodd" stroke="#000" stroke-width="5" stroke-linecap="round" stroke-linejoin="round" stroke-miterlimit="1.5"/><path d="M189.232,126.968c0,0,17.222-3.767,32.466-1s-5.13-46.68,44.11-41c7.189.829,17.561,12.273,18.044,21.61.517,9.997-11.573,21.604-26.044,44.39-28.157,13.106-35.344-33.64-25.328-51.142" clip-rule="evenodd" fill="none" fill-rule="evenodd" stroke="#000" stroke-width="7" stroke-linecap="round" stroke-linejoin="round" stroke-miterlimit="1.5"/><path d="M149.808,276.644c0,0,51.871-145.931,145-123.676c4.122,10.128,12.009,11.705,14,12c0,0,43.342-4.01,29-37-16.23-37.335-63.62-22.684-43,25" clip-rule="evenodd" fill="none" fill-rule="evenodd" stroke="#000" stroke-width="7" stroke-linecap="round" stroke-linejoin="round" stroke-miterlimit="1.5"/><path d="M309.808,165.968c0,0-67.215,34.92-83,90-13.248,29.148-30,54.813-30,54.813c6.588-1.587-72.633,89.574-29-11.813c6.179-14.356,21.606-8.195,29,11.813" clip-rule="evenodd" fill="none" fill-rule="evenodd" stroke="#000" stroke-width="7" stroke-linecap="round" stroke-linejoin="round" stroke-miterlimit="1.5"/><path d="M136.919,297.968c.542-5.868-9.912,51.961,11.889,29c31.989-33.689.022-72.911-11.889-29Z" clip-rule="evenodd" fill="none" fill-rule="evenodd" stroke="#000" stroke-width="7" stroke-linecap="round" stroke-linejoin="round" stroke-miterlimit="1.5"/><path d="M202.808,236.968c0,0-26.274,41.688-27,54" clip-rule="evenodd" fill="none" fill-rule="evenodd" stroke="#000" stroke-width="7" stroke-linecap="round" stroke-linejoin="round" stroke-miterlimit="1.5"/><path d="M71.046,158.968c0,0,42.865-8.808,60.285,23" clip-rule="evenodd" fill="none" fill-rule="evenodd" stroke="#000" stroke-width="7" stroke-linecap="round" stroke-linejoin="round" stroke-miterlimit="1.5"/><path d="M89.808,136.968c0,0,50.187-.89,55,28" clip-rule="evenodd" fill="none" fill-rule="evenodd" stroke="#000" stroke-width="7" stroke-linecap="round" stroke-linejoin="round" stroke-miterlimit="1.5"/><path d="M113.808,116.968c0,0,32.608-8.545,53,24" clip-rule="evenodd" fill="none" fill-rule="evenodd" stroke="#000" stroke-width="7" stroke-linecap="round" stroke-linejoin="round" stroke-miterlimit="1.5"/><path d="M175.808,136.968c4.274-1.074,36.36-1.315,48,29.975" clip-rule="evenodd" fill="none" fill-rule="evenodd" stroke="#000" stroke-width="7" stroke-linecap="round" stroke-linejoin="round" stroke-miterlimit="1.5"/><path d="M159.407,150.967c0,0,38.478-2.71,45.901,32.001" clip-rule="evenodd" fill="none" fill-rule="evenodd" stroke="#000" stroke-width="7" stroke-linecap="round" stroke-linejoin="round" stroke-miterlimit="1.5"/><path d="M123.808,190.968c0,0,40.329-8.033,55,26" clip-rule="evenodd" fill="none" fill-rule="evenodd" stroke="#000" stroke-width="7" stroke-linecap="round" stroke-linejoin="round" stroke-miterlimit="1.5"/><path d="M133.808,177.403c0,0,49.045-9.563,52.5,28.522" clip-rule="evenodd" fill="none" fill-rule="evenodd" stroke="#000" stroke-width="7" stroke-linecap="round" stroke-linejoin="round" stroke-miterlimit="1.5"/><path d="M240.808,225.968c0,0-7.417-31.27-49-23" clip-rule="evenodd" fill="none" fill-rule="evenodd" stroke="#000" stroke-width="7" stroke-linecap="round" stroke-linejoin="round" stroke-miterlimit="1.5"/><path d="M216.308,175.968c0,0,38.89.157,44.5,25.608" clip-rule="evenodd" fill="none" fill-rule="evenodd" stroke="#000" stroke-width="7" stroke-linecap="round" stroke-linejoin="round" stroke-miterlimit="1.5"/><path d="M234.808,161.968c0,0,36.737-8.26,45,24" clip-rule="evenodd" fill="none" fill-rule="evenodd" stroke="#000" stroke-width="7" stroke-linecap="round" stroke-linejoin="round" stroke-miterlimit="1.5"/><path d="M365.648,186.968c0,0-63.351,18.14-80.84,99-17.079,27.734-36,46-36,46s-31.463-61.255-30,26c21.696,5.148,25.57-2.016,25.041-5l4.959-21" clip-rule="evenodd" fill="none" fill-rule="evenodd" stroke="#000" stroke-width="7" stroke-linecap="round" stroke-linejoin="round" stroke-miterlimit="1.5"/><path d="M218.759,357.968c-9.018,7.287-26.592,3.226-27.951,0-4-9.5-2.277-86.029,27.951-21" clip-rule="evenodd" fill="none" fill-rule="evenodd" stroke="#000" stroke-width="7" stroke-linecap="round" stroke-linejoin="round" stroke-miterlimit="1.5"/><path d="M224.808,312.66c0,0,13.704-39.755,25-54.719" clip-rule="evenodd" fill="none" fill-rule="evenodd" stroke="#000" stroke-width="7" stroke-linecap="round" stroke-linejoin="round" stroke-miterlimit="1.5"/><path d="M228.808,256.968c0,0,32.979-10.891,54,26" clip-rule="evenodd" fill="none" fill-rule="evenodd" stroke="#000" stroke-width="7" stroke-linecap="round" stroke-linejoin="round" stroke-miterlimit="1.5"/><path d="M238.808,230.9c0,0,53.055-6.827,55,28.248" clip-rule="evenodd" fill="none" fill-rule="evenodd" stroke="#000" stroke-width="7" stroke-linecap="round" stroke-linejoin="round" stroke-miterlimit="1.5"/><path d="M258.808,205.968c0,0,40.745.037,48,21.932" clip-rule="evenodd" fill="none" fill-rule="evenodd" stroke="#000" stroke-width="7" stroke-linecap="round" stroke-linejoin="round" stroke-miterlimit="1.5"/><path d="M300.237,173.968c0,0,29.264-5.539,37.571,28" clip-rule="evenodd" fill="none" fill-rule="evenodd" stroke="#000" stroke-width="7" stroke-linecap="round" stroke-linejoin="round" stroke-miterlimit="1.5"/><path d="M405.315,206.015c0,0,7.755,33.493-57.945,111.953s-64.562,75-64.562,75-12.304,10.492-14.69-16c-10.58-.163-26.736,14.215-24.31-22" clip-rule="evenodd" fill="none" fill-rule="evenodd" stroke="#000" stroke-width="7" stroke-linecap="round" stroke-linejoin="round" stroke-miterlimit="1.5"/><path d="M251.808,329.968c0,0,18.94-9.983,16,17" clip-rule="evenodd" fill="none" fill-rule="evenodd" stroke="#000" stroke-width="7" stroke-linecap="round" stroke-linejoin="round" stroke-miterlimit="1.5"/><path d="M267.808,375.968c0,0-10.216-44.22,16.571-32c13.43,6.127,5.554,19.304,3.429,43" clip-rule="evenodd" fill="none" fill-rule="evenodd" stroke="#000" stroke-width="7" stroke-linecap="round" stroke-linejoin="round" stroke-miterlimit="1.5"/><path d="M287.808,283.968c0,0,37.093-15.054,57,36" clip-rule="evenodd" fill="none" fill-rule="evenodd" stroke="#000" stroke-width="7" stroke-linecap="round" stroke-linejoin="round" stroke-miterlimit="1.5"/><path d="M293.808,259.968c0,0,51.031-12.07,67,38.351" clip-rule="evenodd" fill="none" fill-rule="evenodd" stroke="#000" stroke-width="7" stroke-linecap="round" stroke-linejoin="round" stroke-miterlimit="1.5"/><path d="M303.808,242.968c0,0,56.5,2.171,70,42.765" clip-rule="evenodd" fill="none" fill-rule="evenodd" stroke="#000" stroke-width="7" stroke-linecap="round" stroke-linejoin="round" stroke-miterlimit="1.5"/><path d="M318.808,220.968c0,0,52.707-2.334,69,38.973" clip-rule="evenodd" fill="none" fill-rule="evenodd" stroke="#000" stroke-width="7" stroke-linecap="round" stroke-linejoin="round" stroke-miterlimit="1.5"/><path d="M340.808,201.968c0,0,48.401,2.624,57,35" clip-rule="evenodd" fill="none" fill-rule="evenodd" stroke="#000" stroke-width="7" stroke-linecap="round" stroke-linejoin="round" stroke-miterlimit="1.5"/><path d="M56.808,279.644l56-73.676" clip-rule="evenodd" fill="none" fill-rule="evenodd" stroke="#000" stroke-width="7" stroke-linecap="round" stroke-linejoin="round" stroke-miterlimit="1.5"/><path d="M282.808,341.968l31-53" clip-rule="evenodd" fill="none" fill-rule="evenodd" stroke="#000" stroke-width="7" stroke-linecap="round" stroke-linejoin="round" stroke-miterlimit="1.5"/><path d="M393.808,151.968c0,0,41.207-22.02,43,28c1.794,50.02-70.731,13.489-63.507,3" clip-rule="evenodd" fill="none" fill-rule="evenodd" stroke="#000" stroke-width="7" stroke-linecap="round" stroke-linejoin="round" stroke-miterlimit="1.5"/><path d="M332.89,160.968c0,0,4.639-6.196,8.918-14.222c5.109-9.582,11.407-23.92,32-18.778c37.844,9.449,7.825,51.847-8.16,59-22.17,6.651-42.14-15.845-32.758-26Z" clip-rule="evenodd" fill="none" fill-rule="evenodd" stroke="#000" stroke-width="7" stroke-linecap="round" stroke-linejoin="round" stroke-miterlimit="1.5"/><path d="M172.808,231.968c0,0,43.2-9.352,53,20" clip-rule="evenodd" fill="none" fill-rule="evenodd" stroke="#000" stroke-width="7" stroke-linecap="round" stroke-linejoin="round" stroke-miterlimit="1.5"/><path d="M57.808,182.968c0,0,45.534,4.808,52,22" clip-rule="evenodd" fill="none" fill-rule="evenodd" stroke="#000" stroke-width="7" stroke-linecap="round" stroke-linejoin="round" stroke-miterlimit="1.5"/><path d="M190.552,108.981c0,0,2.394,7.401,0,17.987-10.363.796-74.424,54.032-98.744,128-9.484,2.378-32.044-6.011-16,36.313c3.722,9.816,7.181,31.134,23,2c10.923-20.117,2.541-37.821-7-38.313" clip-rule="evenodd" fill="none" fill-rule="evenodd" stroke="#000" stroke-width="7" stroke-linecap="round" stroke-linejoin="round" stroke-miterlimit="1.5"/><path d="M161.808,78.968c0,0-11.824,29.298,17,30c28.825.702,54.937-27.421,37-46s-49.764,1.05-54,16Z" clip-rule="evenodd" fill="none" fill-rule="evenodd" stroke="#000" stroke-width="7" stroke-linecap="round" stroke-linejoin="round" stroke-miterlimit="1.5"/><path d="M80.808,146.968c0,0,43.722-2.17,56,22.941" clip-rule="evenodd" fill="none" fill-rule="evenodd" stroke="#000" stroke-width="7" stroke-linecap="round" stroke-linejoin="round" stroke-miterlimit="1.5"/><path d="M96.808,125.968c0,0,37.221-2.876,58,22.949" clip-rule="evenodd" fill="none" fill-rule="evenodd" stroke="#000" stroke-width="7" stroke-linecap="round" stroke-linejoin="round" stroke-miterlimit="1.5"/><path d="M64.808,169.909c0,0,44.86-5.868,57,21.059" clip-rule="evenodd" fill="none" fill-rule="evenodd" stroke="#000" stroke-width="7" stroke-linecap="round" stroke-linejoin="round" stroke-miterlimit="1.5"/><path d="M147.808,160.415c0,0,41.344.222,48,32.553" clip-rule="evenodd" fill="none" fill-rule="evenodd" stroke="#000" stroke-width="7" stroke-linecap="round" stroke-linejoin="round" stroke-miterlimit="1.5"/><path d="M168.808,139.395c0,0,36.78,5.953,46,35.296" clip-rule="evenodd" fill="none" fill-rule="evenodd" stroke="#000" stroke-width="7" stroke-linecap="round" stroke-linejoin="round" stroke-miterlimit="1.5"/><path d="M182.808,213.772c0,0,36.396-2.222,51,22.196" clip-rule="evenodd" fill="none" fill-rule="evenodd" stroke="#000" stroke-width="7" stroke-linecap="round" stroke-linejoin="round" stroke-miterlimit="1.5"/><path d="M208.308,186.968c0,0,30.218-2.964,42.5,26.751" clip-rule="evenodd" fill="none" fill-rule="evenodd" stroke="#000" stroke-width="7" stroke-linecap="round" stroke-linejoin="round" stroke-miterlimit="1.5"/><path d="M233.558,243.968c0,0,41.915-8.215,56.25,24" clip-rule="evenodd" fill="none" fill-rule="evenodd" stroke="#000" stroke-width="7" stroke-linecap="round" stroke-linejoin="round" stroke-miterlimit="1.5"/><path d="M246.808,218.968c0,0,46.526-.643,55,23.31" clip-rule="evenodd" fill="none" fill-rule="evenodd" stroke="#000" stroke-width="7" stroke-linecap="round" stroke-linejoin="round" stroke-miterlimit="1.5"/><path d="M289.808,180.968c0,0,29.331,1.629,40,27" clip-rule="evenodd" fill="none" fill-rule="evenodd" stroke="#000" stroke-width="7" stroke-linecap="round" stroke-linejoin="round" stroke-miterlimit="1.5"/><path d="M329.808,207.968c0,0,49.128,3.381,64,40" clip-rule="evenodd" fill="none" fill-rule="evenodd" stroke="#000" stroke-width="7" stroke-linecap="round" stroke-linejoin="round" stroke-miterlimit="1.5"/><path d="M312.808,229.968c0,0,55.199,3.629,69,40" clip-rule="evenodd" fill="none" fill-rule="evenodd" stroke="#000" stroke-width="7" stroke-linecap="round" stroke-linejoin="round" stroke-miterlimit="1.5"/><path d="M268.808,189.468c0,0,38.313,7.286,46,30.5" clip-rule="evenodd" fill="none" fill-rule="evenodd" stroke="#000" stroke-width="7" stroke-linecap="round" stroke-linejoin="round" stroke-miterlimit="1.5"/><path d="M228.808,165.968c0,0,34.775,7.442,39,28.5" clip-rule="evenodd" fill="none" fill-rule="evenodd" stroke="#000" stroke-width="7" stroke-linecap="round" stroke-linejoin="round" stroke-miterlimit="1.5"/><path d="M290.808,273.373c0,0,49.348-9.203,63,36.595" clip-rule="evenodd" fill="none" fill-rule="evenodd" stroke="#000" stroke-width="7" stroke-linecap="round" stroke-linejoin="round" stroke-miterlimit="1.5"/><path d="M241.808,105.968c0,0-.178,6.728,6,4" clip-rule="evenodd" fill="none" fill-rule="evenodd" stroke="#000" stroke-width="5" stroke-linecap="round" stroke-linejoin="round" stroke-miterlimit="1.5"/><path d="M260.541,113.091c0,0-.178,6.728,6,4" clip-rule="evenodd" fill="none" fill-rule="evenodd" stroke="#000" stroke-width="5" stroke-linecap="round" stroke-linejoin="round" stroke-miterlimit="1.5"/><path d="M303.751,128.042c0,0-.178,6.728,6,4" clip-rule="evenodd" fill="none" fill-rule="evenodd" stroke="#000" stroke-width="5" stroke-linecap="round" stroke-linejoin="round" stroke-miterlimit="1.5"/><path d="M317.661,135.861c0,0,3.015,6.017,7.178.699" clip-rule="evenodd" fill="none" fill-rule="evenodd" stroke="#000" stroke-width="5" stroke-linecap="round" stroke-linejoin="round" stroke-miterlimit="1.5"/><path d="M356.454,146.441c0,0-.178,6.728,6,4" clip-rule="evenodd" fill="none" fill-rule="evenodd" stroke="#000" stroke-width="5" stroke-linecap="round" stroke-linejoin="round" stroke-miterlimit="1.5"/><path d="M371.914,154.822c0,0-.178,6.728,6,4" clip-rule="evenodd" fill="none" fill-rule="evenodd" stroke="#000" stroke-width="5" stroke-linecap="round" stroke-linejoin="round" stroke-miterlimit="1.5"/><path d="M399.545,165.678c0,0-.178,6.728,6,4" clip-rule="evenodd" fill="none" fill-rule="evenodd" stroke="#000" stroke-width="5" stroke-linecap="round" stroke-linejoin="round" stroke-miterlimit="1.5"/><path d="M415.531,174.652c0,0,2.88,6.083,7.16.858" clip-rule="evenodd" fill="none" fill-rule="evenodd" stroke="#000" stroke-width="5" stroke-linecap="round" stroke-linejoin="round" stroke-miterlimit="1.5"/><path d="M241.808,126.968c0,0,7.321,6.021,13,6" clip-rule="evenodd" fill="none" fill-rule="evenodd" stroke="#000" stroke-width="5" stroke-linecap="round" stroke-linejoin="round" stroke-miterlimit="1.5"/><path d="M306.808,146.968c0,0,3.895,1.171,12,3" clip-rule="evenodd" fill="none" fill-rule="evenodd" stroke="#000" stroke-width="5" stroke-linecap="round" stroke-linejoin="round" stroke-miterlimit="1.5"/><path d="M350.808,164.968c0,0,8.654,5.755,12,6" clip-rule="evenodd" fill="none" fill-rule="evenodd" stroke="#000" stroke-width="5" stroke-linecap="round" stroke-linejoin="round" stroke-miterlimit="1.5"/><path d="M395.808,180.968c0,0,7.809,4.14,13,5" clip-rule="evenodd" fill="none" fill-rule="evenodd" stroke="#000" stroke-width="5" stroke-linecap="round" stroke-linejoin="round" stroke-miterlimit="1.5"/><g id="edo1ftu4QgU74_tr" transform="translate(267.451004,19.205885) rotate(-0.087177)"><path d="M267.784,0.292c.846.379,1.865.818,3.057,1.317c1.191.498,2.38,1.004,3.565,1.518s2.302.997,3.351,1.449c1.049.453,1.869.83,2.46,1.131c1.195.573,2.035,1.249,2.52,2.029.484.78.678,1.602.581,2.466s-.457,1.746-1.079,2.647c-.622.9-1.442,1.757-2.46,2.571-.401.328-1.06.804-1.975,1.428-.915.623-1.953,1.319-3.114,2.087-1.161.767-2.362,1.562-3.602,2.385s-2.364,1.589-3.372,2.298-1.816,1.317-2.425,1.824c-.609.508-.888.827-.838.958.05.132.256.279.619.441.362.163.796.349,1.301.557.506.209,1.06.43,1.662.664.603.234,1.191.48,1.765.738c1.753.786,3.014,1.615,3.784,2.487.771.872,1.199,1.718,1.285,2.537s-.108,1.575-.583,2.27c-.475.694-1.101,1.239-1.877,1.635-.777.395-1.631.62-2.562.674-.932.054-1.807-.139-2.626-.579-1.598-.645-3.038-1.237-4.321-1.776-1.282-.539-2.468-1.071-3.557-1.596-1.09-.525-2.134-1.049-3.134-1.57s-2.024-1.071-3.071-1.65c-.926-.524-1.442-1.174-1.549-1.947-.106-.774.077-1.608.551-2.502.474-.895,1.162-1.82,2.063-2.777s1.867-1.857,2.899-2.701c1.147-.937,2.272-1.766,3.376-2.487c1.103-.72,2.21-1.467,3.319-2.24.33-.251.805-.601,1.423-1.049.619-.448,1.274-.917,1.965-1.405s1.353-.953,1.987-1.395s1.124-.766,1.471-.973c.505-.318.7-.63.583-.936-.116-.307-.46-.633-1.03-.98-.571-.347-1.338-.718-2.304-1.115-.965-.397-2.05-.83-3.256-1.298-.678-.268-1.169-.67-1.473-1.205-.304-.536-.451-1.119-.44-1.75.01-.63.155-1.255.433-1.874.278-.62.644-1.154,1.1-1.603.455-.449.991-.753,1.607-.912s1.256-.09,1.921.209Z" transform="translate(-267.451004,-19.205885)" clip-rule="evenodd" stroke-linecap="round" stroke-linejoin="round" stroke-miterlimit="1.5"/></g><g id="edo1ftu4QgU75_tr" transform="translate(291.669403,50.313217) rotate(0.21788)"><path d="M291.954,34.124c.724.325,1.596.701,2.617,1.128c1.02.427,2.037.86,3.051,1.299c1.014.44,1.971.853,2.869,1.241.898.387,1.599.71,2.105.968c1.023.49,1.741,1.069,2.156,1.736.415.668.581,1.372.498,2.111s-.391,1.494-.923,2.265c-.533.771-1.235,1.504-2.106,2.201-.344.28-.907.688-1.69,1.222s-1.672,1.129-2.666,1.786c-.993.657-2.021,1.337-3.083,2.042-1.061.704-2.023,1.359-2.886,1.966s-1.554,1.128-2.075,1.562-.761.707-.718.82c.043.112.22.238.53.377.31.14.682.298,1.114.477.433.178.907.368,1.423.568.515.201,1.019.411,1.51.632c1.5.673,2.58,1.382,3.239,2.129.659.746,1.026,1.47,1.099,2.171.074.701-.092,1.348-.499,1.942-.406.595-.942,1.061-1.606,1.4-.665.339-1.396.531-2.193.577s-1.546-.119-2.247-.496c-1.368-.552-2.601-1.058-3.699-1.52-1.097-.461-2.112-.917-3.044-1.366-.933-.449-1.827-.897-2.683-1.343-.856-.447-1.732-.917-2.628-1.413-.793-.449-1.235-1.004-1.326-1.666-.091-.663.066-1.376.472-2.142.405-.765.994-1.558,1.765-2.377.772-.818,1.599-1.589,2.482-2.311.981-.802,1.944-1.512,2.889-2.129.945-.616,1.892-1.256,2.841-1.917.283-.215.689-.514,1.218-.898.53-.384,1.09-.784,1.682-1.202.591-.419,1.158-.817,1.7-1.194.543-.378.962-.656,1.259-.833.433-.272.6-.539.5-.802-.1-.262-.394-.541-.882-.838s-1.146-.615-1.972-.955c-.826-.339-1.755-.709-2.787-1.11-.58-.23-1-.574-1.261-1.032-.26-.459-.386-.958-.376-1.497.009-.54.132-1.075.37-1.605s.552-.987.942-1.371c.39-.385.848-.645,1.375-.781s1.075-.077,1.644.178Z" transform="translate(-291.669403,-50.313217)" clip-rule="evenodd" stroke-linecap="round" stroke-linejoin="round" stroke-miterlimit="1.5"/></g><g id="edo1ftu4QgU76_tr" transform="translate(305.27063,80.422356) rotate(-34.677306)"><path d="M305.508,66.959c.602.27,1.327.583,2.175.938.849.355,1.695.715,2.538,1.08.844.366,1.639.71,2.386,1.032s1.33.591,1.751.805c.85.408,1.448.889,1.793,1.444.345.556.483,1.141.414,1.755-.069.615-.325,1.243-.768,1.884s-1.026,1.251-1.751,1.83c-.286.234-.754.573-1.406,1.017-.651.444-1.39.939-2.216,1.485-.827.547-1.682,1.112-2.564,1.698-.883.586-1.683,1.131-2.401,1.636-.717.505-1.293.938-1.726,1.299s-.632.588-.596.681c.035.094.182.198.44.314s.567.248.927.397c.359.148.754.306,1.183.472.429.167.848.342,1.256.525c1.247.56,2.145,1.15,2.693,1.771.549.621.854,1.222.915,1.805s-.077,1.122-.415,1.616-.784.882-1.336,1.164c-.553.282-1.161.442-1.824.48s-1.286-.099-1.869-.412c-1.137-.459-2.163-.881-3.075-1.264-.913-.384-1.757-.763-2.533-1.137-.775-.373-1.519-.746-2.231-1.117-.711-.371-1.44-.763-2.185-1.174-.66-.374-1.027-.836-1.103-1.387-.076-.55.055-1.144.392-1.781.338-.636.827-1.295,1.469-1.976.641-.681,1.329-1.322,2.064-1.922.816-.668,1.617-1.258,2.402-1.771.786-.513,1.573-1.044,2.363-1.594.235-.179.573-.428,1.013-.747s.906-.652,1.398-1s.964-.679,1.415-.993.8-.545,1.047-.693c.36-.226.498-.448.415-.666s-.327-.45-.733-.697-.953-.512-1.64-.794c-.687-.283-1.46-.59-2.318-.924-.482-.191-.832-.477-1.048-.858-.217-.381-.321-.796-.314-1.245.008-.449.111-.894.308-1.334.198-.441.459-.822.783-1.141.325-.32.706-.536,1.144-.649.439-.114.895-.064,1.368.148Z" transform="translate(-305.27063,-80.422356)" clip-rule="evenodd" stroke-linecap="round" stroke-linejoin="round" stroke-miterlimit="1.5"/></g><path d="M184.808,68.968c0,0-5.993,7.854,4,7" clip-rule="evenodd" fill="none" fill-rule="evenodd" stroke="#000" stroke-width="4.5" stroke-linecap="round" stroke-linejoin="round" stroke-miterlimit="1.5"/><path d="M197.019,82.67c0,0-5.993,7.854,4,7" clip-rule="evenodd" fill="none" fill-rule="evenodd" stroke="#000" stroke-width="5" stroke-linecap="round" stroke-linejoin="round" stroke-miterlimit="1.5"/></g></svg>