<svg id="e0a2IuvjFWX1" xmlns="http://www.w3.org/2000/svg" xmlns:xlink="http://www.w3.org/1999/xlink" viewBox="0 0 491 368" shape-rendering="geometricPrecision" text-rendering="geometricPrecision"><style><![CDATA[#e0a2IuvjFWX84_to {animation: e0a2IuvjFWX84_to__to 500ms linear infinite alternate-reverse forwards}@keyframes e0a2IuvjFWX84_to__to { 0% {transform: translate(341.857437px,28.858527px)} 100% {transform: translate(340.857437px,30.858527px)}} #e0a2IuvjFWX85_to {animation: e0a2IuvjFWX85_to__to 500ms linear infinite alternate-reverse forwards}@keyframes e0a2IuvjFWX85_to__to { 0% {transform: translate(365.150192px,21.251552px)} 100% {transform: translate(365.150192px,23.251552px)}} #e0a2IuvjFWX86_to {animation: e0a2IuvjFWX86_to__to 500ms linear infinite alternate-reverse forwards}@keyframes e0a2IuvjFWX86_to__to { 0% {transform: translate(390.46637px,28.769636px)} 100% {transform: translate(390.46637px,26.769636px)}} #e0a2IuvjFWX87_to {animation: e0a2IuvjFWX87_to__to 500ms linear infinite alternate-reverse forwards}@keyframes e0a2IuvjFWX87_to__to { 0% {transform: translate(423.005219px,28.119368px)} 100% {transform: translate(423.005219px,30.119368px)}} #e0a2IuvjFWX88_to {animation: e0a2IuvjFWX88_to__to 500ms linear infinite alternate-reverse forwards}@keyframes e0a2IuvjFWX88_to__to { 0% {transform: translate(453.425735px,28.873459px)} 100% {transform: translate(452.425735px,25.873459px)}} #e0a2IuvjFWX89_to {animation: e0a2IuvjFWX89_to__to 500ms linear infinite alternate-reverse forwards}@keyframes e0a2IuvjFWX89_to__to { 0% {transform: translate(481.051041px,28.709152px)} 100% {transform: translate(480.051041px,29.709152px)}} #e0a2IuvjFWX90_to {animation: e0a2IuvjFWX90_to__to 500ms linear infinite alternate-reverse forwards}@keyframes e0a2IuvjFWX90_to__to { 0% {transform: translate(280.060509px,57.866px)} 100% {transform: translate(280.060509px,59.866px)}}]]></style><g clip-rule="evenodd"><g clip-rule="evenodd"><path d="M372.823,170.49c0,0-46.372-16.718-84.792,141.798-4.257,6.487-23.863-1.301-13.591,19.174c10.272,20.476,19.779,30.933,19.779,30.933l15.384-8.266l6.125,7.396l15.832-14.319l19.393-43.507c0,0,27.22-43.478,32.517-56.344s33.029-65.99-10.647-76.865Z" clip-rule="evenodd" fill="#fff" fill-rule="evenodd" stroke-linecap="round" stroke-linejoin="round" stroke-miterlimit="1.5"/><path d="M390.961,121.797c12.495,5.169,20.068,18.113,15.937,31.568-4.13,13.454-17.978,21.155-30.905,17.186-12.926-3.968-13.083-17.786-15.937-31.567-3.812-18.409,11.41-25.253,30.905-17.187Z" clip-rule="evenodd" fill="#fff" fill-rule="evenodd" stroke="#000" stroke-width="7" stroke-linecap="round" stroke-linejoin="round" stroke-miterlimit="1.5"/><path d="M376.293,134.019c2.377.73,3.715,3.253,2.985,5.63s-3.252,3.715-5.63,2.985c-2.377-.73-3.714-3.252-2.984-5.63.729-2.377,3.252-3.714,5.629-2.985Z" clip-rule="evenodd" fill-rule="evenodd" stroke-linecap="round" stroke-linejoin="round" stroke-miterlimit="1.5"/><path d="M389.961,135.674c2.378.73,3.715,3.253,2.985,5.63s-3.252,3.715-5.629,2.985c-2.378-.73-3.715-3.253-2.985-5.63.729-2.377,3.252-3.715,5.629-2.985Z" clip-rule="evenodd" fill-rule="evenodd" stroke-linecap="round" stroke-linejoin="round" stroke-miterlimit="1.5"/><path d="M372.719,155.787c0,0,8.645-6.842,13.258-1.16c4.613,5.683,4.596,4.864,8.321,3.601" clip-rule="evenodd" fill="none" fill-rule="evenodd" stroke="#020200" stroke-width="7" stroke-linecap="round" stroke-linejoin="round" stroke-miterlimit="1.5"/><path d="M295.579,363.606c0,0-47.02-75.544.389-41.022c15.228,19.549,12.41,30.838,12.41,30.838-1.321,8.211-5.83,11.209-12.799,10.184Z" clip-rule="evenodd" fill="none" fill-rule="evenodd" stroke="#020200" stroke-width="7" stroke-linecap="round" stroke-linejoin="round" stroke-miterlimit="1.5"/><path d="M314.789,330.997c0,0,19.315-56.953,25.286-6.088-2.955,17.172-7.101,33.455-25.987,29.86-3.682-.701-1.626-6.756.701-23.772Z" clip-rule="evenodd" fill="none" fill-rule="evenodd" stroke="#020200" stroke-width="7" stroke-linecap="round" stroke-linejoin="round" stroke-miterlimit="1.5"/><path d="M304.571,258.454c0,0,39.225-25.65,63.159,19.005" clip-rule="evenodd" fill="none" fill-rule="evenodd" stroke="#020200" stroke-width="7" stroke-linecap="round" stroke-linejoin="round" stroke-miterlimit="1.5"/><path d="M313.352,224.743c0,0,52.993-2.226,67.902,25.931" clip-rule="evenodd" fill="none" fill-rule="evenodd" stroke="#020200" stroke-width="7" stroke-linecap="round" stroke-linejoin="round" stroke-miterlimit="1.5"/><path d="M326.846,198.348c0,0,43.596-5.91,69.726,20.646" clip-rule="evenodd" fill="none" fill-rule="evenodd" stroke="#020200" stroke-width="7" stroke-linecap="round" stroke-linejoin="round" stroke-miterlimit="1.5"/><path d="M320.703,210.348c0,0,47.466.638,66.937,21.667" clip-rule="evenodd" fill="none" fill-rule="evenodd" stroke="#020200" stroke-width="7" stroke-linecap="round" stroke-linejoin="round" stroke-miterlimit="1.5"/><path d="M340.158,182.355c0,0,39.16,3.972,57.359,20.856" clip-rule="evenodd" fill="none" fill-rule="evenodd" stroke="#020200" stroke-width="7" stroke-linecap="round" stroke-linejoin="round" stroke-miterlimit="1.5"/><path d="M288.808,315.186c0,0,30.294-156.369,78.105-146.335c47.812,10.033,36.184,47.938-26.914,159.132" clip-rule="evenodd" fill="none" fill-rule="evenodd" stroke="#020200" stroke-width="7" stroke-linecap="round" stroke-linejoin="round" stroke-miterlimit="1.5"/><path d="M329.196,268.889c0,0-24.676,38.796-17.827,77.519" clip-rule="evenodd" fill="none" fill-rule="evenodd" stroke="#000" stroke-width="7" stroke-linecap="round" stroke-linejoin="round" stroke-miterlimit="1.5"/><path d="M309.832,239.147c0,0,32.969-10.567,63.224,23.425" clip-rule="evenodd" fill="none" fill-rule="evenodd" stroke="#000" stroke-width="7" stroke-linecap="round" stroke-linejoin="round" stroke-miterlimit="1.5"/></g><g clip-rule="evenodd"><path d="M306.771,155.965c0,0-46.372-16.719-84.791,141.798-4.258,6.487-23.863-1.301-13.591,19.174s19.779,30.933,19.779,30.933l15.384-8.266L249.676,347l15.832-14.319l19.394-43.507c0,0,27.22-43.478,32.517-56.344s33.029-65.99-10.648-76.865Z" clip-rule="evenodd" fill="#fff" fill-rule="evenodd" stroke-linecap="round" stroke-linejoin="round" stroke-miterlimit="1.5"/><path d="M324.91,107.272c12.494,5.169,20.067,18.113,15.937,31.567-4.131,13.454-17.979,21.155-30.905,17.187-12.927-3.969-13.084-17.787-15.938-31.568-3.812-18.408,11.411-25.252,30.906-17.186Z" clip-rule="evenodd" fill="#fff" fill-rule="evenodd" stroke="#000" stroke-width="7" stroke-linecap="round" stroke-linejoin="round" stroke-miterlimit="1.5"/><path d="M310.242,119.494c2.377.73,3.714,3.252,2.984,5.63-.729,2.377-3.252,3.714-5.629,2.984-2.377-.729-3.715-3.252-2.985-5.629s3.252-3.715,5.63-2.985Z" clip-rule="evenodd" fill-rule="evenodd" stroke-linecap="round" stroke-linejoin="round" stroke-miterlimit="1.5"/><path d="M323.91,121.149c2.377.73,3.714,3.252,2.985,5.629-.73,2.378-3.253,3.715-5.63,2.985s-3.715-3.252-2.985-5.629c.73-2.378,3.252-3.715,5.63-2.985Z" clip-rule="evenodd" fill-rule="evenodd" stroke-linecap="round" stroke-linejoin="round" stroke-miterlimit="1.5"/><path d="M306.667,141.262c0,0,8.645-6.843,13.258-1.16c4.614,5.683,4.597,4.864,8.321,3.601" clip-rule="evenodd" fill="none" fill-rule="evenodd" stroke="#020200" stroke-width="7" stroke-linecap="round" stroke-linejoin="round" stroke-miterlimit="1.5"/><path d="M229.528,349.08c0,0-47.021-75.544.389-41.021c15.228,19.548,12.41,30.838,12.41,30.838-1.321,8.211-5.83,11.208-12.799,10.183Z" clip-rule="evenodd" fill="none" fill-rule="evenodd" stroke="#020200" stroke-width="7" stroke-linecap="round" stroke-linejoin="round" stroke-miterlimit="1.5"/><path d="M248.738,316.471c0,0,19.314-56.953,25.286-6.087-2.956,17.172-7.102,33.454-25.987,29.86-3.682-.701-1.627-6.756.701-23.773Z" clip-rule="evenodd" fill="none" fill-rule="evenodd" stroke="#020200" stroke-width="7" stroke-linecap="round" stroke-linejoin="round" stroke-miterlimit="1.5"/><path d="M238.519,243.929c0,0,39.226-25.65,63.159,19.004" clip-rule="evenodd" fill="none" fill-rule="evenodd" stroke="#020200" stroke-width="7" stroke-linecap="round" stroke-linejoin="round" stroke-miterlimit="1.5"/><path d="M247.301,210.218c0,0,52.992-2.227,67.902,25.93" clip-rule="evenodd" fill="none" fill-rule="evenodd" stroke="#020200" stroke-width="7" stroke-linecap="round" stroke-linejoin="round" stroke-miterlimit="1.5"/><path d="M260.795,183.823c0,0,43.595-5.91,69.726,20.646" clip-rule="evenodd" fill="none" fill-rule="evenodd" stroke="#020200" stroke-width="7" stroke-linecap="round" stroke-linejoin="round" stroke-miterlimit="1.5"/><path d="M254.652,195.823c0,0,47.466.637,66.936,21.666" clip-rule="evenodd" fill="none" fill-rule="evenodd" stroke="#020200" stroke-width="7" stroke-linecap="round" stroke-linejoin="round" stroke-miterlimit="1.5"/><path d="M274.107,167.829c0,0,39.159,3.973,57.358,20.857" clip-rule="evenodd" fill="none" fill-rule="evenodd" stroke="#020200" stroke-width="7" stroke-linecap="round" stroke-linejoin="round" stroke-miterlimit="1.5"/><path d="M222.756,300.661c0,0,30.294-156.369,78.106-146.336c47.811,10.034,36.184,47.939-26.914,159.132" clip-rule="evenodd" fill="none" fill-rule="evenodd" stroke="#020200" stroke-width="7" stroke-linecap="round" stroke-linejoin="round" stroke-miterlimit="1.5"/><path d="M263.144,254.364c0,0-24.675,38.795-17.826,77.519" clip-rule="evenodd" fill="none" fill-rule="evenodd" stroke="#000" stroke-width="7" stroke-linecap="round" stroke-linejoin="round" stroke-miterlimit="1.5"/><path d="M243.78,224.621c0,0,32.969-10.566,63.224,23.425" clip-rule="evenodd" fill="none" fill-rule="evenodd" stroke="#000" stroke-width="7" stroke-linecap="round" stroke-linejoin="round" stroke-miterlimit="1.5"/></g><g clip-rule="evenodd"><path d="M236.996,146.72c0,0-46.372-16.718-84.791,141.798-4.258,6.487-23.863-1.301-13.591,19.175c10.272,20.475,19.779,30.932,19.779,30.932l15.384-8.266l6.124,7.396l15.832-14.319l19.394-43.507c0,0,27.22-43.478,32.517-56.344s33.029-65.99-10.648-76.865Z" clip-rule="evenodd" fill="#fff" fill-rule="evenodd" stroke-linecap="round" stroke-linejoin="round" stroke-miterlimit="1.5"/><path d="M255.135,98.027c12.494,5.17,20.067,18.114,15.937,31.568-4.131,13.454-17.979,21.155-30.905,17.186-12.927-3.968-13.083-17.786-15.937-31.567-3.813-18.409,11.41-25.253,30.905-17.187Z" clip-rule="evenodd" fill="#fff" fill-rule="evenodd" stroke="#000" stroke-width="7" stroke-linecap="round" stroke-linejoin="round" stroke-miterlimit="1.5"/><path d="M240.467,110.249c2.377.73,3.714,3.253,2.985,5.63-.73,2.377-3.253,3.715-5.63,2.985s-3.715-3.252-2.985-5.63c.73-2.377,3.252-3.714,5.63-2.985Z" clip-rule="evenodd" fill-rule="evenodd" stroke-linecap="round" stroke-linejoin="round" stroke-miterlimit="1.5"/><path d="M254.135,111.904c2.377.73,3.715,3.253,2.985,5.63s-3.253,3.715-5.63,2.985-3.715-3.253-2.985-5.63s3.253-3.715,5.63-2.985Z" clip-rule="evenodd" fill-rule="evenodd" stroke-linecap="round" stroke-linejoin="round" stroke-miterlimit="1.5"/><path d="M236.892,132.017c0,0,8.645-6.842,13.258-1.16c4.614,5.683,4.597,4.864,8.322,3.601" clip-rule="evenodd" fill="none" fill-rule="evenodd" stroke="#020200" stroke-width="7" stroke-linecap="round" stroke-linejoin="round" stroke-miterlimit="1.5"/><path d="M159.753,339.836c0,0-47.021-75.544.389-41.022c15.228,19.549,12.41,30.838,12.41,30.838-1.321,8.211-5.83,11.209-12.799,10.184Z" clip-rule="evenodd" fill="none" fill-rule="evenodd" stroke="#020200" stroke-width="7" stroke-linecap="round" stroke-linejoin="round" stroke-miterlimit="1.5"/><path d="M178.963,307.227c0,0,19.314-56.953,25.286-6.088-2.956,17.172-7.102,33.455-25.987,29.86-3.682-.701-1.627-6.755.701-23.772Z" clip-rule="evenodd" fill="none" fill-rule="evenodd" stroke="#020200" stroke-width="7" stroke-linecap="round" stroke-linejoin="round" stroke-miterlimit="1.5"/><path d="M168.744,234.684c0,0,39.226-25.65,63.159,19.005" clip-rule="evenodd" fill="none" fill-rule="evenodd" stroke="#020200" stroke-width="7" stroke-linecap="round" stroke-linejoin="round" stroke-miterlimit="1.5"/><path d="M177.526,200.974c0,0,52.992-2.227,67.902,25.93" clip-rule="evenodd" fill="none" fill-rule="evenodd" stroke="#020200" stroke-width="7" stroke-linecap="round" stroke-linejoin="round" stroke-miterlimit="1.5"/><path d="M191.02,174.578c0,0,43.596-5.91,69.726,20.646" clip-rule="evenodd" fill="none" fill-rule="evenodd" stroke="#020200" stroke-width="7" stroke-linecap="round" stroke-linejoin="round" stroke-miterlimit="1.5"/><path d="M184.877,186.579c0,0,47.466.637,66.936,21.666" clip-rule="evenodd" fill="none" fill-rule="evenodd" stroke="#020200" stroke-width="7" stroke-linecap="round" stroke-linejoin="round" stroke-miterlimit="1.5"/><path d="M204.332,158.585c0,0,39.159,3.972,57.358,20.856" clip-rule="evenodd" fill="none" fill-rule="evenodd" stroke="#020200" stroke-width="7" stroke-linecap="round" stroke-linejoin="round" stroke-miterlimit="1.5"/><path d="M152.982,291.416c0,0,30.293-156.369,78.105-146.335c47.811,10.033,36.184,47.938-26.914,159.132" clip-rule="evenodd" fill="none" fill-rule="evenodd" stroke="#020200" stroke-width="7" stroke-linecap="round" stroke-linejoin="round" stroke-miterlimit="1.5"/><path d="M193.369,245.119c0,0-24.675,38.796-17.826,77.519" clip-rule="evenodd" fill="none" fill-rule="evenodd" stroke="#000" stroke-width="7" stroke-linecap="round" stroke-linejoin="round" stroke-miterlimit="1.5"/><path d="M174.006,215.377c0,0,32.969-10.566,63.224,23.425" clip-rule="evenodd" fill="none" fill-rule="evenodd" stroke="#000" stroke-width="7" stroke-linecap="round" stroke-linejoin="round" stroke-miterlimit="1.5"/></g><g clip-rule="evenodd"><path d="M170.551,134.449c0,0-46.372-16.718-84.792,141.798-4.257,6.487-23.862-1.301-13.59,19.174c10.272,20.476,19.779,30.933,19.779,30.933l15.384-8.266l6.124,7.396l15.832-14.319l19.394-43.507c0,0,27.22-43.478,32.517-56.344s33.029-65.99-10.648-76.865Z" clip-rule="evenodd" fill="#fff" fill-rule="evenodd" stroke-linecap="round" stroke-linejoin="round" stroke-miterlimit="1.5"/><path d="M188.689,85.756c12.495,5.169,20.068,18.113,15.937,31.567-4.13,13.454-17.978,21.155-30.905,17.187-12.926-3.969-13.083-17.786-15.937-31.568-3.812-18.408,11.411-25.252,30.905-17.186Z" clip-rule="evenodd" fill="#fff" fill-rule="evenodd" stroke="#000" stroke-width="7" stroke-linecap="round" stroke-linejoin="round" stroke-miterlimit="1.5"/><path d="M174.021,97.978c2.378.73,3.715,3.253,2.985,5.63s-3.252,3.715-5.629,2.985c-2.378-.73-3.715-3.253-2.985-5.63s3.252-3.715,5.629-2.985Z" clip-rule="evenodd" fill-rule="evenodd" stroke-linecap="round" stroke-linejoin="round" stroke-miterlimit="1.5"/><path d="M187.69,99.633c2.377.73,3.714,3.252,2.984,5.63-.729,2.377-3.252,3.714-5.629,2.984-2.377-.729-3.715-3.252-2.985-5.629s3.252-3.715,5.63-2.985Z" clip-rule="evenodd" fill-rule="evenodd" stroke-linecap="round" stroke-linejoin="round" stroke-miterlimit="1.5"/><path d="M170.447,119.746c0,0,8.645-6.843,13.258-1.16s4.596,4.864,8.321,3.601" clip-rule="evenodd" fill="none" fill-rule="evenodd" stroke="#020200" stroke-width="7" stroke-linecap="round" stroke-linejoin="round" stroke-miterlimit="1.5"/><path d="M93.308,327.565c0,0-47.021-75.544.389-41.022c15.227,19.548,12.41,30.838,12.41,30.838-1.321,8.211-5.83,11.209-12.799,10.184Z" clip-rule="evenodd" fill="none" fill-rule="evenodd" stroke="#020200" stroke-width="7" stroke-linecap="round" stroke-linejoin="round" stroke-miterlimit="1.5"/><path d="M112.518,294.955c0,0,19.314-56.953,25.286-6.087-2.956,17.172-7.102,33.454-25.987,29.86-3.683-.701-1.627-6.756.701-23.773Z" clip-rule="evenodd" fill="none" fill-rule="evenodd" stroke="#020200" stroke-width="7" stroke-linecap="round" stroke-linejoin="round" stroke-miterlimit="1.5"/><path d="M102.299,222.413c0,0,39.226-25.65,63.159,19.005" clip-rule="evenodd" fill="none" fill-rule="evenodd" stroke="#020200" stroke-width="7" stroke-linecap="round" stroke-linejoin="round" stroke-miterlimit="1.5"/><path d="M111.081,188.702c0,0,52.992-2.227,67.902,25.93" clip-rule="evenodd" fill="none" fill-rule="evenodd" stroke="#020200" stroke-width="7" stroke-linecap="round" stroke-linejoin="round" stroke-miterlimit="1.5"/><path d="M124.574,162.307c0,0,43.596-5.91,69.727,20.646" clip-rule="evenodd" fill="none" fill-rule="evenodd" stroke="#020200" stroke-width="7" stroke-linecap="round" stroke-linejoin="round" stroke-miterlimit="1.5"/><path d="M118.432,174.307c0,0,47.465.637,66.936,21.666" clip-rule="evenodd" fill="none" fill-rule="evenodd" stroke="#020200" stroke-width="7" stroke-linecap="round" stroke-linejoin="round" stroke-miterlimit="1.5"/><path d="M137.887,146.313c0,0,39.159,3.973,57.358,20.857" clip-rule="evenodd" fill="none" fill-rule="evenodd" stroke="#020200" stroke-width="7" stroke-linecap="round" stroke-linejoin="round" stroke-miterlimit="1.5"/><path d="M86.536,279.145c0,0,30.294-156.369,78.105-146.336c47.812,10.034,36.185,47.939-26.913,159.133" clip-rule="evenodd" fill="none" fill-rule="evenodd" stroke="#020200" stroke-width="7" stroke-linecap="round" stroke-linejoin="round" stroke-miterlimit="1.5"/><path d="M126.924,232.848c0,0-24.676,38.795-17.826,77.519" clip-rule="evenodd" fill="none" fill-rule="evenodd" stroke="#000" stroke-width="7" stroke-linecap="round" stroke-linejoin="round" stroke-miterlimit="1.5"/><path d="M107.56,203.105c0,0,32.969-10.566,63.224,23.425" clip-rule="evenodd" fill="none" fill-rule="evenodd" stroke="#000" stroke-width="7" stroke-linecap="round" stroke-linejoin="round" stroke-miterlimit="1.5"/></g><g clip-rule="evenodd"><path d="M101.527,131.865c0,0-46.372-16.718-84.792,141.798-4.257,6.487-23.863-1.301-13.591,19.174s19.779,30.933,19.779,30.933l15.384-8.266l6.125,7.396l15.832-14.319l19.393-43.507c0,0,27.22-43.478,32.517-56.344s33.029-65.99-10.647-76.865Z" clip-rule="evenodd" fill="#fff" fill-rule="evenodd" stroke-linecap="round" stroke-linejoin="round" stroke-miterlimit="1.5"/><path d="M119.665,83.172c12.495,5.169,20.068,18.113,15.937,31.567-4.13,13.454-17.979,21.155-30.905,17.187-12.926-3.969-13.083-17.786-15.937-31.568-3.812-18.408,11.41-25.252,30.905-17.186Z" clip-rule="evenodd" fill="#fff" fill-rule="evenodd" stroke="#000" stroke-width="7" stroke-linecap="round" stroke-linejoin="round" stroke-miterlimit="1.5"/><path d="M104.997,95.394c2.377.73,3.715,3.252,2.985,5.63-.73,2.377-3.252,3.714-5.63,2.985-2.377-.73-3.714-3.253-2.985-5.63.73-2.377,3.253-3.715,5.63-2.985Z" clip-rule="evenodd" fill-rule="evenodd" stroke-linecap="round" stroke-linejoin="round" stroke-miterlimit="1.5"/><path d="M118.665,97.049c2.377.73,3.715,3.252,2.985,5.629-.73,2.378-3.252,3.715-5.63,2.985-2.377-.73-3.714-3.252-2.984-5.629.729-2.378,3.252-3.715,5.629-2.985Z" clip-rule="evenodd" fill-rule="evenodd" stroke-linecap="round" stroke-linejoin="round" stroke-miterlimit="1.5"/><path d="M101.423,117.162c0,0,8.645-6.843,13.258-1.16s4.596,4.864,8.321,3.601" clip-rule="evenodd" fill="none" fill-rule="evenodd" stroke="#020200" stroke-width="7" stroke-linecap="round" stroke-linejoin="round" stroke-miterlimit="1.5"/><path d="M24.283,324.98c0,0-47.02-75.543.389-41.021c15.228,19.548,12.41,30.838,12.41,30.838-1.321,8.211-5.83,11.209-12.799,10.183Z" clip-rule="evenodd" fill="none" fill-rule="evenodd" stroke="#020200" stroke-width="7" stroke-linecap="round" stroke-linejoin="round" stroke-miterlimit="1.5"/><path d="M43.493,292.371c0,0,19.315-56.953,25.286-6.087-2.955,17.172-7.101,33.454-25.987,29.86-3.682-.701-1.626-6.756.701-23.773Z" clip-rule="evenodd" fill="none" fill-rule="evenodd" stroke="#020200" stroke-width="7" stroke-linecap="round" stroke-linejoin="round" stroke-miterlimit="1.5"/><path d="M33.275,219.829c0,0,39.225-25.65,63.159,19.005" clip-rule="evenodd" fill="none" fill-rule="evenodd" stroke="#020200" stroke-width="7" stroke-linecap="round" stroke-linejoin="round" stroke-miterlimit="1.5"/><path d="M42.056,186.118c0,0,52.993-2.227,67.902,25.93" clip-rule="evenodd" fill="none" fill-rule="evenodd" stroke="#020200" stroke-width="7" stroke-linecap="round" stroke-linejoin="round" stroke-miterlimit="1.5"/><path d="M55.55,159.723c0,0,43.596-5.91,69.726,20.646" clip-rule="evenodd" fill="none" fill-rule="evenodd" stroke="#020200" stroke-width="7" stroke-linecap="round" stroke-linejoin="round" stroke-miterlimit="1.5"/><path d="M49.407,171.723c0,0,47.466.637,66.937,21.666" clip-rule="evenodd" fill="none" fill-rule="evenodd" stroke="#020200" stroke-width="7" stroke-linecap="round" stroke-linejoin="round" stroke-miterlimit="1.5"/><path d="M68.862,143.729c0,0,39.16,3.973,57.359,20.857" clip-rule="evenodd" fill="none" fill-rule="evenodd" stroke="#020200" stroke-width="7" stroke-linecap="round" stroke-linejoin="round" stroke-miterlimit="1.5"/><path d="M17.512,276.561c0,0,30.294-156.369,78.105-146.336c47.812,10.034,36.184,47.939-26.914,159.132" clip-rule="evenodd" fill="none" fill-rule="evenodd" stroke="#020200" stroke-width="7" stroke-linecap="round" stroke-linejoin="round" stroke-miterlimit="1.5"/><path d="M57.9,230.264c0,0-24.676,38.795-17.827,77.519" clip-rule="evenodd" fill="none" fill-rule="evenodd" stroke="#000" stroke-width="7" stroke-linecap="round" stroke-linejoin="round" stroke-miterlimit="1.5"/><path d="M38.536,200.521c0,0,32.969-10.566,63.224,23.425" clip-rule="evenodd" fill="none" fill-rule="evenodd" stroke="#000" stroke-width="7" stroke-linecap="round" stroke-linejoin="round" stroke-miterlimit="1.5"/></g><g clip-rule="evenodd"><g id="e0a2IuvjFWX84_to" transform="translate(340.857437,30.858527)"><path d="M348.134,16.25c1.061.323,2.045.776,2.951,1.361s1.469,1.401,1.69,2.45c.044.363-.011.796-.166,1.301-.154.504-.408.978-.762,1.421-.354.444-.818.797-1.392,1.059-.575.262-1.26.312-2.055.151-.796-.161-1.713-.292-2.752-.393-1.038-.101-2.033-.061-2.983.121-.95.181-1.746.595-2.387,1.24-.64.645-.961,1.633-.961,2.964c0,1.492.243,2.662.729,3.508.487.847,1.105,1.432,1.857,1.755.751.322,1.602.403,2.552.242.95-.162,1.867-.484,2.751-.968c1.326-.726,2.453-1.018,3.381-.877.929.141,1.636.544,2.122,1.21.486.665.718,1.482.696,2.449-.022.968-.298,1.916-.829,2.844-.574.967-1.403,1.774-2.486,2.419s-2.276,1.129-3.58,1.452-2.618.494-3.944.514-2.542-.091-3.647-.333c-1.414-.362-2.64-.907-3.679-1.633s-1.901-1.573-2.586-2.54c-.685-.968-1.204-2.047-1.558-3.237-.353-1.189-.596-2.409-.729-3.659-.088-.888-.077-1.987.033-3.297.111-1.311.387-2.652.829-4.023s1.061-2.692,1.856-3.962c.796-1.271,1.868-2.299,3.216-3.085c1.348-.787,2.994-1.261,4.939-1.422c1.944-.161,4.243.161,6.894.968Z" transform="translate(-341.857437,-28.858527)" clip-rule="evenodd" stroke-linecap="round" stroke-linejoin="round" stroke-miterlimit="1.5"/></g><g id="e0a2IuvjFWX85_to" transform="translate(365.150192,23.251552)"><path d="M360.068,17.702c.088-2.42.132-4.648.132-6.685c0-2.036.089-4.083.265-6.139.133-1.573.663-2.763,1.592-3.569.928-.807,1.944-1.241,3.049-1.301s2.122.222,3.05.847s1.458,1.542,1.591,2.752c.177,2.138.287,4.003.331,5.596.045,1.593.089,3.236.133,4.93.044,2.137.066,4.093.066,5.868v5.262c0,1.734-.033,3.499-.099,5.293-.067,1.795-.144,3.781-.232,5.959-.044.685-.144,1.381-.299,2.087-.154.705-.431,1.351-.828,1.935-.398.585-.951,1.059-1.658,1.422s-1.591.544-2.652.544c-1.06,0-1.889-.494-2.486-1.482-.596-.988-1.027-2.157-1.292-3.508-.266-1.351-.42-2.722-.464-4.114-.045-1.391-.067-2.49-.067-3.296c0-.767-.011-1.644-.033-2.632s-.044-2.026-.066-3.115-.044-2.198-.066-3.327c-.023-1.129-.012-2.238.033-3.327Z" transform="translate(-365.150192,-21.251552)" clip-rule="evenodd" stroke-linecap="round" stroke-linejoin="round" stroke-miterlimit="1.5"/></g><g id="e0a2IuvjFWX86_to" transform="translate(390.46637,26.769636)"><path d="M376.907,28.832c.044-2.177.42-4.123,1.127-5.837s1.679-3.176,2.917-4.386c1.237-1.21,2.718-2.117,4.442-2.722c1.723-.605,3.668-.887,5.834-.847c2.077.081,3.922.635,5.535,1.664c1.614,1.028,2.973,2.308,4.078,3.841c1.104,1.532,1.933,3.206,2.486,5.021.552,1.815.784,3.549.696,5.202-.221,4.154-1.47,7.148-3.746,8.983s-5.646,2.752-10.11,2.752c-1.768,0-3.47-.262-5.105-.786s-3.06-1.351-4.276-2.48c-1.215-1.129-2.188-2.551-2.917-4.265s-1.05-3.76-.961-6.14Zm9.613-1.028c-.177,1.492.132,2.682.928,3.569.795.887,1.735,1.422,2.817,1.603c1.083.181,2.133-.02,3.149-.605c1.017-.585,1.636-1.623,1.857-3.115.176-1.492-.133-2.753-.928-3.781-.796-1.028-1.735-1.684-2.818-1.966s-2.133-.101-3.149.544c-1.017.646-1.635,1.896-1.856,3.751Z" transform="translate(-390.46637,-28.769636)" clip-rule="evenodd" stroke-linecap="round" stroke-linejoin="round" stroke-miterlimit="1.5"/></g><g id="e0a2IuvjFWX87_to" transform="translate(423.005219,30.119368)"><path d="M432.721,17.944c1.06.968,1.812,2.319,2.254,4.053s.729,3.559.862,5.474c.132,1.916.154,3.791.066,5.626-.089,1.835-.133,3.337-.133,4.507c0,1.492-.442,2.651-1.326,3.478s-1.845,1.27-2.884,1.331c-1.038.06-1.988-.293-2.85-1.059s-1.271-2.016-1.227-3.75c0-.807.022-1.896.067-3.267.044-1.371,0-2.762-.133-4.174-.133-1.411-.398-2.722-.796-3.932-.397-1.21-1.016-2.036-1.856-2.48-.486-.242-1.005-.413-1.558-.514-.552-.101-1.061-.091-1.525.03s-.861.353-1.193.696c-.331.343-.497.796-.497,1.361c0,1.21-.022,2.52-.066,3.932-.045,1.411-.089,2.742-.133,3.992s-.1,2.349-.166,3.297-.099,1.583-.099,1.905c-.044,1.251-.564,2.219-1.558,2.904-.995.686-2.077,1.039-3.249,1.059-1.171.02-2.232-.323-3.182-1.029-.95-.705-1.403-1.804-1.359-3.296.088-2.743.077-5.616-.033-8.621-.111-3.004-.122-5.837-.033-8.499.044-.927.132-1.814.265-2.661s.342-1.593.63-2.238c.287-.646.663-1.17,1.127-1.573.464-.404,1.049-.625,1.757-.666.618-.04,1.359.031,2.221.212.861.182,1.58.776,2.154,1.785.265.484.597.715.995.695.397-.02.906-.141,1.524-.363.619-.222,1.359-.463,2.221-.726.862-.262,1.868-.393,3.017-.393c1.06,0,2.187.252,3.381.756c1.193.504,2.298,1.22,3.315,2.148Z" transform="translate(-423.005219,-28.119368)" clip-rule="evenodd" stroke-linecap="round" stroke-linejoin="round" stroke-miterlimit="1.5"/></g><g id="e0a2IuvjFWX88_to" transform="translate(452.425735,25.873459)"><path d="M453.67,15.282c1.768,0,3.315.272,4.641.817c1.326.544,2.442,1.24,3.348,2.087s1.591,1.794,2.055,2.843c.464,1.048.718,2.077.762,3.085s-.121,1.926-.497,2.752c-.376.827-.961,1.482-1.757,1.966-.265.162-.663.273-1.193.333-.53.061-1.116.101-1.757.121s-1.304.02-1.989,0-1.315-.03-1.889-.03c-.531,0-1.194.02-1.989.06-.796.041-1.68.061-2.652.061-.398,0-.663.211-.796.635-.132.423-.154.978-.066,1.663.089.807.586,1.452,1.492,1.936s1.889.746,2.95.787c.884,0,1.657-.172,2.32-.515.663-.342,1.293-.726,1.89-1.149.596-.423,1.182-.796,1.757-1.119.574-.323,1.215-.464,1.922-.424c1.415.121,2.332.646,2.751,1.573.42.928.498,1.976.233,3.146-.221.887-.652,1.663-1.293,2.329-.641.665-1.392,1.24-2.254,1.724s-1.779.897-2.752,1.24c-.972.343-1.9.615-2.784.817-2.254.564-4.254.604-6,.12-1.746-.483-3.237-1.31-4.475-2.48-1.237-1.169-2.199-2.601-2.884-4.295-.685-1.693-1.093-3.448-1.226-5.262-.133-1.815.022-3.63.464-5.445.442-1.814,1.16-3.427,2.155-4.839.994-1.411,2.287-2.541,3.878-3.387c1.591-.847,3.469-1.23,5.635-1.15Zm1.923,8.65c.309,0,.397-.272.265-.816-.133-.545-.354-.978-.663-1.301-.221-.242-.519-.403-.895-.484-.376-.08-.774-.09-1.193-.03-.42.061-.818.192-1.194.393-.375.202-.652.484-.828.847-.133.242-.244.504-.332.787-.088.282-.044.483.133.604.044.081.298.121.762.121s.961-.01,1.492-.03c.53-.02,1.038-.04,1.524-.06.487-.02.796-.031.929-.031Z" transform="translate(-453.425735,-28.873459)" clip-rule="evenodd" stroke-linecap="round" stroke-linejoin="round" stroke-miterlimit="1.5"/></g><g id="e0a2IuvjFWX89_to" transform="translate(480.051041,29.709152)"><path d="M490.265,21.573c-.309,1.17-.95,1.886-1.922,2.148-.973.262-2.033.09-3.182-.514-.398-.202-.84-.434-1.326-.696-.487-.262-.973-.484-1.459-.665-.486-.182-.928-.253-1.326-.212-.398.04-.685.262-.862.665-.309.726.022,1.291.995,1.694.972.403,2.188.867,3.646,1.391c2.387.807,4.066,2.027,5.039,3.66.972,1.633,1.281,3.579.928,5.837-.221,1.331-.685,2.471-1.393,3.418-.707.948-1.58,1.744-2.618,2.39-1.039.645-2.199,1.109-3.481,1.391-1.281.282-2.607.423-3.978.423-2.43-.08-4.419-.816-5.966-2.208-1.547-1.391-2.276-3.175-2.188-5.353.044-.766.265-1.452.663-2.057s.895-1.038,1.492-1.3c.596-.262,1.237-.333,1.922-.212s1.359.504,2.022,1.149c1.061,1.049,2.1,1.654,3.116,1.815c1.017.161,1.636.081,1.857-.242.397-.605.353-1.2-.133-1.784-.486-.585-1.094-1.099-1.823-1.543s-1.47-.817-2.221-1.119c-.751-.303-1.193-.494-1.326-.575-1.149-.484-2.133-1.048-2.95-1.693-.818-.646-1.381-1.593-1.691-2.844-.53-2.379-.199-4.305.995-5.777c1.193-1.472,3.005-2.611,5.436-3.417.575-.202,1.304-.333,2.188-.394.884-.06,1.812-.04,2.784.061s1.923.302,2.851.605c.928.302,1.724.716,2.386,1.24.663.524,1.15,1.18,1.459,1.966s.331,1.704.066,2.752Z" transform="translate(-481.051041,-28.709152)" clip-rule="evenodd" stroke-linecap="round" stroke-linejoin="round" stroke-miterlimit="1.5"/></g></g><g id="e0a2IuvjFWX90_to" transform="translate(280.060509,59.866)"><g transform="translate(-280.060509,-57.865999)"><path d="M313.588,33.589c0,0-58.339,9.376-49.479,40.584" clip-rule="evenodd" fill="none" fill-rule="evenodd" stroke="#000" stroke-width="7" stroke-linecap="round" stroke-linejoin="round" stroke-miterlimit="1.5"/><path d="M246.533,65.143l16.723,17l15.996-13.209" clip-rule="evenodd" fill="none" fill-rule="evenodd" stroke="#000" stroke-width="7" stroke-linecap="round" stroke-linejoin="round" stroke-miterlimit="1.5"/></g></g></g></svg>