<?xml version="1.0" encoding="UTF-8" standalone="no"?>
<!DOCTYPE svg PUBLIC "-//W3C//DTD SVG 1.1//EN" "http://www.w3.org/Graphics/SVG/1.1/DTD/svg11.dtd">
<svg width="100%" height="100%" viewBox="0 0 441 348" version="1.1" xmlns="http://www.w3.org/2000/svg" xmlns:xlink="http://www.w3.org/1999/xlink" xml:space="preserve" xmlns:serif="http://www.serif.com/" style="fill-rule:evenodd;clip-rule:evenodd;stroke-linecap:round;stroke-linejoin:round;stroke-miterlimit:1.5;">
    <g transform="matrix(1,0,0,1,-157,-2353)">
        <g transform="matrix(1.4845,0,0,1,-0.00529172,0)">
            <g id="five-guys-hurt" transform="matrix(1,0,0,1,-869.105,0)">
                <g transform="matrix(0.673629,0,0,1,0.00356466,-2.27374e-13)">
                    <path d="M1464.18,2587.4C1464.18,2587.4 1451.88,2599.87 1447.58,2555C1443.28,2510.13 1475.93,2543.41 1480.79,2546.61C1492.21,2516.61 1517.73,2454.82 1537,2441C1556.27,2427.18 1575.19,2411.88 1608.71,2407C1608.23,2392.88 1600.82,2374.54 1620.48,2365C1640.13,2355.46 1694.79,2354.86 1655,2408C1638.98,2413.84 1634.08,2414.83 1637,2421C1639.92,2427.17 1655.16,2430.8 1665.22,2424C1675.28,2417.2 1683.02,2385.26 1703,2384.77C1722.98,2384.27 1745.18,2410.6 1714,2443C1704.89,2452.48 1703.32,2457.05 1743,2451C1736.69,2434.21 1731.91,2403.21 1774,2418C1784.03,2425.28 1798.03,2440.7 1780,2461C1793.59,2440.02 1834.65,2409.08 1833,2460C1842.08,2454.07 1891.48,2428.81 1879,2496C1870.82,2503.82 1863.9,2510.47 1855,2509C1854.9,2522.74 1848.05,2556.42 1832,2565C1825.27,2578.21 1818.04,2592.07 1813,2601C1807.96,2609.93 1747.53,2668.7 1744,2682C1731.04,2696.77 1729,2696.61 1729,2696.61L1695,2680L1692,2643L1677,2656C1677,2656 1656.25,2667.62 1645,2663C1633.75,2658.38 1630.29,2639.57 1639,2625C1631.94,2624.82 1625.33,2642.69 1620.48,2647C1615.63,2651.31 1598.76,2651.88 1599,2635C1599.24,2618.12 1580.81,2665.59 1577,2614C1577,2603.53 1548.33,2623.39 1554,2587.4C1546.85,2602.24 1536.55,2627.67 1523,2599C1521.06,2589.16 1518,2576 1518,2576L1510,2575C1510,2575 1493.87,2620.67 1473,2581C1469.08,2583.55 1464.18,2587.4 1464.18,2587.4Z" style="fill:white;"/>
                </g>
                <g transform="matrix(0.673629,0,0,1,0.00356466,0)">
                    <path d="M1606.6,2406C1606.6,2406 1524.13,2398.88 1483,2539C1480.93,2547.24 1439.52,2494.14 1455,2584C1463.45,2589.62 1472.5,2581.12 1479,2575C1482.2,2590.92 1480.14,2605.4 1502,2586C1509.85,2572.03 1511.79,2528.88 1483,2539C1483,2553.17 1479,2575 1479,2575" style="fill:none;stroke:black;stroke-width:7px;"/>
                </g>
                <g transform="matrix(0.673629,0,0,1,0.00356466,0)">
                    <path d="M1502,2538C1502,2538 1519.03,2506.59 1529.07,2494" style="fill:none;stroke:black;stroke-width:7px;"/>
                </g>
                <g transform="matrix(0.673629,0,0,1,0.00356466,0)">
                    <path d="M1554,2582C1550.45,2591.72 1543.67,2615.25 1565,2612.68C1578.85,2602.59 1589.9,2594.07 1589,2579C1588.1,2563.93 1575.36,2523.57 1554,2582Z" style="fill:none;stroke:black;stroke-width:7px;"/>
                </g>
                <g transform="matrix(0.673629,0,0,1,0.00356466,0)">
                    <path d="M1571.17,2550.54C1571.17,2550.54 1575.73,2532.52 1589.05,2516" style="fill:none;stroke:black;stroke-width:7px;"/>
                </g>
                <g transform="matrix(0.673629,0,0,1,0.00356466,0)">
                    <path d="M1636.42,2429C1636.42,2429 1653.64,2425.23 1668.89,2428C1684.13,2430.77 1663.76,2381.32 1713,2387C1720.19,2387.83 1730.56,2399.27 1731.04,2408.61C1731.56,2418.61 1719.47,2430.21 1705,2453C1676.84,2466.11 1669.66,2419.36 1679.67,2401.86" style="fill:none;stroke:black;stroke-width:7px;"/>
                </g>
                <g transform="matrix(0.673629,0,0,1,0.00356466,0)">
                    <path d="M1597,2578.68C1597,2578.68 1648.87,2432.74 1742,2455C1746.12,2465.13 1754.01,2466.7 1756,2467C1756,2467 1799.34,2462.99 1785,2430C1768.77,2392.66 1721.38,2407.32 1742,2455" style="fill:none;stroke:black;stroke-width:7px;"/>
                </g>
                <g transform="matrix(0.673629,0,0,1,0.00356466,0)">
                    <path d="M1757,2468C1757,2468 1689.79,2502.92 1674,2558C1660.75,2587.15 1644,2612.81 1644,2612.81C1650.59,2611.22 1571.37,2702.39 1615,2601C1621.18,2586.64 1636.61,2592.8 1644,2612.81" style="fill:none;stroke:black;stroke-width:7px;"/>
                </g>
                <g transform="matrix(0.673629,0,0,1,0.00356466,0)">
                    <path d="M1584.11,2600C1584.65,2594.13 1574.2,2651.96 1596,2629C1627.99,2595.31 1596.02,2556.09 1584.11,2600Z" style="fill:none;stroke:black;stroke-width:7px;"/>
                </g>
                <g transform="matrix(0.673629,0,0,1,1.35082,-2)">
                    <path d="M1648,2541C1648,2541 1621.73,2582.69 1621,2595" style="fill:none;stroke:black;stroke-width:7px;"/>
                </g>
                <g transform="matrix(0.673629,0,0,1,0.00356466,0)">
                    <path d="M1518.24,2461C1518.24,2461 1561.1,2452.19 1578.52,2484" style="fill:none;stroke:black;stroke-width:7px;"/>
                </g>
                <g transform="matrix(0.673629,0,0,1,0.00356466,0)">
                    <path d="M1537,2439C1537,2439 1587.19,2438.11 1592,2467" style="fill:none;stroke:black;stroke-width:7px;"/>
                </g>
                <g transform="matrix(0.673629,0,0,1,2.69808,-5)">
                    <path d="M1557,2424C1557,2424 1589.61,2415.45 1610,2448" style="fill:none;stroke:black;stroke-width:7px;"/>
                </g>
                <g transform="matrix(0.673629,0,0,1,0.00356466,0)">
                    <path d="M1623,2439C1627.27,2437.93 1659.36,2437.68 1671,2468.97" style="fill:none;stroke:black;stroke-width:7px;"/>
                </g>
                <g transform="matrix(0.673629,0,0,1,0.00356466,0)">
                    <path d="M1606.6,2453C1606.6,2453 1645.08,2450.29 1652.5,2485" style="fill:none;stroke:black;stroke-width:7px;"/>
                </g>
                <g transform="matrix(0.673629,0,0,1,0.00356466,0)">
                    <path d="M1571,2493C1571,2493 1611.33,2484.97 1626,2519" style="fill:none;stroke:black;stroke-width:7px;"/>
                </g>
                <g transform="matrix(0.673629,0,0,1,-2.01732,3)">
                    <path d="M1584,2476.43C1584,2476.43 1633.05,2466.87 1636.5,2504.96" style="fill:none;stroke:black;stroke-width:7px;"/>
                </g>
                <g transform="matrix(0.673629,0,0,1,0.00356466,0)">
                    <path d="M1688,2528C1688,2528 1680.58,2496.73 1639,2505" style="fill:none;stroke:black;stroke-width:7px;"/>
                </g>
                <g transform="matrix(0.673629,0,0,1,0.00356466,0)">
                    <path d="M1663.5,2478C1663.5,2478 1702.39,2478.16 1708,2503.61" style="fill:none;stroke:black;stroke-width:7px;"/>
                </g>
                <g transform="matrix(0.673629,0,0,1,0.00356466,0)">
                    <path d="M1682,2464C1682,2464 1718.74,2455.74 1727,2488" style="fill:none;stroke:black;stroke-width:7px;"/>
                </g>
                <g transform="matrix(1.17885,0,0,1.75,-890.029,-1815)">
                    <circle cx="1759" cy="2422" r="2"/>
                </g>
                <g transform="matrix(0.673629,0,0,1,0.00356466,0)">
                    <circle cx="1770" cy="2430" r="3"/>
                </g>
                <g transform="matrix(0.673629,0,0,1,27.7729,10.4629)">
                    <circle cx="1770" cy="2430" r="3"/>
                </g>
                <g transform="matrix(0.673629,0,0,1,36.7115,16.4062)">
                    <circle cx="1770" cy="2430" r="3"/>
                </g>
                <g transform="matrix(0.673629,0,0,1,57.9309,30.4856)">
                    <circle cx="1770" cy="2430" r="3"/>
                </g>
                <g transform="matrix(0.673629,0,0,1,66.1276,37.1439)">
                    <circle cx="1770" cy="2430" r="3"/>
                </g>
                <g transform="matrix(0.673629,0,0,1,0.00356466,0)">
                    <path d="M1812.84,2489C1812.84,2489 1749.49,2507.14 1732,2588C1714.92,2615.73 1696,2634 1696,2634C1696,2634 1664.54,2572.74 1666,2660C1687.7,2665.15 1691.57,2657.98 1691.04,2655L1696,2634" style="fill:none;stroke:black;stroke-width:7px;"/>
                </g>
                <g transform="matrix(0.673629,0,0,1,0.00356466,0)">
                    <path d="M1665.95,2660C1656.93,2667.29 1639.36,2663.23 1638,2660C1634,2650.5 1635.72,2573.97 1665.95,2639" style="fill:none;stroke:black;stroke-width:7px;"/>
                </g>
                <g transform="matrix(0.673629,0,0,1,0.00356466,0)">
                    <path d="M1672,2614.69C1672,2614.69 1685.7,2574.94 1697,2559.97" style="fill:none;stroke:black;stroke-width:7px;"/>
                </g>
                <g transform="matrix(0.673629,0,0,1,0.00356466,0)">
                    <path d="M1676,2559C1676,2559 1708.98,2548.11 1730,2585" style="fill:none;stroke:black;stroke-width:7px;"/>
                </g>
                <g transform="matrix(0.673629,0,0,1,0.00356466,0)">
                    <path d="M1686,2532.93C1686,2532.93 1739.05,2526.1 1741,2561.18" style="fill:none;stroke:black;stroke-width:7px;"/>
                </g>
                <g transform="matrix(0.673629,0,0,1,0.00356466,-3)">
                    <path d="M1706,2511C1706,2511 1746.74,2511.04 1754,2532.93" style="fill:none;stroke:black;stroke-width:7px;"/>
                </g>
                <g transform="matrix(0.673629,0,0,1,0.00356466,0)">
                    <path d="M1747.43,2476C1747.43,2476 1776.69,2470.46 1785,2504" style="fill:none;stroke:black;stroke-width:7px;"/>
                </g>
                <g transform="matrix(0.673629,0,0,1,0.00356466,0)">
                    <path d="M1852.51,2508.05C1852.51,2508.05 1860.26,2541.54 1794.56,2620C1728.86,2698.46 1730,2695 1730,2695C1730,2695 1717.7,2705.49 1715.31,2679C1704.73,2678.84 1688.57,2693.21 1691,2657" style="fill:none;stroke:black;stroke-width:7px;"/>
                </g>
                <g transform="matrix(0.673629,0,0,1,0.00356466,0)">
                    <path d="M1699,2632C1699,2632 1717.94,2622.02 1715,2649" style="fill:none;stroke:black;stroke-width:7px;"/>
                </g>
                <g transform="matrix(0.673629,0,0,1,0.00356466,0)">
                    <path d="M1715,2678C1715,2678 1704.78,2633.78 1731.57,2646C1745,2652.13 1737.12,2665.3 1735,2689" style="fill:none;stroke:black;stroke-width:7px;"/>
                </g>
                <g transform="matrix(0.673629,0,0,1,0.00356466,0)">
                    <path d="M1735,2586C1735,2586 1772.09,2570.95 1792,2622" style="fill:none;stroke:black;stroke-width:7px;"/>
                </g>
                <g transform="matrix(0.673629,0,0,1,0.00356466,0)">
                    <path d="M1741,2562C1741,2562 1792.03,2549.93 1808,2600.35" style="fill:none;stroke:black;stroke-width:7px;"/>
                </g>
                <g transform="matrix(0.673629,0,0,1,-1.34369,6)">
                    <path d="M1753,2539C1753,2539 1809.5,2541.17 1823,2581.76" style="fill:none;stroke:black;stroke-width:7px;"/>
                </g>
                <g transform="matrix(0.673629,0,0,1,-0.670065,2)">
                    <path d="M1767,2521C1767,2521 1819.71,2518.67 1836,2559.97" style="fill:none;stroke:black;stroke-width:7px;"/>
                </g>
                <g transform="matrix(0.673629,0,0,1,0.00356466,0)">
                    <path d="M1788,2504C1788,2504 1836.4,2506.62 1845,2539" style="fill:none;stroke:black;stroke-width:7px;"/>
                </g>
                <g transform="matrix(0.673629,0,0,1,869.109,0)">
                    <path d="M334,2385C334,2385 338.896,2384.03 345,2389" style="fill:none;stroke:black;stroke-width:7px;"/>
                </g>
                <g transform="matrix(0.673629,0,0,1,0.00356466,0)">
                    <path d="M1504,2581.68L1560,2508" style="fill:none;stroke:black;stroke-width:7px;"/>
                </g>
                <g transform="matrix(0.673629,0,0,1,0.00356466,0)">
                    <path d="M1730,2644L1761,2591" style="fill:none;stroke:black;stroke-width:7px;"/>
                </g>
                <g transform="matrix(0.673629,0,0,1,0.00356466,0)">
                    <path d="M1841,2454C1841,2454 1882.21,2431.98 1884,2482C1885.79,2532.02 1813.27,2495.49 1820.49,2485" style="fill:none;stroke:black;stroke-width:7px;"/>
                </g>
                <g transform="matrix(0.673629,0,0,1,0.00356466,0)">
                    <path d="M1780.08,2463C1780.08,2463 1784.72,2456.8 1789,2448.78C1794.11,2439.2 1800.41,2424.86 1821,2430C1858.84,2439.45 1828.83,2481.85 1812.84,2489C1790.67,2495.65 1770.7,2473.16 1780.08,2463Z" style="fill:none;stroke:black;stroke-width:7px;"/>
                </g>
                <g transform="matrix(0.673629,0,0,1,0.00356466,0)">
                    <path d="M1620,2534C1620,2534 1663.2,2524.65 1673,2554" style="fill:none;stroke:black;stroke-width:7px;"/>
                </g>
                <g transform="matrix(0.673629,0,0,1,0.00356466,0)">
                    <circle cx="1639.5" cy="2369.5" r="4.5"/>
                </g>
                <g transform="matrix(0.673629,0,0,1,0.00356466,0)">
                    <circle cx="1653.5" cy="2378.5" r="4.5"/>
                </g>
                <g transform="matrix(0.673629,0,0,1,0.00356466,0)">
                    <circle cx="1712.5" cy="2405.5" r="3.5"/>
                </g>
                <g transform="matrix(0.673629,0,0,1,0.00356466,0)">
                    <circle cx="1700.5" cy="2398.5" r="3.5"/>
                </g>
                <g transform="matrix(0.673629,0,0,1,0.00356466,0)">
                    <path d="M1505,2485C1505,2485 1550.53,2489.81 1557,2507" style="fill:none;stroke:black;stroke-width:7px;"/>
                </g>
                <g transform="matrix(0.673629,0,0,1,0.00356466,0)">
                    <path d="M1637.74,2411.01C1637.74,2411.01 1640.14,2418.41 1637.74,2429C1627.38,2429.8 1563.32,2483.03 1539,2557C1529.52,2559.38 1506.96,2550.99 1523,2593.31C1526.72,2603.13 1530.18,2624.45 1546,2595.31C1556.92,2575.2 1548.54,2557.49 1539,2557" style="fill:none;stroke:black;stroke-width:7px;"/>
                </g>
                <g transform="matrix(0.673629,0,0,1,0.00356466,0)">
                    <path d="M1609,2381C1609,2381 1597.17,2410.3 1626,2411C1654.83,2411.7 1680.94,2383.58 1663,2365C1645.06,2346.42 1613.24,2366.05 1609,2381Z" style="fill:none;stroke:black;stroke-width:7px;"/>
                </g>
                <g transform="matrix(0.673629,0,0,1,0.00356466,0)">
                    <path d="M1528,2449C1528,2449 1571.72,2446.83 1584,2471.94" style="fill:none;stroke:black;stroke-width:7px;"/>
                </g>
                <g transform="matrix(0.673629,0,0,1,0.00356466,-2)">
                    <path d="M1544,2430C1544,2430 1581.22,2427.12 1602,2452.95" style="fill:none;stroke:black;stroke-width:7px;"/>
                </g>
                <g transform="matrix(0.673629,0,0,1,0.00356466,0)">
                    <path d="M1512,2471.94C1512,2471.94 1556.86,2466.07 1569,2493" style="fill:none;stroke:black;stroke-width:7px;"/>
                </g>
                <g transform="matrix(0.673629,0,0,1,-1.34369,2)">
                    <path d="M1597,2460.45C1597,2460.45 1638.34,2460.67 1645,2493" style="fill:none;stroke:black;stroke-width:7px;"/>
                </g>
                <g transform="matrix(0.673629,0,0,1,0.00356466,0)">
                    <path d="M1616,2441.43C1616,2441.43 1652.78,2447.38 1662,2476.72" style="fill:none;stroke:black;stroke-width:7px;"/>
                </g>
                <g transform="matrix(0.673629,0,0,1,0.00356466,0)">
                    <path d="M1630,2515.8C1630,2515.8 1666.4,2513.58 1681,2538" style="fill:none;stroke:black;stroke-width:7px;"/>
                </g>
                <g transform="matrix(0.673629,0,0,1,0.00356466,0)">
                    <path d="M1655.5,2489C1655.5,2489 1685.72,2486.04 1698,2515.75" style="fill:none;stroke:black;stroke-width:7px;"/>
                </g>
                <g transform="matrix(0.673629,0,0,1,0.00356466,0)">
                    <path d="M1680.75,2546C1680.75,2546 1722.66,2537.78 1737,2570" style="fill:none;stroke:black;stroke-width:7px;"/>
                </g>
                <g transform="matrix(0.673629,0,0,1,0.00356466,0)">
                    <path d="M1694,2521C1694,2521 1740.53,2520.36 1749,2544.31" style="fill:none;stroke:black;stroke-width:7px;"/>
                </g>
                <g transform="matrix(0.673629,0,0,1,0.00356466,0)">
                    <path d="M1737,2483C1737,2483 1766.33,2484.63 1777,2510" style="fill:none;stroke:black;stroke-width:7px;"/>
                </g>
                <g transform="matrix(0.673629,0,0,1,0.00356466,0)">
                    <path d="M1777,2510C1777,2510 1826.13,2513.38 1841,2550" style="fill:none;stroke:black;stroke-width:7px;"/>
                </g>
                <g transform="matrix(0.673629,0,0,1,-0.670065,2)">
                    <path d="M1761,2530C1761,2530 1816.2,2533.63 1830,2570" style="fill:none;stroke:black;stroke-width:7px;"/>
                </g>
                <g transform="matrix(0.673629,0,0,1,0.677194,-5)">
                    <path d="M1715,2496.5C1715,2496.5 1753.31,2503.79 1761,2527" style="fill:none;stroke:black;stroke-width:7px;"/>
                </g>
                <g transform="matrix(0.673629,0,0,1,0.00356466,0)">
                    <path d="M1676,2468C1676,2468 1710.77,2475.44 1715,2496.5" style="fill:none;stroke:black;stroke-width:7px;"/>
                </g>
                <g transform="matrix(0.673629,0,0,1,0.00356466,0)">
                    <path d="M1738,2575.41C1738,2575.41 1787.35,2566.2 1801,2612" style="fill:none;stroke:black;stroke-width:7px;"/>
                </g>
                <g transform="matrix(0.673629,0,0,1,869.109,0)">
                    <path d="M401,2416C401,2416 409.251,2418.49 412,2421" style="fill:none;stroke:black;stroke-width:7px;"/>
                </g>
                <g transform="matrix(0.673629,0,0,1,869.109,0)">
                    <path d="M465,2442.94C465,2442.94 475.127,2445.41 475,2446.03" style="fill:none;stroke:black;stroke-width:7px;"/>
                </g>
                <g transform="matrix(0.673629,0,0,1,869.109,0)">
                    <path d="M514,2461.44C514,2461.44 523.848,2463.23 526.137,2465.18" style="fill:none;stroke:black;stroke-width:7px;"/>
                </g>
                <g transform="matrix(0.673629,0,0,1,869.109,0)">
                    <path d="M554.609,2473.97C554.609,2473.97 566.718,2476.24 572,2479.34" style="fill:none;stroke:black;stroke-width:7px;"/>
                </g>
                <g transform="matrix(0.673629,0,0,1,869.109,0)">
                    <path d="M590.896,2499C590.896,2499 591.487,2491.97 581,2490" style="fill:none;stroke:black;stroke-width:7px;"/>
                </g>
                <g transform="matrix(0.673629,0,0,1,869.109,0)">
                    <path d="M508,2486C508,2486 506.497,2479.66 514.044,2475.28" style="fill:none;stroke:black;stroke-width:7px;"/>
                </g>
                <g transform="matrix(0.673629,0,0,1,869.109,0)">
                    <path d="M386,2435.75C386,2435.75 402.99,2438.22 408,2436.45" style="fill:none;stroke:black;stroke-width:7px;"/>
                </g>
                <g transform="matrix(0.673629,0,0,1,869.109,0)">
                    <path d="M497,2437C497,2437 487.936,2438.31 487,2443" style="fill:none;stroke:black;stroke-width:7px;"/>
                </g>
                <g transform="matrix(0.673629,0,0,1,869.109,0)">
                    <path d="M435,2422.41C435,2422.41 431.343,2421.39 429,2416.01" style="fill:none;stroke:black;stroke-width:7px;"/>
                </g>
                <g transform="matrix(0.673629,0,0,1,869.109,0)">
                    <path d="M537,2494.95L556,2488.23" style="fill:none;stroke:black;stroke-width:7px;"/>
                </g>
                <g transform="matrix(0.673629,0,0,1,869.109,0)">
                    <path d="M357,2393.79L370,2397.8" style="fill:none;stroke:black;stroke-width:7px;"/>
                </g>
                <g transform="matrix(0.673629,0,0,1,869.109,0)">
                    <path d="M324,2405L340,2397.62" style="fill:none;stroke:black;stroke-width:7px;"/>
                </g>
                <g transform="matrix(0.673629,0,0,1,869.109,0)">
                    <path d="M238,2519L255,2526" style="fill:none;stroke:black;stroke-width:7px;"/>
                </g>
                <g transform="matrix(0.673629,0,0,1,869.109,0)">
                    <path d="M288,2534.43L306,2535" style="fill:none;stroke:black;stroke-width:7px;"/>
                </g>
                <g transform="matrix(0.673629,0,0,1,869.109,0)">
                    <path d="M345,2563L353,2575" style="fill:none;stroke:black;stroke-width:7px;"/>
                </g>
                <g transform="matrix(0.673629,0,0,1,869.109,0)">
                    <path d="M424,2612C424,2612 418.483,2604.62 419,2595.37" style="fill:none;stroke:black;stroke-width:7px;"/>
                </g>
                <g transform="matrix(0.673629,0,0,1,869.109,0)">
                    <path d="M458,2614.95C458,2614.95 472.502,2616.69 475,2623.58" style="fill:none;stroke:black;stroke-width:7px;"/>
                </g>
            </g>
        </g>
    </g>
</svg>
