<svg id="e7d5MxeEgPo1" xmlns="http://www.w3.org/2000/svg" xmlns:xlink="http://www.w3.org/1999/xlink" viewBox="0 0 363 318" shape-rendering="geometricPrecision" text-rendering="geometricPrecision"><style><![CDATA[#e7d5MxeEgPo78_ts {animation: e7d5MxeEgPo78_ts__ts 400ms linear infinite alternate-reverse forwards}@keyframes e7d5MxeEgPo78_ts__ts { 0% {transform: translate(1852.780172px,2481.808963px) scale(1.192574,0.954453);animation-timing-function: cubic-bezier(0.42,0,0.58,1)} 100% {transform: translate(1852.780172px,2481.808963px) scale(0.983466,0.767394)}} #e7d5MxeEgPo84_ts {animation: e7d5MxeEgPo84_ts__ts 400ms linear infinite alternate-reverse forwards}@keyframes e7d5MxeEgPo84_ts__ts { 0% {transform: translate(1804.089966px,2458.241333px) scale(1,1);animation-timing-function: cubic-bezier(0.42,0,0.58,1)} 100% {transform: translate(1804.089966px,2458.241333px) scale(1,1.133436)}} #e7d5MxeEgPo88_ts {animation: e7d5MxeEgPo88_ts__ts 400ms linear infinite alternate-reverse forwards}@keyframes e7d5MxeEgPo88_ts__ts { 0% {transform: translate(1757.978088px,2442.889526px) scale(1,1);animation-timing-function: cubic-bezier(0.42,0,0.58,1)} 100% {transform: translate(1757.978088px,2442.889526px) scale(1,1.1279)}} #e7d5MxeEgPo92_ts {animation: e7d5MxeEgPo92_ts__ts 400ms linear infinite alternate-reverse forwards}@keyframes e7d5MxeEgPo92_ts__ts { 0% {transform: translate(1694.406433px,2412.466064px) scale(1,1);animation-timing-function: cubic-bezier(0.42,0,0.58,1)} 100% {transform: translate(1694.406433px,2412.466064px) scale(1,0.649455)}}]]></style><g transform="translate(-1565-1976)" clip-rule="evenodd"><g transform="matrix(1.4845 0 0 1-.005292 0)" clip-rule="evenodd"><g transform="translate(27.2064-407.05)" clip-rule="evenodd"><g transform="matrix(.673629 0 0 1 0.003565 0)" clip-rule="evenodd"><path d="M1554,2587.4c-72.27,70.78,21.81-135.63,78.5-162.44c6.17-2.92,22.66,5.84,32.72-.96s17.8-38.74,37.78-39.23c19.98-.5,42.18,25.83,11,58.23-9.11,9.48-10.68,14.05,29,8-6.31-16.79-11.09-47.79,31-33c10.03,7.28,24.03,22.7,6,43c13.59-20.98,54.65-51.92,53-1c9.08-5.93,58.48-31.19,46,36-8.18,7.82-15.1,14.47-24,13-.1,13.74-6.95,47.42-23,56-6.73,13.21-13.96,27.07-19,36s-65.47,67.7-69,81c-12.96,14.77-15,14.61-15,14.61L1695,2680l-4-21-13,2c0,0-21.75,6.62-33,2s-14.71-23.43-6-38c-7.06-.18-13.67,17.69-18.52,22s-21.72,4.88-21.48-12-18.19,30.59-22-21c0-10.47-28.67,9.39-23-26.6Z" clip-rule="evenodd" fill="#fff" fill-rule="evenodd" stroke-linecap="round" stroke-linejoin="round" stroke-miterlimit="1.5"/></g><g transform="matrix(.673629 0 0 1 0.003565 0)" clip-rule="evenodd"><path d="M1554,2582c-3.55,9.72-10.33,33.25,11,30.68c13.85-10.09,24.9-18.61,24-33.68s-13.64-55.43-35,3Z" clip-rule="evenodd" fill="none" fill-rule="evenodd" stroke="#000" stroke-width="7" stroke-linecap="round" stroke-linejoin="round" stroke-miterlimit="1.5"/></g><g transform="matrix(.673629 0 0 1 0.003565 0)" clip-rule="evenodd"><path d="M1571.17,2550.54c0,0,4.56-18.02,17.88-34.54" clip-rule="evenodd" fill="none" fill-rule="evenodd" stroke="#000" stroke-width="7" stroke-linecap="round" stroke-linejoin="round" stroke-miterlimit="1.5"/></g><g transform="matrix(.673629 0 0 1 0.003565 0)" clip-rule="evenodd"><path d="M1636.42,2429c0,0,17.22-3.77,32.47-1c15.24,2.77-5.13-46.68,44.11-41c7.19.83,17.56,12.27,18.04,21.61.52,10-11.57,21.6-26.04,44.39-28.16,13.11-35.34-33.64-25.33-51.14" clip-rule="evenodd" fill="none" fill-rule="evenodd" stroke="#000" stroke-width="7" stroke-linecap="round" stroke-linejoin="round" stroke-miterlimit="1.5"/></g><g transform="matrix(.673629 0 0 1 0.003565 0)" clip-rule="evenodd"><path d="M1597,2578.68c0,0,51.87-145.94,145-123.68c4.12,10.13,12.01,11.7,14,12c0,0,43.34-4.01,29-37-16.23-37.34-63.62-22.68-43,25" clip-rule="evenodd" fill="none" fill-rule="evenodd" stroke="#000" stroke-width="7" stroke-linecap="round" stroke-linejoin="round" stroke-miterlimit="1.5"/></g><g transform="matrix(.673629 0 0 1 0.003565 0)" clip-rule="evenodd"><path d="M1757,2468c0,0-67.21,34.92-83,90-13.25,29.15-30,54.81-30,54.81c6.59-1.59-72.63,89.58-29-11.81c6.18-14.36,21.61-8.2,29,11.81" clip-rule="evenodd" fill="none" fill-rule="evenodd" stroke="#000" stroke-width="7" stroke-linecap="round" stroke-linejoin="round" stroke-miterlimit="1.5"/></g><g transform="matrix(.673629 0 0 1 0.003565 0)" clip-rule="evenodd"><path d="M1584.11,2600c.54-5.87-9.91,51.96,11.89,29c31.99-33.69.02-72.91-11.89-29Z" clip-rule="evenodd" fill="none" fill-rule="evenodd" stroke="#000" stroke-width="7" stroke-linecap="round" stroke-linejoin="round" stroke-miterlimit="1.5"/></g><g transform="matrix(.673629 0 0 1 1.35082-2)" clip-rule="evenodd"><path d="M1648,2541c0,0-26.27,41.69-27,54" clip-rule="evenodd" fill="none" fill-rule="evenodd" stroke="#000" stroke-width="7" stroke-linecap="round" stroke-linejoin="round" stroke-miterlimit="1.5"/></g><g transform="matrix(.673629 0 0 1 0.003565 0)" clip-rule="evenodd"><path d="M1623,2439c4.27-1.07,36.36-1.32,48,29.97" clip-rule="evenodd" fill="none" fill-rule="evenodd" stroke="#000" stroke-width="7" stroke-linecap="round" stroke-linejoin="round" stroke-miterlimit="1.5"/></g><g transform="matrix(.673629 0 0 1 0.003565 0)" clip-rule="evenodd"><path d="M1606.6,2453c0,0,38.48-2.71,45.9,32" clip-rule="evenodd" fill="none" fill-rule="evenodd" stroke="#000" stroke-width="7" stroke-linecap="round" stroke-linejoin="round" stroke-miterlimit="1.5"/></g><g transform="matrix(.673629 0 0 1 0.003565 0)" clip-rule="evenodd"><path d="M1571,2493c0,0,40.33-8.03,55,26" clip-rule="evenodd" fill="none" fill-rule="evenodd" stroke="#000" stroke-width="7" stroke-linecap="round" stroke-linejoin="round" stroke-miterlimit="1.5"/></g><g transform="matrix(.673629 0 0 1-2.01732 3)" clip-rule="evenodd"><path d="M1584,2476.43c0,0,49.05-9.56,52.5,28.53" clip-rule="evenodd" fill="none" fill-rule="evenodd" stroke="#000" stroke-width="7" stroke-linecap="round" stroke-linejoin="round" stroke-miterlimit="1.5"/></g><g transform="matrix(.673629 0 0 1 0.003565 0)" clip-rule="evenodd"><path d="M1688,2528c0,0-7.42-31.27-49-23" clip-rule="evenodd" fill="none" fill-rule="evenodd" stroke="#000" stroke-width="7" stroke-linecap="round" stroke-linejoin="round" stroke-miterlimit="1.5"/></g><g transform="matrix(.673629 0 0 1 0.003565 0)" clip-rule="evenodd"><path d="M1663.5,2478c0,0,38.89.16,44.5,25.61" clip-rule="evenodd" fill="none" fill-rule="evenodd" stroke="#000" stroke-width="7" stroke-linecap="round" stroke-linejoin="round" stroke-miterlimit="1.5"/></g><g transform="matrix(.673629 0 0 1 0.003565 0)" clip-rule="evenodd"><path d="M1682,2464c0,0,36.74-8.26,45,24" clip-rule="evenodd" fill="none" fill-rule="evenodd" stroke="#000" stroke-width="7" stroke-linecap="round" stroke-linejoin="round" stroke-miterlimit="1.5"/></g><g transform="matrix(1.17885 0 0 1.75-890.029-1815)" clip-rule="evenodd"><circle r="2" transform="translate(1759 2422)" clip-rule="evenodd" fill-rule="evenodd" stroke-linecap="round" stroke-linejoin="round" stroke-miterlimit="1.5"/></g><g transform="matrix(.673629 0 0 1 0.003565 0)" clip-rule="evenodd"><circle r="3" transform="translate(1770 2430)" clip-rule="evenodd" fill-rule="evenodd" stroke-linecap="round" stroke-linejoin="round" stroke-miterlimit="1.5"/></g><g transform="matrix(.673629 0 0 1 27.7729 10.4629)" clip-rule="evenodd"><circle r="3" transform="translate(1770 2430)" clip-rule="evenodd" fill-rule="evenodd" stroke-linecap="round" stroke-linejoin="round" stroke-miterlimit="1.5"/></g><g transform="matrix(.673629 0 0 1 36.7115 16.4062)" clip-rule="evenodd"><circle r="3" transform="translate(1770 2430)" clip-rule="evenodd" fill-rule="evenodd" stroke-linecap="round" stroke-linejoin="round" stroke-miterlimit="1.5"/></g><g transform="matrix(.673629 0 0 1 57.9309 30.4856)" clip-rule="evenodd"><circle r="3" transform="translate(1770 2430)" clip-rule="evenodd" fill-rule="evenodd" stroke-linecap="round" stroke-linejoin="round" stroke-miterlimit="1.5"/></g><g transform="matrix(.673629 0 0 1 66.1276 37.1439)" clip-rule="evenodd"><circle r="3" transform="translate(1770 2430)" clip-rule="evenodd" fill-rule="evenodd" stroke-linecap="round" stroke-linejoin="round" stroke-miterlimit="1.5"/></g><g transform="matrix(.673629 0 0 1 0.003565 0)" clip-rule="evenodd"><path d="M1812.84,2489c0,0-63.35,18.14-80.84,99-17.08,27.73-36,46-36,46s-31.46-61.26-30,26c21.7,5.15,25.57-2.02,25.04-5l4.96-21" clip-rule="evenodd" fill="none" fill-rule="evenodd" stroke="#000" stroke-width="7" stroke-linecap="round" stroke-linejoin="round" stroke-miterlimit="1.5"/></g><g transform="matrix(.673629 0 0 1 0.003565 0)" clip-rule="evenodd"><path d="M1665.95,2660c-9.02,7.29-26.59,3.23-27.95,0-4-9.5-2.28-86.03,27.95-21" clip-rule="evenodd" fill="none" fill-rule="evenodd" stroke="#000" stroke-width="7" stroke-linecap="round" stroke-linejoin="round" stroke-miterlimit="1.5"/></g><g transform="matrix(.673629 0 0 1 0.003565 0)" clip-rule="evenodd"><path d="M1672,2614.69c0,0,13.7-39.75,25-54.72" clip-rule="evenodd" fill="none" fill-rule="evenodd" stroke="#000" stroke-width="7" stroke-linecap="round" stroke-linejoin="round" stroke-miterlimit="1.5"/></g><g transform="matrix(.673629 0 0 1 0.003565 0)" clip-rule="evenodd"><path d="M1676,2559c0,0,32.98-10.89,54,26" clip-rule="evenodd" fill="none" fill-rule="evenodd" stroke="#000" stroke-width="7" stroke-linecap="round" stroke-linejoin="round" stroke-miterlimit="1.5"/></g><g transform="matrix(.673629 0 0 1 0.003565 0)" clip-rule="evenodd"><path d="M1686,2532.93c0,0,53.05-6.83,55,28.25" clip-rule="evenodd" fill="none" fill-rule="evenodd" stroke="#000" stroke-width="7" stroke-linecap="round" stroke-linejoin="round" stroke-miterlimit="1.5"/></g><g transform="matrix(.673629 0 0 1 0.003565-3)" clip-rule="evenodd"><path d="M1706,2511c0,0,40.74.04,48,21.93" clip-rule="evenodd" fill="none" fill-rule="evenodd" stroke="#000" stroke-width="7" stroke-linecap="round" stroke-linejoin="round" stroke-miterlimit="1.5"/></g><g transform="matrix(.673629 0 0 1 0.003565 0)" clip-rule="evenodd"><path d="M1747.43,2476c0,0,29.26-5.54,37.57,28" clip-rule="evenodd" fill="none" fill-rule="evenodd" stroke="#000" stroke-width="7" stroke-linecap="round" stroke-linejoin="round" stroke-miterlimit="1.5"/></g><g transform="matrix(.673629 0 0 1 0.003565 0)" clip-rule="evenodd"><path d="M1852.51,2508.05c0,0,7.75,33.49-57.95,111.95s-64.56,75-64.56,75-12.3,10.49-14.69-16c-10.58-.16-26.74,14.21-24.31-22" transform="translate(.000001 0)" clip-rule="evenodd" fill="none" fill-rule="evenodd" stroke="#000" stroke-width="7" stroke-linecap="round" stroke-linejoin="round" stroke-miterlimit="1.5"/></g><g transform="matrix(.673629 0 0 1 0.003565 0)" clip-rule="evenodd"><path d="M1699,2632c0,0,18.94-9.98,16,17" clip-rule="evenodd" fill="none" fill-rule="evenodd" stroke="#000" stroke-width="7" stroke-linecap="round" stroke-linejoin="round" stroke-miterlimit="1.5"/></g><g transform="matrix(.673629 0 0 1 0.003565 0)" clip-rule="evenodd"><path d="M1715,2678c0,0-10.22-44.22,16.57-32c13.43,6.13,5.55,19.3,3.43,43" clip-rule="evenodd" fill="none" fill-rule="evenodd" stroke="#000" stroke-width="7" stroke-linecap="round" stroke-linejoin="round" stroke-miterlimit="1.5"/></g><g transform="matrix(.673629 0 0 1 0.003565 0)" clip-rule="evenodd"><path d="M1735,2586c0,0,37.09-15.05,57,36" clip-rule="evenodd" fill="none" fill-rule="evenodd" stroke="#000" stroke-width="7" stroke-linecap="round" stroke-linejoin="round" stroke-miterlimit="1.5"/></g><g transform="matrix(.673629 0 0 1 0.003565 0)" clip-rule="evenodd"><path d="M1741,2562c0,0,51.03-12.07,67,38.35" clip-rule="evenodd" fill="none" fill-rule="evenodd" stroke="#000" stroke-width="7" stroke-linecap="round" stroke-linejoin="round" stroke-miterlimit="1.5"/></g><g transform="matrix(.673629 0 0 1-1.34369 6)" clip-rule="evenodd"><path d="M1753,2539c0,0,56.5,2.17,70,42.76" clip-rule="evenodd" fill="none" fill-rule="evenodd" stroke="#000" stroke-width="7" stroke-linecap="round" stroke-linejoin="round" stroke-miterlimit="1.5"/></g><g transform="matrix(.673629 0 0 1-.670065 2)" clip-rule="evenodd"><path d="M1767,2521c0,0,52.71-2.33,69,38.97" clip-rule="evenodd" fill="none" fill-rule="evenodd" stroke="#000" stroke-width="7" stroke-linecap="round" stroke-linejoin="round" stroke-miterlimit="1.5"/></g><g transform="matrix(.673629 0 0 1 0.003565 0)" clip-rule="evenodd"><path d="M1788,2504c0,0,48.4,2.62,57,35" clip-rule="evenodd" fill="none" fill-rule="evenodd" stroke="#000" stroke-width="7" stroke-linecap="round" stroke-linejoin="round" stroke-miterlimit="1.5"/></g><g transform="matrix(.673629 0 0 1 0.003565 0)" clip-rule="evenodd"><g id="e7d5MxeEgPo78_ts" transform="translate(1852.780172,2481.808963) scale(0.983466,0.767394)"><path d="M1845,2484c0,0,17.83,11.22,15-2s-31.01-15.52-15,2Z" transform="translate(-1850.206848,-2479.95752)" clip-rule="evenodd" fill-rule="evenodd" stroke="#000" stroke-width="7" stroke-linecap="round" stroke-linejoin="round" stroke-miterlimit="1.5"/></g></g><g transform="matrix(.673629 0 0 1 0.003565 0)" clip-rule="evenodd"><path d="M1730,2644l31-53" clip-rule="evenodd" fill="none" fill-rule="evenodd" stroke="#000" stroke-width="7" stroke-linecap="round" stroke-linejoin="round" stroke-miterlimit="1.5"/></g><g transform="matrix(.673629 0 0 1 0.003565 0)" clip-rule="evenodd"><path d="M1841,2454c0,0,41.21-22.02,43,28s-70.73,13.49-63.51,3" clip-rule="evenodd" fill="none" fill-rule="evenodd" stroke="#000" stroke-width="7" stroke-linecap="round" stroke-linejoin="round" stroke-miterlimit="1.5"/></g><g transform="matrix(.663824 0 0 0.884045 17.5991 286.636)" clip-rule="evenodd"><g id="e7d5MxeEgPo84_ts" transform="translate(1804.089966,2458.241333) scale(1,1.133436)"><path d="M1795,2458c0,0,13.24-26.61,17.84,0c4.28,24.81-20.22,5.33-17.84,0Z" transform="translate(-1804.089966,-2458.241333)" clip-rule="evenodd" fill-rule="evenodd" stroke="#000" stroke-width="7.48" stroke-linecap="round" stroke-linejoin="round" stroke-miterlimit="1.5"/></g></g><g transform="matrix(.673629 0 0 1 0.003565 0)" clip-rule="evenodd"><path d="M1780.08,2463c0,0,4.64-6.2,8.92-14.22c5.11-9.58,11.41-23.92,32-18.78c37.84,9.45,7.83,51.85-8.16,59-22.17,6.65-42.14-15.84-32.76-26Z" clip-rule="evenodd" fill="none" fill-rule="evenodd" stroke="#000" stroke-width="7" stroke-linecap="round" stroke-linejoin="round" stroke-miterlimit="1.5"/></g><g transform="matrix(.673629 0 0 1 0.003565 0)" clip-rule="evenodd"><g id="e7d5MxeEgPo88_ts" transform="translate(1757.978088,2442.889526) scale(1,1.1279)"><path d="M1757,2433c0,0,4.29-.14,5.89,1.29c3.71,3.32,6.11,10.72,1.11,16.71-7.15,8.57-25.2-16.46-7-18Z" transform="translate(-1757.978088,-2442.889526)" clip-rule="evenodd" fill-rule="evenodd" stroke="#000" stroke-width="7" stroke-linecap="round" stroke-linejoin="round" stroke-miterlimit="1.5"/></g></g><g transform="matrix(.673629 0 0 1 0.003565 0)" clip-rule="evenodd"><path d="M1620,2534c0,0,43.2-9.35,53,20" clip-rule="evenodd" fill="none" fill-rule="evenodd" stroke="#000" stroke-width="7" stroke-linecap="round" stroke-linejoin="round" stroke-miterlimit="1.5"/></g><g transform="matrix(.448755 0 0 0.789725 382.46 515.778)" clip-rule="evenodd"><g id="e7d5MxeEgPo92_ts" transform="translate(1694.406433,2412.466064) scale(1,0.649455)"><path d="M1687.72,2404.3c0,0-15.72,23.02,7.28,19.7c25.42-3.67,1.37-33.7-7.28-19.7Z" transform="translate(-1694.406433,-2412.466064)" clip-rule="evenodd" fill-rule="evenodd" stroke="#000" stroke-width="9.58" stroke-linecap="round" stroke-linejoin="round" stroke-miterlimit="1.5"/></g></g><g transform="matrix(.673629 0 0 1 0.003565 0)" clip-rule="evenodd"><circle r="3.5" transform="translate(1712.5 2405.5)" clip-rule="evenodd" fill-rule="evenodd" stroke-linecap="round" stroke-linejoin="round" stroke-miterlimit="1.5"/></g><g transform="matrix(.673629 0 0 1 0.003565 0)" clip-rule="evenodd"><circle r="3.5" transform="translate(1700.5 2398.5)" clip-rule="evenodd" fill-rule="evenodd" stroke-linecap="round" stroke-linejoin="round" stroke-miterlimit="1.5"/></g><g transform="matrix(.673629 0 0 1-1.34369 2)" clip-rule="evenodd"><path d="M1597,2460.45c0,0,41.34.22,48,32.55" clip-rule="evenodd" fill="none" fill-rule="evenodd" stroke="#000" stroke-width="7" stroke-linecap="round" stroke-linejoin="round" stroke-miterlimit="1.5"/></g><g transform="matrix(.673629 0 0 1 0.003565 0)" clip-rule="evenodd"><path d="M1616,2441.43c0,0,36.78,5.95,46,35.29" clip-rule="evenodd" fill="none" fill-rule="evenodd" stroke="#000" stroke-width="7" stroke-linecap="round" stroke-linejoin="round" stroke-miterlimit="1.5"/></g><g transform="matrix(.673629 0 0 1 0.003565 0)" clip-rule="evenodd"><path d="M1630,2515.8c0,0,36.4-2.22,51,22.2" clip-rule="evenodd" fill="none" fill-rule="evenodd" stroke="#000" stroke-width="7" stroke-linecap="round" stroke-linejoin="round" stroke-miterlimit="1.5"/></g><g transform="matrix(.673629 0 0 1 0.003565 0)" clip-rule="evenodd"><path d="M1655.5,2489c0,0,30.22-2.96,42.5,26.75" clip-rule="evenodd" fill="none" fill-rule="evenodd" stroke="#000" stroke-width="7" stroke-linecap="round" stroke-linejoin="round" stroke-miterlimit="1.5"/></g><g transform="matrix(.673629 0 0 1 0.003565 0)" clip-rule="evenodd"><path d="M1680.75,2546c0,0,41.91-8.22,56.25,24" clip-rule="evenodd" fill="none" fill-rule="evenodd" stroke="#000" stroke-width="7" stroke-linecap="round" stroke-linejoin="round" stroke-miterlimit="1.5"/></g><g transform="matrix(.673629 0 0 1 0.003565 0)" clip-rule="evenodd"><path d="M1694,2521c0,0,46.53-.64,55,23.31" clip-rule="evenodd" fill="none" fill-rule="evenodd" stroke="#000" stroke-width="7" stroke-linecap="round" stroke-linejoin="round" stroke-miterlimit="1.5"/></g><g transform="matrix(.673629 0 0 1 0.003565 0)" clip-rule="evenodd"><path d="M1737,2483c0,0,29.33,1.63,40,27" clip-rule="evenodd" fill="none" fill-rule="evenodd" stroke="#000" stroke-width="7" stroke-linecap="round" stroke-linejoin="round" stroke-miterlimit="1.5"/></g><g transform="matrix(.673629 0 0 1 0.003565 0)" clip-rule="evenodd"><path d="M1777,2510c0,0,49.13,3.38,64,40" clip-rule="evenodd" fill="none" fill-rule="evenodd" stroke="#000" stroke-width="7" stroke-linecap="round" stroke-linejoin="round" stroke-miterlimit="1.5"/></g><g transform="matrix(.673629 0 0 1-.670065 2)" clip-rule="evenodd"><path d="M1761,2530c0,0,55.2,3.63,69,40" clip-rule="evenodd" fill="none" fill-rule="evenodd" stroke="#000" stroke-width="7" stroke-linecap="round" stroke-linejoin="round" stroke-miterlimit="1.5"/></g><g transform="matrix(.673629 0 0 1 0.677194-5)" clip-rule="evenodd"><path d="M1715,2496.5c0,0,38.31,7.29,46,30.5" clip-rule="evenodd" fill="none" fill-rule="evenodd" stroke="#000" stroke-width="7" stroke-linecap="round" stroke-linejoin="round" stroke-miterlimit="1.5"/></g><g transform="matrix(.673629 0 0 1 0.003565 0)" clip-rule="evenodd"><path d="M1676,2468c0,0,34.77,7.44,39,28.5" clip-rule="evenodd" fill="none" fill-rule="evenodd" stroke="#000" stroke-width="7" stroke-linecap="round" stroke-linejoin="round" stroke-miterlimit="1.5"/></g><g transform="matrix(.673629 0 0 1 0.003565 0)" clip-rule="evenodd"><path d="M1738,2575.41c0,0,49.35-9.21,63,36.59" clip-rule="evenodd" fill="none" fill-rule="evenodd" stroke="#000" stroke-width="7" stroke-linecap="round" stroke-linejoin="round" stroke-miterlimit="1.5"/></g><g transform="matrix(.673629 0 0 1-27.2029 407.05)" clip-rule="evenodd"><path d="M1678,2021.87c0,0-47.64-4.87-109.02,147.13" clip-rule="evenodd" fill="none" fill-rule="evenodd" stroke="#000" stroke-width="7" stroke-linecap="round" stroke-linejoin="round" stroke-miterlimit="1.5"/></g><g transform="matrix(.673629 0 0 1-27.2029 407.05)" clip-rule="evenodd"><path d="M1583,2138c0,0,8.07-5.54,14.44-3.8c4.22,1.15,7.69,5.5,7.56,16.8" clip-rule="evenodd" fill="none" fill-rule="evenodd" stroke="#000" stroke-width="7" stroke-linecap="round" stroke-linejoin="round" stroke-miterlimit="1.5"/></g><g transform="matrix(.673629 0 0 1-27.2029 407.05)" clip-rule="evenodd"><path d="M1568.98,2169c1.51,12.89-1.45,51.65,21.51,13" clip-rule="evenodd" fill="none" fill-rule="evenodd" stroke="#000" stroke-width="7" stroke-linecap="round" stroke-linejoin="round" stroke-miterlimit="1.5"/></g></g></g></g></svg>