<svg id="ebCnSMikUD01" xmlns="http://www.w3.org/2000/svg" xmlns:xlink="http://www.w3.org/1999/xlink" viewBox="0 0 300 285" shape-rendering="geometricPrecision" text-rendering="geometricPrecision"><style><![CDATA[#ebCnSMikUD014_ts {animation: ebCnSMikUD014_ts__ts 500ms linear infinite alternate-reverse forwards}@keyframes ebCnSMikUD014_ts__ts { 0% {transform: translate(1779.22998px,2083.22998px) scale(1,1);animation-timing-function: cubic-bezier(0.42,0,0.58,1)} 100% {transform: translate(1779.22998px,2083.22998px) scale(1.407707,1.239915)}} #ebCnSMikUD032_to {animation: ebCnSMikUD032_to__to 500ms linear infinite alternate-reverse forwards}@keyframes ebCnSMikUD032_to__to { 0% {transform: translate(1742.102478px,1916.780273px);animation-timing-function: cubic-bezier(0.42,0,0.58,1)} 100% {transform: translate(1745.201183px,1921.905006px)}} #ebCnSMikUD037_to {animation: ebCnSMikUD037_to__to 500ms linear infinite alternate-reverse forwards}@keyframes ebCnSMikUD037_to__to { 0% {transform: translate(1857.637573px,1913.202393px);animation-timing-function: cubic-bezier(0.42,0,0.58,1)} 100% {transform: translate(1855.804685px,1915.758613px)}} #ebCnSMikUD045_to {animation: ebCnSMikUD045_to__to 500ms linear infinite alternate-reverse forwards}@keyframes ebCnSMikUD045_to__to { 0% {transform: translate(95.2066px,81.789px);animation-timing-function: cubic-bezier(0.42,0,0.58,1)} 100% {transform: translate(93.185719px,85.789px)}}]]></style><g transform="translate(-1491.98-1897.95)" clip-rule="evenodd"><g transform="matrix(1.4845 0 0 1-.005292 0)" clip-rule="evenodd"><g transform="translate(-95.2066-83.789)" clip-rule="evenodd"><g transform="matrix(.673629 0 0 1 0.003565 0)" clip-rule="evenodd"><path d="M1681.13,2262.32c0,0-20.73-2.78-31.13-7.32s-20.9-60.72,2-37.93c9.93-14.47,35.59-39.8,42.49-68.63c6.89-28.82,30.61-60.37,68.9-54.44-5.99-13.8-16.59-47.61,39.61-34c14.69,18.38,19.35,29.35,10,41-17.27,7.11-6.6.86-18,7-2.66,17.27-1.69,42.69-37,69.93-38.86,47.51-55.89,68.07-55.89,68.07s-3.35,18.25-20.98,16.32Z" clip-rule="evenodd" fill="#fff" fill-rule="evenodd" stroke-linecap="round" stroke-linejoin="round" stroke-miterlimit="1.5"/></g><g transform="matrix(.673629 0 0 1 0.003565 0)" clip-rule="evenodd"><path d="M1788.84,2052.1c-4.73.66-11.43,1.21-17.46,2.8-4.5,1.19-8.64,2.98-11.6,5.63-11,9.87-8.58,24.87.96,34.53c11.8,11.97,29.17,16.74,45.57,15.34c4.75-.41,8.31-3.48,10.68-7.84c2.98-5.48,4-13.01,3.79-17.65-.75-16.18-12.53-35.55-31.94-32.81Zm.98,6.93c7.26-1.03,12.97,2.23,16.98,7.19c4.29,5.31,6.69,12.53,6.98,19.01.17,3.67-.58,9.65-2.94,13.99-1.18,2.18-2.75,4-5.12,4.2-14.38,1.23-29.65-2.79-40-13.27-6.74-6.84-9.05-17.42-1.26-24.41c2.2-1.98,5.35-3.19,8.71-4.07c5.75-1.52,12.14-2.01,16.65-2.64Z" clip-rule="evenodd" fill-rule="evenodd" stroke-linecap="round" stroke-linejoin="round" stroke-miterlimit="1.5"/></g><g transform="matrix(.673629 0 0 1 0.003565 0)" clip-rule="evenodd"><circle r="4" transform="translate(1800.8 2076)" clip-rule="evenodd" fill-rule="evenodd" stroke-linecap="round" stroke-linejoin="round" stroke-miterlimit="1.5"/></g><g transform="matrix(.673629 0 0 1-13.3912-9.31067)" clip-rule="evenodd"><circle r="4" transform="translate(1800.8 2076)" clip-rule="evenodd" fill-rule="evenodd" stroke-linecap="round" stroke-linejoin="round" stroke-miterlimit="1.5"/></g><g transform="matrix(.673629 0 0 1 0.003565 0)" clip-rule="evenodd"><g id="ebCnSMikUD014_ts" transform="translate(1779.22998,2083.22998) scale(1.407707,1.239915)"><circle r="4.229" transform="translate(0.00002,0.00002)" clip-rule="evenodd" fill-rule="evenodd" stroke="#000" stroke-width="7" stroke-linecap="round" stroke-linejoin="round" stroke-miterlimit="1.5"/></g></g><g transform="matrix(.673629 0 0 1 0.003565 0)" clip-rule="evenodd"><path d="M1651.38,2211.09c-.65-.17-1.31-.42-1.98-.66-1.74-.62-3.49-1.25-5.15-1.47-3.16-.42-6.1.29-8.48,3.88-3.22,4.86-2.98,10.52-.92,16.27c2.55,7.06,7.99,14.28,10.51,19.59.49,1.02,2.08,6.25,3.54,8.62.89,1.45,1.99,2.24,2.81,2.54c3.32,1.19,6.94.76,10.31,1.64c8.72,2.28,16.19,5.23,25.46,4.04c1.75-.23,7.3-1.44,10.51-3.26c2.52-1.43,3.78-3.46,3.84-5.27.53-15.08-12.56-34.06-24.66-42.1-3.54-2.35-8.97-4.57-13.57-4.59-1.27-.01-2.48.15-3.6.47.11-.17.2-.31.26-.4c5.25-7.29,12.02-13.34,17.36-20.57c8.16-11.07,12.37-24.67,17.47-37.27c4.33-10.69,10.8-21.06,17.31-30.57c5.85-8.54,12.72-16.74,22.44-20.86c9.21-3.9,18.11-3.35,27.91-3.64c1.93-.06,3.45-1.67,3.39-3.6s-1.67-3.45-3.6-3.4c-10.69.32-20.38-.07-30.43,4.2-10.97,4.65-18.88,13.71-25.48,23.34-6.79,9.92-13.51,20.75-18.03,31.91-4.88,12.06-8.8,25.14-16.61,35.73-5.36,7.26-12.14,13.33-17.41,20.64-.37.52-2.3,3.42-3.2,4.79Zm43.47,44.87c-.04-12.83-11.36-28.44-21.56-35.22-2.08-1.39-5.03-2.75-7.87-3.25-1.79-.31-3.55-.42-4.68.67-.74.72-1.06,1.89-1.13,3.53-.07,1.63-.03,3.36.39,4.95c3.17,11.95,11.25,20.79,19.7,29.44.72.73,1.05,1.7.99,2.66c1.89.14,3.84.12,5.89-.14c1.16-.15,4.48-.84,6.97-1.93.42-.18.96-.5,1.3-.71Zm-41.8-37.72c-.17.02-.33.03-.47.03-2.21-.02-4.64-.95-7-1.76-1.45-.51-2.93-1.38-3.97.2-2.59,3.9-1.03,8.58,1.16,13.19c2.76,5.78,6.84,11.44,8.91,15.79.33.69,1.15,3.29,2.09,5.63.3.74.78,1.69,1.03,2.18c2.93.83,6.06.46,8.99,1.23c2.34.61,4.58,1.3,6.79,1.93-7.66-8.24-14.38-17.04-17.34-28.23-.6-2.26-.73-4.73-.62-7.05.05-1.16.2-2.2.43-3.14Z" clip-rule="evenodd" fill-rule="evenodd" stroke-linecap="round" stroke-linejoin="round" stroke-miterlimit="1.5"/></g><g transform="matrix(.673629 0 0 1 0.003565 0)" clip-rule="evenodd"><path d="M1703.38,2249.44c6.76-9.37,15.57-17.03,22.43-26.32c8.63-11.7,15.84-23.54,25.91-34.19c12.17-12.87,28.44-24.74,37.14-40.36c6-10.77,8-26.84,8.23-38.98.03-1.93-1.51-3.53-3.44-3.56-1.93-.04-3.53,1.5-3.56,3.43-.21,11.11-1.85,25.85-7.34,35.71-8.43,15.12-24.33,26.49-36.12,38.95-10.27,10.86-17.65,22.91-26.46,34.85-6.86,9.31-15.69,16.98-22.47,26.38-1.13,1.56-.77,3.75.79,4.88c1.57,1.13,3.76.78,4.89-.79Z" clip-rule="evenodd" fill-rule="evenodd" stroke-linecap="round" stroke-linejoin="round" stroke-miterlimit="1.5"/></g><g transform="matrix(.673629 0 0 1 0.003565 0)" clip-rule="evenodd"><path d="M1683.88,2219.24c3.58-4.51,7.61-8.81,10.15-14.03c5.57-11.46,6.15-25.66,7.43-38.22.19-1.92-1.21-3.64-3.13-3.83-1.92-.2-3.64,1.2-3.84,3.12-1.2,11.77-1.54,25.13-6.76,35.87-2.31,4.76-6.07,8.63-9.34,12.74-1.2,1.52-.95,3.72.57,4.92c1.51,1.2,3.71.95,4.92-.57Z" clip-rule="evenodd" fill-rule="evenodd" stroke-linecap="round" stroke-linejoin="round" stroke-miterlimit="1.5"/></g><g transform="matrix(.673629 0 0 1 0.003565 0)" clip-rule="evenodd"><path d="M1687.38,2165.29c20,3.34,37.17,14.31,48.86,30.75c1.12,1.57,3.31,1.94,4.88.82s1.94-3.3.82-4.88c-12.78-17.96-31.55-29.95-53.4-33.59-1.91-.32-3.71.97-4.03,2.87-.32,1.91.97,3.71,2.87,4.03Z" clip-rule="evenodd" fill-rule="evenodd" stroke-linecap="round" stroke-linejoin="round" stroke-miterlimit="1.5"/></g><g transform="matrix(.673629 0 0 1 0.003565 0)" clip-rule="evenodd"><path d="M1694.7,2152.57c4.81-.3,10.08-1.24,14.88-.12c18.99,4.42,25.53,18.93,33.68,35c.87,1.72,2.98,2.41,4.7,1.54c1.72-.88,2.41-2.99,1.54-4.71-9.13-18.01-17.05-33.7-38.33-38.65-5.46-1.27-11.44-.38-16.9-.05-1.93.12-3.4,1.78-3.28,3.71s1.78,3.39,3.71,3.28Z" clip-rule="evenodd" fill-rule="evenodd" stroke-linecap="round" stroke-linejoin="round" stroke-miterlimit="1.5"/></g><g transform="matrix(.673629 0 0 1 0.003565 0)" clip-rule="evenodd"><path d="M1702.05,2140.23c22.43.37,45.65,10.9,58.43,30.07c1.07,1.6,3.25,2.04,4.86.97c1.6-1.07,2.04-3.25.97-4.86-14.05-21.06-39.5-32.77-64.15-33.17-1.93-.04-3.52,1.51-3.55,3.44s1.51,3.52,3.44,3.55Z" clip-rule="evenodd" fill-rule="evenodd" stroke-linecap="round" stroke-linejoin="round" stroke-miterlimit="1.5"/></g><g transform="matrix(.673629 0 0 1 0.003565 0)" clip-rule="evenodd"><path d="M1714.53,2120.7c21.96,4.17,43.27,18.5,58.21,35.01c1.29,1.44,3.51,1.55,4.94.25c1.43-1.29,1.54-3.51.25-4.94-15.92-17.6-38.69-32.76-62.09-37.2-1.9-.36-3.73.89-4.09,2.78-.37,1.9.88,3.74,2.78,4.1Z" clip-rule="evenodd" fill-rule="evenodd" stroke-linecap="round" stroke-linejoin="round" stroke-miterlimit="1.5"/></g><g transform="matrix(.673629 0 0 1 0.003565 0)" clip-rule="evenodd"><path d="M1730.03,2104.81c19.98,4.06,41.17,15.73,53.84,32.44c1.17,1.54,3.37,1.84,4.91.67c1.54-1.16,1.84-3.36.67-4.9-13.67-18.03-36.48-30.69-58.02-35.07-1.89-.38-3.74.84-4.13,2.73-.38,1.9.84,3.75,2.73,4.13Z" clip-rule="evenodd" fill-rule="evenodd" stroke-linecap="round" stroke-linejoin="round" stroke-miterlimit="1.5"/></g><g transform="matrix(.597677 0.146219-.098497 0.887249 346.34 38.3848)" clip-rule="evenodd"><g id="ebCnSMikUD032_to" transform="translate(1745.201183,1921.905006)"><g transform="translate(-1742.102478,-1916.780273)"><path d="M1708.08,1909.79c.68-.3,1.37-.54,2.07-.72s1.38-.2,2.04-.06c.57.13.95.17,1.15.1.19-.07.33-.18.43-.35.09-.16.22-.35.37-.55.15-.21.47-.38.96-.52.66-.19,1.24-.15,1.75.13.51.27.94.69,1.31,1.25s.68,1.23.93,1.99c.24.77.45,1.55.61,2.34.17.8.31,1.57.42,2.3.1.74.2,1.36.28,1.85.17,1.12.32,2.29.48,3.49.15,1.21.23,2.41.26,3.6s-.03,2.35-.18,3.47-.45,2.16-.89,3.12c-.38.85-.96,1.6-1.74,2.26s-1.65,1.15-2.59,1.48-1.92.47-2.92.43-1.92-.33-2.77-.88c-.68-.44-1.24-1-1.66-1.67-.43-.67-.68-1.36-.76-2.07s.01-1.38.28-1.99c.28-.62.77-1.08,1.48-1.38.47-.19.89-.19,1.28,0c.38.19.74.44,1.07.74.32.3.65.58.96.84.32.26.64.37.97.31.46-.08.82-.31,1.08-.7.26-.38.45-.81.56-1.29s.16-.95.16-1.42-.01-.82-.04-1.07c-.03-.13-.26-.21-.7-.22-.43-.02-.99-.02-1.66-.02s-1.41-.04-2.22-.11-1.59-.24-2.36-.51c-1.15-.38-2.11-.98-2.9-1.79-.78-.8-1.29-1.99-1.54-3.55-.13-.93-.13-1.86.02-2.79.16-.93.42-1.8.79-2.59.37-.8.83-1.49,1.39-2.1.56-.6,1.17-1.05,1.83-1.35Zm5.67,9.78c.19-.03.37-.07.53-.11.17-.04.3-.13.41-.29.11-.15.17-.36.19-.65.01-.29-.04-.71-.15-1.25-.11-.47-.2-.92-.28-1.34-.09-.42-.18-.79-.29-1.09s-.26-.53-.43-.68c-.18-.15-.41-.19-.68-.14-.68.14-1.27.34-1.75.62-.47.27-.86.59-1.15.94-.28.36-.48.73-.57,1.11-.1.38-.12.75-.06,1.11.02.25.13.51.31.78.17.27.43.5.78.68.34.17.77.31,1.29.39s1.14.05,1.85-.08Z" clip-rule="evenodd" stroke-linecap="round" stroke-linejoin="round" stroke-miterlimit="1.5"/><path d="M1724.22,1917.72c.03-1.48.26-2.8.7-3.97.44-1.16,1.04-2.15,1.81-2.97.77-.83,1.68-1.44,2.75-1.85s2.27-.61,3.62-.58c1.28.06,2.43.43,3.43,1.13.99.7,1.84,1.57,2.52,2.61.69,1.04,1.2,2.18,1.54,3.41s.49,2.41.43,3.53c-.13,2.82-.91,4.85-2.32,6.1s-3.5,1.87-6.26,1.87c-1.1,0-2.15-.18-3.16-.53-1.02-.36-1.9-.92-2.66-1.69-.75-.76-1.35-1.73-1.8-2.89-.45-1.17-.65-2.56-.6-4.17Zm5.96-.7c-.11,1.01.08,1.82.57,2.42.5.6,1.08.97,1.75,1.09s1.32-.01,1.95-.41s1.01-1.1,1.15-2.12c.11-1.01-.08-1.87-.57-2.56-.5-.7-1.08-1.15-1.75-1.34s-1.32-.07-1.95.37-1.01,1.29-1.15,2.55Z" clip-rule="evenodd" stroke-linecap="round" stroke-linejoin="round" stroke-miterlimit="1.5"/><path d="M1744.31,1917.72c.03-1.48.26-2.8.7-3.97.43-1.16,1.04-2.15,1.8-2.97.77-.83,1.69-1.44,2.76-1.85c1.06-.41,2.27-.61,3.61-.58c1.29.06,2.43.43,3.43,1.13s1.84,1.57,2.53,2.61c.68,1.04,1.2,2.18,1.54,3.41s.48,2.41.43,3.53c-.14,2.82-.91,4.85-2.32,6.1s-3.5,1.87-6.27,1.87c-1.09,0-2.15-.18-3.16-.53-1.01-.36-1.89-.92-2.65-1.69-.75-.76-1.35-1.73-1.81-2.89-.45-1.17-.65-2.56-.59-4.17Zm5.96-.7c-.12,1.01.08,1.82.57,2.42s1.07.97,1.75,1.09c.67.12,1.32-.01,1.95-.41s1.01-1.1,1.15-2.12c.11-1.01-.08-1.87-.58-2.56-.49-.7-1.07-1.15-1.74-1.34-.68-.19-1.32-.07-1.96.37-.62.44-1.01,1.29-1.14,2.55Z" clip-rule="evenodd" stroke-linecap="round" stroke-linejoin="round" stroke-miterlimit="1.5"/><path d="M1774.66,1899.77c.39-.66.88-1.11,1.48-1.36.61-.25,1.2-.31,1.79-.21.59.12,1.1.4,1.54.85s.67,1.05.7,1.78c.03.53.05,1.21.06,2.06s.02,1.77.02,2.77v3.14c0,1.1-.01,2.15-.02,3.14-.01,1-.03,1.92-.04,2.74-.02.82-.02,1.48-.02,1.97-.03.74-.04,1.61-.02,2.61.01,1,0,1.98-.04,2.93-.04.96-.14,1.85-.29,2.65-.15.81-.39,1.41-.72,1.79-.44.49-.88.78-1.33.86-.46.09-1.04.02-1.75-.2-.25-.09-.44-.18-.6-.29-.15-.11-.3-.2-.45-.29-.15-.08-.31-.13-.47-.16s-.37,0-.62.08c-.96.33-1.98.43-3.06.29s-2.08-.54-3.01-1.21c-.94-.67-1.72-1.61-2.35-2.82-.63-1.2-.95-2.71-.98-4.52-.03-.98.1-2.06.39-3.22.28-1.16.8-2.25,1.54-3.25s1.73-1.8,2.98-2.42c1.24-.61,2.81-.87,4.7-.76.16.03.31-.07.43-.29s.18-.48.18-.78c.03-.68.01-1.43-.06-2.24-.06-.8-.13-1.58-.18-2.32-.06-.74-.08-1.41-.06-2.01.01-.6.1-1.04.26-1.31Zm-.28,20.45c.08,0,.14-.28.18-.84s.06-1.18.04-1.85c-.01-.67-.04-1.28-.1-1.83-.06-.54-.14-.82-.25-.82-.33.03-.71.09-1.15.17s-.85.23-1.25.45-.74.53-1.03.92c-.28.4-.43.91-.43,1.54c0,.52.14.93.41,1.23.28.31.62.53,1.03.68s.84.25,1.29.29c.46.04.87.06,1.26.06Z" clip-rule="evenodd" stroke-linecap="round" stroke-linejoin="round" stroke-miterlimit="1.5"/></g></g><g id="ebCnSMikUD037_to" transform="translate(1855.804685,1915.758613)"><g transform="translate(-1857.637573,-1913.202393)"><path d="M1811.88,1909.17c.66.22,1.27.53,1.83.93.56.39.91.95,1.05,1.66.02.25-.01.54-.11.88-.09.35-.25.67-.47.97s-.51.54-.86.72c-.36.18-.78.21-1.28.1-.49-.11-1.06-.2-1.7-.27-.64-.06-1.26-.04-1.85.09-.59.12-1.08.4-1.48.84-.39.44-.59,1.11-.59,2.01c0,1.01.15,1.81.45,2.38.3.58.68.97,1.15,1.19.46.22.99.28,1.58.17s1.16-.33,1.71-.66c.82-.49,1.51-.69,2.09-.59.58.09,1.01.36,1.31.82.31.45.45,1,.43,1.66-.01.66-.18,1.3-.51,1.93-.35.66-.87,1.21-1.54,1.64-.67.44-1.41.77-2.22.99-.8.22-1.62.34-2.44.35s-1.57-.06-2.26-.23c-.88-.24-1.64-.61-2.28-1.11-.64-.49-1.18-1.06-1.6-1.72-.43-.66-.75-1.39-.97-2.2s-.37-1.63-.45-2.48c-.05-.61-.05-1.35.02-2.24s.24-1.8.51-2.73c.28-.93.66-1.83,1.16-2.69.49-.87,1.15-1.56,1.99-2.1.83-.53,1.85-.86,3.06-.96c1.2-.11,2.63.1,4.27.65Z" clip-rule="evenodd" stroke-linecap="round" stroke-linejoin="round" stroke-miterlimit="1.5"/><path d="M1825.93,1915.87c.02.71.05,1.48.08,2.3s.03,1.64,0,2.46-.1,1.64-.2,2.45c-.12.8-.27,1.55-.46,2.24-.13.49-.37.86-.72,1.12-.34.27-.72.44-1.13.52s-.83.1-1.27.06-.82-.12-1.15-.22c-.33-.12-.61-.41-.86-.89s-.44-1.02-.58-1.62c-.13-.6-.24-1.21-.33-1.81-.08-.6-.12-1.09-.12-1.48-.03-.49-.05-1.17-.08-2.03s-.03-1.78,0-2.75.08-1.94.16-2.9c.09-.96.24-1.79.46-2.5.21-.77.58-1.35,1.08-1.73.51-.38,1.04-.57,1.61-.55.56.01,1.1.22,1.62.61.52.4.92.99,1.19,1.79.22.68.38,1.48.47,2.4.1.92.17,1.76.23,2.53Zm-.86-13.15c.02.69-.11,1.26-.4,1.73-.28.46-.65.82-1.1,1.07-.46.24-.95.37-1.48.39-.54.01-1.03-.08-1.48-.29s-.82-.53-1.11-.97c-.29-.43-.42-1-.39-1.68-.03-.66.1-1.21.39-1.66s.65-.8,1.09-1.05.91-.38,1.42-.41c.5-.03.97.06,1.41.27.44.2.82.52,1.13.96.32.44.49.99.52,1.64Z" clip-rule="evenodd" stroke-linecap="round" stroke-linejoin="round" stroke-miterlimit="1.5"/><path d="M1840.47,1926.96c-.96.08-1.88.05-2.75-.1-.88-.15-1.55-.45-2.02-.89-.43-.38-.78-.84-1.02-1.37-.25-.54-.44-1.13-.58-1.77-.13-.64-.23-1.32-.29-2.03-.05-.71-.08-1.44-.08-2.18-.03-1.01-.07-2.07-.12-3.18-.06-1.11-.11-2.19-.17-3.23-.02-.44-.13-.76-.32-.96-.2-.21-.43-.35-.7-.43-.28-.09-.56-.13-.84-.13-.29,0-.54-.04-.76-.12-.33-.11-.59-.39-.76-.84-.18-.45-.26-.94-.23-1.46s.15-1.01.37-1.46.55-.73.99-.84c.19-.03.42-.06.69-.08.28-.03.54-.06.8-.11.26-.04.48-.12.66-.24.18-.13.27-.31.27-.56c0-.76.01-1.48.04-2.15s.14-1.26.33-1.75.5-.89.92-1.19c.43-.3,1.04-.48,1.83-.53.52-.03.95.08,1.3.32.34.25.62.57.84.95s.37.81.47,1.27c.09.47.14.92.14,1.36c0,.55.04.98.11,1.31.06.33.19.58.39.74.19.17.43.27.74.31.3.04.68.06,1.15.06.49,0,.84.26,1.06.78s.31,1.1.27,1.75c-.04.64-.22,1.24-.53,1.81-.32.56-.76.85-1.34.88-.46.02-.83.07-1.11.14-.27.07-.48.19-.63.35-.16.17-.26.39-.31.68-.06.29-.09.68-.09,1.17v1.33c0,.48.01.97.03,1.46.01.5.04.98.1,1.46.05.48.14.91.25,1.3.13.46.28.84.45,1.14.16.31.35.48.57.54.22.05.47-.02.76-.21s.63-.54,1.01-1.07c.49-.65,1.05-.97,1.66-.94.62.03,1.19.23,1.71.6s.93.84,1.23,1.43.36,1.11.16,1.54c-.22.5-.49,1.03-.82,1.61-.33.57-.76,1.11-1.29,1.6-.54.49-1.17.92-1.91,1.27-.74.36-1.62.58-2.63.66Z" clip-rule="evenodd" stroke-linecap="round" stroke-linejoin="round" stroke-miterlimit="1.5"/><path d="M1858.05,1915.87c.03.71.05,1.48.08,2.3s.03,1.64,0,2.46-.09,1.64-.2,2.45c-.11.8-.26,1.55-.45,2.24-.14.49-.38.86-.72,1.12-.35.27-.72.44-1.13.52s-.84.1-1.28.06-.82-.12-1.15-.22c-.33-.12-.61-.41-.86-.89s-.44-1.02-.57-1.62c-.14-.6-.25-1.21-.33-1.81-.09-.6-.13-1.09-.13-1.48-.02-.49-.05-1.17-.08-2.03s-.03-1.78,0-2.75.08-1.94.16-2.9c.09-.96.24-1.79.46-2.5.22-.77.58-1.35,1.09-1.73.5-.38,1.04-.57,1.6-.55.56.01,1.1.22,1.62.61.52.4.92.99,1.19,1.79.22.68.38,1.48.47,2.4.1.92.18,1.76.23,2.53Zm-.86-13.15c.02.69-.11,1.26-.39,1.73-.29.46-.66.82-1.11,1.07-.45.24-.95.37-1.48.39-.54.01-1.03-.08-1.48-.29s-.82-.53-1.11-.97c-.29-.43-.42-1-.39-1.68-.03-.66.1-1.21.39-1.66s.65-.8,1.09-1.05.91-.38,1.42-.41c.5-.03.98.06,1.41.27.44.2.82.52,1.13.96.32.44.49.99.52,1.64Z" clip-rule="evenodd" stroke-linecap="round" stroke-linejoin="round" stroke-miterlimit="1.5"/><path d="M1877.11,1924.58c0,.76-.36,1.32-1.07,1.66s-1.55.57-2.52.68c-.98.11-1.98.15-3,.12-1.03-.03-1.86-.04-2.49-.04h-1.07c-.41,0-.82-.01-1.23-.04s-.8-.09-1.17-.19c-.37-.09-.69-.25-.96-.47-.5-.38-.77-.94-.83-1.68-.05-.74.09-1.38.41-1.93.2-.33.44-.69.72-1.09.29-.4.58-.8.87-1.21.28-.41.56-.8.84-1.17.27-.37.49-.69.66-.97.1-.16.32-.46.63-.9.32-.44.63-.9.93-1.38s.52-.9.65-1.27c.14-.37.07-.56-.2-.56-.14,0-.32,0-.56-.02-.23-.01-.48-.02-.76-.02-.27,0-.54,0-.8-.02-.26-.01-.47-.02-.63-.02-.61,0-1.11-.14-1.52-.41s-.73-.62-.95-1.03-.33-.85-.35-1.33c-.01-.48.07-.92.25-1.32.18-.39.47-.73.88-1c.41-.28.93-.41,1.56-.41h2.28c.81,0,1.62-.01,2.43-.02.8-.02,1.59-.02,2.36-.02h2.05c.44,0,.83.14,1.17.43.34.28.59.66.74,1.13.15.46.19.98.1,1.56-.08.57-.33,1.16-.73,1.76-.44.63-.85,1.24-1.22,1.81-.37.58-.77,1.21-1.21,1.89-.19.3-.46.69-.8,1.15-.34.47-.66.92-.96,1.38-.31.45-.52.84-.66,1.17s-.1.49.12.49c.38.03.92.02,1.6-.02.69-.04,1.36.01,2.02.16.65.16,1.22.46,1.7.93.48.46.72,1.2.72,2.22Z" clip-rule="evenodd" stroke-linecap="round" stroke-linejoin="round" stroke-miterlimit="1.5"/><path d="M1887.58,1908.52c1.1,0,2.06.18,2.88.55s1.51.84,2.07,1.42c.57.57.99,1.22,1.28,1.93.28.71.44,1.41.47,2.09.03.69-.08,1.31-.31,1.87s-.59,1.01-1.09,1.34c-.16.11-.41.18-.74.22s-.69.07-1.08.09c-.4.01-.81.01-1.24,0-.42-.02-.81-.03-1.17-.03-.33,0-.74.02-1.23.05-.49.02-1.04.04-1.64.04-.25,0-.41.14-.5.43-.08.29-.09.66-.04,1.13.06.54.37.98.93,1.31s1.17.51,1.82.54c.55,0,1.03-.12,1.44-.35.41-.24.8-.5,1.17-.78.37-.29.74-.54,1.09-.76.36-.22.75-.32,1.19-.29.88.08,1.45.44,1.71,1.07s.3,1.34.14,2.13c-.14.6-.4,1.13-.8,1.58-.4.46-.86.85-1.4,1.18-.53.32-1.1.6-1.7.84-.6.23-1.18.41-1.73.55-1.39.39-2.63.41-3.71.08-1.09-.33-2.01-.89-2.78-1.68-.76-.79-1.36-1.77-1.78-2.92-.43-1.15-.68-2.34-.76-3.57-.09-1.23.01-2.46.28-3.7.28-1.23.72-2.32,1.34-3.28s1.42-1.73,2.4-2.3c.99-.58,2.15-.84,3.49-.78Zm1.2,5.87c.19,0,.24-.19.16-.55-.08-.37-.22-.67-.41-.89-.14-.16-.32-.27-.56-.33-.23-.05-.47-.06-.74-.02-.26.04-.5.13-.73.27-.24.14-.41.33-.52.57-.08.17-.15.35-.2.54-.06.19-.03.33.08.41.03.05.18.08.47.08s.6,0,.93-.02c.32-.01.64-.03.94-.04s.49-.02.58-.02Z" clip-rule="evenodd" stroke-linecap="round" stroke-linejoin="round" stroke-miterlimit="1.5"/><path d="M1912.43,1910.32c.66.66,1.13,1.58,1.4,2.76.28,1.17.45,2.41.54,3.71.08,1.3.09,2.58.04,3.82-.06,1.25-.09,2.27-.09,3.06c0,1.02-.27,1.8-.82,2.37-.55.56-1.14.86-1.78.9-.65.04-1.24-.2-1.77-.72s-.79-1.37-.76-2.55c0-.55.01-1.28.04-2.22.03-.93,0-1.87-.08-2.83s-.25-1.85-.49-2.67c-.25-.82-.63-1.38-1.15-1.68-.31-.17-.63-.28-.97-.35s-.66-.06-.94.02c-.29.08-.54.24-.74.47-.21.23-.31.54-.31.92c0,.83-.02,1.72-.04,2.67-.03.96-.06,1.87-.09,2.72-.02.84-.06,1.59-.1,2.23-.04.65-.06,1.08-.06,1.3-.03.85-.35,1.5-.96,1.97-.62.46-1.29.7-2.02.72-.72.01-1.38-.22-1.97-.7s-.87-1.22-.84-2.24c.05-1.86.05-3.81-.02-5.85s-.08-3.97-.02-5.77c.02-.63.08-1.24.16-1.81.08-.58.21-1.08.39-1.52s.41-.79.7-1.07c.29-.27.65-.42,1.09-.45.38-.03.84.02,1.37.14.54.13.98.53,1.34,1.21.16.33.37.49.62.48.24-.02.56-.1.94-.25s.84-.31,1.38-.49c.53-.18,1.15-.27,1.87-.27.65,0,1.35.17,2.09.52.74.34,1.43.82,2.05,1.45Z" clip-rule="evenodd" stroke-linecap="round" stroke-linejoin="round" stroke-miterlimit="1.5"/></g></g></g><g id="ebCnSMikUD045_to" transform="translate(93.185719,85.789)"><g transform="translate(0,0)" clip-rule="evenodd"><g transform="matrix(.673629 0 0 1 0.003565 0)" clip-rule="evenodd"><path d="M1688,1940c0,0-4.86,18.21-11.63,23" clip-rule="evenodd" fill="none" fill-rule="evenodd" stroke="#000" stroke-width="7" stroke-linecap="round" stroke-linejoin="round" stroke-miterlimit="1.5"/></g><g transform="matrix(.673629 0 0 1 0.003565 0)" clip-rule="evenodd"><path d="M1674,1948.97l2.37,14.03l15.44-4" clip-rule="evenodd" fill="none" fill-rule="evenodd" stroke="#000" stroke-width="7" stroke-linecap="round" stroke-linejoin="round" stroke-miterlimit="1.5"/></g></g></g></g></g></g></svg>