<svg id="e1sLhcqt6zT1" xmlns="http://www.w3.org/2000/svg" xmlns:xlink="http://www.w3.org/1999/xlink" viewBox="0 0 381 331" shape-rendering="geometricPrecision" text-rendering="geometricPrecision"><style><![CDATA[#e1sLhcqt6zT116_to {animation: e1sLhcqt6zT116_to__to 500ms linear infinite alternate-reverse forwards}@keyframes e1sLhcqt6zT116_to__to { 0% {transform: translate(1504.247375px,2013.021363px);animation-timing-function: cubic-bezier(0.42,0,0.58,1)} 100% {transform: translate(1506.360749px,2016.191436px)}} #e1sLhcqt6zT121_to {animation: e1sLhcqt6zT121_to__to 500ms linear infinite alternate-reverse forwards}@keyframes e1sLhcqt6zT121_to__to { 0% {transform: translate(1585.520813px,2004.061035px);animation-timing-function: cubic-bezier(0.42,0,0.58,1)} 100% {transform: translate(1584.464126px,2009.34449px)}} #e1sLhcqt6zT126_to {animation: e1sLhcqt6zT126_to__to 500ms linear infinite alternate-reverse forwards}@keyframes e1sLhcqt6zT126_to__to { 0% {transform: translate(1525.660339px,2049.600464px);animation-timing-function: cubic-bezier(0.42,0,0.58,1)} 100% {transform: translate(1532.000461px,2051.713846px)}} #e1sLhcqt6zT174_to {animation: e1sLhcqt6zT174_to__to 500ms linear infinite alternate-reverse forwards}@keyframes e1sLhcqt6zT174_to__to { 0% {transform: translate(1045.705993px,2065.788941px);animation-timing-function: cubic-bezier(0.42,0,0.58,1)} 100% {transform: translate(1050.180818px,2072.487615px)}}]]></style><g transform="translate(-1503.26-1963.01)" clip-rule="evenodd"><g transform="matrix(1.4845 0 0 1-.005292 0)" clip-rule="evenodd"><g transform="matrix(.975323 0.32775-.148725 0.975323 401.293-319.183)" clip-rule="evenodd"><g transform="matrix(.922352 0 0 0.922352 101.975 140.779)" clip-rule="evenodd"><g transform="matrix(.467974 0 0 0.694705 385.122 695.771)" clip-rule="evenodd"><path d="M1609,2206.25c0-8.42-6.83-15.25-15.25-15.25h-87.5c-8.42,0-15.25,6.83-15.25,15.25v30.5c0,8.42,6.83,15.25,15.25,15.25h87.5c8.42,0,15.25-6.83,15.25-15.25v-30.5Z" clip-rule="evenodd" fill="#fff" fill-rule="evenodd" stroke="#000" stroke-width="10.92" stroke-linecap="round" stroke-linejoin="round" stroke-miterlimit="1.5"/></g><g transform="matrix(.673629 0 0 1 0.003565 0)" clip-rule="evenodd"><path d="M1648.5,2248v5" clip-rule="evenodd" fill="none" fill-rule="evenodd" stroke="#000" stroke-width="3.25" stroke-linecap="round" stroke-linejoin="round" stroke-miterlimit="1.5"/></g><g transform="matrix(.673629 0 0 1 0.399485-23.1411)" clip-rule="evenodd"><path d="M1648.5,2248v5" clip-rule="evenodd" fill="none" fill-rule="evenodd" stroke="#000" stroke-width="3.25" stroke-linecap="round" stroke-linejoin="round" stroke-miterlimit="1.5"/></g><g transform="matrix(1.02625 0 0 1.56178-571.657-1261.82)" clip-rule="evenodd"><g transform="matrix(21.2465 0 0 21.2465 1633 2249)" clip-rule="evenodd"><path d="M0.529,-0.219c0,.023-.003.048-.01.073-.008.025-.019.049-.034.07-.016.022-.037.04-.062.054s-.056.021-.092.022c-.017,0-.037-.001-.058-.002-.022-.001-.044-.005-.067-.012-.023-.006-.046-.015-.069-.028-.023-.012-.045-.029-.064-.05-.018-.02-.027-.041-.026-.065c0-.023.006-.042.019-.059.012-.017.028-.027.049-.031s.043.003.066.021c.009.007.021.015.036.026s.03.02.047.027c.016.007.031.01.046.009.014-.001.024-.01.031-.027.004-.011.002-.024-.004-.039-.007-.015-.016-.03-.027-.045s-.023-.028-.034-.04c-.012-.012-.02-.02-.025-.023-.029-.02-.055-.042-.076-.066s-.036-.049-.045-.075-.011-.053-.006-.082c.005-.028.02-.057.044-.086.017-.02.039-.034.067-.041s.057-.01.088-.009c.031.002.061.007.09.016s.054.02.073.032c.015.009.025.02.032.033.006.013.009.025.009.038-.001.013-.004.026-.01.037-.006.012-.013.022-.021.03-.009.008-.018.013-.029.016s-.021.001-.03-.004c-.007-.004-.017-.01-.03-.018s-.027-.015-.041-.021c-.014-.005-.027-.008-.039-.009-.012,0-.021.006-.027.017-.005.01-.003.021.006.033.009.013.022.026.039.04.017.015.036.03.057.047s.041.035.06.054c.019.02.034.041.047.064s.019.047.02.073Z" clip-rule="evenodd" stroke-linecap="round" stroke-linejoin="round" stroke-miterlimit="1.5"/></g></g></g><g transform="matrix(.922352 0 0 0.922352 152.751 140.779)" clip-rule="evenodd"><g transform="matrix(.467974 0 0 0.694705 385.122 695.771)" clip-rule="evenodd"><path d="M1609,2206.25c0-8.42-6.83-15.25-15.25-15.25h-87.5c-8.42,0-15.25,6.83-15.25,15.25v30.5c0,8.42,6.83,15.25,15.25,15.25h87.5c8.42,0,15.25-6.83,15.25-15.25v-30.5Z" clip-rule="evenodd" fill="#fff" fill-rule="evenodd" stroke="#000" stroke-width="10.92" stroke-linecap="round" stroke-linejoin="round" stroke-miterlimit="1.5"/></g><g transform="matrix(.673629 0 0 1 0.003565 0)" clip-rule="evenodd"><path d="M1648.5,2248v5" clip-rule="evenodd" fill="none" fill-rule="evenodd" stroke="#000" stroke-width="3.25" stroke-linecap="round" stroke-linejoin="round" stroke-miterlimit="1.5"/></g><g transform="matrix(.673629 0 0 1 0.399485-23.1411)" clip-rule="evenodd"><path d="M1648.5,2248v5" clip-rule="evenodd" fill="none" fill-rule="evenodd" stroke="#000" stroke-width="3.25" stroke-linecap="round" stroke-linejoin="round" stroke-miterlimit="1.5"/></g><g transform="matrix(1.02625 0 0 1.56178-571.657-1261.82)" clip-rule="evenodd"><g transform="matrix(21.2465 0 0 21.2465 1633 2249)" clip-rule="evenodd"><path d="M0.529,-0.219c0,.023-.003.048-.01.073-.008.025-.019.049-.034.07-.016.022-.037.04-.062.054s-.056.021-.092.022c-.017,0-.037-.001-.058-.002-.022-.001-.044-.005-.067-.012-.023-.006-.046-.015-.069-.028-.023-.012-.045-.029-.064-.05-.018-.02-.027-.041-.026-.065c0-.023.006-.042.019-.059.012-.017.028-.027.049-.031s.043.003.066.021c.009.007.021.015.036.026s.03.02.047.027c.016.007.031.01.046.009.014-.001.024-.01.031-.027.004-.011.002-.024-.004-.039-.007-.015-.016-.03-.027-.045s-.023-.028-.034-.04c-.012-.012-.02-.02-.025-.023-.029-.02-.055-.042-.076-.066s-.036-.049-.045-.075-.011-.053-.006-.082c.005-.028.02-.057.044-.086.017-.02.039-.034.067-.041s.057-.01.088-.009c.031.002.061.007.09.016s.054.02.073.032c.015.009.025.02.032.033.006.013.009.025.009.038-.001.013-.004.026-.01.037-.006.012-.013.022-.021.03-.009.008-.018.013-.029.016s-.021.001-.03-.004c-.007-.004-.017-.01-.03-.018s-.027-.015-.041-.021c-.014-.005-.027-.008-.039-.009-.012,0-.021.006-.027.017-.005.01-.003.021.006.033.009.013.022.026.039.04.017.015.036.03.057.047s.041.035.06.054c.019.02.034.041.047.064s.019.047.02.073Z" clip-rule="evenodd" stroke-linecap="round" stroke-linejoin="round" stroke-miterlimit="1.5"/></g></g></g><g transform="matrix(.922352 0 0 0.922352 50.8404 140.779)" clip-rule="evenodd"><g transform="matrix(.467974 0 0 0.694705 385.122 695.771)" clip-rule="evenodd"><path d="M1609,2206.25c0-8.42-6.83-15.25-15.25-15.25h-87.5c-8.42,0-15.25,6.83-15.25,15.25v30.5c0,8.42,6.83,15.25,15.25,15.25h87.5c8.42,0,15.25-6.83,15.25-15.25v-30.5Z" clip-rule="evenodd" fill="#fff" fill-rule="evenodd" stroke="#000" stroke-width="10.92" stroke-linecap="round" stroke-linejoin="round" stroke-miterlimit="1.5"/></g><g transform="matrix(.673629 0 0 1 0.003565 0)" clip-rule="evenodd"><path d="M1648.5,2248v5" clip-rule="evenodd" fill="none" fill-rule="evenodd" stroke="#000" stroke-width="3.25" stroke-linecap="round" stroke-linejoin="round" stroke-miterlimit="1.5"/></g><g transform="matrix(.673629 0 0 1 0.399485-23.1411)" clip-rule="evenodd"><path d="M1648.5,2248v5" clip-rule="evenodd" fill="none" fill-rule="evenodd" stroke="#000" stroke-width="3.25" stroke-linecap="round" stroke-linejoin="round" stroke-miterlimit="1.5"/></g><g transform="matrix(1.02625 0 0 1.56178-571.657-1261.82)" clip-rule="evenodd"><g transform="matrix(21.2465 0 0 21.2465 1633 2249)" clip-rule="evenodd"><path d="M0.529,-0.219c0,.023-.003.048-.01.073-.008.025-.019.049-.034.07-.016.022-.037.04-.062.054s-.056.021-.092.022c-.017,0-.037-.001-.058-.002-.022-.001-.044-.005-.067-.012-.023-.006-.046-.015-.069-.028-.023-.012-.045-.029-.064-.05-.018-.02-.027-.041-.026-.065c0-.023.006-.042.019-.059.012-.017.028-.027.049-.031s.043.003.066.021c.009.007.021.015.036.026s.03.02.047.027c.016.007.031.01.046.009.014-.001.024-.01.031-.027.004-.011.002-.024-.004-.039-.007-.015-.016-.03-.027-.045s-.023-.028-.034-.04c-.012-.012-.02-.02-.025-.023-.029-.02-.055-.042-.076-.066s-.036-.049-.045-.075-.011-.053-.006-.082c.005-.028.02-.057.044-.086.017-.02.039-.034.067-.041s.057-.01.088-.009c.031.002.061.007.09.016s.054.02.073.032c.015.009.025.02.032.033.006.013.009.025.009.038-.001.013-.004.026-.01.037-.006.012-.013.022-.021.03-.009.008-.018.013-.029.016s-.021.001-.03-.004c-.007-.004-.017-.01-.03-.018s-.027-.015-.041-.021c-.014-.005-.027-.008-.039-.009-.012,0-.021.006-.027.017-.005.01-.003.021.006.033.009.013.022.026.039.04.017.015.036.03.057.047s.041.035.06.054c.019.02.034.041.047.064s.019.047.02.073Z" clip-rule="evenodd" stroke-linecap="round" stroke-linejoin="round" stroke-miterlimit="1.5"/></g></g></g><g transform="matrix(.922352 0 0 0.922352 0.654723 140.779)" clip-rule="evenodd"><g transform="matrix(.467974 0 0 0.694705 385.122 695.771)" clip-rule="evenodd"><path d="M1609,2206.25c0-8.42-6.83-15.25-15.25-15.25h-87.5c-8.42,0-15.25,6.83-15.25,15.25v30.5c0,8.42,6.83,15.25,15.25,15.25h87.5c8.42,0,15.25-6.83,15.25-15.25v-30.5Z" clip-rule="evenodd" fill="#fff" fill-rule="evenodd" stroke="#000" stroke-width="10.92" stroke-linecap="round" stroke-linejoin="round" stroke-miterlimit="1.5"/></g><g transform="matrix(.673629 0 0 1 0.003565 0)" clip-rule="evenodd"><path d="M1648.5,2248v5" clip-rule="evenodd" fill="none" fill-rule="evenodd" stroke="#000" stroke-width="3.25" stroke-linecap="round" stroke-linejoin="round" stroke-miterlimit="1.5"/></g><g transform="matrix(.673629 0 0 1 0.399485-23.1411)" clip-rule="evenodd"><path d="M1648.5,2248v5" clip-rule="evenodd" fill="none" fill-rule="evenodd" stroke="#000" stroke-width="3.25" stroke-linecap="round" stroke-linejoin="round" stroke-miterlimit="1.5"/></g><g transform="matrix(1.02625 0 0 1.56178-571.657-1261.82)" clip-rule="evenodd"><g transform="matrix(21.2465 0 0 21.2465 1633 2249)" clip-rule="evenodd"><path d="M0.529,-0.219c0,.023-.003.048-.01.073-.008.025-.019.049-.034.07-.016.022-.037.04-.062.054s-.056.021-.092.022c-.017,0-.037-.001-.058-.002-.022-.001-.044-.005-.067-.012-.023-.006-.046-.015-.069-.028-.023-.012-.045-.029-.064-.05-.018-.02-.027-.041-.026-.065c0-.023.006-.042.019-.059.012-.017.028-.027.049-.031s.043.003.066.021c.009.007.021.015.036.026s.03.02.047.027c.016.007.031.01.046.009.014-.001.024-.01.031-.027.004-.011.002-.024-.004-.039-.007-.015-.016-.03-.027-.045s-.023-.028-.034-.04c-.012-.012-.02-.02-.025-.023-.029-.02-.055-.042-.076-.066s-.036-.049-.045-.075-.011-.053-.006-.082c.005-.028.02-.057.044-.086.017-.02.039-.034.067-.041s.057-.01.088-.009c.031.002.061.007.09.016s.054.02.073.032c.015.009.025.02.032.033.006.013.009.025.009.038-.001.013-.004.026-.01.037-.006.012-.013.022-.021.03-.009.008-.018.013-.029.016s-.021.001-.03-.004c-.007-.004-.017-.01-.03-.018s-.027-.015-.041-.021c-.014-.005-.027-.008-.039-.009-.012,0-.021.006-.027.017-.005.01-.003.021.006.033.009.013.022.026.039.04.017.015.036.03.057.047s.041.035.06.054c.019.02.034.041.047.064s.019.047.02.073Z" clip-rule="evenodd" stroke-linecap="round" stroke-linejoin="round" stroke-miterlimit="1.5"/></g></g></g><g transform="matrix(.922352 0 0 0.922352 25.3738 179.779)" clip-rule="evenodd"><g transform="matrix(.467974 0 0 0.694705 385.122 695.771)" clip-rule="evenodd"><path d="M1609,2206.25c0-8.42-6.83-15.25-15.25-15.25h-87.5c-8.42,0-15.25,6.83-15.25,15.25v30.5c0,8.42,6.83,15.25,15.25,15.25h87.5c8.42,0,15.25-6.83,15.25-15.25v-30.5Z" clip-rule="evenodd" fill="#fff" fill-rule="evenodd" stroke="#000" stroke-width="10.92" stroke-linecap="round" stroke-linejoin="round" stroke-miterlimit="1.5"/></g><g transform="matrix(.673629 0 0 1 0.003565 0)" clip-rule="evenodd"><path d="M1648.5,2248v5" clip-rule="evenodd" fill="none" fill-rule="evenodd" stroke="#000" stroke-width="3.25" stroke-linecap="round" stroke-linejoin="round" stroke-miterlimit="1.5"/></g><g transform="matrix(.673629 0 0 1 0.399485-23.1411)" clip-rule="evenodd"><path d="M1648.5,2248v5" clip-rule="evenodd" fill="none" fill-rule="evenodd" stroke="#000" stroke-width="3.25" stroke-linecap="round" stroke-linejoin="round" stroke-miterlimit="1.5"/></g><g transform="matrix(1.02625 0 0 1.56178-571.657-1261.82)" clip-rule="evenodd"><g transform="matrix(21.2465 0 0 21.2465 1633 2249)" clip-rule="evenodd"><path d="M0.529,-0.219c0,.023-.003.048-.01.073-.008.025-.019.049-.034.07-.016.022-.037.04-.062.054s-.056.021-.092.022c-.017,0-.037-.001-.058-.002-.022-.001-.044-.005-.067-.012-.023-.006-.046-.015-.069-.028-.023-.012-.045-.029-.064-.05-.018-.02-.027-.041-.026-.065c0-.023.006-.042.019-.059.012-.017.028-.027.049-.031s.043.003.066.021c.009.007.021.015.036.026s.03.02.047.027c.016.007.031.01.046.009.014-.001.024-.01.031-.027.004-.011.002-.024-.004-.039-.007-.015-.016-.03-.027-.045s-.023-.028-.034-.04c-.012-.012-.02-.02-.025-.023-.029-.02-.055-.042-.076-.066s-.036-.049-.045-.075-.011-.053-.006-.082c.005-.028.02-.057.044-.086.017-.02.039-.034.067-.041s.057-.01.088-.009c.031.002.061.007.09.016s.054.02.073.032c.015.009.025.02.032.033.006.013.009.025.009.038-.001.013-.004.026-.01.037-.006.012-.013.022-.021.03-.009.008-.018.013-.029.016s-.021.001-.03-.004c-.007-.004-.017-.01-.03-.018s-.027-.015-.041-.021c-.014-.005-.027-.008-.039-.009-.012,0-.021.006-.027.017-.005.01-.003.021.006.033.009.013.022.026.039.04.017.015.036.03.057.047s.041.035.06.054c.019.02.034.041.047.064s.019.047.02.073Z" clip-rule="evenodd" stroke-linecap="round" stroke-linejoin="round" stroke-miterlimit="1.5"/></g></g></g><g transform="matrix(.922352 0 0 0.922352-25.5593 179.779)" clip-rule="evenodd"><g transform="matrix(.467974 0 0 0.694705 385.122 695.771)" clip-rule="evenodd"><path d="M1609,2206.25c0-8.42-6.83-15.25-15.25-15.25h-87.5c-8.42,0-15.25,6.83-15.25,15.25v30.5c0,8.42,6.83,15.25,15.25,15.25h87.5c8.42,0,15.25-6.83,15.25-15.25v-30.5Z" clip-rule="evenodd" fill="#fff" fill-rule="evenodd" stroke="#000" stroke-width="10.92" stroke-linecap="round" stroke-linejoin="round" stroke-miterlimit="1.5"/></g><g transform="matrix(.673629 0 0 1 0.003565 0)" clip-rule="evenodd"><path d="M1648.5,2248v5" clip-rule="evenodd" fill="none" fill-rule="evenodd" stroke="#000" stroke-width="3.25" stroke-linecap="round" stroke-linejoin="round" stroke-miterlimit="1.5"/></g><g transform="matrix(.673629 0 0 1 0.399485-23.1411)" clip-rule="evenodd"><path d="M1648.5,2248v5" clip-rule="evenodd" fill="none" fill-rule="evenodd" stroke="#000" stroke-width="3.25" stroke-linecap="round" stroke-linejoin="round" stroke-miterlimit="1.5"/></g><g transform="matrix(1.02625 0 0 1.56178-571.657-1261.82)" clip-rule="evenodd"><g transform="matrix(21.2465 0 0 21.2465 1633 2249)" clip-rule="evenodd"><path d="M0.529,-0.219c0,.023-.003.048-.01.073-.008.025-.019.049-.034.07-.016.022-.037.04-.062.054s-.056.021-.092.022c-.017,0-.037-.001-.058-.002-.022-.001-.044-.005-.067-.012-.023-.006-.046-.015-.069-.028-.023-.012-.045-.029-.064-.05-.018-.02-.027-.041-.026-.065c0-.023.006-.042.019-.059.012-.017.028-.027.049-.031s.043.003.066.021c.009.007.021.015.036.026s.03.02.047.027c.016.007.031.01.046.009.014-.001.024-.01.031-.027.004-.011.002-.024-.004-.039-.007-.015-.016-.03-.027-.045s-.023-.028-.034-.04c-.012-.012-.02-.02-.025-.023-.029-.02-.055-.042-.076-.066s-.036-.049-.045-.075-.011-.053-.006-.082c.005-.028.02-.057.044-.086.017-.02.039-.034.067-.041s.057-.01.088-.009c.031.002.061.007.09.016s.054.02.073.032c.015.009.025.02.032.033.006.013.009.025.009.038-.001.013-.004.026-.01.037-.006.012-.013.022-.021.03-.009.008-.018.013-.029.016s-.021.001-.03-.004c-.007-.004-.017-.01-.03-.018s-.027-.015-.041-.021c-.014-.005-.027-.008-.039-.009-.012,0-.021.006-.027.017-.005.01-.003.021.006.033.009.013.022.026.039.04.017.015.036.03.057.047s.041.035.06.054c.019.02.034.041.047.064s.019.047.02.073Z" clip-rule="evenodd" stroke-linecap="round" stroke-linejoin="round" stroke-miterlimit="1.5"/></g></g></g><g transform="matrix(.922352 0 0 0.922352 76.3512 179.779)" clip-rule="evenodd"><g transform="matrix(.467974 0 0 0.694705 385.122 695.771)" clip-rule="evenodd"><path d="M1609,2206.25c0-8.42-6.83-15.25-15.25-15.25h-87.5c-8.42,0-15.25,6.83-15.25,15.25v30.5c0,8.42,6.83,15.25,15.25,15.25h87.5c8.42,0,15.25-6.83,15.25-15.25v-30.5Z" clip-rule="evenodd" fill="#fff" fill-rule="evenodd" stroke="#000" stroke-width="10.92" stroke-linecap="round" stroke-linejoin="round" stroke-miterlimit="1.5"/></g><g transform="matrix(.673629 0 0 1 0.003565 0)" clip-rule="evenodd"><path d="M1648.5,2248v5" clip-rule="evenodd" fill="none" fill-rule="evenodd" stroke="#000" stroke-width="3.25" stroke-linecap="round" stroke-linejoin="round" stroke-miterlimit="1.5"/></g><g transform="matrix(.673629 0 0 1 0.399485-23.1411)" clip-rule="evenodd"><path d="M1648.5,2248v5" clip-rule="evenodd" fill="none" fill-rule="evenodd" stroke="#000" stroke-width="3.25" stroke-linecap="round" stroke-linejoin="round" stroke-miterlimit="1.5"/></g><g transform="matrix(1.02625 0 0 1.56178-571.657-1261.82)" clip-rule="evenodd"><g transform="matrix(21.2465 0 0 21.2465 1633 2249)" clip-rule="evenodd"><path d="M0.529,-0.219c0,.023-.003.048-.01.073-.008.025-.019.049-.034.07-.016.022-.037.04-.062.054s-.056.021-.092.022c-.017,0-.037-.001-.058-.002-.022-.001-.044-.005-.067-.012-.023-.006-.046-.015-.069-.028-.023-.012-.045-.029-.064-.05-.018-.02-.027-.041-.026-.065c0-.023.006-.042.019-.059.012-.017.028-.027.049-.031s.043.003.066.021c.009.007.021.015.036.026s.03.02.047.027c.016.007.031.01.046.009.014-.001.024-.01.031-.027.004-.011.002-.024-.004-.039-.007-.015-.016-.03-.027-.045s-.023-.028-.034-.04c-.012-.012-.02-.02-.025-.023-.029-.02-.055-.042-.076-.066s-.036-.049-.045-.075-.011-.053-.006-.082c.005-.028.02-.057.044-.086.017-.02.039-.034.067-.041s.057-.01.088-.009c.031.002.061.007.09.016s.054.02.073.032c.015.009.025.02.032.033.006.013.009.025.009.038-.001.013-.004.026-.01.037-.006.012-.013.022-.021.03-.009.008-.018.013-.029.016s-.021.001-.03-.004c-.007-.004-.017-.01-.03-.018s-.027-.015-.041-.021c-.014-.005-.027-.008-.039-.009-.012,0-.021.006-.027.017-.005.01-.003.021.006.033.009.013.022.026.039.04.017.015.036.03.057.047s.041.035.06.054c.019.02.034.041.047.064s.019.047.02.073Z" clip-rule="evenodd" stroke-linecap="round" stroke-linejoin="round" stroke-miterlimit="1.5"/></g></g></g><g transform="matrix(.922352 0 0 0.922352 127.284 179.779)" clip-rule="evenodd"><g transform="matrix(.467974 0 0 0.694705 385.122 695.771)" clip-rule="evenodd"><path d="M1609,2206.25c0-8.42-6.83-15.25-15.25-15.25h-87.5c-8.42,0-15.25,6.83-15.25,15.25v30.5c0,8.42,6.83,15.25,15.25,15.25h87.5c8.42,0,15.25-6.83,15.25-15.25v-30.5Z" clip-rule="evenodd" fill="#fff" fill-rule="evenodd" stroke="#000" stroke-width="10.92" stroke-linecap="round" stroke-linejoin="round" stroke-miterlimit="1.5"/></g><g transform="matrix(.673629 0 0 1 0.003565 0)" clip-rule="evenodd"><path d="M1648.5,2248v5" clip-rule="evenodd" fill="none" fill-rule="evenodd" stroke="#000" stroke-width="3.25" stroke-linecap="round" stroke-linejoin="round" stroke-miterlimit="1.5"/></g><g transform="matrix(.673629 0 0 1 0.399485-23.1411)" clip-rule="evenodd"><path d="M1648.5,2248v5" clip-rule="evenodd" fill="none" fill-rule="evenodd" stroke="#000" stroke-width="3.25" stroke-linecap="round" stroke-linejoin="round" stroke-miterlimit="1.5"/></g><g transform="matrix(1.02625 0 0 1.56178-571.657-1261.82)" clip-rule="evenodd"><g transform="matrix(21.2465 0 0 21.2465 1633 2249)" clip-rule="evenodd"><path d="M0.529,-0.219c0,.023-.003.048-.01.073-.008.025-.019.049-.034.07-.016.022-.037.04-.062.054s-.056.021-.092.022c-.017,0-.037-.001-.058-.002-.022-.001-.044-.005-.067-.012-.023-.006-.046-.015-.069-.028-.023-.012-.045-.029-.064-.05-.018-.02-.027-.041-.026-.065c0-.023.006-.042.019-.059.012-.017.028-.027.049-.031s.043.003.066.021c.009.007.021.015.036.026s.03.02.047.027c.016.007.031.01.046.009.014-.001.024-.01.031-.027.004-.011.002-.024-.004-.039-.007-.015-.016-.03-.027-.045s-.023-.028-.034-.04c-.012-.012-.02-.02-.025-.023-.029-.02-.055-.042-.076-.066s-.036-.049-.045-.075-.011-.053-.006-.082c.005-.028.02-.057.044-.086.017-.02.039-.034.067-.041s.057-.01.088-.009c.031.002.061.007.09.016s.054.02.073.032c.015.009.025.02.032.033.006.013.009.025.009.038-.001.013-.004.026-.01.037-.006.012-.013.022-.021.03-.009.008-.018.013-.029.016s-.021.001-.03-.004c-.007-.004-.017-.01-.03-.018s-.027-.015-.041-.021c-.014-.005-.027-.008-.039-.009-.012,0-.021.006-.027.017-.005.01-.003.021.006.033.009.013.022.026.039.04.017.015.036.03.057.047s.041.035.06.054c.019.02.034.041.047.064s.019.047.02.073Z" clip-rule="evenodd" stroke-linecap="round" stroke-linejoin="round" stroke-miterlimit="1.5"/></g></g></g><g transform="matrix(.922352 0 0 0.922352 178.217 179.779)" clip-rule="evenodd"><g transform="matrix(.467974 0 0 0.694705 385.122 695.771)" clip-rule="evenodd"><path d="M1609,2206.25c0-8.42-6.83-15.25-15.25-15.25h-87.5c-8.42,0-15.25,6.83-15.25,15.25v30.5c0,8.42,6.83,15.25,15.25,15.25h87.5c8.42,0,15.25-6.83,15.25-15.25v-30.5Z" clip-rule="evenodd" fill="#fff" fill-rule="evenodd" stroke="#000" stroke-width="10.92" stroke-linecap="round" stroke-linejoin="round" stroke-miterlimit="1.5"/></g><g transform="matrix(.673629 0 0 1 0.003565 0)" clip-rule="evenodd"><path d="M1648.5,2248v5" clip-rule="evenodd" fill="none" fill-rule="evenodd" stroke="#000" stroke-width="3.25" stroke-linecap="round" stroke-linejoin="round" stroke-miterlimit="1.5"/></g><g transform="matrix(.673629 0 0 1 0.399485-23.1411)" clip-rule="evenodd"><path d="M1648.5,2248v5" clip-rule="evenodd" fill="none" fill-rule="evenodd" stroke="#000" stroke-width="3.25" stroke-linecap="round" stroke-linejoin="round" stroke-miterlimit="1.5"/></g><g transform="matrix(1.02625 0 0 1.56178-571.657-1261.82)" clip-rule="evenodd"><g transform="matrix(21.2465 0 0 21.2465 1633 2249)" clip-rule="evenodd"><path d="M0.529,-0.219c0,.023-.003.048-.01.073-.008.025-.019.049-.034.07-.016.022-.037.04-.062.054s-.056.021-.092.022c-.017,0-.037-.001-.058-.002-.022-.001-.044-.005-.067-.012-.023-.006-.046-.015-.069-.028-.023-.012-.045-.029-.064-.05-.018-.02-.027-.041-.026-.065c0-.023.006-.042.019-.059.012-.017.028-.027.049-.031s.043.003.066.021c.009.007.021.015.036.026s.03.02.047.027c.016.007.031.01.046.009.014-.001.024-.01.031-.027.004-.011.002-.024-.004-.039-.007-.015-.016-.03-.027-.045s-.023-.028-.034-.04c-.012-.012-.02-.02-.025-.023-.029-.02-.055-.042-.076-.066s-.036-.049-.045-.075-.011-.053-.006-.082c.005-.028.02-.057.044-.086.017-.02.039-.034.067-.041s.057-.01.088-.009c.031.002.061.007.09.016s.054.02.073.032c.015.009.025.02.032.033.006.013.009.025.009.038-.001.013-.004.026-.01.037-.006.012-.013.022-.021.03-.009.008-.018.013-.029.016s-.021.001-.03-.004c-.007-.004-.017-.01-.03-.018s-.027-.015-.041-.021c-.014-.005-.027-.008-.039-.009-.012,0-.021.006-.027.017-.005.01-.003.021.006.033.009.013.022.026.039.04.017.015.036.03.057.047s.041.035.06.054c.019.02.034.041.047.064s.019.047.02.073Z" clip-rule="evenodd" stroke-linecap="round" stroke-linejoin="round" stroke-miterlimit="1.5"/></g></g></g><g transform="matrix(.922352 0 0 0.922352 25.3738 101.693)" clip-rule="evenodd"><g transform="matrix(.467974 0 0 0.694705 385.122 695.771)" clip-rule="evenodd"><path d="M1609,2206.25c0-8.42-6.83-15.25-15.25-15.25h-87.5c-8.42,0-15.25,6.83-15.25,15.25v30.5c0,8.42,6.83,15.25,15.25,15.25h87.5c8.42,0,15.25-6.83,15.25-15.25v-30.5Z" clip-rule="evenodd" fill="#fff" fill-rule="evenodd" stroke="#000" stroke-width="10.92" stroke-linecap="round" stroke-linejoin="round" stroke-miterlimit="1.5"/></g><g transform="matrix(.673629 0 0 1 0.003565 0)" clip-rule="evenodd"><path d="M1648.5,2248v5" clip-rule="evenodd" fill="none" fill-rule="evenodd" stroke="#000" stroke-width="3.25" stroke-linecap="round" stroke-linejoin="round" stroke-miterlimit="1.5"/></g><g transform="matrix(.673629 0 0 1 0.399485-23.1411)" clip-rule="evenodd"><path d="M1648.5,2248v5" clip-rule="evenodd" fill="none" fill-rule="evenodd" stroke="#000" stroke-width="3.25" stroke-linecap="round" stroke-linejoin="round" stroke-miterlimit="1.5"/></g><g transform="matrix(1.02625 0 0 1.56178-571.657-1261.82)" clip-rule="evenodd"><g transform="matrix(21.2465 0 0 21.2465 1633 2249)" clip-rule="evenodd"><path d="M0.529,-0.219c0,.023-.003.048-.01.073-.008.025-.019.049-.034.07-.016.022-.037.04-.062.054s-.056.021-.092.022c-.017,0-.037-.001-.058-.002-.022-.001-.044-.005-.067-.012-.023-.006-.046-.015-.069-.028-.023-.012-.045-.029-.064-.05-.018-.02-.027-.041-.026-.065c0-.023.006-.042.019-.059.012-.017.028-.027.049-.031s.043.003.066.021c.009.007.021.015.036.026s.03.02.047.027c.016.007.031.01.046.009.014-.001.024-.01.031-.027.004-.011.002-.024-.004-.039-.007-.015-.016-.03-.027-.045s-.023-.028-.034-.04c-.012-.012-.02-.02-.025-.023-.029-.02-.055-.042-.076-.066s-.036-.049-.045-.075-.011-.053-.006-.082c.005-.028.02-.057.044-.086.017-.02.039-.034.067-.041s.057-.01.088-.009c.031.002.061.007.09.016s.054.02.073.032c.015.009.025.02.032.033.006.013.009.025.009.038-.001.013-.004.026-.01.037-.006.012-.013.022-.021.03-.009.008-.018.013-.029.016s-.021.001-.03-.004c-.007-.004-.017-.01-.03-.018s-.027-.015-.041-.021c-.014-.005-.027-.008-.039-.009-.012,0-.021.006-.027.017-.005.01-.003.021.006.033.009.013.022.026.039.04.017.015.036.03.057.047s.041.035.06.054c.019.02.034.041.047.064s.019.047.02.073Z" clip-rule="evenodd" stroke-linecap="round" stroke-linejoin="round" stroke-miterlimit="1.5"/></g></g></g><g transform="matrix(.922352 0 0 0.922352 76.3069 101.693)" clip-rule="evenodd"><g transform="matrix(.467974 0 0 0.694705 385.122 695.771)" clip-rule="evenodd"><path d="M1609,2206.25c0-8.42-6.83-15.25-15.25-15.25h-87.5c-8.42,0-15.25,6.83-15.25,15.25v30.5c0,8.42,6.83,15.25,15.25,15.25h87.5c8.42,0,15.25-6.83,15.25-15.25v-30.5Z" clip-rule="evenodd" fill="#fff" fill-rule="evenodd" stroke="#000" stroke-width="10.92" stroke-linecap="round" stroke-linejoin="round" stroke-miterlimit="1.5"/></g><g transform="matrix(.673629 0 0 1 0.003565 0)" clip-rule="evenodd"><path d="M1648.5,2248v5" clip-rule="evenodd" fill="none" fill-rule="evenodd" stroke="#000" stroke-width="3.25" stroke-linecap="round" stroke-linejoin="round" stroke-miterlimit="1.5"/></g><g transform="matrix(.673629 0 0 1 0.399485-23.1411)" clip-rule="evenodd"><path d="M1648.5,2248v5" clip-rule="evenodd" fill="none" fill-rule="evenodd" stroke="#000" stroke-width="3.25" stroke-linecap="round" stroke-linejoin="round" stroke-miterlimit="1.5"/></g><g transform="matrix(1.02625 0 0 1.56178-571.657-1261.82)" clip-rule="evenodd"><g transform="matrix(21.2465 0 0 21.2465 1633 2249)" clip-rule="evenodd"><path d="M0.529,-0.219c0,.023-.003.048-.01.073-.008.025-.019.049-.034.07-.016.022-.037.04-.062.054s-.056.021-.092.022c-.017,0-.037-.001-.058-.002-.022-.001-.044-.005-.067-.012-.023-.006-.046-.015-.069-.028-.023-.012-.045-.029-.064-.05-.018-.02-.027-.041-.026-.065c0-.023.006-.042.019-.059.012-.017.028-.027.049-.031s.043.003.066.021c.009.007.021.015.036.026s.03.02.047.027c.016.007.031.01.046.009.014-.001.024-.01.031-.027.004-.011.002-.024-.004-.039-.007-.015-.016-.03-.027-.045s-.023-.028-.034-.04c-.012-.012-.02-.02-.025-.023-.029-.02-.055-.042-.076-.066s-.036-.049-.045-.075-.011-.053-.006-.082c.005-.028.02-.057.044-.086.017-.02.039-.034.067-.041s.057-.01.088-.009c.031.002.061.007.09.016s.054.02.073.032c.015.009.025.02.032.033.006.013.009.025.009.038-.001.013-.004.026-.01.037-.006.012-.013.022-.021.03-.009.008-.018.013-.029.016s-.021.001-.03-.004c-.007-.004-.017-.01-.03-.018s-.027-.015-.041-.021c-.014-.005-.027-.008-.039-.009-.012,0-.021.006-.027.017-.005.01-.003.021.006.033.009.013.022.026.039.04.017.015.036.03.057.047s.041.035.06.054c.019.02.034.041.047.064s.019.047.02.073Z" clip-rule="evenodd" stroke-linecap="round" stroke-linejoin="round" stroke-miterlimit="1.5"/></g></g></g><g transform="matrix(.621759-.208937 0.140746 0.922998-249.541 492.831)" clip-rule="evenodd"><g id="e1sLhcqt6zT116_to" transform="translate(1506.360749,2016.191436)"><g transform="translate(-1504.247375,-2013.021363)"><path d="M1482.77,2000.15c.92.08,1.58.4,1.98.96.4.55.6,1.24.62,2.06.01.82-.12,1.72-.38,2.71-.27,1-.58,1.97-.93,2.92-.36.95-.72,1.83-1.09,2.64-.37.8-.65,1.43-.84,1.88-.47,1.16-.86,2.19-1.15,3.07-.29.89-.59,1.74-.91,2.54-.32.81-.69,1.64-1.13,2.48-.44.85-1.01,1.8-1.73,2.86-.58.84-1.3,1.39-2.18,1.64-.87.25-1.75.28-2.65.08s-1.76-.57-2.56-1.11c-.81-.54-1.44-1.17-1.89-1.88-.23-.4-.4-.83-.51-1.29s-.11-.89,0-1.27.31-.67.61-.87c.31-.2.74-.22,1.29-.06.56.16,1.03.33,1.43.51.4.19.74.33,1.03.42s.54.13.76.1c.21-.03.39-.19.55-.48.21-.31.25-.89.1-1.72-.15-.84-.5-1.82-1.05-2.96-.53-1.05-1.01-2.03-1.43-2.93s-.88-1.89-1.39-2.98c-.45-.92-.84-1.82-1.19-2.69-.34-.88-.67-1.77-.99-2.7-.24-.69-.18-1.32.16-1.9.34-.59.81-1,1.39-1.25.58-.26,1.21-.29,1.88-.1.68.18,1.23.71,1.65,1.58.08.19.22.53.43,1.01.22.49.45,1.05.72,1.67.26.62.54,1.27.83,1.94.29.68.58,1.3.87,1.87s.57,1.04.82,1.41.47.55.65.55c.19,0,.39-.27.62-.81.22-.54.47-1.22.75-2.02.28-.81.59-1.68.93-2.62s.72-1.81,1.11-2.6c.4-.79.83-1.45,1.29-1.96.46-.52.97-.75,1.53-.7Z" clip-rule="evenodd" stroke-linecap="round" stroke-linejoin="round" stroke-miterlimit="1.5"/><path d="M1488.6,2009.04c.02-1.43.25-2.71.67-3.83s1.01-2.08,1.75-2.88c.74-.79,1.62-1.38,2.65-1.78s2.2-.58,3.49-.56c1.25.06,2.35.42,3.32,1.1.96.67,1.77,1.51,2.43,2.51.67,1.01,1.16,2.11,1.49,3.29.33,1.2.47,2.33.42,3.42-.13,2.72-.88,4.68-2.24,5.88-1.36,1.21-3.38,1.81-6.05,1.81-1.06,0-2.08-.17-3.05-.52-.98-.34-1.84-.88-2.56-1.62-.73-.74-1.31-1.67-1.75-2.8-.43-1.12-.62-2.46-.57-4.02Zm5.75-.68c-.11.98.08,1.76.55,2.34.48.58,1.04.93,1.69,1.05s1.28-.01,1.88-.39c.61-.39.98-1.07,1.11-2.05.11-.97-.08-1.8-.55-2.47-.48-.68-1.04-1.11-1.69-1.29-.65-.19-1.27-.07-1.88.35-.61.43-.98,1.25-1.11,2.46Z" clip-rule="evenodd" stroke-linecap="round" stroke-linejoin="round" stroke-miterlimit="1.5"/><path d="M1510.05,2015.14c-.9-1.71-1.42-3.5-1.58-5.35s-.21-3.74-.16-5.67c.03-1.03.3-1.91.83-2.64s1.13-1.2,1.81-1.43c.67-.22,1.35-.16,2.02.2s1.17,1.08,1.49,2.16c.13.43.21.97.23,1.63.03.66.04,1.37.04,2.12s.02,1.5.06,2.24.13,1.4.26,1.98c.13.59.33,1.06.6,1.41.26.36.64.53,1.15.5.53-.03.94-.21,1.25-.56.3-.34.52-.78.67-1.31.15-.52.23-1.12.26-1.78.02-.66.03-1.32.02-1.98-.02-.66-.04-1.29-.06-1.89-.03-.59-.03-1.09,0-1.48.05-.98.36-1.74.93-2.28.57-.55,1.2-.84,1.88-.88.69-.04,1.33.17,1.93.62.59.45.94,1.17,1.05,2.18.1.98.17,2.05.2,3.21.02,1.17.04,2.32.04,3.45c0,1.14-.01,2.2-.02,3.18-.02.97-.01,1.77.02,2.37.05.93-.18,1.62-.7,2.07-.51.45-1.1.72-1.76.81s-1.28.03-1.87-.18c-.58-.21-.91-.51-.99-.91-.1-.45-.22-.69-.35-.74-.14-.03-.35.13-.64.5-.45.56-1.07.94-1.86,1.15-.8.21-1.62.25-2.48.1-.86-.14-1.68-.45-2.46-.91s-1.38-1.09-1.81-1.89Z" clip-rule="evenodd" stroke-linecap="round" stroke-linejoin="round" stroke-miterlimit="1.5"/><path d="M1540.47,2000.91c.29.26.54.64.74,1.13.19.49.29.99.29,1.5c0,.52-.13.99-.39,1.41-.27.43-.69.68-1.27.76-.16.02-.43.06-.81.1-.39.03-.8.08-1.23.13-.44.06-.85.12-1.23.18-.39.07-.63.14-.74.22-.26.13-.45.57-.57,1.33-.12.75-.19,1.59-.22,2.52-.03.92-.03,1.83-.02,2.71.01.89.02,1.52.02,1.89c0,.71-.15,1.31-.44,1.8s-.65.86-1.09,1.11c-.43.25-.91.39-1.42.4-.52.01-.99-.11-1.41-.36-.43-.25-.78-.63-1.05-1.15-.28-.51-.41-1.17-.38-1.96.03-.9.05-2.04.06-3.41.01-1.38.03-2.74.04-4.11.01-1.36.05-2.57.12-3.64.06-1.08.16-1.74.3-2.01.21-.39.49-.71.85-.93s.74-.37,1.15-.44c.41-.06.83-.06,1.27,0c.43.07.82.2,1.17.38.37.18.57.37.59.56.03.18.08.38.16.59.05.13.29.09.69-.12.41-.21.9-.43,1.45-.65.56-.23,1.14-.37,1.75-.44.6-.06,1.15.1,1.62.5Z" clip-rule="evenodd" stroke-linecap="round" stroke-linejoin="round" stroke-miterlimit="1.5"/></g></g><g id="e1sLhcqt6zT121_to" transform="translate(1584.464126,2009.34449)"><g transform="translate(-1585.520813,-2004.061035)"><path d="M1561.1,2001.74c.05-1.59.08-3.05.08-4.38c0-1.34.05-2.68.15-4.03.08-1.03.4-1.81.96-2.34.55-.53,1.16-.81,1.82-.85s1.27.14,1.82.55c.56.41.88,1.02.96,1.81.1,1.4.17,2.62.2,3.67.02,1.04.05,2.12.07,3.23.03,1.4.04,2.68.04,3.85v3.45c0,1.13-.02,2.29-.06,3.47-.03,1.17-.08,2.48-.13,3.9-.03.45-.09.91-.18,1.37s-.26.89-.5,1.27-.57.69-.99.93-.95.36-1.59.36c-.63,0-1.13-.32-1.48-.97-.36-.65-.62-1.42-.78-2.3-.16-.89-.25-1.79-.27-2.7-.03-.91-.04-1.63-.04-2.16c0-.5-.01-1.08-.02-1.73-.02-.64-.03-1.32-.04-2.04-.02-.71-.03-1.44-.04-2.18-.02-.74-.01-1.47.02-2.18Z" clip-rule="evenodd" stroke-linecap="round" stroke-linejoin="round" stroke-miterlimit="1.5"/><path d="M1577.71,2007.25c.03.69.06,1.43.08,2.22.03.8.03,1.59,0,2.38-.02.8-.09,1.58-.19,2.36-.11.78-.26,1.5-.44,2.16-.13.48-.36.84-.69,1.1-.34.25-.7.41-1.1.49-.39.08-.8.1-1.23.06-.42-.04-.79-.11-1.11-.22-.31-.1-.59-.39-.83-.85s-.42-.99-.55-1.57c-.14-.58-.24-1.16-.32-1.74s-.12-1.06-.12-1.43c-.03-.48-.05-1.13-.08-1.96-.03-.84-.03-1.72,0-2.66s.08-1.87.16-2.8c.08-.92.22-1.73.44-2.42.21-.74.56-1.29,1.05-1.66s1-.55,1.54-.54c.55.02,1.07.21,1.57.6.5.38.89.96,1.15,1.72.21.66.36,1.44.46,2.32.09.89.16,1.7.21,2.44Zm-.83-12.69c.03.66-.1,1.22-.38,1.67-.27.45-.63.79-1.07,1.03-.43.24-.91.36-1.42.37-.52.02-1-.07-1.43-.27-.44-.2-.79-.51-1.07-.94-.28-.42-.41-.96-.38-1.62-.03-.64.1-1.17.38-1.61.28-.43.62-.77,1.05-1.01.42-.24.88-.37,1.37-.39.48-.03.94.05,1.37.25.42.2.78.51,1.08.94.31.42.48.95.5,1.58Z" clip-rule="evenodd" stroke-linecap="round" stroke-linejoin="round" stroke-miterlimit="1.5"/><path d="M1584.38,2014.55c0-.4-.01-1.04-.02-1.94-.02-.9-.03-1.87-.04-2.92-.02-1.04-.03-2.07-.04-3.09-.02-1.02-.02-1.85-.02-2.48c0-.48-.1-.86-.3-1.15s-.6-.45-1.21-.48c-.69-.02-1.18-.23-1.47-.63s-.42-.83-.39-1.31c.02-.48.19-.91.49-1.29.31-.38.72-.57,1.25-.57.4,0,.78.01,1.15.04.37.02.58-.12.64-.44.1-.74.16-1.41.18-2c.01-.6.02-1.1.02-1.49c0-1.24.3-2.23.93-2.96.62-.72,1.38-1.22,2.3-1.5.91-.28,1.9-.33,2.97-.16s2.06.55,2.96,1.13c.39.24.63.62.71,1.15s.02,1.03-.18,1.51c-.2.47-.53.85-.99,1.13-.46.27-1.05.29-1.76.06-.98-.37-1.45.12-1.39,1.46c0,.14,0,.29.02.48.01.18.04.37.08.55.04.19.11.36.21.5.11.15.27.23.48.26.24.05.47.11.69.18.23.06.43.18.62.35.18.18.32.41.42.7.09.29.13.67.13,1.15c0,.47-.06.85-.19,1.13-.14.27-.31.48-.54.61-.22.13-.48.23-.77.28s-.61.09-.95.12c-.22.03-.33.22-.34.59s-.02.69-.02.96c.03.84.05,1.66.06,2.45.01.8.02,1.59.02,2.37s-.01,1.57-.02,2.39-.02,1.7-.02,2.62c-.03.93-.18,1.66-.46,2.2-.28.55-.62.93-1.03,1.17s-.85.33-1.33.26c-.47-.07-.92-.24-1.35-.52-.42-.27-.77-.66-1.05-1.16-.27-.51-.43-1.08-.45-1.71Z" clip-rule="evenodd" stroke-linecap="round" stroke-linejoin="round" stroke-miterlimit="1.5"/><path d="M1602.98,2000.15c1.06,0,1.98.18,2.77.54.8.36,1.46.81,2.01,1.37.54.55.95,1.17,1.23,1.86.27.69.42,1.36.45,2.02s-.07,1.27-.3,1.81c-.22.54-.57.97-1.05,1.29-.16.1-.39.18-.71.22s-.67.06-1.05.07c-.39.02-.78.02-1.19,0-.41-.01-.79-.02-1.13-.02-.32,0-.71.02-1.19.04-.48.03-1.01.04-1.59.04-.24,0-.39.14-.47.42s-.1.64-.04,1.09c.05.53.35.95.89,1.27s1.13.49,1.76.52c.53,0,1-.12,1.39-.34.4-.23.78-.48,1.13-.75.36-.28.71-.53,1.05-.74.35-.21.73-.3,1.15-.28.85.08,1.4.43,1.65,1.04.25.6.3,1.29.14,2.06-.13.58-.39,1.09-.77,1.52-.39.44-.84.82-1.35,1.13-.52.32-1.07.59-1.65.82-.58.22-1.14.4-1.67.53-1.34.37-2.54.4-3.58.08-1.05-.32-1.94-.86-2.68-1.62-.74-.77-1.32-1.71-1.73-2.82s-.65-2.26-.73-3.45.01-2.38.28-3.57c.26-1.19.69-2.25,1.29-3.17.59-.93,1.36-1.67,2.32-2.22.95-.56,2.07-.81,3.37-.76Zm1.15,5.67c.18,0,.24-.17.16-.53s-.21-.64-.4-.85c-.13-.16-.31-.27-.54-.32-.22-.05-.46-.06-.71-.02s-.49.13-.71.26c-.23.13-.39.31-.5.55-.08.16-.14.33-.2.52-.05.18-.02.32.08.39.03.06.18.08.46.08s.57,0,.89-.02c.32-.01.62-.02.91-.04.29-.01.48-.02.56-.02Z" clip-rule="evenodd" stroke-linecap="round" stroke-linejoin="round" stroke-miterlimit="1.5"/></g></g><g id="e1sLhcqt6zT126_to" transform="translate(1532.000461,2051.713846)"><g transform="translate(-1525.660339,-2049.600464)"><path d="M1478.44,2044.93c-.18.77-.56,1.23-1.14,1.41-.59.17-1.22.06-1.91-.34-.24-.13-.5-.28-.79-.46-.29-.17-.58-.31-.87-.43-.3-.12-.56-.17-.8-.14s-.41.17-.51.43c-.19.48.01.85.59,1.12.58.26,1.31.56,2.18.91c1.43.53,2.43,1.33,3.02,2.4.58,1.07.76,2.34.55,3.82-.13.88-.41,1.62-.83,2.24-.42.63-.95,1.15-1.57,1.57-.62.43-1.31.73-2.08.91-.77.19-1.56.28-2.38.28-1.45-.05-2.64-.53-3.57-1.45-.92-.91-1.36-2.08-1.31-3.51.03-.5.16-.95.4-1.34.24-.4.53-.69.89-.86s.74-.21,1.15-.14c.41.08.82.33,1.21.76.64.69,1.26,1.08,1.87,1.19.6.1.97.05,1.11-.16.23-.4.21-.79-.08-1.17s-.66-.72-1.09-1.01c-.44-.29-.88-.54-1.33-.74-.45-.19-.72-.32-.8-.37-.68-.32-1.27-.69-1.76-1.11-.49-.43-.83-1.05-1.01-1.87-.32-1.56-.12-2.82.59-3.78.72-.97,1.8-1.72,3.25-2.25.35-.13.78-.21,1.31-.25s1.09-.03,1.67.04c.58.06,1.15.19,1.71.39.55.2,1.03.47,1.42.82.4.34.69.77.87,1.28.19.52.2,1.12.04,1.81Z" clip-rule="evenodd" stroke-linecap="round" stroke-linejoin="round" stroke-miterlimit="1.5"/><path d="M1498.28,2047.47c.29,1.53.52,3.14.69,4.82s.16,3.19-.02,4.54c-.05.47-.22.88-.5,1.23-.27.34-.61.59-1.01.75-.58.21-1.18.38-1.8.5s-1.24.04-1.85-.22c-.16-.08-.29-.19-.41-.34-.12-.14-.24-.28-.34-.42-.11-.13-.22-.23-.34-.31s-.27-.08-.45,0c-1.38.5-2.65.69-3.83.57s-2.2-.49-3.07-1.11c-.88-.62-1.58-1.47-2.13-2.56-.54-1.08-.86-2.34-.97-3.76-.1-1.41.06-2.75.5-4.03.43-1.28,1.08-2.41,1.94-3.37.86-.97,1.89-1.73,3.1-2.28c1.2-.56,2.53-.81,3.98-.75c1.01.05,1.88.26,2.64.63.75.37,1.39.87,1.9,1.49.52.62.93,1.33,1.25,2.12s.56,1.63.72,2.5Zm-5.6,1.62c-.05-.29-.1-.6-.16-.95-.05-.34-.15-.66-.29-.95-.15-.29-.33-.52-.56-.69-.22-.18-.53-.25-.93-.22-.37.05-.75.2-1.15.43-.4.24-.75.56-1.05.96-.31.39-.54.85-.7,1.36-.15.52-.17,1.06-.03,1.61.1.48.32.86.65,1.15s.72.5,1.17.62c.45.11.94.17,1.47.15.52-.01,1.03-.08,1.5-.21.11-.03.18-.18.22-.46s.05-.59.04-.93c-.01-.35-.04-.7-.08-1.05-.04-.36-.07-.63-.1-.82Z" clip-rule="evenodd" stroke-linecap="round" stroke-linejoin="round" stroke-miterlimit="1.5"/><path d="M1512.75,2042.51c.29-.61.66-1.05,1.11-1.33s.92-.43,1.41-.45c.49-.03.96.05,1.43.23.46.19.86.44,1.19.76.33.31.56.68.71,1.11.15.42.15.86.02,1.31-.4,1.19-.84,2.34-1.33,3.45s-.96,2.27-1.41,3.49c-.18.47-.43,1.13-.73,1.98s-.66,1.68-1.07,2.52c-.41.83-.89,1.55-1.45,2.16-.55.61-1.16.9-1.82.87-.69,0-1.3-.16-1.85-.47-.54-.32-1.02-.73-1.44-1.23-.43-.51-.8-1.05-1.12-1.65-.31-.59-.6-1.16-.87-1.69-.76-1.58-1.46-3.09-2.1-4.52-.63-1.42-1.3-2.93-1.98-4.52-.24-.5-.31-.99-.22-1.46.09-.48.28-.91.58-1.29.29-.39.65-.68,1.08-.9.44-.21.9-.29,1.39-.25s.98.23,1.47.59.92.91,1.29,1.65c.19.39.4.91.65,1.54.25.64.51,1.25.78,1.85.26.59.54,1.11.83,1.55.29.43.59.64.91.61.14,0,.3-.21.5-.63.2-.43.41-.94.65-1.53.24-.6.48-1.24.72-1.93.23-.68.46-1.29.67-1.82Z" clip-rule="evenodd" stroke-linecap="round" stroke-linejoin="round" stroke-miterlimit="1.5"/><path d="M1529.01,2047.9c.03.69.05,1.43.08,2.22.03.8.03,1.59,0,2.38-.03.8-.09,1.58-.2,2.36-.1.78-.25,1.5-.43,2.17-.14.47-.37.84-.7,1.09s-.69.41-1.09.49c-.39.08-.8.1-1.23.06-.42-.04-.79-.11-1.11-.22-.32-.1-.59-.39-.83-.85s-.42-.98-.56-1.57c-.13-.58-.24-1.16-.31-1.74-.08-.58-.12-1.06-.12-1.43-.03-.47-.06-1.13-.08-1.96-.03-.83-.03-1.72,0-2.66.02-.94.08-1.87.16-2.8.08-.92.22-1.73.43-2.41.21-.74.57-1.3,1.05-1.67.49-.37,1.01-.55,1.55-.54.54.02,1.06.22,1.57.6.5.38.88.96,1.15,1.72.21.67.36,1.44.45,2.33.1.88.17,1.69.22,2.43Zm-.83-12.69c.02.66-.1,1.22-.38,1.67s-.63.79-1.07,1.03c-.43.24-.91.36-1.43.38-.51.01-.99-.08-1.42-.28-.44-.2-.8-.51-1.07-.93-.28-.43-.41-.97-.38-1.63-.03-.63.1-1.17.38-1.61.27-.43.62-.77,1.05-1.01.42-.23.88-.37,1.36-.39.49-.03.95.06,1.37.25.43.2.79.51,1.09.94.31.42.47.95.5,1.58Z" clip-rule="evenodd" stroke-linecap="round" stroke-linejoin="round" stroke-miterlimit="1.5"/><path d="M1547.02,2042.55c.63.63,1.08,1.52,1.35,2.66.26,1.13.43,2.33.51,3.59.08,1.25.09,2.48.04,3.68-.05,1.21-.08,2.19-.08,2.96c0,.98-.26,1.74-.79,2.28s-1.11.83-1.73.87-1.19-.19-1.7-.69c-.52-.5-.76-1.32-.74-2.46c0-.53.02-1.24.04-2.14.03-.9,0-1.81-.08-2.74-.07-.92-.23-1.78-.47-2.58-.24-.79-.61-1.33-1.11-1.62-.29-.16-.6-.27-.93-.34s-.64-.06-.92.02c-.27.08-.51.23-.71.46-.2.22-.3.52-.3.89c0,.79-.01,1.65-.04,2.58-.02.92-.05,1.79-.08,2.61-.02.82-.06,1.54-.1,2.16-.04.63-.06,1.04-.06,1.25-.02.82-.33,1.46-.93,1.91-.59.45-1.24.68-1.94.69-.7.02-1.34-.21-1.9-.67-.57-.47-.84-1.18-.82-2.16.06-1.8.05-3.69-.02-5.65-.06-1.97-.07-3.83-.02-5.58.03-.61.08-1.19.16-1.74.08-.56.21-1.05.38-1.47s.39-.77.67-1.03.63-.41,1.05-.44c.37-.02.82.02,1.33.14.52.12.95.51,1.29,1.17.16.32.36.47.6.46.23-.02.54-.09.91-.24s.81-.3,1.33-.48c.51-.17,1.11-.25,1.8-.25.64,0,1.31.16,2.02.49.72.33,1.38.8,1.99,1.41Z" clip-rule="evenodd" stroke-linecap="round" stroke-linejoin="round" stroke-miterlimit="1.5"/><path d="M1556.54,2042.03c.66-.29,1.32-.52,2-.69.67-.17,1.33-.19,1.96-.06.56.13.93.17,1.11.1.19-.07.33-.18.42-.34s.21-.33.35-.53c.15-.2.46-.37.94-.5.63-.18,1.19-.14,1.68.12s.91.67,1.27,1.21.66,1.18.89,1.92c.24.74.44,1.5.6,2.26.16.77.29,1.51.4,2.23.1.71.19,1.3.27,1.78.16,1.08.31,2.21.46,3.37s.23,2.32.26,3.47c.02,1.15-.04,2.27-.18,3.35-.15,1.09-.43,2.09-.85,3.02-.37.82-.94,1.54-1.69,2.18-.75.63-1.59,1.11-2.5,1.43-.91.31-1.85.45-2.81.41-.97-.04-1.86-.32-2.68-.85-.66-.42-1.2-.96-1.61-1.61-.41-.64-.65-1.31-.73-2s.01-1.33.28-1.92c.26-.6.74-1.04,1.43-1.33.44-.19.85-.19,1.22,0c.37.18.72.42,1.04.71.31.29.62.56.93.81.3.26.61.36.93.3.45-.08.8-.3,1.05-.67s.43-.79.54-1.25c.1-.46.15-.92.15-1.37s-.01-.79-.04-1.03c-.02-.13-.25-.2-.67-.22-.42-.01-.96-.02-1.61-.02-.64,0-1.36-.03-2.14-.1-.78-.06-1.54-.23-2.28-.49-1.11-.37-2.04-.95-2.79-1.73-.76-.78-1.25-1.92-1.49-3.43-.13-.9-.13-1.8.02-2.7.14-.89.4-1.73.75-2.49.36-.77.81-1.45,1.35-2.03s1.13-1.01,1.77-1.31Zm5.47,9.44c.18-.02.36-.06.51-.1.16-.04.3-.13.4-.27.11-.15.17-.36.18-.64s-.03-.68-.14-1.21c-.1-.45-.2-.88-.28-1.29s-.17-.76-.28-1.05c-.1-.29-.24-.51-.41-.65-.17-.15-.39-.19-.66-.14-.66.13-1.22.33-1.68.59-.46.27-.83.57-1.11.92-.28.34-.46.7-.56,1.07-.09.37-.11.72-.06,1.07.03.24.13.49.3.75.17.27.42.48.76.66.33.17.74.29,1.24.37.51.08,1.1.06,1.79-.08Z" clip-rule="evenodd" stroke-linecap="round" stroke-linejoin="round" stroke-miterlimit="1.5"/><path d="M1583.9,2044.93c-.18.77-.57,1.23-1.15,1.41-.58.17-1.22.06-1.9-.34-.24-.13-.5-.28-.8-.46-.29-.17-.58-.31-.87-.43s-.55-.17-.79-.14-.41.17-.52.43c-.18.48.02.85.6,1.12.58.26,1.31.56,2.18.91c1.43.53,2.43,1.33,3.01,2.4.59,1.07.77,2.34.56,3.82-.13.88-.41,1.62-.84,2.24-.42.63-.94,1.15-1.56,1.57-.62.43-1.32.73-2.08.91-.77.19-1.56.28-2.38.28-1.46-.05-2.65-.53-3.57-1.45-.93-.91-1.36-2.08-1.31-3.51.03-.5.16-.95.4-1.34.23-.4.53-.69.89-.86.35-.17.74-.21,1.15-.14.41.08.81.33,1.21.76.63.69,1.25,1.08,1.86,1.19.61.1.98.05,1.11-.16.24-.4.21-.79-.08-1.17s-.65-.72-1.09-1.01c-.43-.29-.88-.54-1.33-.74-.45-.19-.71-.32-.79-.37-.69-.32-1.28-.69-1.76-1.11-.49-.43-.83-1.05-1.02-1.87-.31-1.56-.12-2.82.6-3.78.71-.97,1.8-1.72,3.25-2.25.35-.13.78-.21,1.31-.25s1.08-.03,1.67.04c.58.06,1.15.19,1.7.39.56.2,1.03.47,1.43.82.39.34.69.77.87,1.28.19.52.2,1.12.04,1.81Z" clip-rule="evenodd" stroke-linecap="round" stroke-linejoin="round" stroke-miterlimit="1.5"/></g></g></g><g transform="matrix(.922352 0 0 0.922352 127.284 101.693)" clip-rule="evenodd"><g transform="matrix(.467974 0 0 0.694705 385.122 695.771)" clip-rule="evenodd"><path d="M1609,2206.25c0-8.42-6.83-15.25-15.25-15.25h-87.5c-8.42,0-15.25,6.83-15.25,15.25v30.5c0,8.42,6.83,15.25,15.25,15.25h87.5c8.42,0,15.25-6.83,15.25-15.25v-30.5Z" clip-rule="evenodd" fill="#fff" fill-rule="evenodd" stroke="#000" stroke-width="10.92" stroke-linecap="round" stroke-linejoin="round" stroke-miterlimit="1.5"/></g><g transform="matrix(.673629 0 0 1 0.003565 0)" clip-rule="evenodd"><path d="M1648.5,2248v5" clip-rule="evenodd" fill="none" fill-rule="evenodd" stroke="#000" stroke-width="3.25" stroke-linecap="round" stroke-linejoin="round" stroke-miterlimit="1.5"/></g><g transform="matrix(.673629 0 0 1 0.399485-23.1411)" clip-rule="evenodd"><path d="M1648.5,2248v5" clip-rule="evenodd" fill="none" fill-rule="evenodd" stroke="#000" stroke-width="3.25" stroke-linecap="round" stroke-linejoin="round" stroke-miterlimit="1.5"/></g><g transform="matrix(1.02625 0 0 1.56178-571.657-1261.82)" clip-rule="evenodd"><g transform="matrix(21.2465 0 0 21.2465 1633 2249)" clip-rule="evenodd"><path d="M0.529,-0.219c0,.023-.003.048-.01.073-.008.025-.019.049-.034.07-.016.022-.037.04-.062.054s-.056.021-.092.022c-.017,0-.037-.001-.058-.002-.022-.001-.044-.005-.067-.012-.023-.006-.046-.015-.069-.028-.023-.012-.045-.029-.064-.05-.018-.02-.027-.041-.026-.065c0-.023.006-.042.019-.059.012-.017.028-.027.049-.031s.043.003.066.021c.009.007.021.015.036.026s.03.02.047.027c.016.007.031.01.046.009.014-.001.024-.01.031-.027.004-.011.002-.024-.004-.039-.007-.015-.016-.03-.027-.045s-.023-.028-.034-.04c-.012-.012-.02-.02-.025-.023-.029-.02-.055-.042-.076-.066s-.036-.049-.045-.075-.011-.053-.006-.082c.005-.028.02-.057.044-.086.017-.02.039-.034.067-.041s.057-.01.088-.009c.031.002.061.007.09.016s.054.02.073.032c.015.009.025.02.032.033.006.013.009.025.009.038-.001.013-.004.026-.01.037-.006.012-.013.022-.021.03-.009.008-.018.013-.029.016s-.021.001-.03-.004c-.007-.004-.017-.01-.03-.018s-.027-.015-.041-.021c-.014-.005-.027-.008-.039-.009-.012,0-.021.006-.027.017-.005.01-.003.021.006.033.009.013.022.026.039.04.017.015.036.03.057.047s.041.035.06.054c.019.02.034.041.047.064s.019.047.02.073Z" clip-rule="evenodd" stroke-linecap="round" stroke-linejoin="round" stroke-miterlimit="1.5"/></g></g></g><g transform="matrix(.922352 0 0 0.922352 101.773 62.6063)" clip-rule="evenodd"><g transform="matrix(.467974 0 0 0.694705 385.122 695.771)" clip-rule="evenodd"><path d="M1609,2206.25c0-8.42-6.83-15.25-15.25-15.25h-87.5c-8.42,0-15.25,6.83-15.25,15.25v30.5c0,8.42,6.83,15.25,15.25,15.25h87.5c8.42,0,15.25-6.83,15.25-15.25v-30.5Z" clip-rule="evenodd" fill="#fff" fill-rule="evenodd" stroke="#000" stroke-width="10.92" stroke-linecap="round" stroke-linejoin="round" stroke-miterlimit="1.5"/></g><g transform="matrix(.673629 0 0 1 0.003565 0)" clip-rule="evenodd"><path d="M1648.5,2248v5" clip-rule="evenodd" fill="none" fill-rule="evenodd" stroke="#000" stroke-width="3.25" stroke-linecap="round" stroke-linejoin="round" stroke-miterlimit="1.5"/></g><g transform="matrix(.673629 0 0 1 0.399485-23.1411)" clip-rule="evenodd"><path d="M1648.5,2248v5" clip-rule="evenodd" fill="none" fill-rule="evenodd" stroke="#000" stroke-width="3.25" stroke-linecap="round" stroke-linejoin="round" stroke-miterlimit="1.5"/></g><g transform="matrix(1.02625 0 0 1.56178-571.657-1261.82)" clip-rule="evenodd"><g transform="matrix(21.2465 0 0 21.2465 1633 2249)" clip-rule="evenodd"><path d="M0.529,-0.219c0,.023-.003.048-.01.073-.008.025-.019.049-.034.07-.016.022-.037.04-.062.054s-.056.021-.092.022c-.017,0-.037-.001-.058-.002-.022-.001-.044-.005-.067-.012-.023-.006-.046-.015-.069-.028-.023-.012-.045-.029-.064-.05-.018-.02-.027-.041-.026-.065c0-.023.006-.042.019-.059.012-.017.028-.027.049-.031s.043.003.066.021c.009.007.021.015.036.026s.03.02.047.027c.016.007.031.01.046.009.014-.001.024-.01.031-.027.004-.011.002-.024-.004-.039-.007-.015-.016-.03-.027-.045s-.023-.028-.034-.04c-.012-.012-.02-.02-.025-.023-.029-.02-.055-.042-.076-.066s-.036-.049-.045-.075-.011-.053-.006-.082c.005-.028.02-.057.044-.086.017-.02.039-.034.067-.041s.057-.01.088-.009c.031.002.061.007.09.016s.054.02.073.032c.015.009.025.02.032.033.006.013.009.025.009.038-.001.013-.004.026-.01.037-.006.012-.013.022-.021.03-.009.008-.018.013-.029.016s-.021.001-.03-.004c-.007-.004-.017-.01-.03-.018s-.027-.015-.041-.021c-.014-.005-.027-.008-.039-.009-.012,0-.021.006-.027.017-.005.01-.003.021.006.033.009.013.022.026.039.04.017.015.036.03.057.047s.041.035.06.054c.019.02.034.041.047.064s.019.047.02.073Z" clip-rule="evenodd" stroke-linecap="round" stroke-linejoin="round" stroke-miterlimit="1.5"/></g></g></g><g transform="matrix(.922352 0 0 0.922352 50.8404 62.6063)" clip-rule="evenodd"><g transform="matrix(.467974 0 0 0.694705 385.122 695.771)" clip-rule="evenodd"><path d="M1609,2206.25c0-8.42-6.83-15.25-15.25-15.25h-87.5c-8.42,0-15.25,6.83-15.25,15.25v30.5c0,8.42,6.83,15.25,15.25,15.25h87.5c8.42,0,15.25-6.83,15.25-15.25v-30.5Z" clip-rule="evenodd" fill="#fff" fill-rule="evenodd" stroke="#000" stroke-width="10.92" stroke-linecap="round" stroke-linejoin="round" stroke-miterlimit="1.5"/></g><g transform="matrix(.673629 0 0 1 0.003565 0)" clip-rule="evenodd"><path d="M1648.5,2248v5" clip-rule="evenodd" fill="none" fill-rule="evenodd" stroke="#000" stroke-width="3.25" stroke-linecap="round" stroke-linejoin="round" stroke-miterlimit="1.5"/></g><g transform="matrix(.673629 0 0 1 0.399485-23.1411)" clip-rule="evenodd"><path d="M1648.5,2248v5" clip-rule="evenodd" fill="none" fill-rule="evenodd" stroke="#000" stroke-width="3.25" stroke-linecap="round" stroke-linejoin="round" stroke-miterlimit="1.5"/></g><g transform="matrix(1.02625 0 0 1.56178-571.657-1261.82)" clip-rule="evenodd"><g transform="matrix(21.2465 0 0 21.2465 1633 2249)" clip-rule="evenodd"><path d="M0.529,-0.219c0,.023-.003.048-.01.073-.008.025-.019.049-.034.07-.016.022-.037.04-.062.054s-.056.021-.092.022c-.017,0-.037-.001-.058-.002-.022-.001-.044-.005-.067-.012-.023-.006-.046-.015-.069-.028-.023-.012-.045-.029-.064-.05-.018-.02-.027-.041-.026-.065c0-.023.006-.042.019-.059.012-.017.028-.027.049-.031s.043.003.066.021c.009.007.021.015.036.026s.03.02.047.027c.016.007.031.01.046.009.014-.001.024-.01.031-.027.004-.011.002-.024-.004-.039-.007-.015-.016-.03-.027-.045s-.023-.028-.034-.04c-.012-.012-.02-.02-.025-.023-.029-.02-.055-.042-.076-.066s-.036-.049-.045-.075-.011-.053-.006-.082c.005-.028.02-.057.044-.086.017-.02.039-.034.067-.041s.057-.01.088-.009c.031.002.061.007.09.016s.054.02.073.032c.015.009.025.02.032.033.006.013.009.025.009.038-.001.013-.004.026-.01.037-.006.012-.013.022-.021.03-.009.008-.018.013-.029.016s-.021.001-.03-.004c-.007-.004-.017-.01-.03-.018s-.027-.015-.041-.021c-.014-.005-.027-.008-.039-.009-.012,0-.021.006-.027.017-.005.01-.003.021.006.033.009.013.022.026.039.04.017.015.036.03.057.047s.041.035.06.054c.019.02.034.041.047.064s.019.047.02.073Z" clip-rule="evenodd" stroke-linecap="round" stroke-linejoin="round" stroke-miterlimit="1.5"/></g></g></g><g transform="matrix(.922352 0 0 0.922352 76.3512 23.5198)" clip-rule="evenodd"><g transform="matrix(.467974 0 0 0.694705 385.122 695.771)" clip-rule="evenodd"><path d="M1609,2206.25c0-8.42-6.83-15.25-15.25-15.25h-87.5c-8.42,0-15.25,6.83-15.25,15.25v30.5c0,8.42,6.83,15.25,15.25,15.25h87.5c8.42,0,15.25-6.83,15.25-15.25v-30.5Z" clip-rule="evenodd" fill="#fff" fill-rule="evenodd" stroke="#000" stroke-width="10.92" stroke-linecap="round" stroke-linejoin="round" stroke-miterlimit="1.5"/></g><g transform="matrix(.673629 0 0 1 0.003565 0)" clip-rule="evenodd"><path d="M1648.5,2248v5" clip-rule="evenodd" fill="none" fill-rule="evenodd" stroke="#000" stroke-width="3.25" stroke-linecap="round" stroke-linejoin="round" stroke-miterlimit="1.5"/></g><g transform="matrix(.673629 0 0 1 0.399485-23.1411)" clip-rule="evenodd"><path d="M1648.5,2248v5" clip-rule="evenodd" fill="none" fill-rule="evenodd" stroke="#000" stroke-width="3.25" stroke-linecap="round" stroke-linejoin="round" stroke-miterlimit="1.5"/></g><g transform="matrix(1.02625 0 0 1.56178-571.657-1261.82)" clip-rule="evenodd"><g transform="matrix(21.2465 0 0 21.2465 1633 2249)" clip-rule="evenodd"><path d="M0.529,-0.219c0,.023-.003.048-.01.073-.008.025-.019.049-.034.07-.016.022-.037.04-.062.054s-.056.021-.092.022c-.017,0-.037-.001-.058-.002-.022-.001-.044-.005-.067-.012-.023-.006-.046-.015-.069-.028-.023-.012-.045-.029-.064-.05-.018-.02-.027-.041-.026-.065c0-.023.006-.042.019-.059.012-.017.028-.027.049-.031s.043.003.066.021c.009.007.021.015.036.026s.03.02.047.027c.016.007.031.01.046.009.014-.001.024-.01.031-.027.004-.011.002-.024-.004-.039-.007-.015-.016-.03-.027-.045s-.023-.028-.034-.04c-.012-.012-.02-.02-.025-.023-.029-.02-.055-.042-.076-.066s-.036-.049-.045-.075-.011-.053-.006-.082c.005-.028.02-.057.044-.086.017-.02.039-.034.067-.041s.057-.01.088-.009c.031.002.061.007.09.016s.054.02.073.032c.015.009.025.02.032.033.006.013.009.025.009.038-.001.013-.004.026-.01.037-.006.012-.013.022-.021.03-.009.008-.018.013-.029.016s-.021.001-.03-.004c-.007-.004-.017-.01-.03-.018s-.027-.015-.041-.021c-.014-.005-.027-.008-.039-.009-.012,0-.021.006-.027.017-.005.01-.003.021.006.033.009.013.022.026.039.04.017.015.036.03.057.047s.041.035.06.054c.019.02.034.041.047.064s.019.047.02.073Z" clip-rule="evenodd" stroke-linecap="round" stroke-linejoin="round" stroke-miterlimit="1.5"/></g></g></g><g id="e1sLhcqt6zT174_to" transform="translate(1050.180818,2072.487615)"><g transform="translate(-1045.705993,-2065.788941)"><g transform="matrix(.657006-.220782 0.148725 0.975323-399.403 459.424)" clip-rule="evenodd"><path d="M1725.33,2028.72c0,0,14.43,1.61,24.67,23.28" clip-rule="evenodd" fill="none" fill-rule="evenodd" stroke="#000" stroke-width="7" stroke-linecap="round" stroke-linejoin="round" stroke-miterlimit="1.5"/></g><g transform="matrix(.657006-.220782 0.148725 0.975323-399.403 459.424)" clip-rule="evenodd"><path d="M1734,2051.25c0,0,6.51-2.62,16,.75" clip-rule="evenodd" fill="none" fill-rule="evenodd" stroke="#000" stroke-width="7" stroke-linecap="round" stroke-linejoin="round" stroke-miterlimit="1.5"/></g><g transform="matrix(.657006-.220782 0.148725 0.975323-399.403 459.424)" clip-rule="evenodd"><path d="M1750,2035.36c0,0,.3,11.56,0,15.89" clip-rule="evenodd" fill="none" fill-rule="evenodd" stroke="#000" stroke-width="7" stroke-linecap="round" stroke-linejoin="round" stroke-miterlimit="1.5"/></g></g></g></g></g></g></svg>