<svg id="ez7XGTOHfQ01" xmlns="http://www.w3.org/2000/svg" xmlns:xlink="http://www.w3.org/1999/xlink" viewBox="0 0 994 242" shape-rendering="geometricPrecision" text-rendering="geometricPrecision"><style><![CDATA[#ez7XGTOHfQ05_tr {animation: ez7XGTOHfQ05_tr__tr 800ms linear infinite alternate-reverse forwards}@keyframes ez7XGTOHfQ05_tr__tr { 0% {transform: translate(262.695565px,2478.245972px) rotate(0deg)} 37.5% {transform: translate(262.695565px,2478.245972px) rotate(0deg);animation-timing-function: cubic-bezier(0.42,0,0.58,1)} 87.5% {transform: translate(262.695565px,2478.245972px) rotate(15.769741deg)} 100% {transform: translate(262.695565px,2478.245972px) rotate(15.769741deg)}} #ez7XGTOHfQ026_tr {animation: ez7XGTOHfQ026_tr__tr 800ms linear infinite alternate-reverse forwards}@keyframes ez7XGTOHfQ026_tr__tr { 0% {transform: translate(391.361483px,2476.245136px) rotate(158.308841deg);animation-timing-function: cubic-bezier(0.42,0,0.58,1)} 100% {transform: translate(391.361483px,2476.245136px) rotate(171.755047deg)}} #ez7XGTOHfQ047_tr {animation: ez7XGTOHfQ047_tr__tr 800ms linear infinite alternate-reverse forwards}@keyframes ez7XGTOHfQ047_tr__tr { 0% {transform: translate(530.122765px,2472.719971px) rotate(0deg)} 12.5% {transform: translate(530.122765px,2472.719971px) rotate(0deg);animation-timing-function: cubic-bezier(0.42,0,0.58,1)} 62.5% {transform: translate(530.122765px,2472.719971px) rotate(-9.377848deg)} 100% {transform: translate(530.122765px,2472.719971px) rotate(-9.377848deg)}} #ez7XGTOHfQ068_tr {animation: ez7XGTOHfQ068_tr__tr 800ms linear infinite alternate-reverse forwards}@keyframes ez7XGTOHfQ068_tr__tr { 0% {transform: translate(654.151483px,2459.705136px) rotate(158.308841deg)} 25% {transform: translate(654.151483px,2459.705136px) rotate(158.308841deg);animation-timing-function: cubic-bezier(0.42,0,0.58,1)} 87.5% {transform: translate(654.151483px,2459.705136px) rotate(174.804524deg)} 100% {transform: translate(654.151483px,2459.705136px) rotate(174.804524deg)}} #ez7XGTOHfQ089_tr {animation: ez7XGTOHfQ089_tr__tr 800ms linear infinite alternate-reverse forwards}@keyframes ez7XGTOHfQ089_tr__tr { 0% {transform: translate(789.831511px,2476.003772px) rotate(0deg)} 50% {transform: translate(789.831511px,2476.003772px) rotate(0deg);animation-timing-function: cubic-bezier(0.42,0,0.58,1)} 100% {transform: translate(789.831511px,2476.003772px) rotate(-10.963665deg)}}]]></style><g transform="translate(-194.419-2371.97)" clip-rule="evenodd"><g transform="matrix(1.4845 0 0 1-.005292 0)" clip-rule="evenodd"><g transform="translate(-61.3003 18)" clip-rule="evenodd"><g id="ez7XGTOHfQ05_tr" transform="translate(262.695565,2478.245972) rotate(15.769741)"><g transform="translate(-349.593765,-2448.245971)" clip-rule="evenodd"><g transform="matrix(.673629 0 0 1 0.003565 0)" clip-rule="evenodd"><path d="M488,2414c0,0,4.943-26.03,25-31c3.587-8.78,5.622-15,5.622-15s3.865,13.81,5.378,16s14.753-.22,23,25c2.581,6.64,3.892,31.56-6,45.66s-42.058,15.3-48-6.66-5.672-30.75-5-34Z" clip-rule="evenodd" fill="none" fill-rule="evenodd" stroke="#000" stroke-width="9" stroke-linecap="round" stroke-linejoin="round" stroke-miterlimit="1.5"/></g><g transform="matrix(.673629 0 0 1 0.003565 0)" clip-rule="evenodd"><path d="M496,2455c0,0-11.442,27.12,23.011,35c11.014.81,29.343-11.22,22.989-35.03" clip-rule="evenodd" fill="none" fill-rule="evenodd" stroke="#000" stroke-width="9" stroke-linecap="round" stroke-linejoin="round" stroke-miterlimit="1.5"/></g><g transform="matrix(.673629 0 0 1 0.003565 0)" clip-rule="evenodd"><path d="M498,2478c0,0-13.866,29.95,20.558,38c19.034.32,31.82-27,20.442-37" clip-rule="evenodd" fill="none" fill-rule="evenodd" stroke="#000" stroke-width="9" stroke-linecap="round" stroke-linejoin="round" stroke-miterlimit="1.5"/></g><g transform="matrix(.673629 0 0 1 0.003565 0)" clip-rule="evenodd"><path d="M499,2505c0,0-31.071,19.96,0,34c7.458,6.03,20.904,17.42,35,1c11.213-2.47,29.406-17.19,4-35" clip-rule="evenodd" fill="none" fill-rule="evenodd" stroke="#000" stroke-width="9" stroke-linecap="round" stroke-linejoin="round" stroke-miterlimit="1.5"/></g><g transform="matrix(.673629 0 0 1 0.003565 0)" clip-rule="evenodd"><path d="M487.654,2417c0,0-23.091,11.59-26.654,0-6.698,9.06-10,15-10,15s15.373,16.5,39,2" clip-rule="evenodd" fill="none" fill-rule="evenodd" stroke="#000" stroke-width="9" stroke-linecap="round" stroke-linejoin="round" stroke-miterlimit="1.5"/></g><g transform="matrix(.673629 0 0 1 0.003565 0)" clip-rule="evenodd"><path d="M462,2416c0,0,15.532-30.73-7-49-2.936,20.14-4.131,24-4.131,24l-.137-43c0,0-33.673.53-31.732,39s11.921,39.4,32,45" clip-rule="evenodd" fill="none" fill-rule="evenodd" stroke="#000" stroke-width="9" stroke-linecap="round" stroke-linejoin="round" stroke-miterlimit="1.5"/></g><g transform="matrix(.673629 0 0 1 0.003565 0)" clip-rule="evenodd"><path d="M549,2418c0,0,15.775,7.64,28,1c4.61,5.22,9,12.83,9,12.83s-11.134,13.34-37,4.11" clip-rule="evenodd" fill="none" fill-rule="evenodd" stroke="#000" stroke-width="9" stroke-linecap="round" stroke-linejoin="round" stroke-miterlimit="1.5"/></g><g transform="matrix(.673629 0 0 1 0.003565 0)" clip-rule="evenodd"><path d="M577,2419c0,0-18.975-35.85,5-50c2.546,17.59,3.873,23,3.873,23l-.14-44c0,0,32.89,1.97,33.267,34s-8.319,46.58-33,49.83" clip-rule="evenodd" fill="none" fill-rule="evenodd" stroke="#000" stroke-width="9" stroke-linecap="round" stroke-linejoin="round" stroke-miterlimit="1.5"/></g><g transform="matrix(.777265 0 0 1.15385-51.6586-364.597)" clip-rule="evenodd"><circle r="6.5" transform="translate(498.5 2370.5)" clip-rule="evenodd" fill-rule="evenodd" stroke-linecap="round" stroke-linejoin="round" stroke-miterlimit="1.5"/></g><g transform="matrix(.777265 0 0 1.15385-24.0398-364.597)" clip-rule="evenodd"><circle r="6.5" transform="translate(498.5 2370.5)" clip-rule="evenodd" fill-rule="evenodd" stroke-linecap="round" stroke-linejoin="round" stroke-miterlimit="1.5"/></g></g></g><g id="ez7XGTOHfQ026_tr" transform="translate(391.361483,2476.245136) rotate(171.755047)"><g transform="skewX(-11.459533) skewY(0) scale(1.039536,0.961968) translate(-349.593765,-2448.245972)" clip-rule="evenodd"><g transform="matrix(.673629 0 0 1 0.003565 0)" clip-rule="evenodd"><path d="M488,2414c0,0,4.943-26.03,25-31c3.587-8.78,5.622-15,5.622-15s3.865,13.81,5.378,16s14.753-.22,23,25c2.581,6.64,3.892,31.56-6,45.66s-42.058,15.3-48-6.66-5.672-30.75-5-34Z" clip-rule="evenodd" fill="none" fill-rule="evenodd" stroke="#000" stroke-width="9" stroke-linecap="round" stroke-linejoin="round" stroke-miterlimit="1.5"/></g><g transform="matrix(.673629 0 0 1 0.003565 0)" clip-rule="evenodd"><path d="M496,2455c0,0-11.442,27.12,23.011,35c11.014.81,29.343-11.22,22.989-35.03" clip-rule="evenodd" fill="none" fill-rule="evenodd" stroke="#000" stroke-width="9" stroke-linecap="round" stroke-linejoin="round" stroke-miterlimit="1.5"/></g><g transform="matrix(.673629 0 0 1 0.003565 0)" clip-rule="evenodd"><path d="M498,2478c0,0-13.866,29.95,20.558,38c19.034.32,31.82-27,20.442-37" clip-rule="evenodd" fill="none" fill-rule="evenodd" stroke="#000" stroke-width="9" stroke-linecap="round" stroke-linejoin="round" stroke-miterlimit="1.5"/></g><g transform="matrix(.673629 0 0 1 0.003565 0)" clip-rule="evenodd"><path d="M499,2505c0,0-31.071,19.96,0,34c7.458,6.03,20.904,17.42,35,1c11.213-2.47,29.406-17.19,4-35" clip-rule="evenodd" fill="none" fill-rule="evenodd" stroke="#000" stroke-width="9" stroke-linecap="round" stroke-linejoin="round" stroke-miterlimit="1.5"/></g><g transform="matrix(.673629 0 0 1 0.003565 0)" clip-rule="evenodd"><path d="M487.654,2417c0,0-23.091,11.59-26.654,0-6.698,9.06-10,15-10,15s15.373,16.5,39,2" clip-rule="evenodd" fill="none" fill-rule="evenodd" stroke="#000" stroke-width="9" stroke-linecap="round" stroke-linejoin="round" stroke-miterlimit="1.5"/></g><g transform="matrix(.673629 0 0 1 0.003565 0)" clip-rule="evenodd"><path d="M462,2416c0,0,15.532-30.73-7-49-2.936,20.14-4.131,24-4.131,24l-.137-43c0,0-33.673.53-31.732,39s11.921,39.4,32,45" clip-rule="evenodd" fill="none" fill-rule="evenodd" stroke="#000" stroke-width="9" stroke-linecap="round" stroke-linejoin="round" stroke-miterlimit="1.5"/></g><g transform="matrix(.673629 0 0 1 0.003565 0)" clip-rule="evenodd"><path d="M549,2418c0,0,15.775,7.64,28,1c4.61,5.22,9,12.83,9,12.83s-11.134,13.34-37,4.11" clip-rule="evenodd" fill="none" fill-rule="evenodd" stroke="#000" stroke-width="9" stroke-linecap="round" stroke-linejoin="round" stroke-miterlimit="1.5"/></g><g transform="matrix(.673629 0 0 1 0.003565 0)" clip-rule="evenodd"><path d="M577,2419c0,0-18.975-35.85,5-50c2.546,17.59,3.873,23,3.873,23l-.14-44c0,0,32.89,1.97,33.267,34s-8.319,46.58-33,49.83" clip-rule="evenodd" fill="none" fill-rule="evenodd" stroke="#000" stroke-width="9" stroke-linecap="round" stroke-linejoin="round" stroke-miterlimit="1.5"/></g><g transform="matrix(.777265 0 0 1.15385-51.6586-364.597)" clip-rule="evenodd"><circle r="6.5" transform="translate(498.5 2370.5)" clip-rule="evenodd" fill-rule="evenodd" stroke-linecap="round" stroke-linejoin="round" stroke-miterlimit="1.5"/></g><g transform="matrix(.777265 0 0 1.15385-24.0398-364.597)" clip-rule="evenodd"><circle r="6.5" transform="translate(498.5 2370.5)" clip-rule="evenodd" fill-rule="evenodd" stroke-linecap="round" stroke-linejoin="round" stroke-miterlimit="1.5"/></g></g></g><g id="ez7XGTOHfQ047_tr" transform="translate(530.122765,2472.719971) rotate(-9.377848)"><g transform="translate(-349.593765,-2448.245971)" clip-rule="evenodd"><g transform="matrix(.673629 0 0 1 0.003565 0)" clip-rule="evenodd"><path d="M488,2414c0,0,4.943-26.03,25-31c3.587-8.78,5.622-15,5.622-15s3.865,13.81,5.378,16s14.753-.22,23,25c2.581,6.64,3.892,31.56-6,45.66s-42.058,15.3-48-6.66-5.672-30.75-5-34Z" clip-rule="evenodd" fill="none" fill-rule="evenodd" stroke="#000" stroke-width="9" stroke-linecap="round" stroke-linejoin="round" stroke-miterlimit="1.5"/></g><g transform="matrix(.673629 0 0 1 0.003565 0)" clip-rule="evenodd"><path d="M496,2455c0,0-11.442,27.12,23.011,35c11.014.81,29.343-11.22,22.989-35.03" clip-rule="evenodd" fill="none" fill-rule="evenodd" stroke="#000" stroke-width="9" stroke-linecap="round" stroke-linejoin="round" stroke-miterlimit="1.5"/></g><g transform="matrix(.673629 0 0 1 0.003565 0)" clip-rule="evenodd"><path d="M498,2478c0,0-13.866,29.95,20.558,38c19.034.32,31.82-27,20.442-37" clip-rule="evenodd" fill="none" fill-rule="evenodd" stroke="#000" stroke-width="9" stroke-linecap="round" stroke-linejoin="round" stroke-miterlimit="1.5"/></g><g transform="matrix(.673629 0 0 1 0.003565 0)" clip-rule="evenodd"><path d="M499,2505c0,0-31.071,19.96,0,34c7.458,6.03,20.904,17.42,35,1c11.213-2.47,29.406-17.19,4-35" clip-rule="evenodd" fill="none" fill-rule="evenodd" stroke="#000" stroke-width="9" stroke-linecap="round" stroke-linejoin="round" stroke-miterlimit="1.5"/></g><g transform="matrix(.673629 0 0 1 0.003565 0)" clip-rule="evenodd"><path d="M487.654,2417c0,0-23.091,11.59-26.654,0-6.698,9.06-10,15-10,15s15.373,16.5,39,2" clip-rule="evenodd" fill="none" fill-rule="evenodd" stroke="#000" stroke-width="9" stroke-linecap="round" stroke-linejoin="round" stroke-miterlimit="1.5"/></g><g transform="matrix(.673629 0 0 1 0.003565 0)" clip-rule="evenodd"><path d="M462,2416c0,0,15.532-30.73-7-49-2.936,20.14-4.131,24-4.131,24l-.137-43c0,0-33.673.53-31.732,39s11.921,39.4,32,45" clip-rule="evenodd" fill="none" fill-rule="evenodd" stroke="#000" stroke-width="9" stroke-linecap="round" stroke-linejoin="round" stroke-miterlimit="1.5"/></g><g transform="matrix(.673629 0 0 1 0.003565 0)" clip-rule="evenodd"><path d="M549,2418c0,0,15.775,7.64,28,1c4.61,5.22,9,12.83,9,12.83s-11.134,13.34-37,4.11" clip-rule="evenodd" fill="none" fill-rule="evenodd" stroke="#000" stroke-width="9" stroke-linecap="round" stroke-linejoin="round" stroke-miterlimit="1.5"/></g><g transform="matrix(.673629 0 0 1 0.003565 0)" clip-rule="evenodd"><path d="M577,2419c0,0-18.975-35.85,5-50c2.546,17.59,3.873,23,3.873,23l-.14-44c0,0,32.89,1.97,33.267,34s-8.319,46.58-33,49.83" clip-rule="evenodd" fill="none" fill-rule="evenodd" stroke="#000" stroke-width="9" stroke-linecap="round" stroke-linejoin="round" stroke-miterlimit="1.5"/></g><g transform="matrix(.777265 0 0 1.15385-51.6586-364.597)" clip-rule="evenodd"><circle r="6.5" transform="translate(498.5 2370.5)" clip-rule="evenodd" fill-rule="evenodd" stroke-linecap="round" stroke-linejoin="round" stroke-miterlimit="1.5"/></g><g transform="matrix(.777265 0 0 1.15385-24.0398-364.597)" clip-rule="evenodd"><circle r="6.5" transform="translate(498.5 2370.5)" clip-rule="evenodd" fill-rule="evenodd" stroke-linecap="round" stroke-linejoin="round" stroke-miterlimit="1.5"/></g></g></g><g id="ez7XGTOHfQ068_tr" transform="translate(654.151483,2459.705136) rotate(174.804524)"><g transform="skewX(-11.459533) skewY(0) scale(1.039536,0.961968) translate(-349.593765,-2448.245972)" clip-rule="evenodd"><g transform="matrix(.673629 0 0 1 0.003565 0)" clip-rule="evenodd"><path d="M488,2414c0,0,4.943-26.03,25-31c3.587-8.78,5.622-15,5.622-15s3.865,13.81,5.378,16s14.753-.22,23,25c2.581,6.64,3.892,31.56-6,45.66s-42.058,15.3-48-6.66-5.672-30.75-5-34Z" clip-rule="evenodd" fill="none" fill-rule="evenodd" stroke="#000" stroke-width="9" stroke-linecap="round" stroke-linejoin="round" stroke-miterlimit="1.5"/></g><g transform="matrix(.673629 0 0 1 0.003565 0)" clip-rule="evenodd"><path d="M496,2455c0,0-11.442,27.12,23.011,35c11.014.81,29.343-11.22,22.989-35.03" clip-rule="evenodd" fill="none" fill-rule="evenodd" stroke="#000" stroke-width="9" stroke-linecap="round" stroke-linejoin="round" stroke-miterlimit="1.5"/></g><g transform="matrix(.673629 0 0 1 0.003565 0)" clip-rule="evenodd"><path d="M498,2478c0,0-13.866,29.95,20.558,38c19.034.32,31.82-27,20.442-37" clip-rule="evenodd" fill="none" fill-rule="evenodd" stroke="#000" stroke-width="9" stroke-linecap="round" stroke-linejoin="round" stroke-miterlimit="1.5"/></g><g transform="matrix(.673629 0 0 1 0.003565 0)" clip-rule="evenodd"><path d="M499,2505c0,0-31.071,19.96,0,34c7.458,6.03,20.904,17.42,35,1c11.213-2.47,29.406-17.19,4-35" clip-rule="evenodd" fill="none" fill-rule="evenodd" stroke="#000" stroke-width="9" stroke-linecap="round" stroke-linejoin="round" stroke-miterlimit="1.5"/></g><g transform="matrix(.673629 0 0 1 0.003565 0)" clip-rule="evenodd"><path d="M487.654,2417c0,0-23.091,11.59-26.654,0-6.698,9.06-10,15-10,15s15.373,16.5,39,2" clip-rule="evenodd" fill="none" fill-rule="evenodd" stroke="#000" stroke-width="9" stroke-linecap="round" stroke-linejoin="round" stroke-miterlimit="1.5"/></g><g transform="matrix(.673629 0 0 1 0.003565 0)" clip-rule="evenodd"><path d="M462,2416c0,0,15.532-30.73-7-49-2.936,20.14-4.131,24-4.131,24l-.137-43c0,0-33.673.53-31.732,39s11.921,39.4,32,45" clip-rule="evenodd" fill="none" fill-rule="evenodd" stroke="#000" stroke-width="9" stroke-linecap="round" stroke-linejoin="round" stroke-miterlimit="1.5"/></g><g transform="matrix(.673629 0 0 1 0.003565 0)" clip-rule="evenodd"><path d="M549,2418c0,0,15.775,7.64,28,1c4.61,5.22,9,12.83,9,12.83s-11.134,13.34-37,4.11" clip-rule="evenodd" fill="none" fill-rule="evenodd" stroke="#000" stroke-width="9" stroke-linecap="round" stroke-linejoin="round" stroke-miterlimit="1.5"/></g><g transform="matrix(.673629 0 0 1 0.003565 0)" clip-rule="evenodd"><path d="M577,2419c0,0-18.975-35.85,5-50c2.546,17.59,3.873,23,3.873,23l-.14-44c0,0,32.89,1.97,33.267,34s-8.319,46.58-33,49.83" clip-rule="evenodd" fill="none" fill-rule="evenodd" stroke="#000" stroke-width="9" stroke-linecap="round" stroke-linejoin="round" stroke-miterlimit="1.5"/></g><g transform="matrix(.777265 0 0 1.15385-51.6586-364.597)" clip-rule="evenodd"><circle r="6.5" transform="translate(498.5 2370.5)" clip-rule="evenodd" fill-rule="evenodd" stroke-linecap="round" stroke-linejoin="round" stroke-miterlimit="1.5"/></g><g transform="matrix(.777265 0 0 1.15385-24.0398-364.597)" clip-rule="evenodd"><circle r="6.5" transform="translate(498.5 2370.5)" clip-rule="evenodd" fill-rule="evenodd" stroke-linecap="round" stroke-linejoin="round" stroke-miterlimit="1.5"/></g></g></g><g id="ez7XGTOHfQ089_tr" transform="translate(789.831511,2476.003772) rotate(-10.963665)"><g transform="translate(-349.593765,-2448.245971)" clip-rule="evenodd"><g transform="matrix(.673629 0 0 1 0.003565 0)" clip-rule="evenodd"><path d="M488,2414c0,0,4.943-26.03,25-31c3.587-8.78,5.622-15,5.622-15s3.865,13.81,5.378,16s14.753-.22,23,25c2.581,6.64,3.892,31.56-6,45.66s-42.058,15.3-48-6.66-5.672-30.75-5-34Z" clip-rule="evenodd" fill="none" fill-rule="evenodd" stroke="#000" stroke-width="9" stroke-linecap="round" stroke-linejoin="round" stroke-miterlimit="1.5"/></g><g transform="matrix(.673629 0 0 1 0.003565 0)" clip-rule="evenodd"><path d="M496,2455c0,0-11.442,27.12,23.011,35c11.014.81,29.343-11.22,22.989-35.03" clip-rule="evenodd" fill="none" fill-rule="evenodd" stroke="#000" stroke-width="9" stroke-linecap="round" stroke-linejoin="round" stroke-miterlimit="1.5"/></g><g transform="matrix(.673629 0 0 1 0.003565 0)" clip-rule="evenodd"><path d="M498,2478c0,0-13.866,29.95,20.558,38c19.034.32,31.82-27,20.442-37" clip-rule="evenodd" fill="none" fill-rule="evenodd" stroke="#000" stroke-width="9" stroke-linecap="round" stroke-linejoin="round" stroke-miterlimit="1.5"/></g><g transform="matrix(.673629 0 0 1 0.003565 0)" clip-rule="evenodd"><path d="M499,2505c0,0-31.071,19.96,0,34c7.458,6.03,20.904,17.42,35,1c11.213-2.47,29.406-17.19,4-35" clip-rule="evenodd" fill="none" fill-rule="evenodd" stroke="#000" stroke-width="9" stroke-linecap="round" stroke-linejoin="round" stroke-miterlimit="1.5"/></g><g transform="matrix(.673629 0 0 1 0.003565 0)" clip-rule="evenodd"><path d="M487.654,2417c0,0-23.091,11.59-26.654,0-6.698,9.06-10,15-10,15s15.373,16.5,39,2" clip-rule="evenodd" fill="none" fill-rule="evenodd" stroke="#000" stroke-width="9" stroke-linecap="round" stroke-linejoin="round" stroke-miterlimit="1.5"/></g><g transform="matrix(.673629 0 0 1 0.003565 0)" clip-rule="evenodd"><path d="M462,2416c0,0,15.532-30.73-7-49-2.936,20.14-4.131,24-4.131,24l-.137-43c0,0-33.673.53-31.732,39s11.921,39.4,32,45" clip-rule="evenodd" fill="none" fill-rule="evenodd" stroke="#000" stroke-width="9" stroke-linecap="round" stroke-linejoin="round" stroke-miterlimit="1.5"/></g><g transform="matrix(.673629 0 0 1 0.003565 0)" clip-rule="evenodd"><path d="M549,2418c0,0,15.775,7.64,28,1c4.61,5.22,9,12.83,9,12.83s-11.134,13.34-37,4.11" clip-rule="evenodd" fill="none" fill-rule="evenodd" stroke="#000" stroke-width="9" stroke-linecap="round" stroke-linejoin="round" stroke-miterlimit="1.5"/></g><g transform="matrix(.673629 0 0 1 0.003565 0)" clip-rule="evenodd"><path d="M577,2419c0,0-18.975-35.85,5-50c2.546,17.59,3.873,23,3.873,23l-.14-44c0,0,32.89,1.97,33.267,34s-8.319,46.58-33,49.83" clip-rule="evenodd" fill="none" fill-rule="evenodd" stroke="#000" stroke-width="9" stroke-linecap="round" stroke-linejoin="round" stroke-miterlimit="1.5"/></g><g transform="matrix(.777265 0 0 1.15385-51.6586-364.597)" clip-rule="evenodd"><circle r="6.5" transform="translate(498.5 2370.5)" clip-rule="evenodd" fill-rule="evenodd" stroke-linecap="round" stroke-linejoin="round" stroke-miterlimit="1.5"/></g><g transform="matrix(.777265 0 0 1.15385-24.0398-364.597)" clip-rule="evenodd"><circle r="6.5" transform="translate(498.5 2370.5)" clip-rule="evenodd" fill-rule="evenodd" stroke-linecap="round" stroke-linejoin="round" stroke-miterlimit="1.5"/></g></g></g></g></g></g></svg>