<?xml version="1.0" encoding="UTF-8" standalone="no"?>
<!DOCTYPE svg PUBLIC "-//W3C//DTD SVG 1.1//EN" "http://www.w3.org/Graphics/SVG/1.1/DTD/svg11.dtd">
<svg width="100%" height="100%" viewBox="0 0 191 238" version="1.1" xmlns="http://www.w3.org/2000/svg" xmlns:xlink="http://www.w3.org/1999/xlink" xml:space="preserve" xmlns:serif="http://www.serif.com/" style="fill-rule:evenodd;clip-rule:evenodd;stroke-linecap:round;stroke-linejoin:round;stroke-miterlimit:1.5;">
    <g transform="matrix(1,0,0,1,-1175,-1836)">
        <g transform="matrix(1.4845,0,0,1,-0.00529172,0)">
            <g id="mona-lisa" transform="matrix(0.588508,0,0,0.588508,154.729,679.255)">
                <g transform="matrix(1.14464,0,0,1.69921,-783.722,-1605.77)">
                    <rect x="1631.03" y="2102.6" width="188.365" height="235.98" style="fill:white;stroke:black;stroke-width:0.95px;"/>
                </g>
                <g transform="matrix(0.673629,0,0,1,1055.97,1967)">
                    <path d="M356.526,0L44.454,0C42.245,0 40.454,1.791 40.454,4L40.454,396.98C40.454,399.189 42.245,400.98 44.454,400.98L356.526,400.98C358.735,400.98 360.526,399.189 360.526,396.98L360.526,4C360.526,1.791 358.735,0 356.526,0ZM352.526,392.98L48.454,392.98L48.454,8L352.526,8L352.526,392.98Z" style="fill-rule:nonzero;stroke:black;stroke-width:2.55px;stroke-linecap:butt;stroke-miterlimit:2;"/>
                </g>
                <g transform="matrix(0.673629,0,0,1,1055.97,1967)">
                    <path d="M189.11,128.898C191.319,128.898 193.11,127.107 193.11,124.898L193.11,113.076L200.436,113.394C202.651,113.499 204.51,111.779 204.606,109.572C204.702,107.365 202.991,105.498 200.784,105.402L189.284,104.902C188.18,104.849 187.132,105.255 186.344,106.008C185.556,106.763 185.111,107.807 185.111,108.898L185.111,124.898C185.11,127.107 186.901,128.898 189.11,128.898Z" style="fill-rule:nonzero;"/>
                </g>
                <g transform="matrix(0.673629,0,0,1,1055.97,1967)">
                    <path d="M186.175,304.806C184.468,303.406 181.946,303.654 180.546,305.363C179.145,307.071 179.395,309.592 181.103,310.992L206.103,331.492C206.847,332.102 207.745,332.399 208.637,332.399C209.793,332.399 210.942,331.9 211.732,330.935C213.133,329.227 212.883,326.706 211.175,325.306L186.175,304.806Z" style="fill-rule:nonzero;"/>
                </g>
                <g transform="matrix(0.673629,0,0,1,1055.97,1967)">
                    <path d="M266.781,219.901C241.853,218.978 232.252,238.415 230.691,248.75L225.191,282.25C224.834,284.431 226.31,286.487 228.49,286.846C228.71,286.882 228.928,286.9 229.143,286.9C231.067,286.9 232.763,285.507 233.085,283.547L238.593,249.995C238.735,249.057 242.381,227.046 266.495,227.895C268.682,227.973 270.556,226.249 270.635,224.041C270.715,221.833 268.989,219.98 266.781,219.901Z" style="fill-rule:nonzero;"/>
                </g>
                <g transform="matrix(0.673629,0,0,1,1055.97,1967)">
                    <path d="M79.841,357.983C79.841,360.192 81.632,361.983 83.841,361.983L317.139,361.983C319.348,361.983 321.139,360.192 321.139,357.983L321.139,42.998C321.139,40.789 319.348,38.998 317.139,38.998L83.841,38.998C81.632,38.998 79.841,40.789 79.841,42.998L79.841,357.983ZM157.678,164.112C155.499,170.377 155.707,179.216 156.086,184.402C146.874,186.111 126.13,194.417 116.937,234.14C114.128,237.649 110.067,241.393 105.783,245.342C99.73,250.92 93.171,256.971 87.842,264.2L87.842,123.898L147.5,123.898C147.472,138.216 150.345,156.648 157.678,164.112ZM313.139,277.223C305.37,248.417 292.119,211.709 273.92,185.611C268.448,177.764 256.243,167.254 249.686,161.607L249.366,161.331C247.973,152.259 246.041,137.538 244.315,123.899L313.14,123.899L313.14,277.223L313.139,277.223ZM186.51,288.378C181.65,285.709 176.943,283.589 172.615,281.922C172.636,280.974 172.578,279.962 172.63,279.159C174.403,251.973 190.562,228.874 220.656,210.5C243.521,196.541 266.221,190.751 266.448,190.693C266.785,190.608 267.167,190.545 267.565,190.49C268.79,192.257 269.995,194.079 271.178,195.957C265.479,197.093 249.519,200.972 232.814,211.308C214.748,222.485 192.664,243.484 187.332,280.756C187.063,282.64 186.542,287.719 186.51,288.378ZM201.784,211.414C182.258,213.16 166.062,204.255 159.829,196.788C161.773,189.192 177.724,176.997 189.148,170.357C190.478,169.584 191.248,168.115 191.126,166.581L190.447,158.044C191.057,158.096 191.669,158.134 192.284,158.148L193.357,158.168C200.903,158.328 208.232,155.727 213.971,150.807L214.01,150.773L215.869,204.061C212.206,206.32 208.724,208.661 205.437,211.084C203.836,211.204 202.454,211.355 201.784,211.414ZM173.64,106.398L173.612,106.398L168.582,106.433L167.281,90.032C167.314,89.959 167.355,89.887 167.383,89.812C169.903,87.451 175.896,82.51 182.517,81.88C194.719,80.716 209.721,82.459 212.149,97.281L213.654,140.543L208.765,144.731C204.527,148.365 199.138,150.293 193.524,150.169L192.448,150.149C186.392,150.015 180.544,147.397 176.405,142.971C174.674,141.113 173.271,138.984 172.241,136.65C171.21,134.302 170.59,131.837 170.396,129.312L169.216,114.428L173.666,114.398C175.875,114.382 177.654,112.58 177.639,110.371C177.623,108.171 175.836,106.398 173.64,106.398ZM241.688,164.023C241.836,164.956 242.308,165.806 243.023,166.424L244.466,167.669C248.671,171.29 256.138,177.726 261.823,183.668C255.804,185.405 240.528,190.306 223.716,199.498L221.718,142.221C221.717,142.199 221.716,142.176 221.715,142.154L220.137,96.76C220.131,96.603 220.116,96.446 220.092,96.29C217.584,79.99 203.611,71.841 181.76,73.916C178.507,74.226 175.451,75.217 172.717,76.499C176.939,71.056 184.21,65.898 196.639,65.898C206.2,65.898 214.628,69.719 221.69,77.255C228.322,84.331 232.485,93.442 233.728,103.602C235.76,120.207 239.495,150.137 241.688,164.023ZM160.157,101.392L162.421,129.934C162.683,133.35 163.522,136.693 164.92,139.875C166.315,143.036 168.21,145.913 170.558,148.433C173.815,151.916 177.855,154.564 182.277,156.212L182.956,164.753C180.046,166.553 174.622,170.055 169.109,174.377C167.191,175.881 165.449,177.343 163.852,178.772C163.795,173.347 164.307,167.704 166.004,165.063C166.618,164.108 166.798,162.936 166.497,161.841C166.196,160.745 165.444,159.83 164.429,159.321C157.48,155.846 153.369,125.602 156.538,111.795C157.445,107.841 158.767,104.339 160.157,101.392ZM87.841,353.983L87.841,280.429C92.496,268.486 102.419,259.321 111.203,251.225C114.555,248.137 117.765,245.167 120.507,242.212C124.604,242.434 135.351,243.743 138.304,251.354C139.843,258.605 142.788,264.905 147.085,269.983C147.876,270.917 149.005,271.399 150.141,271.399C151.054,271.399 151.971,271.088 152.723,270.453C154.409,269.026 154.619,266.502 153.193,264.815C138.382,247.312 148.321,217.495 148.423,217.195C149.139,215.107 148.028,212.834 145.94,212.116C143.842,211.397 141.574,212.51 140.856,214.598C140.737,214.946 137.924,223.228 137.211,234.074C137.111,235.595 137.069,237.086 137.062,238.555C133.059,236.229 128.588,235.126 125.049,234.611C131.777,206.904 144.227,197.189 152.394,193.789C151.944,195.144 151.691,196.463 151.642,197.746C151.608,198.624 151.865,199.488 152.371,200.206C156.133,205.536 162.954,210.653 171.085,214.246C176.604,216.684 184.855,219.332 195.021,219.61C176.484,236.496 166.087,256.56 164.648,278.638C164.637,278.811 164.618,278.989 164.596,279.168C156.335,276.669 150.666,275.987 150.08,275.923C149.207,275.826 148.31,276.023 147.553,276.486C143.194,279.15 140.259,283.307 139.066,288.507C137.968,293.295 138.464,298.653 140.329,303.279C136.505,305.037 132.167,305.937 128.739,306.402C120.433,291.988 128.934,284.93 130.004,284.125C131.774,282.829 132.17,280.346 130.886,278.562C129.596,276.769 127.095,276.364 125.303,277.653C120.177,281.343 113.469,291.509 119.612,306.006C115.255,304.296 108.473,299.495 109.625,286.246C110.125,280.497 112.076,276.243 115.426,273.604C120.994,269.214 128.921,270.334 129.028,270.352C131.193,270.681 133.244,269.204 133.591,267.028C133.939,264.845 132.451,262.796 130.27,262.449C129.807,262.374 118.909,260.732 110.546,267.264C105.349,271.324 102.358,277.477 101.655,285.552C99.342,312.157 121.993,314.853 122.221,314.876C122.361,314.891 137.965,314.822 147.859,308.227C148.032,308.112 151.94,305.766 151.94,305.766C152.616,306.643 153.519,307.773 154.588,309.047L138.779,317.358C137.464,318.049 136.64,319.413 136.64,320.898L136.64,332.898C136.64,335.107 138.431,336.898 140.64,336.898C142.849,336.898 144.64,335.107 144.64,332.898L144.64,323.314L160.153,315.158C162.216,317.248 164.574,319.437 167.179,321.578L153.521,325.558C152.331,325.905 151.371,326.783 150.917,327.936L145.417,341.936C144.608,343.993 145.621,346.314 147.677,347.121C148.157,347.311 148.653,347.399 149.139,347.399C150.736,347.399 152.244,346.436 152.863,344.861L157.645,332.689L175.447,327.502C178.349,329.28 181.439,330.875 184.705,332.131C185.177,332.313 185.662,332.399 186.139,332.399C187.746,332.399 189.262,331.423 189.873,329.834C190.666,327.772 189.638,325.458 187.575,324.665C169.534,317.725 157.57,300.33 157.454,300.159C156.477,298.716 154.681,298.07 153.011,298.56L147.702,300.121C146.508,297.036 146.158,293.378 146.865,290.294C147.466,287.676 148.727,285.592 150.623,284.081C157.389,285.186 186.81,291.273 208.64,316.042C209.431,316.939 210.534,317.397 211.643,317.397C212.582,317.397 213.526,317.068 214.286,316.398C215.943,314.937 216.103,312.41 214.642,310.752C213.259,309.183 211.845,307.699 210.417,306.267L240.249,300.852C241.2,300.744 252.772,299.636 259.991,308.862C260.78,309.871 261.956,310.397 263.144,310.397C264.006,310.397 264.874,310.12 265.606,309.547C267.346,308.185 267.653,305.671 266.291,303.932C255.992,290.773 239.781,292.838 239.094,292.934C239.038,292.942 238.983,292.951 238.926,292.961L202.958,299.489C200.138,297.171 197.288,295.073 194.445,293.181C194.484,291.067 194.505,288.555 194.624,287.263C194.817,285.172 195.064,283.115 195.367,281.091C199.42,253.975 213.332,232.857 236.783,218.258C255.756,206.448 274.231,203.521 274.543,203.473C274.772,203.439 275.15,203.391 275.58,203.331C297.938,242.845 311.863,299.123 313.14,317.548L313.14,353.98L87.841,353.98L87.841,353.983ZM313.139,46.997L313.139,115.898L243.309,115.898C242.699,111.008 242.138,106.461 241.67,102.63C240.219,90.774 235.328,80.108 227.528,71.784C218.893,62.569 208.501,57.897 196.639,57.897C170.844,57.897 160.95,77.061 159.239,87.481C156.657,90.843 151.311,98.812 148.741,110.002C148.362,111.652 148.066,113.655 147.856,115.897L87.841,115.897L87.841,46.997L313.139,46.997Z" style="fill-rule:nonzero;stroke:black;stroke-width:3.4px;stroke-linecap:butt;stroke-miterlimit:2;"/>
                </g>
            </g>
        </g>
    </g>
</svg>
