<svg xmlns="http://www.w3.org/2000/svg"  viewBox="0 0 64 64" width="48px" height="48px"><path d="M 29 3 C 27.896 3 27 3.896 27 5 L 27 11 C 27 12.104 27.896 13 29 13 C 30.104 13 31 12.104 31 11 L 31 5 C 31 3.896 30.104 3 29 3 z M 21 6 C 19.896 6 19 6.896 19 8 L 19 11 C 19 12.104 19.896 13 21 13 C 22.104 13 23 12.104 23 11 L 23 8 C 23 6.896 22.104 6 21 6 z M 37 6 C 35.896 6 35 6.896 35 8 L 35 11 C 35 12.104 35.896 13 37 13 C 38.104 13 39 12.104 39 11 L 39 8 C 39 6.896 38.104 6 37 6 z M 15.337891 16 C 14.166891 16 13.059828 16.509438 12.298828 17.398438 C 11.536828 18.287437 11.203766 19.461188 11.384766 20.617188 L 15.494141 46.925781 C 15.953141 49.865781 18.446828 52 21.423828 52 L 36.576172 52 C 39.553172 52 42.045906 49.865781 42.503906 46.925781 L 44.054688 37 L 50 37 C 53.309 37 56 34.309 56 31 L 56 22 C 56 18.691 53.309 16 50 16 L 43 16 L 43 16.037109 C 42.886892 16.027463 42.776708 16 42.662109 16 L 15.337891 16 z M 16.505859 20 L 41.496094 20 C 41.807094 20 42.080672 20.141375 42.263672 20.359375 C 42.440672 20.571375 42.531375 20.855297 42.484375 21.154297 L 38.552734 46.310547 C 38.399734 47.289547 37.568172 48 36.576172 48 L 21.423828 48 C 20.438828 48 19.598266 47.282547 19.447266 46.310547 L 15.517578 21.154297 C 15.469578 20.849297 15.565047 20.560656 15.748047 20.347656 C 15.930047 20.135656 16.199859 20 16.505859 20 z M 46.644531 20 L 50 20 C 51.103 20 52 20.897 52 22 L 52 31 C 52 32.103 51.103 33 50 33 L 44.679688 33 L 46.615234 20.617188 C 46.647512 20.411038 46.644411 20.205524 46.644531 20 z"/></svg>