<svg id="e1wkP4hKV3S1" xmlns="http://www.w3.org/2000/svg" xmlns:xlink="http://www.w3.org/1999/xlink" viewBox="0 0 207 271" shape-rendering="geometricPrecision" text-rendering="geometricPrecision"><style><![CDATA[#e1wkP4hKV3S14_ts {animation: e1wkP4hKV3S14_ts__ts 500ms linear infinite alternate-reverse forwards}@keyframes e1wkP4hKV3S14_ts__ts { 0% {transform: translate(1779.22998px,2083.22998px) scale(0.620408,0.54816)} 100% {transform: translate(1779.22998px,2083.22998px) scale(1.024765,1.025946)}} #e1wkP4hKV3S31_to {animation: e1wkP4hKV3S31_to__to 500ms linear infinite alternate-reverse forwards}@keyframes e1wkP4hKV3S31_to__to { 0% {transform: translate(1222.712402px,2038.435059px);animation-timing-function: cubic-bezier(0.42,0,0.58,1)} 100% {transform: translate(1221.365148px,2039.435059px)}} #e1wkP4hKV3S36_to {animation: e1wkP4hKV3S36_to__to 500ms linear infinite alternate-reverse forwards}@keyframes e1wkP4hKV3S36_to__to { 0% {transform: translate(697.972px,511.112px);animation-timing-function: cubic-bezier(0.42,0,0.58,1)} 100% {transform: translate(697.298373px,515.112px)}}]]></style><g transform="translate(-1516-1949)" clip-rule="evenodd"><g transform="matrix(1.4845 0 0 1-.005292 0)" clip-rule="evenodd"><g transform="translate(-79.0148-46)" clip-rule="evenodd"><g transform="matrix(.673629 0 0 1 0.003565 0)" clip-rule="evenodd"><path d="M1681.13,2262.32c0,0-20.73-2.78-31.13-7.32s-20.9-60.72,2-37.93c9.93-14.47,35.59-39.8,42.49-68.63c6.89-28.82,30.61-60.37,68.9-54.44-5.99-13.8-16.59-47.61,39.61-34c14.69,18.38,19.35,29.35,10,41-17.27,7.11-6.6.86-18,7-2.66,17.27-1.69,42.69-37,69.93-38.86,47.51-55.89,68.07-55.89,68.07s-3.35,18.25-20.98,16.32Z" clip-rule="evenodd" fill="#fff" fill-rule="evenodd" stroke-linecap="round" stroke-linejoin="round" stroke-miterlimit="1.5"/></g><g transform="matrix(.673629 0 0 1 0.003565 0)" clip-rule="evenodd"><path d="M1788.84,2052.1c-4.73.66-11.43,1.21-17.46,2.8-4.5,1.19-8.64,2.98-11.6,5.63-11,9.87-8.58,24.87.96,34.53c11.8,11.97,29.17,16.74,45.57,15.34c4.75-.41,8.31-3.48,10.68-7.84c2.98-5.48,4-13.01,3.79-17.65-.75-16.18-12.53-35.55-31.94-32.81Zm.98,6.93c7.26-1.03,12.97,2.23,16.98,7.19c4.29,5.31,6.69,12.53,6.98,19.01.17,3.67-.58,9.65-2.94,13.99-1.18,2.18-2.75,4-5.12,4.2-14.38,1.23-29.65-2.79-40-13.27-6.74-6.84-9.05-17.42-1.26-24.41c2.2-1.98,5.35-3.19,8.71-4.07c5.75-1.52,12.14-2.01,16.65-2.64Z" clip-rule="evenodd" fill-rule="evenodd" stroke-linecap="round" stroke-linejoin="round" stroke-miterlimit="1.5"/></g><g transform="matrix(.673629 0 0 1 0.003565 0)" clip-rule="evenodd"><circle r="4" transform="translate(1800.8 2076)" clip-rule="evenodd" fill-rule="evenodd" stroke-linecap="round" stroke-linejoin="round" stroke-miterlimit="1.5"/></g><g transform="matrix(.673629 0 0 1-13.3912-9.31067)" clip-rule="evenodd"><circle r="4" transform="translate(1800.8 2076)" clip-rule="evenodd" fill-rule="evenodd" stroke-linecap="round" stroke-linejoin="round" stroke-miterlimit="1.5"/></g><g transform="matrix(.673629 0 0 1 0.003565 0)" clip-rule="evenodd"><g id="e1wkP4hKV3S14_ts" transform="translate(1779.22998,2083.22998) scale(1.024765,1.025946)"><circle r="4.229" transform="translate(0.00002,0.00002)" clip-rule="evenodd" fill-rule="evenodd" stroke="#000" stroke-width="7" stroke-linecap="round" stroke-linejoin="round" stroke-miterlimit="1.5"/></g></g><g transform="matrix(.673629 0 0 1 0.003565 0)" clip-rule="evenodd"><path d="M1651.38,2211.09c-.65-.17-1.31-.42-1.98-.66-1.74-.62-3.49-1.25-5.15-1.47-3.16-.42-6.1.29-8.48,3.88-3.22,4.86-2.98,10.52-.92,16.27c2.55,7.06,7.99,14.28,10.51,19.59.49,1.02,2.08,6.25,3.54,8.62.89,1.45,1.99,2.24,2.81,2.54c3.32,1.19,6.94.76,10.31,1.64c8.72,2.28,16.19,5.23,25.46,4.04c1.75-.23,7.3-1.44,10.51-3.26c2.52-1.43,3.78-3.46,3.84-5.27.53-15.08-12.56-34.06-24.66-42.1-3.54-2.35-8.97-4.57-13.57-4.59-1.27-.01-2.48.15-3.6.47.11-.17.2-.31.26-.4c5.25-7.29,12.02-13.34,17.36-20.57c8.16-11.07,12.37-24.67,17.47-37.27c4.33-10.69,10.8-21.06,17.31-30.57c5.85-8.54,12.72-16.74,22.44-20.86c9.21-3.9,18.11-3.35,27.91-3.64c1.93-.06,3.45-1.67,3.39-3.6s-1.67-3.45-3.6-3.4c-10.69.32-20.38-.07-30.43,4.2-10.97,4.65-18.88,13.71-25.48,23.34-6.79,9.92-13.51,20.75-18.03,31.91-4.88,12.06-8.8,25.14-16.61,35.73-5.36,7.26-12.14,13.33-17.41,20.64-.37.52-2.3,3.42-3.2,4.79Zm43.47,44.87c-.04-12.83-11.36-28.44-21.56-35.22-2.08-1.39-5.03-2.75-7.87-3.25-1.79-.31-3.55-.42-4.68.67-.74.72-1.06,1.89-1.13,3.53-.07,1.63-.03,3.36.39,4.95c3.17,11.95,11.25,20.79,19.7,29.44.72.73,1.05,1.7.99,2.66c1.89.14,3.84.12,5.89-.14c1.16-.15,4.48-.84,6.97-1.93.42-.18.96-.5,1.3-.71Zm-41.8-37.72c-.17.02-.33.03-.47.03-2.21-.02-4.64-.95-7-1.76-1.45-.51-2.93-1.38-3.97.2-2.59,3.9-1.03,8.58,1.16,13.19c2.76,5.78,6.84,11.44,8.91,15.79.33.69,1.15,3.29,2.09,5.63.3.74.78,1.69,1.03,2.18c2.93.83,6.06.46,8.99,1.23c2.34.61,4.58,1.3,6.79,1.93-7.66-8.24-14.38-17.04-17.34-28.23-.6-2.26-.73-4.73-.62-7.05.05-1.16.2-2.2.43-3.14Z" clip-rule="evenodd" fill-rule="evenodd" stroke-linecap="round" stroke-linejoin="round" stroke-miterlimit="1.5"/></g><g transform="matrix(.673629 0 0 1 0.003565 0)" clip-rule="evenodd"><path d="M1703.38,2249.44c6.76-9.37,15.57-17.03,22.43-26.32c8.63-11.7,15.84-23.54,25.91-34.19c12.17-12.87,28.44-24.74,37.14-40.36c6-10.77,8-26.84,8.23-38.98.03-1.93-1.51-3.53-3.44-3.56-1.93-.04-3.53,1.5-3.56,3.43-.21,11.11-1.85,25.85-7.34,35.71-8.43,15.12-24.33,26.49-36.12,38.95-10.27,10.86-17.65,22.91-26.46,34.85-6.86,9.31-15.69,16.98-22.47,26.38-1.13,1.56-.77,3.75.79,4.88c1.57,1.13,3.76.78,4.89-.79Z" clip-rule="evenodd" fill-rule="evenodd" stroke-linecap="round" stroke-linejoin="round" stroke-miterlimit="1.5"/></g><g transform="matrix(.673629 0 0 1 0.003565 0)" clip-rule="evenodd"><path d="M1683.88,2219.24c3.58-4.51,7.61-8.81,10.15-14.03c5.57-11.46,6.15-25.66,7.43-38.22.19-1.92-1.21-3.64-3.13-3.83-1.92-.2-3.64,1.2-3.84,3.12-1.2,11.77-1.54,25.13-6.76,35.87-2.31,4.76-6.07,8.63-9.34,12.74-1.2,1.52-.95,3.72.57,4.92c1.51,1.2,3.71.95,4.92-.57Z" clip-rule="evenodd" fill-rule="evenodd" stroke-linecap="round" stroke-linejoin="round" stroke-miterlimit="1.5"/></g><g transform="matrix(.673629 0 0 1 0.003565 0)" clip-rule="evenodd"><path d="M1687.38,2165.29c20,3.34,37.17,14.31,48.86,30.75c1.12,1.57,3.31,1.94,4.88.82s1.94-3.3.82-4.88c-12.78-17.96-31.55-29.95-53.4-33.59-1.91-.32-3.71.97-4.03,2.87-.32,1.91.97,3.71,2.87,4.03Z" clip-rule="evenodd" fill-rule="evenodd" stroke-linecap="round" stroke-linejoin="round" stroke-miterlimit="1.5"/></g><g transform="matrix(.673629 0 0 1 0.003565 0)" clip-rule="evenodd"><path d="M1694.7,2152.57c4.81-.3,10.08-1.24,14.88-.12c18.99,4.42,25.53,18.93,33.68,35c.87,1.72,2.98,2.41,4.7,1.54c1.72-.88,2.41-2.99,1.54-4.71-9.13-18.01-17.05-33.7-38.33-38.65-5.46-1.27-11.44-.38-16.9-.05-1.93.12-3.4,1.78-3.28,3.71s1.78,3.39,3.71,3.28Z" clip-rule="evenodd" fill-rule="evenodd" stroke-linecap="round" stroke-linejoin="round" stroke-miterlimit="1.5"/></g><g transform="matrix(.673629 0 0 1 0.003565 0)" clip-rule="evenodd"><path d="M1702.05,2140.23c22.43.37,45.65,10.9,58.43,30.07c1.07,1.6,3.25,2.04,4.86.97c1.6-1.07,2.04-3.25.97-4.86-14.05-21.06-39.5-32.77-64.15-33.17-1.93-.04-3.52,1.51-3.55,3.44s1.51,3.52,3.44,3.55Z" clip-rule="evenodd" fill-rule="evenodd" stroke-linecap="round" stroke-linejoin="round" stroke-miterlimit="1.5"/></g><g transform="matrix(.673629 0 0 1 0.003565 0)" clip-rule="evenodd"><path d="M1714.53,2120.7c21.96,4.17,43.27,18.5,58.21,35.01c1.29,1.44,3.51,1.55,4.94.25c1.43-1.29,1.54-3.51.25-4.94-15.92-17.6-38.69-32.76-62.09-37.2-1.9-.36-3.73.89-4.09,2.78-.37,1.9.88,3.74,2.78,4.1Z" clip-rule="evenodd" fill-rule="evenodd" stroke-linecap="round" stroke-linejoin="round" stroke-miterlimit="1.5"/></g><g transform="matrix(.673629 0 0 1 0.003565 0)" clip-rule="evenodd"><path d="M1730.03,2104.81c19.98,4.06,41.17,15.73,53.84,32.44c1.17,1.54,3.37,1.84,4.91.67c1.54-1.16,1.84-3.36.67-4.9-13.67-18.03-36.48-30.69-58.02-35.07-1.89-.38-3.74.84-4.13,2.73-.38,1.9.84,3.75,2.73,4.13Z" clip-rule="evenodd" fill-rule="evenodd" stroke-linecap="round" stroke-linejoin="round" stroke-miterlimit="1.5"/></g><g id="e1wkP4hKV3S31_to" transform="translate(1221.365148,2039.435059)"><g transform="translate(-1222.712402,-2038.435058)"><g transform="matrix(.673629 0 0 1 79.0183 46)" clip-rule="evenodd"><path d="M1685.62,1993l9.5,9.87L1710,1994" clip-rule="evenodd" fill="none" fill-rule="evenodd" stroke="#000" stroke-width="7" stroke-linecap="round" stroke-linejoin="round" stroke-miterlimit="1.5"/></g><g transform="matrix(.673629 0 0 1 79.0183 46)" clip-rule="evenodd"><path d="M1695.12,1982c0,0,2.56,10.39,0,20.87" clip-rule="evenodd" fill="none" fill-rule="evenodd" stroke="#000" stroke-width="7" stroke-linecap="round" stroke-linejoin="round" stroke-miterlimit="1.5"/></g></g></g><g id="e1wkP4hKV3S36_to" transform="translate(697.298373,515.112)"><g transform="rotate(15.99885) skewX(8.5858) skewY(0) scale(0.447144,0.63624) translate(0,0)" clip-rule="evenodd"><path d="M1591.38,2021.5c1.32.12,2.27.57,2.84,1.36.56.8.86,1.78.87,2.95.02,1.17-.16,2.47-.53,3.88-.38,1.42-.83,2.81-1.34,4.17s-1.03,2.61-1.55,3.76c-.53,1.16-.93,2.05-1.19,2.69-.68,1.67-1.23,3.13-1.65,4.4-.41,1.26-.85,2.47-1.3,3.62s-.99,2.33-1.62,3.54c-.62,1.21-1.44,2.57-2.46,4.08-.83,1.21-1.87,1.99-3.12,2.35-1.24.36-2.51.4-3.79.12-1.29-.29-2.5-.82-3.66-1.59-1.15-.77-2.04-1.67-2.69-2.69-.34-.57-.58-1.18-.73-1.84s-.15-1.27,0-1.82c.15-.54.44-.96.87-1.24.44-.29,1.05-.31,1.85-.09.79.23,1.47.47,2.04.74.56.26,1.05.46,1.47.59.41.14.77.18,1.08.15.3-.04.56-.27.79-.68.3-.46.35-1.28.14-2.47s-.71-2.6-1.5-4.22c-.76-1.51-1.44-2.91-2.04-4.19-.61-1.29-1.27-2.7-1.98-4.25-.65-1.32-1.21-2.61-1.7-3.85-.49-1.25-.97-2.54-1.42-3.86-.34-.98-.26-1.88.23-2.72.49-.83,1.15-1.42,1.98-1.78s1.73-.41,2.69-.14c.96.26,1.75,1.02,2.35,2.26.11.27.32.75.62,1.45.31.7.65,1.49,1.02,2.38.38.89.78,1.81,1.19,2.77.42.97.84,1.85,1.25,2.67.42.81.8,1.48,1.16,2.01s.67.79.94.79c.26,0,.55-.39.88-1.16.32-.77.68-1.74,1.07-2.89.4-1.15.84-2.4,1.33-3.74s1.02-2.58,1.59-3.71s1.18-2.07,1.84-2.8c.66-.74,1.39-1.07,2.18-1Z" clip-rule="evenodd" stroke-linecap="round" stroke-linejoin="round" stroke-miterlimit="1.5"/><path d="M1599.71,2034.19c.04-2.03.36-3.86.96-5.46.61-1.61,1.44-2.98,2.5-4.11s2.32-1.98,3.79-2.55c1.48-.57,3.14-.83,4.99-.79c1.77.07,3.35.59,4.73,1.56c1.38.96,2.54,2.16,3.48,3.59.95,1.44,1.66,3.01,2.13,4.71s.67,3.32.59,4.87c-.19,3.89-1.25,6.69-3.2,8.41-1.94,1.72-4.82,2.58-8.64,2.58-1.51,0-2.96-.25-4.36-.74s-2.62-1.26-3.65-2.32c-1.04-1.06-1.87-2.39-2.5-3.99-.62-1.61-.89-3.53-.82-5.76Zm8.22-.96c-.15,1.4.11,2.51.79,3.35.68.83,1.48,1.33,2.41,1.5.92.17,1.82-.02,2.69-.57s1.4-1.52,1.58-2.92c.16-1.4-.11-2.58-.79-3.54s-1.48-1.58-2.41-1.84c-.92-.27-1.82-.09-2.69.51s-1.39,1.78-1.58,3.51Z" clip-rule="evenodd" stroke-linecap="round" stroke-linejoin="round" stroke-miterlimit="1.5"/><path d="M1630.36,2042.92c-1.28-2.45-2.04-5-2.26-7.65-.23-2.64-.31-5.34-.23-8.1.04-1.47.43-2.73,1.19-3.77s1.61-1.72,2.58-2.04c.96-.32,1.92-.22,2.89.29.96.51,1.67,1.53,2.12,3.08.19.61.3,1.38.34,2.33.04.94.06,1.95.06,3.03c0,1.07.03,2.14.08,3.2.06,1.06.18,2,.37,2.83s.47,1.5.85,2.01.93.75,1.64.71c.76-.04,1.36-.3,1.79-.79s.75-1.12.96-1.87c.21-.76.33-1.61.37-2.55.04-.95.05-1.89.03-2.83-.02-.95-.05-1.84-.09-2.69-.03-.85-.03-1.56,0-2.13.08-1.4.52-2.48,1.33-3.26.82-.77,1.71-1.19,2.7-1.24.98-.06,1.9.23,2.74.87.85.65,1.35,1.69,1.51,3.12.15,1.4.24,2.93.28,4.59s.06,3.3.06,4.93c0,1.62-.01,3.13-.03,4.53s-.01,2.53.03,3.4c.07,1.32-.26,2.31-1,2.95-.73.64-1.57,1.03-2.52,1.16-.94.13-1.83.05-2.66-.26-.83-.3-1.3-.73-1.42-1.3-.15-.64-.32-.99-.51-1.05-.18-.05-.49.18-.9.71-.64.79-1.53,1.34-2.67,1.64-1.13.31-2.31.35-3.54.14-1.22-.2-2.39-.64-3.51-1.3-1.11-.66-1.97-1.56-2.58-2.69Z" clip-rule="evenodd" stroke-linecap="round" stroke-linejoin="round" stroke-miterlimit="1.5"/></g></g></g></g></g></svg>