<svg id="ehr6vdlmO1z1" xmlns="http://www.w3.org/2000/svg" xmlns:xlink="http://www.w3.org/1999/xlink" viewBox="0 0 205 310" shape-rendering="geometricPrecision" text-rendering="geometricPrecision"><style><![CDATA[#ehr6vdlmO1z2_tr {animation: ehr6vdlmO1z2_tr__tr 500ms linear infinite alternate-reverse forwards}@keyframes ehr6vdlmO1z2_tr__tr { 0% {transform: translate(94.449625px,156.4158px) rotate(2.727176deg);animation-timing-function: cubic-bezier(0.42,0,0.58,1)} 100% {transform: translate(94.449625px,156.4158px) rotate(0.661238deg)}}]]></style><g id="ehr6vdlmO1z2_tr" transform="translate(94.449625,156.4158) rotate(0.661238)"><g transform="translate(-622.474624,-2433.4458)" clip-rule="evenodd"><g transform="matrix(1.4845 0 0 1-.005292 0)" clip-rule="evenodd"><g transform="matrix(.81905-.700058 0.31767 0.81905-869.2 848.027)" clip-rule="evenodd"><g transform="matrix(.673629 0 0 1 0.003565 0)" clip-rule="evenodd"><path d="M904,2385c0,0-10.419-50.01,40-31" clip-rule="evenodd" fill="#fff" fill-rule="evenodd" stroke="#000" stroke-width="12.7" stroke-linecap="round" stroke-linejoin="round" stroke-miterlimit="1.5"/></g><g transform="matrix(.673629 0 0 1 0.003565 0)" clip-rule="evenodd"><path d="M1001,2480c0,0,47.21,18.69,37.02-38" clip-rule="evenodd" fill="#fff" fill-rule="evenodd" stroke="#000" stroke-width="12.7" stroke-linecap="round" stroke-linejoin="round" stroke-miterlimit="1.5"/></g><g transform="matrix(.673629 0 0 1 0.003565 0)" clip-rule="evenodd"><path d="M906,2384c0,0,47.096-58.75,98-31c50.9,27.75,39.16,103.83,1,121-8.52,18.05-32.669,82.76-78,77-20.411,13.91-31.47,27.18-57,29-16.728,1.53-77.182,13.61-66-59-2.411-19.7-4.339-25.96,26-57.86c2.017-24.47-2.666-53.93,76-79.14Z" clip-rule="evenodd" fill="#fff" fill-rule="evenodd" stroke="#000" stroke-width="12.7" stroke-linecap="round" stroke-linejoin="round" stroke-miterlimit="1.5"/></g><g transform="matrix(.673629 0 0 1 0.003565 0)" clip-rule="evenodd"><path d="M832,2463.14c0,0,3.397,34.85,10,43.86" clip-rule="evenodd" fill="#fff" fill-rule="evenodd" stroke="#000" stroke-width="12.7" stroke-linecap="round" stroke-linejoin="round" stroke-miterlimit="1.5"/></g><g transform="matrix(.673629 0 0 1 0.003565 0)" clip-rule="evenodd"><path d="M802.63,2520c0,0,25.364,11.08,39.37,14" clip-rule="evenodd" fill="#fff" fill-rule="evenodd" stroke="#000" stroke-width="12.7" stroke-linecap="round" stroke-linejoin="round" stroke-miterlimit="1.5"/></g><g transform="matrix(.673629 0 0 1 0.003565 0)" clip-rule="evenodd"><path d="M842,2527c0,0,10.147,49.22,24,54.67" clip-rule="evenodd" fill="#fff" fill-rule="evenodd" stroke="#000" stroke-width="12.7" stroke-linecap="round" stroke-linejoin="round" stroke-miterlimit="1.5"/></g><g transform="matrix(.673629 0 0 1 0.003565 0)" clip-rule="evenodd"><path d="M904,2385c0,0,47.258,75.72,23,169.34" clip-rule="evenodd" fill="#fff" fill-rule="evenodd" stroke="#000" stroke-width="12.7" stroke-linecap="round" stroke-linejoin="round" stroke-miterlimit="1.5"/></g><g transform="matrix(.673629 0 0 1 0.003565 0)" clip-rule="evenodd"><path d="M933.926,2454c0,0,53.711,8.45,67.074,31.07" clip-rule="evenodd" fill="#fff" fill-rule="evenodd" stroke="#000" stroke-width="12.7" stroke-linecap="round" stroke-linejoin="round" stroke-miterlimit="1.5"/></g><g transform="matrix(.673629 0 0 1 0.003565 0)" clip-rule="evenodd"><path d="M1020.23,2367.34c0,0,7.54-15.12,17.79-17.65" clip-rule="evenodd" fill="#fff" fill-rule="evenodd" stroke="#000" stroke-width="12.7" stroke-linecap="round" stroke-linejoin="round" stroke-miterlimit="1.5"/></g><g transform="matrix(.673629 0 0 1 0.003565 0)" clip-rule="evenodd"><path d="M944,2385c0,0,14.848-4.02,15,7" clip-rule="evenodd" fill="#fff" fill-rule="evenodd" stroke="#000" stroke-width="12.7" stroke-linecap="round" stroke-linejoin="round" stroke-miterlimit="1.5"/></g><g transform="matrix(.673629 0 0 1 0.003565 0)" clip-rule="evenodd"><path d="M988,2424c-1.638-1.22,15.73-2.87,13,8" clip-rule="evenodd" fill="#fff" fill-rule="evenodd" stroke="#000" stroke-width="12.7" stroke-linecap="round" stroke-linejoin="round" stroke-miterlimit="1.5"/></g><g transform="matrix(.673629 0 0 1-6.19205 3.25098)" clip-rule="evenodd"><path d="M959,2413l12,11" clip-rule="evenodd" fill="none" fill-rule="evenodd" stroke="#000" stroke-width="12.7" stroke-linecap="round" stroke-linejoin="round" stroke-miterlimit="1.5"/></g><g transform="matrix(.617687 0.527949-.355642 0.916953 1098.61-96.3737)" clip-rule="evenodd"><path d="M543.785,2420.97c0,0,73.669,25.65,115.092,107.9" clip-rule="evenodd" fill="none" fill-rule="evenodd" stroke="#000" stroke-width="12" stroke-linecap="round" stroke-linejoin="round" stroke-miterlimit="1.5"/></g></g></g></g></g></svg>