<?xml version="1.0" encoding="UTF-8" standalone="no"?>
<!DOCTYPE svg PUBLIC "-//W3C//DTD SVG 1.1//EN" "http://www.w3.org/Graphics/SVG/1.1/DTD/svg11.dtd">
<svg width="100%" height="100%" viewBox="0 0 189 215" version="1.1" xmlns="http://www.w3.org/2000/svg" xmlns:xlink="http://www.w3.org/1999/xlink" xml:space="preserve" xmlns:serif="http://www.serif.com/" style="fill-rule:evenodd;clip-rule:evenodd;stroke-linecap:round;stroke-linejoin:round;stroke-miterlimit:1.5;">
    <g transform="matrix(1,0,0,1,-227,-2233)">
        <g transform="matrix(1.4845,0,0,1,-0.00529172,0)">
            <g id="one-guy-hurt" transform="matrix(1,0,0,1,-947.137,182)">
                <g transform="matrix(0.673629,0,0,1,0.00356466,0)">
                    <path d="M1681.13,2262.32C1681.13,2262.32 1660.4,2259.54 1650,2255C1639.6,2250.46 1629.1,2194.28 1652,2217.07C1661.93,2202.6 1687.59,2177.27 1694.49,2148.44C1701.38,2119.62 1725.1,2088.07 1763.39,2094C1757.4,2080.2 1746.8,2046.39 1803,2060C1817.69,2078.38 1822.35,2089.35 1813,2101C1795.73,2108.11 1806.4,2101.86 1795,2108C1792.34,2125.27 1793.31,2150.69 1758,2177.93C1719.14,2225.44 1702.11,2246 1702.11,2246C1702.11,2246 1698.76,2264.25 1681.13,2262.32Z" style="fill:white;"/>
                </g>
                <g transform="matrix(0.673629,0,0,1,0.00356466,0)">
                    <path d="M1788.84,2052.1C1784.11,2052.76 1777.41,2053.31 1771.38,2054.9C1766.88,2056.09 1762.74,2057.88 1759.78,2060.53C1748.78,2070.4 1751.2,2085.4 1760.74,2095.06C1772.54,2107.03 1789.91,2111.8 1806.31,2110.4C1811.06,2109.99 1814.62,2106.92 1816.99,2102.56C1819.97,2097.08 1820.99,2089.55 1820.78,2084.91C1820.03,2068.73 1808.25,2049.36 1788.84,2052.1ZM1789.82,2059.03C1797.08,2058 1802.79,2061.26 1806.8,2066.22C1811.09,2071.53 1813.49,2078.75 1813.78,2085.23C1813.95,2088.9 1813.2,2094.88 1810.84,2099.22C1809.66,2101.4 1808.09,2103.22 1805.72,2103.42C1791.34,2104.65 1776.07,2100.63 1765.72,2090.15C1758.98,2083.31 1756.67,2072.73 1764.46,2065.74C1766.66,2063.76 1769.81,2062.55 1773.17,2061.67C1778.92,2060.15 1785.31,2059.66 1789.82,2059.03Z"/>
                </g>
                <g transform="matrix(0.673629,0,0,1,0.00356466,0)">
                    <circle cx="1800.8" cy="2076" r="4"/>
                </g>
                <g transform="matrix(0.673629,0,0,1,-13.3912,-9.31067)">
                    <circle cx="1800.8" cy="2076" r="4"/>
                </g>
                <g transform="matrix(0.673629,0,0,1,947.14,-182)">
                    <path d="M370,2261C371.048,2260.21 378.191,2264.8 383,2270" style="fill:none;stroke:black;stroke-width:7px;"/>
                </g>
                <g transform="matrix(0.673629,0,0,1,0.00356466,0)">
                    <path d="M1651.38,2211.09C1650.73,2210.92 1650.07,2210.67 1649.4,2210.43C1647.66,2209.81 1645.91,2209.18 1644.25,2208.96C1641.09,2208.54 1638.15,2209.25 1635.77,2212.84C1632.55,2217.7 1632.79,2223.36 1634.85,2229.11C1637.4,2236.17 1642.84,2243.39 1645.36,2248.7C1645.85,2249.72 1647.44,2254.95 1648.9,2257.32C1649.79,2258.77 1650.89,2259.56 1651.71,2259.86C1655.03,2261.05 1658.65,2260.62 1662.02,2261.5C1670.74,2263.78 1678.21,2266.73 1687.48,2265.54C1689.23,2265.31 1694.78,2264.1 1697.99,2262.28C1700.51,2260.85 1701.77,2258.82 1701.83,2257.01C1702.36,2241.93 1689.27,2222.95 1677.17,2214.91C1673.63,2212.56 1668.2,2210.34 1663.6,2210.32C1662.33,2210.31 1661.12,2210.47 1660,2210.79C1660.11,2210.62 1660.2,2210.48 1660.26,2210.39C1665.51,2203.1 1672.28,2197.05 1677.62,2189.82C1685.78,2178.75 1689.99,2165.15 1695.09,2152.55C1699.42,2141.86 1705.89,2131.49 1712.4,2121.98C1718.25,2113.44 1725.12,2105.24 1734.84,2101.12C1744.05,2097.22 1752.95,2097.77 1762.75,2097.48C1764.68,2097.42 1766.2,2095.81 1766.14,2093.88C1766.08,2091.95 1764.47,2090.43 1762.54,2090.48C1751.85,2090.8 1742.16,2090.41 1732.11,2094.68C1721.14,2099.33 1713.23,2108.39 1706.63,2118.02C1699.84,2127.94 1693.12,2138.77 1688.6,2149.93C1683.72,2161.99 1679.8,2175.07 1671.99,2185.66C1666.63,2192.92 1659.85,2198.99 1654.58,2206.3C1654.21,2206.82 1652.28,2209.72 1651.38,2211.09ZM1694.85,2255.96C1694.81,2243.13 1683.49,2227.52 1673.29,2220.74C1671.21,2219.35 1668.26,2217.99 1665.42,2217.49C1663.63,2217.18 1661.87,2217.07 1660.74,2218.16C1660,2218.88 1659.68,2220.05 1659.61,2221.69C1659.54,2223.32 1659.58,2225.05 1660,2226.64C1663.17,2238.59 1671.25,2247.43 1679.7,2256.08C1680.42,2256.81 1680.75,2257.78 1680.69,2258.74C1682.58,2258.88 1684.53,2258.86 1686.58,2258.6C1687.74,2258.45 1691.06,2257.76 1693.55,2256.67C1693.97,2256.49 1694.51,2256.17 1694.85,2255.96ZM1653.05,2218.24C1652.88,2218.26 1652.72,2218.27 1652.58,2218.27C1650.37,2218.25 1647.94,2217.32 1645.58,2216.51C1644.13,2216 1642.65,2215.13 1641.61,2216.71C1639.02,2220.61 1640.58,2225.29 1642.77,2229.9C1645.53,2235.68 1649.61,2241.34 1651.68,2245.69C1652.01,2246.38 1652.83,2248.98 1653.77,2251.32C1654.07,2252.06 1654.55,2253.01 1654.8,2253.5C1657.73,2254.33 1660.86,2253.96 1663.79,2254.73C1666.13,2255.34 1668.37,2256.03 1670.58,2256.66C1662.92,2248.42 1656.2,2239.62 1653.24,2228.43C1652.64,2226.17 1652.51,2223.7 1652.62,2221.38C1652.67,2220.22 1652.82,2219.18 1653.05,2218.24Z"/>
                </g>
                <g transform="matrix(0.673629,0,0,1,0.00356466,0)">
                    <path d="M1703.38,2249.44C1710.14,2240.07 1718.95,2232.41 1725.81,2223.12C1734.44,2211.42 1741.65,2199.58 1751.72,2188.93C1763.89,2176.06 1780.16,2164.19 1788.86,2148.57C1794.86,2137.8 1796.86,2121.73 1797.09,2109.59C1797.12,2107.66 1795.58,2106.06 1793.65,2106.03C1791.72,2105.99 1790.12,2107.53 1790.09,2109.46C1789.88,2120.57 1788.24,2135.31 1782.75,2145.17C1774.32,2160.29 1758.42,2171.66 1746.63,2184.12C1736.36,2194.98 1728.98,2207.03 1720.17,2218.97C1713.31,2228.28 1704.48,2235.95 1697.7,2245.35C1696.57,2246.91 1696.93,2249.1 1698.49,2250.23C1700.06,2251.36 1702.25,2251.01 1703.38,2249.44Z"/>
                </g>
                <g transform="matrix(0.673629,0,0,1,0.00356466,0)">
                    <path d="M1683.88,2219.24C1687.46,2214.73 1691.49,2210.43 1694.03,2205.21C1699.6,2193.75 1700.18,2179.55 1701.46,2166.99C1701.65,2165.07 1700.25,2163.35 1698.33,2163.16C1696.41,2162.96 1694.69,2164.36 1694.49,2166.28C1693.29,2178.05 1692.95,2191.41 1687.73,2202.15C1685.42,2206.91 1681.66,2210.78 1678.39,2214.89C1677.19,2216.41 1677.44,2218.61 1678.96,2219.81C1680.47,2221.01 1682.67,2220.76 1683.88,2219.24Z"/>
                </g>
                <g transform="matrix(0.673629,0,0,1,0.00356466,0)">
                    <path d="M1687.38,2165.29C1707.38,2168.63 1724.55,2179.6 1736.24,2196.04C1737.36,2197.61 1739.55,2197.98 1741.12,2196.86C1742.69,2195.74 1743.06,2193.56 1741.94,2191.98C1729.16,2174.02 1710.39,2162.03 1688.54,2158.39C1686.63,2158.07 1684.83,2159.36 1684.51,2161.26C1684.19,2163.17 1685.48,2164.97 1687.38,2165.29Z"/>
                </g>
                <g transform="matrix(0.673629,0,0,1,0.00356466,0)">
                    <path d="M1694.7,2152.57C1699.51,2152.27 1704.78,2151.33 1709.58,2152.45C1728.57,2156.87 1735.11,2171.38 1743.26,2187.45C1744.13,2189.17 1746.24,2189.86 1747.96,2188.99C1749.68,2188.11 1750.37,2186 1749.5,2184.28C1740.37,2166.27 1732.45,2150.58 1711.17,2145.63C1705.71,2144.36 1699.73,2145.25 1694.27,2145.58C1692.34,2145.7 1690.87,2147.36 1690.99,2149.29C1691.11,2151.22 1692.77,2152.68 1694.7,2152.57Z"/>
                </g>
                <g transform="matrix(0.673629,0,0,1,0.00356466,0)">
                    <path d="M1702.05,2140.23C1724.48,2140.6 1747.7,2151.13 1760.48,2170.3C1761.55,2171.9 1763.73,2172.34 1765.34,2171.27C1766.94,2170.2 1767.38,2168.02 1766.31,2166.41C1752.26,2145.35 1726.81,2133.64 1702.16,2133.24C1700.23,2133.2 1698.64,2134.75 1698.61,2136.68C1698.58,2138.61 1700.12,2140.2 1702.05,2140.23Z"/>
                </g>
                <g transform="matrix(0.673629,0,0,1,0.00356466,0)">
                    <path d="M1714.53,2120.7C1736.49,2124.87 1757.8,2139.2 1772.74,2155.71C1774.03,2157.15 1776.25,2157.26 1777.68,2155.96C1779.11,2154.67 1779.22,2152.45 1777.93,2151.02C1762.01,2133.42 1739.24,2118.26 1715.84,2113.82C1713.94,2113.46 1712.11,2114.71 1711.75,2116.6C1711.38,2118.5 1712.63,2120.34 1714.53,2120.7Z"/>
                </g>
                <g transform="matrix(0.673629,0,0,1,0.00356466,0)">
                    <path d="M1730.03,2104.81C1750.01,2108.87 1771.2,2120.54 1783.87,2137.25C1785.04,2138.79 1787.24,2139.09 1788.78,2137.92C1790.32,2136.76 1790.62,2134.56 1789.45,2133.02C1775.78,2114.99 1752.97,2102.33 1731.43,2097.95C1729.54,2097.57 1727.69,2098.79 1727.3,2100.68C1726.92,2102.58 1728.14,2104.43 1730.03,2104.81Z"/>
                </g>
                <g transform="matrix(0.673629,0,0,1,947.14,-182)">
                    <path d="M411.798,2264.27C411.798,2264.27 399.004,2265.79 400,2270.26" style="fill:none;stroke:black;stroke-width:7px;"/>
                </g>
                <g transform="matrix(0.673629,0,0,1,947.14,-182)">
                    <path d="M351,2262C351,2262 353.423,2261.53 360,2266" style="fill:none;stroke:black;stroke-width:7px;"/>
                </g>
                <g transform="matrix(0.673629,0,0,1,947.14,-182)">
                    <path d="M311,2409C311,2409 306.011,2398.78 304,2389" style="fill:none;stroke:black;stroke-width:7px;"/>
                </g>
            </g>
        </g>
    </g>
</svg>
