<svg id="eFniwOoNf3q1" xmlns="http://www.w3.org/2000/svg" xmlns:xlink="http://www.w3.org/1999/xlink" viewBox="0 0 318 276" shape-rendering="geometricPrecision" text-rendering="geometricPrecision"><style><![CDATA[#eFniwOoNf3q14_ts {animation: eFniwOoNf3q14_ts__ts 500ms linear infinite alternate-reverse forwards}@keyframes eFniwOoNf3q14_ts__ts { 0% {transform: translate(1779.22998px,2083.22998px) scale(1,1);animation-timing-function: cubic-bezier(0.42,0,0.58,1)} 100% {transform: translate(1779.22998px,2083.22998px) scale(1.34441,1.304326)}} #eFniwOoNf3q33_to {animation: eFniwOoNf3q33_to__to 500ms linear infinite alternate-reverse forwards}@keyframes eFniwOoNf3q33_to__to { 0% {transform: translate(75.486981px,-372.916px);animation-timing-function: cubic-bezier(0.42,0,0.58,1)} 100% {transform: translate(72.792473px,-370.916px)}} #eFniwOoNf3q39_to {animation: eFniwOoNf3q39_to__to 500ms linear infinite alternate-reverse forwards}@keyframes eFniwOoNf3q39_to__to { 0% {transform: translate(1779.249878px,2379.052735px);animation-timing-function: cubic-bezier(0.42,0,0.58,1)} 100% {transform: translate(1776.69055px,2380.332407px)}} #eFniwOoNf3q50_to {animation: eFniwOoNf3q50_to__to 500ms linear infinite alternate-reverse forwards}@keyframes eFniwOoNf3q50_to__to { 0% {transform: translate(1840.172424px,2379.5271px);animation-timing-function: cubic-bezier(0.42,0,0.58,1)} 100% {transform: translate(1835.6936px,2380.806772px)}}]]></style><g transform="translate(-1524.25-2361.66)" clip-rule="evenodd"><g transform="matrix(1.4845 0 0 1-.005292 0)" clip-rule="evenodd"><g transform="translate(-73.4661 370.916)" clip-rule="evenodd"><g transform="matrix(.673629 0 0 1 0.003565 0)" clip-rule="evenodd"><path d="M1681.13,2262.32c0,0-20.73-2.78-31.13-7.32s-20.9-60.72,2-37.93c9.93-14.47,35.59-39.8,42.49-68.63c6.89-28.82,30.61-60.37,68.9-54.44-5.99-13.8-16.59-47.61,39.61-34c14.69,18.38,19.35,29.35,10,41-17.27,7.11-6.6.86-18,7-2.66,17.27-1.69,42.69-37,69.93-38.86,47.51-55.89,68.07-55.89,68.07s-3.35,18.25-20.98,16.32Z" clip-rule="evenodd" fill="#fff" fill-rule="evenodd" stroke-linecap="round" stroke-linejoin="round" stroke-miterlimit="1.5"/></g><g transform="matrix(.673629 0 0 1 0.003565 0)" clip-rule="evenodd"><path d="M1788.84,2052.1c-4.73.66-11.43,1.21-17.46,2.8-4.5,1.19-8.64,2.98-11.6,5.63-11,9.87-8.58,24.87.96,34.53c11.8,11.97,29.17,16.74,45.57,15.34c4.75-.41,8.31-3.48,10.68-7.84c2.98-5.48,4-13.01,3.79-17.65-.75-16.18-12.53-35.55-31.94-32.81Zm.98,6.93c7.26-1.03,12.97,2.23,16.98,7.19c4.29,5.31,6.69,12.53,6.98,19.01.17,3.67-.58,9.65-2.94,13.99-1.18,2.18-2.75,4-5.12,4.2-14.38,1.23-29.65-2.79-40-13.27-6.74-6.84-9.05-17.42-1.26-24.41c2.2-1.98,5.35-3.19,8.71-4.07c5.75-1.52,12.14-2.01,16.65-2.64v0Z" clip-rule="evenodd" fill-rule="evenodd" stroke-linecap="round" stroke-linejoin="round" stroke-miterlimit="1.5"/></g><g transform="matrix(.673629 0 0 1 0.003565 0)" clip-rule="evenodd"><circle r="4" transform="translate(1800.8 2076)" clip-rule="evenodd" fill-rule="evenodd" stroke-linecap="round" stroke-linejoin="round" stroke-miterlimit="1.5"/></g><g transform="matrix(.673629 0 0 1-13.3912-9.31067)" clip-rule="evenodd"><circle r="4" transform="translate(1800.8 2076)" clip-rule="evenodd" fill-rule="evenodd" stroke-linecap="round" stroke-linejoin="round" stroke-miterlimit="1.5"/></g><g transform="matrix(.673629 0 0 1 0.003565 0)" clip-rule="evenodd"><g id="eFniwOoNf3q14_ts" transform="translate(1779.22998,2083.22998) scale(1.34441,1.304326)"><circle r="4.229" transform="translate(0.00002,0.00002)" clip-rule="evenodd" fill-rule="evenodd" stroke="#000" stroke-width="7" stroke-linecap="round" stroke-linejoin="round" stroke-miterlimit="1.5"/></g></g><g transform="matrix(.673629 0 0 1 0.003565 0)" clip-rule="evenodd"><path d="M1651.38,2211.09c-.65-.17-1.31-.42-1.98-.66-1.74-.62-3.49-1.25-5.15-1.47-3.16-.42-6.1.29-8.48,3.88-3.22,4.86-2.98,10.52-.92,16.27c2.55,7.06,7.99,14.28,10.51,19.59.49,1.02,2.08,6.25,3.54,8.62.89,1.45,1.99,2.24,2.81,2.54c3.32,1.19,6.94.76,10.31,1.64c8.72,2.28,16.19,5.23,25.46,4.04c1.75-.23,7.3-1.44,10.51-3.26c2.52-1.43,3.78-3.46,3.84-5.27.53-15.08-12.56-34.06-24.66-42.1-3.54-2.35-8.97-4.57-13.57-4.59-1.27-.01-2.48.15-3.6.47.11-.17.2-.31.26-.4c5.25-7.29,12.02-13.34,17.36-20.57c8.16-11.07,12.37-24.67,17.47-37.27c4.33-10.69,10.8-21.06,17.31-30.57c5.85-8.54,12.72-16.74,22.44-20.86c9.21-3.9,18.11-3.35,27.91-3.64c1.93-.06,3.45-1.67,3.39-3.6s-1.67-3.45-3.6-3.4c-10.69.32-20.38-.07-30.43,4.2-10.97,4.65-18.88,13.71-25.48,23.34-6.79,9.92-13.51,20.75-18.03,31.91-4.88,12.06-8.8,25.14-16.61,35.73-5.36,7.26-12.14,13.33-17.41,20.64-.37.52-2.3,3.42-3.2,4.79Zm43.47,44.87c-.04-12.83-11.36-28.44-21.56-35.22-2.08-1.39-5.03-2.75-7.87-3.25-1.79-.31-3.55-.42-4.68.67-.74.72-1.06,1.89-1.13,3.53-.07,1.63-.03,3.36.39,4.95c3.17,11.95,11.25,20.79,19.7,29.44.72.73,1.05,1.7.99,2.66c1.89.14,3.84.12,5.89-.14c1.16-.15,4.48-.84,6.97-1.93.42-.18.96-.5,1.3-.71Zm-41.8-37.72c-.17.02-.33.03-.47.03-2.21-.02-4.64-.95-7-1.76-1.45-.51-2.93-1.38-3.97.2-2.59,3.9-1.03,8.58,1.16,13.19c2.76,5.78,6.84,11.44,8.91,15.79.33.69,1.15,3.29,2.09,5.63.3.74.78,1.69,1.03,2.18c2.93.83,6.06.46,8.99,1.23c2.34.61,4.58,1.3,6.79,1.93-7.66-8.24-14.38-17.04-17.34-28.23-.6-2.26-.73-4.73-.62-7.05.05-1.16.2-2.2.43-3.14Z" clip-rule="evenodd" fill-rule="evenodd" stroke-linecap="round" stroke-linejoin="round" stroke-miterlimit="1.5"/></g><g transform="matrix(.673629 0 0 1 0.003565 0)" clip-rule="evenodd"><path d="M1703.38,2249.44c6.76-9.37,15.57-17.03,22.43-26.32c8.63-11.7,15.84-23.54,25.91-34.19c12.17-12.87,28.44-24.74,37.14-40.36c6-10.77,8-26.84,8.23-38.98.03-1.93-1.51-3.53-3.44-3.56-1.93-.04-3.53,1.5-3.56,3.43-.21,11.11-1.85,25.85-7.34,35.71-8.43,15.12-24.33,26.49-36.12,38.95-10.27,10.86-17.65,22.91-26.46,34.85-6.86,9.31-15.69,16.98-22.47,26.38-1.13,1.56-.77,3.75.79,4.88c1.57,1.13,3.76.78,4.89-.79Z" clip-rule="evenodd" fill-rule="evenodd" stroke-linecap="round" stroke-linejoin="round" stroke-miterlimit="1.5"/></g><g transform="matrix(.673629 0 0 1 0.003565 0)" clip-rule="evenodd"><path d="M1683.88,2219.24c3.58-4.51,7.61-8.81,10.15-14.03c5.57-11.46,6.15-25.66,7.43-38.22.19-1.92-1.21-3.64-3.13-3.83-1.92-.2-3.64,1.2-3.84,3.12-1.2,11.77-1.54,25.13-6.76,35.87-2.31,4.76-6.07,8.63-9.34,12.74-1.2,1.52-.95,3.72.57,4.92c1.51,1.2,3.71.95,4.92-.57Z" clip-rule="evenodd" fill-rule="evenodd" stroke-linecap="round" stroke-linejoin="round" stroke-miterlimit="1.5"/></g><g transform="matrix(.673629 0 0 1 0.003565 0)" clip-rule="evenodd"><path d="M1687.38,2165.29c20,3.34,37.17,14.31,48.86,30.75c1.12,1.57,3.31,1.94,4.88.82s1.94-3.3.82-4.88c-12.78-17.96-31.55-29.95-53.4-33.59-1.91-.32-3.71.97-4.03,2.87-.32,1.91.97,3.71,2.87,4.03Z" clip-rule="evenodd" fill-rule="evenodd" stroke-linecap="round" stroke-linejoin="round" stroke-miterlimit="1.5"/></g><g transform="matrix(.673629 0 0 1 0.003565 0)" clip-rule="evenodd"><path d="M1694.7,2152.57c4.81-.3,10.08-1.24,14.88-.12c18.99,4.42,25.53,18.93,33.68,35c.87,1.72,2.98,2.41,4.7,1.54c1.72-.88,2.41-2.99,1.54-4.71-9.13-18.01-17.05-33.7-38.33-38.65-5.46-1.27-11.44-.38-16.9-.05-1.93.12-3.4,1.78-3.28,3.71s1.78,3.39,3.71,3.28Z" clip-rule="evenodd" fill-rule="evenodd" stroke-linecap="round" stroke-linejoin="round" stroke-miterlimit="1.5"/></g><g transform="matrix(.673629 0 0 1 0.003565 0)" clip-rule="evenodd"><path d="M1702.05,2140.23c22.43.37,45.65,10.9,58.43,30.07c1.07,1.6,3.25,2.04,4.86.97c1.6-1.07,2.04-3.25.97-4.86-14.05-21.06-39.5-32.77-64.15-33.17-1.93-.04-3.52,1.51-3.55,3.44s1.51,3.52,3.44,3.55Z" clip-rule="evenodd" fill-rule="evenodd" stroke-linecap="round" stroke-linejoin="round" stroke-miterlimit="1.5"/></g><g transform="matrix(.673629 0 0 1 0.003565 0)" clip-rule="evenodd"><path d="M1714.53,2120.7c21.96,4.17,43.27,18.5,58.21,35.01c1.29,1.44,3.51,1.55,4.94.25c1.43-1.29,1.54-3.51.25-4.94-15.92-17.6-38.69-32.76-62.09-37.2-1.9-.36-3.73.89-4.09,2.78-.37,1.9.88,3.74,2.78,4.1Z" clip-rule="evenodd" fill-rule="evenodd" stroke-linecap="round" stroke-linejoin="round" stroke-miterlimit="1.5"/></g><g transform="matrix(.673629 0 0 1 0.003565 0)" clip-rule="evenodd"><path d="M1730.03,2104.81c19.98,4.06,41.17,15.73,53.84,32.44c1.17,1.54,3.37,1.84,4.91.67c1.54-1.16,1.84-3.36.67-4.9-13.67-18.03-36.48-30.69-58.02-35.07-1.89-.38-3.74.84-4.13,2.73-.38,1.9.84,3.75,2.73,4.13Z" clip-rule="evenodd" fill-rule="evenodd" stroke-linecap="round" stroke-linejoin="round" stroke-miterlimit="1.5"/></g><g transform="matrix(.673629 0 0 1 80.2059-360.254)" clip-rule="evenodd"><path d="M1667,2414l52,35-55-37.28c-2.09,2.56,47.88-20.44,35.47,24.13" clip-rule="evenodd" fill-rule="evenodd" stroke="#000" stroke-width="7" stroke-linecap="round" stroke-linejoin="round" stroke-miterlimit="1.5"/></g><g id="eFniwOoNf3q33_to" transform="translate(72.792473,-370.916)"><g transform="translate(0,0)" clip-rule="evenodd"><g transform="matrix(.673629 0 0 1-4.71184 6)" clip-rule="evenodd"><path d="M1745,2394c0,0-11.31,5.13-13,11" clip-rule="evenodd" fill="none" fill-rule="evenodd" stroke="#000" stroke-width="7" stroke-linecap="round" stroke-linejoin="round" stroke-miterlimit="1.5"/></g><g transform="matrix(.673629 0 0 1-4.71184 6)" clip-rule="evenodd"><path d="M1727,2396.41l1,13.59l14.05-1.9" clip-rule="evenodd" fill="none" fill-rule="evenodd" stroke="#000" stroke-width="7" stroke-linecap="round" stroke-linejoin="round" stroke-miterlimit="1.5"/></g></g></g><g transform="matrix(1.05282 0 0 1.5629-652.914-1714.97)" clip-rule="evenodd"><g id="eFniwOoNf3q39_to" transform="translate(1776.69055,2380.332407)"><g transform="translate(-1779.249878,-2379.052735)"><g transform="matrix(22.6629 0 0 22.6629 1757 2387)" clip-rule="evenodd"><path d="M0.126,-0.087c0-.01,0-.026,0-.049-.001-.023-.001-.047-.001-.074-.001-.026-.001-.052-.001-.078-.001-.025-.001-.046-.001-.062c0-.012-.002-.022-.007-.029s-.016-.011-.031-.012c-.017-.001-.03-.006-.037-.016s-.011-.021-.01-.033.005-.023.013-.033c.007-.009.018-.014.031-.014.01,0,.02,0,.029.001s.015-.003.016-.011c.003-.019.004-.036.005-.051c0-.015,0-.027,0-.037c0-.031.008-.056.024-.075.015-.018.035-.031.058-.038s.048-.008.075-.004c.027.005.051.014.074.029.01.006.016.016.018.029s.001.026-.004.038-.014.022-.025.028c-.012.007-.027.008-.045.002-.025-.009-.036.003-.035.037c0,.003,0,.007.001.012c0,.005.001.009.002.014s.002.009.005.012c.003.004.007.006.012.007.006.001.012.003.018.004.005.002.01.005.015.009.005.005.008.011.011.018.002.007.003.017.003.029s-.002.021-.005.028-.008.013-.013.016c-.006.003-.013.006-.02.007s-.015.002-.024.003c-.005.001-.008.006-.008.015-.001.009-.001.017-.001.024.001.021.001.042.002.062c0,.02,0,.04,0,.059c0,.02,0,.04,0,.061-.001.021-.001.043-.001.066-.001.023-.004.042-.011.055-.007.014-.016.024-.026.03-.011.006-.022.008-.034.006-.012-.001-.023-.006-.034-.013s-.019-.016-.026-.029-.011-.027-.012-.043Z" clip-rule="evenodd" stroke-linecap="round" stroke-linejoin="round" stroke-miterlimit="1.5"/></g><g transform="matrix(22.6629 0 0 22.6629 1766.31 2387)" clip-rule="evenodd"><path d="M0.217,-0.271c.001.017.001.036.002.056s.001.04,0,.06-.002.04-.005.059c-.003.02-.006.038-.011.055-.003.012-.009.021-.017.027-.009.007-.018.011-.028.013s-.02.003-.031.002c-.011-.002-.02-.003-.028-.006s-.015-.01-.021-.022c-.006-.011-.011-.024-.014-.039s-.006-.029-.008-.044-.003-.027-.003-.036c-.001-.012-.001-.029-.002-.05s-.001-.043,0-.067c.001-.023.002-.047.004-.07s.006-.044.011-.061c.005-.019.014-.033.027-.042.012-.009.025-.014.039-.014.013.001.026.006.039.015.013.01.022.025.029.044.005.017.009.036.012.058.002.023.004.043.005.062Zm-.021-.32c.001.017-.002.031-.009.042s-.017.02-.027.026c-.011.006-.023.009-.036.009-.013.001-.025-.002-.036-.007s-.02-.012-.027-.023-.011-.024-.01-.041c-.001-.016.003-.03.01-.041.007-.01.015-.019.026-.025s.022-.009.035-.01c.012-.001.023.001.034.006s.02.013.028.024c.007.011.011.024.012.04Z" clip-rule="evenodd" stroke-linecap="round" stroke-linejoin="round" stroke-miterlimit="1.5"/></g><g transform="matrix(22.6629 0 0 22.6629 1772.64 2387)" clip-rule="evenodd"><path d="M0.34,-0.431c.007.007.014.016.019.028.005.013.007.025.007.038s-.003.025-.01.036-.017.017-.032.019c-.004.001-.011.001-.02.002-.01.001-.02.003-.031.004s-.022.003-.031.004c-.01.002-.016.004-.019.006-.007.003-.011.014-.014.033s-.005.041-.006.064-.001.046,0,.068c0,.023,0,.039,0,.048c0,.018-.004.033-.011.045-.007.013-.017.022-.027.028-.011.007-.024.01-.036.011-.013,0-.025-.003-.036-.01-.011-.006-.019-.016-.026-.029-.008-.013-.011-.029-.01-.049.001-.023.001-.051.002-.086c0-.035,0-.069.001-.104c0-.034.001-.064.003-.092.001-.027.004-.043.007-.05.005-.01.013-.018.022-.024.008-.005.018-.009.029-.011.01-.001.02-.001.032,0c.011.002.02.005.029.01s.014.009.015.014.002.01.004.015c.001.003.007.002.018-.003.01-.005.022-.011.036-.017.014-.005.029-.009.044-.011.015-.001.029.003.041.013Z" clip-rule="evenodd" stroke-linecap="round" stroke-linejoin="round" stroke-miterlimit="1.5"/></g><g transform="matrix(22.6629 0 0 22.6629 1781.36 2387)" clip-rule="evenodd"><path d="M0.339,-0.346c-.005.019-.014.031-.029.035-.015.005-.031.002-.048-.008-.006-.003-.013-.007-.02-.012-.007-.004-.015-.008-.022-.011s-.014-.004-.02-.003-.01.004-.013.011c-.005.012,0,.021.015.028s.033.014.055.023c.036.013.061.033.076.06s.019.06.014.097c-.003.022-.01.041-.021.056-.011.016-.024.029-.039.04-.016.011-.034.018-.053.023s-.039.007-.06.007c-.037-.001-.067-.013-.09-.037-.023-.023-.034-.052-.033-.088.001-.013.004-.024.01-.034s.014-.017.023-.022c.009-.004.018-.005.029-.003.01.002.02.008.03.019.016.017.032.027.047.03s.025.001.028-.004c.006-.01.005-.02-.002-.03-.007-.009-.016-.018-.027-.025s-.023-.014-.034-.019-.018-.008-.02-.009c-.017-.008-.032-.017-.044-.028-.013-.011-.021-.026-.026-.047-.008-.039-.003-.071.015-.096.018-.024.045-.043.082-.056.009-.003.02-.006.033-.007.013,0,.027,0,.042.001.015.002.029.005.043.01s.026.012.036.021.017.019.022.032.005.029.001.046Z" clip-rule="evenodd" stroke-linecap="round" stroke-linejoin="round" stroke-miterlimit="1.5"/></g><g transform="matrix(22.6629 0 0 22.6629 1790.29 2387)" clip-rule="evenodd"><path d="M0.292,-0.001c-.023.002-.046.001-.067-.003-.021-.003-.038-.01-.049-.021-.011-.009-.019-.021-.025-.034-.006-.012-.011-.027-.014-.043-.003-.015-.006-.032-.007-.049s-.002-.035-.002-.053c-.001-.025-.002-.051-.003-.078s-.003-.053-.004-.078c-.001-.011-.003-.019-.008-.024s-.01-.008-.017-.01-.013-.003-.02-.003-.014-.001-.019-.003c-.008-.003-.014-.009-.018-.021-.005-.011-.007-.022-.006-.035s.004-.025.009-.036.013-.017.024-.02c.005-.001.01-.001.017-.002s.013-.002.02-.003c.006-.001.011-.003.016-.006.004-.003.006-.007.006-.013c0-.019,0-.036.001-.053.001-.016.003-.03.008-.042s.012-.022.023-.029c.01-.007.025-.012.044-.013.013-.001.023.002.032.008.008.006.015.014.02.023s.009.02.012.031c.002.011.003.022.003.033c0,.013.001.024.003.032.001.008.004.014.009.018s.011.006.018.007.017.002.028.002c.012,0,.021.006.026.019s.008.027.007.042c-.001.016-.006.031-.013.044-.008.014-.019.021-.033.022-.011.001-.02.002-.027.003-.007.002-.012.005-.015.009-.004.004-.007.009-.008.016s-.002.017-.002.029v.032c0,.012,0,.024.001.036c0,.012.001.024.002.035.001.012.003.023.006.032.003.011.007.021.011.028s.009.012.014.013.012,0,.019-.005.015-.013.024-.026c.012-.016.026-.024.041-.023s.028.005.041.014.023.021.03.035c.007.015.009.027.004.038-.005.012-.012.025-.02.039s-.018.027-.031.039-.029.022-.047.031-.039.014-.064.016Z" clip-rule="evenodd" stroke-linecap="round" stroke-linejoin="round" stroke-miterlimit="1.5"/></g></g></g><g id="eFniwOoNf3q50_to" transform="translate(1835.6936,2380.806772)"><g transform="translate(-1840.172424,-2379.5271)"><g transform="matrix(22.6629 0 0 22.6629 1810.76 2387)" clip-rule="evenodd"><path d="M0.318,-0.434c.016.005.031.013.045.022.013.01.022.024.025.041.001.006,0,.013-.002.021-.003.009-.007.017-.012.024s-.012.013-.021.017c-.009.005-.019.006-.031.003s-.026-.005-.041-.007c-.016-.001-.031-.001-.045.002-.015.003-.027.01-.036.021-.01.011-.015.027-.015.049c0,.025.004.044.011.058s.017.024.028.029.024.007.039.004c.014-.003.028-.008.041-.016.02-.012.037-.017.051-.015.014.003.025.01.032.02.007.011.011.025.011.041-.001.016-.005.032-.013.047-.009.016-.021.029-.037.04-.017.011-.035.019-.054.024-.02.005-.04.008-.06.008-.02.001-.038-.001-.055-.005-.021-.006-.04-.015-.055-.027-.016-.012-.029-.026-.039-.042-.011-.016-.019-.034-.024-.054-.005-.019-.009-.039-.011-.06-.001-.015-.001-.033.001-.055.001-.021.005-.043.012-.066s.016-.045.028-.066.028-.037.049-.051c.02-.013.045-.02.074-.023s.064.003.104.016Z" clip-rule="evenodd" stroke-linecap="round" stroke-linejoin="round" stroke-miterlimit="1.5"/></g><g transform="matrix(22.6629 0 0 22.6629 1820.12 2387)" clip-rule="evenodd"><path d="M0.052,-0.226c.001-.036.006-.068.017-.097.011-.028.025-.052.044-.072s.041-.035.067-.045.055-.015.088-.014c.031.001.059.01.084.027.024.018.044.039.061.064s.029.053.038.083c.008.03.011.059.01.086-.003.069-.022.118-.056.148-.035.031-.086.046-.153.046-.027,0-.052-.004-.077-.013s-.046-.022-.064-.041c-.019-.019-.033-.042-.044-.071-.011-.028-.016-.062-.015-.101Zm.145-.017c-.003.025.002.044.014.059s.026.023.043.026c.016.003.032,0,.047-.01.015-.009.025-.026.028-.051s-.002-.046-.014-.063-.026-.027-.042-.032c-.017-.005-.033-.002-.048.009s-.025.031-.028.062Z" clip-rule="evenodd" stroke-linecap="round" stroke-linejoin="round" stroke-miterlimit="1.5"/></g><g transform="matrix(22.6629 0 0 22.6629 1831.42 2387)" clip-rule="evenodd"><path d="M0.094,-0.072c-.023-.043-.036-.088-.04-.135s-.005-.094-.004-.143c.001-.026.008-.048.021-.067.013-.018.028-.03.046-.036.017-.005.034-.003.051.005.017.009.029.028.037.055.003.011.005.024.006.041s.001.034.001.053.001.038.002.057.003.035.006.05.008.026.015.035.016.014.029.013.024-.005.032-.014c.007-.009.013-.02.017-.033.003-.013.005-.028.006-.045s.001-.033.001-.05c-.001-.017-.001-.033-.002-.048s-.001-.027,0-.037c.001-.025.009-.044.024-.058.014-.013.03-.021.047-.022s.034.005.049.016c.014.011.023.03.026.055s.004.052.005.081.001.058.001.087s0,.055,0,.08c-.001.025-.001.045,0,.06.001.023-.004.041-.017.052s-.028.018-.045.021c-.017.002-.032,0-.047-.005s-.023-.013-.025-.023c-.003-.011-.006-.018-.009-.019s-.009.004-.016.013c-.011.014-.027.024-.047.029s-.041.006-.062.002c-.022-.003-.043-.011-.062-.023-.02-.011-.035-.027-.046-.047Z" clip-rule="evenodd" stroke-linecap="round" stroke-linejoin="round" stroke-miterlimit="1.5"/></g><g transform="matrix(22.6629 0 0 22.6629 1843.23 2387)" clip-rule="evenodd"><path d="M0.339,-0.346c-.005.019-.014.031-.029.035-.015.005-.031.002-.048-.008-.006-.003-.013-.007-.02-.012-.007-.004-.015-.008-.022-.011s-.014-.004-.02-.003-.01.004-.013.011c-.005.012,0,.021.015.028s.033.014.055.023c.036.013.061.033.076.06s.019.06.014.097c-.003.022-.01.041-.021.056-.011.016-.024.029-.039.04-.016.011-.034.018-.053.023s-.039.007-.06.007c-.037-.001-.067-.013-.09-.037-.023-.023-.034-.052-.033-.088.001-.013.004-.024.01-.034s.014-.017.023-.022c.009-.004.018-.005.029-.003.01.002.02.008.03.019.016.017.032.027.047.03s.025.001.028-.004c.006-.01.005-.02-.002-.03-.007-.009-.016-.018-.027-.025s-.023-.014-.034-.019-.018-.008-.02-.009c-.017-.008-.032-.017-.044-.028-.013-.011-.021-.026-.026-.047-.008-.039-.003-.071.015-.096.018-.024.045-.043.082-.056.009-.003.02-.006.033-.007.013,0,.027,0,.042.001.015.002.029.005.043.01s.026.012.036.021.017.019.022.032.005.029.001.046Z" clip-rule="evenodd" stroke-linecap="round" stroke-linejoin="round" stroke-miterlimit="1.5"/></g><g transform="matrix(22.6629 0 0 22.6629 1852.16 2387)" clip-rule="evenodd"><path d="M0.217,-0.271c.001.017.001.036.002.056s.001.04,0,.06-.002.04-.005.059c-.003.02-.006.038-.011.055-.003.012-.009.021-.017.027-.009.007-.018.011-.028.013s-.02.003-.031.002c-.011-.002-.02-.003-.028-.006s-.015-.01-.021-.022c-.006-.011-.011-.024-.014-.039s-.006-.029-.008-.044-.003-.027-.003-.036c-.001-.012-.001-.029-.002-.05s-.001-.043,0-.067c.001-.023.002-.047.004-.07s.006-.044.011-.061c.005-.019.014-.033.027-.042.012-.009.025-.014.039-.014.013.001.026.006.039.015.013.01.022.025.029.044.005.017.009.036.012.058.002.023.004.043.005.062Zm-.021-.32c.001.017-.002.031-.009.042s-.017.02-.027.026c-.011.006-.023.009-.036.009-.013.001-.025-.002-.036-.007s-.02-.012-.027-.023-.011-.024-.01-.041c-.001-.016.003-.03.01-.041.007-.01.015-.019.026-.025s.022-.009.035-.01c.012-.001.023.001.034.006s.02.013.028.024c.007.011.011.024.012.04Z" clip-rule="evenodd" stroke-linecap="round" stroke-linejoin="round" stroke-miterlimit="1.5"/></g><g transform="matrix(22.6629 0 0 22.6629 1858.48 2387)" clip-rule="evenodd"><path d="M0.392,-0.406c.016.016.027.038.034.067s.011.059.013.09c.002.032.002.063.001.093-.001.031-.002.056-.002.075c0,.025-.007.044-.02.057-.013.014-.028.021-.043.022-.016.001-.03-.004-.043-.017s-.02-.033-.019-.062c0-.013,0-.031.001-.054s0-.046-.002-.069-.006-.045-.012-.065-.015-.034-.028-.041c-.007-.004-.015-.007-.023-.009-.009-.001-.016-.001-.023.001s-.013.006-.018.011c-.005.006-.008.014-.008.023c0,.02,0,.042-.001.065s-.001.045-.002.066-.001.039-.002.054c-.001.016-.002.027-.002.032-.001.021-.008.037-.023.048s-.032.017-.049.017c-.018.001-.034-.005-.048-.017-.015-.011-.022-.029-.021-.054.001-.045.001-.093,0-.143-.002-.049-.002-.096-.001-.14.001-.015.002-.03.004-.044s.005-.026.01-.037c.004-.011.01-.019.017-.026s.015-.01.026-.011c.009-.001.021,0,.034.003s.023.013.032.03c.004.008.009.012.015.011.006,0,.014-.002.023-.006.009-.003.021-.007.034-.012.013-.004.028-.006.045-.006.016,0,.033.004.051.012.018.009.035.021.05.036Z" clip-rule="evenodd" stroke-linecap="round" stroke-linejoin="round" stroke-miterlimit="1.5"/></g></g></g></g></g></g></g></svg>