<svg id="eA8l9uzWqsP1" xmlns="http://www.w3.org/2000/svg" xmlns:xlink="http://www.w3.org/1999/xlink" viewBox="0 0 234 266" shape-rendering="geometricPrecision" text-rendering="geometricPrecision"><style><![CDATA[#eA8l9uzWqsP28_tr {animation: eA8l9uzWqsP28_tr__tr 1000ms linear infinite alternate-reverse forwards}@keyframes eA8l9uzWqsP28_tr__tr { 0% {transform: translate(1796.567688px,2413.561768px) rotate(-9.207969deg);animation-timing-function: cubic-bezier(0.42,0,0.58,1)} 100% {transform: translate(1796.567688px,2413.561768px) rotate(5.88298deg)}}]]></style><g transform="translate(-1538-2346)" clip-rule="evenodd"><g transform="matrix(1.4845 0 0 1-.005292 0)" clip-rule="evenodd"><g transform="matrix(1.0725 0 0 1.0725-75.545-171.379)" clip-rule="evenodd"><g transform="matrix(.673629 0 0 1 0.003565 0)" clip-rule="evenodd"><path d="M1669.21,2426.22c0,0-93.72-1.86-95.21,84.78-2.27,12.31-14.67,22.89-22,39.34-7.33,16.44-4.74,40.66-4.74,40.66s13.15,5.47,21.94.89c8.8-4.58,9.57-3.52,26-3.86c5.6-10.53,6.49-2.45,7.26-11.03s18.96-22.37,47.54-50s47.01-70.11,47.9-85c-11.48-4.75-10.81,1.89-28.69-15.78" clip-rule="evenodd" fill="#fff" fill-rule="evenodd" stroke-linecap="round" stroke-linejoin="round" stroke-miterlimit="1.5"/></g><g transform="matrix(.673629 0 0 1 0.003565 0)" clip-rule="evenodd"><path d="M1671.57,2425.75c0,0-99.75-2.69-98.57,90.25-9.67,23.51-26.23,20.31-25.74,75" clip-rule="evenodd" fill="none" fill-rule="evenodd" stroke="#000" stroke-width="6.53" stroke-linecap="round" stroke-linejoin="round" stroke-miterlimit="1.5"/></g><g transform="matrix(.673629 0 0 1 0.003565 0)" clip-rule="evenodd"><path d="M1697.9,2442c0,0-10.03,37.35-22.9,56-15.98,23.17-74.87,74.93-74.97,84.87" clip-rule="evenodd" fill="none" fill-rule="evenodd" stroke="#000" stroke-width="6.53" stroke-linecap="round" stroke-linejoin="round" stroke-miterlimit="1.5"/></g><g transform="matrix(.797091 0 0 1.08234-215.427-206.498)" clip-rule="evenodd"><path d="M1705,2389c16.88-3.99,30.82,5.12,28,29-1.88,15.89-12.55,29-28,29s-28-12.99-28-29s12.96-25.45,28-29Z" clip-rule="evenodd" fill="#fff" fill-rule="evenodd" stroke="#000" stroke-width="5.76" stroke-linecap="round" stroke-linejoin="round" stroke-miterlimit="1.5"/></g><g transform="matrix(.64885-.268733 0.243253 1.29431-593.107-355.839)" clip-rule="evenodd"><path d="M1545.26,2597c7.84,4.03,15.67,4.64,23.51,2.26c0,0,2.17-31.23-7.77-31.26s-10.29,1.21-15.74,29Z" clip-rule="evenodd" fill="#fff" fill-rule="evenodd" stroke="#000" stroke-width="5.51" stroke-linecap="round" stroke-linejoin="round" stroke-miterlimit="1.5"/></g><g transform="matrix(.898172 0 0 1.33333-380.44-804)" clip-rule="evenodd"><circle r="3" transform="translate(1694 2406)" clip-rule="evenodd" fill-rule="evenodd" stroke-linecap="round" stroke-linejoin="round" stroke-miterlimit="1.5"/></g><g transform="matrix(.954824 0 0 1.41743-467.369-997.372)" clip-rule="evenodd"><circle r="3" transform="translate(1694 2406)" clip-rule="evenodd" fill-rule="evenodd" stroke-linecap="round" stroke-linejoin="round" stroke-miterlimit="1.5"/></g><g transform="matrix(.673629 0 0 1 0.003565 0)" clip-rule="evenodd"><path d="M1577,2575c0,0,2.74-39.67,29.5-62.57" clip-rule="evenodd" fill="none" fill-rule="evenodd" stroke="#000" stroke-width="6.53" stroke-linecap="round" stroke-linejoin="round" stroke-miterlimit="1.5"/></g><g transform="matrix(.673629 0 0 1 0.003565 0)" clip-rule="evenodd"><path d="M1576.68,2495c0,0,56.38,2.76,69.32,36" clip-rule="evenodd" fill="none" fill-rule="evenodd" stroke="#000" stroke-width="6.53" stroke-linecap="round" stroke-linejoin="round" stroke-miterlimit="1.5"/></g><g transform="matrix(.673629 0 0 1 1.88784-6.5268)" clip-rule="evenodd"><path d="M1576.68,2482c0,0,70.22,10.2,80.32,37" clip-rule="evenodd" fill="none" fill-rule="evenodd" stroke="#000" stroke-width="6.53" stroke-linecap="round" stroke-linejoin="round" stroke-miterlimit="1.5"/></g><g transform="matrix(1.04506 0 0 1.41278-638.521-991.596)" clip-rule="evenodd"><path d="M1705.68,2380.69c-.44.52-1.17.59-1.68.15-1.87-1.58-6.14-5.19-8.01-6.77-.51-.43-1.24-.37-1.68.15-1.14,1.35-3.25,3.85-4.48,5.29-.23.29-.35.67-.33,1.05.03.39.21.74.49.98c6.07,5.14,35.71,30.2,41.29,34.92.51.43,1.24.37,1.68-.16c1.13-1.34,3.25-3.84,4.47-5.28.24-.29.36-.67.33-1.05-.03-.39-.2-.74-.48-.98-2-1.69-6.23-5.27-8.23-6.96-.28-.23-.45-.59-.48-.97-.03-.39.09-.77.33-1.05c2.7-3.19,10.48-12.39,13.18-15.58.24-.29.36-.67.33-1.05-.03-.39-.21-.74-.49-.98-3.94-3.33-17.44-14.75-21.06-17.82-.52-.43-1.25-.37-1.69.15-2.59,3.07-10.9,12.9-13.49,15.96Z" clip-rule="evenodd" fill-rule="evenodd" stroke-linecap="round" stroke-linejoin="round" stroke-miterlimit="1.5"/></g><g transform="matrix(1.06891 0.951034-.645892 1.59978 776.185-3150.91)" clip-rule="evenodd"><g id="eA8l9uzWqsP28_tr" transform="translate(1796.567688,2413.561768) rotate(5.88298)"><path d="M1795,2410c-2.33,0-4.76,3.38-8,2s3.26,8.54,9,3c3.17,1.73,8.91,4.2,11-1-3.49-.14-3.65.17-6-2s-3.67-2-6-2Z" transform="translate(-1796.567688,-2413.561768)" clip-rule="evenodd" fill-rule="evenodd" stroke-linecap="round" stroke-linejoin="round" stroke-miterlimit="1.5"/></g></g><g transform="matrix(.673629 0 0 1 0.003565 0)" clip-rule="evenodd"><path d="M1589,2458c0,0,65.12,13.12,87,42" clip-rule="evenodd" fill="none" fill-rule="evenodd" stroke="#000" stroke-width="6.53" stroke-linecap="round" stroke-linejoin="round" stroke-miterlimit="1.5"/></g><g transform="matrix(.673629 0 0 1 0.003565 0)" clip-rule="evenodd"><path d="M1607,2442c0,0,57.99,9.08,75.67,42" clip-rule="evenodd" fill="none" fill-rule="evenodd" stroke="#000" stroke-width="6.53" stroke-linecap="round" stroke-linejoin="round" stroke-miterlimit="1.5"/></g><g transform="matrix(.580547-.507214 0.341674 0.86182-737.498 1150.66)" clip-rule="evenodd"><path d="M1567.77,2595c0,0,25.44,12.76,29.23,4.5c5.06-11.02,5.3-93.05-29.23-4.5Z" clip-rule="evenodd" fill="#fff" fill-rule="evenodd" stroke="#000" stroke-width="6.53" stroke-linecap="round" stroke-linejoin="round" stroke-miterlimit="1.5"/></g><g transform="matrix(.673629 0 0 1 0.003565 0)" clip-rule="evenodd"><path d="M1629,2431c0,0,53.27,20.04,63,35" clip-rule="evenodd" fill="none" fill-rule="evenodd" stroke="#000" stroke-width="6.53" stroke-linecap="round" stroke-linejoin="round" stroke-miterlimit="1.5"/></g></g></g></g></svg>