<svg id="eAkPhDwM6KL1" xmlns="http://www.w3.org/2000/svg" xmlns:xlink="http://www.w3.org/1999/xlink" viewBox="0 0 421 326" shape-rendering="geometricPrecision" text-rendering="geometricPrecision"><style><![CDATA[#eAkPhDwM6KL15_ts {animation: eAkPhDwM6KL15_ts__ts 500ms linear infinite alternate-reverse forwards}@keyframes eAkPhDwM6KL15_ts__ts { 0% {transform: translate(1779.22998px,2083.22998px) scale(1,1);animation-timing-function: cubic-bezier(0.42,0,0.58,1)} 100% {transform: translate(1779.22998px,2083.22998px) scale(1.34441,1.245289)}} #eAkPhDwM6KL42_ts {animation: eAkPhDwM6KL42_ts__ts 500ms linear infinite alternate-reverse forwards}@keyframes eAkPhDwM6KL42_ts__ts { 0% {transform: translate(1779.22998px,2083.22998px) scale(1.343206,1.258739);animation-timing-function: cubic-bezier(0.42,0,0.58,1)} 100% {transform: translate(1779.22998px,2083.22998px) scale(0.654018,0.618779)}} #eAkPhDwM6KL69_ts {animation: eAkPhDwM6KL69_ts__ts 500ms linear infinite alternate-reverse forwards}@keyframes eAkPhDwM6KL69_ts__ts { 0% {transform: translate(1779.22998px,2083.22998px) scale(1,1);animation-timing-function: cubic-bezier(0.42,0,0.58,1)} 100% {transform: translate(1779.22998px,2083.22998px) scale(1.440259,1.375781)}} #eAkPhDwM6KL86_to {animation: eAkPhDwM6KL86_to__to 500ms linear infinite alternate-reverse forwards}@keyframes eAkPhDwM6KL86_to__to { 0% {transform: translate(29.81px,-300px);animation-timing-function: cubic-bezier(0.42,0,0.58,1)} 100% {transform: translate(27.115492px,-296px)}} #eAkPhDwM6KL92_to {animation: eAkPhDwM6KL92_to__to 500ms linear infinite alternate-reverse forwards}@keyframes eAkPhDwM6KL92_to__to { 0% {transform: translate(1881.782349px,1992.842713px);animation-timing-function: cubic-bezier(0.42,0,0.58,1)} 100% {transform: translate(1879.969119px,1999.763852px)}} #eAkPhDwM6KL99_to {animation: eAkPhDwM6KL99_to__to 500ms linear infinite alternate-reverse forwards}@keyframes eAkPhDwM6KL99_to__to { 0% {transform: translate(2015.408631px,1993.455628px);animation-timing-function: cubic-bezier(0.42,0,0.58,1)} 100% {transform: translate(2009.228215px,2002.930718px)}} #eAkPhDwM6KL108 {animation: eAkPhDwM6KL108__m 500ms linear infinite alternate-reverse forwards}@keyframes eAkPhDwM6KL108__m { 0% {d: path('M1616.8,2067C1616.8,2067,1659.15,2019.58,1690.17,2035.56C1721.2,2051.54,1710.79,2083.25,1690.38,2099');animation-timing-function: cubic-bezier(0.42,0,0.58,1)} 100% {d: path('M1613.437129,2065.395334C1613.437129,2065.395334,1668.933459,2020.838077,1690.17,2035.56C1721.2,2051.54,1710.79,2083.25,1690.38,2099')}}]]></style><g transform="translate(-1523-1964.27)" clip-rule="evenodd"><g transform="matrix(1.4845 0 0 1-.005292 0)" clip-rule="evenodd"><g transform="translate(12.6286-77)" clip-rule="evenodd"><g transform="translate(-86.9371 55.7205)" clip-rule="evenodd"><g transform="matrix(.673629 0 0 1 0.003565 0)" clip-rule="evenodd"><path d="M1681.13,2262.32c0,0-20.73-2.78-31.13-7.32s-20.9-60.72,2-37.93c9.93-14.47,35.59-39.8,42.49-68.63c6.89-28.82,30.61-60.37,68.9-54.44-5.99-13.8-16.59-47.61,39.61-34c14.69,18.38,19.35,29.35,10,41-17.27,7.11-6.6.86-18,7-2.66,17.27-1.69,42.69-37,69.93-38.86,47.51-55.89,68.07-55.89,68.07s-3.35,18.25-20.98,16.32Z" clip-rule="evenodd" fill="#fff" fill-rule="evenodd" stroke-linecap="round" stroke-linejoin="round" stroke-miterlimit="1.5"/></g><g transform="matrix(.673629 0 0 1 0.003565 0)" clip-rule="evenodd"><path d="M1788.84,2052.1c-4.73.66-11.43,1.21-17.46,2.8-4.5,1.19-8.64,2.98-11.6,5.63-11,9.87-8.58,24.87.96,34.53c11.8,11.97,29.17,16.74,45.57,15.34c4.75-.41,8.31-3.48,10.68-7.84c2.98-5.48,4-13.01,3.79-17.65-.75-16.18-12.53-35.55-31.94-32.81v0Zm.98,6.93c7.26-1.03,12.97,2.23,16.98,7.19c4.29,5.31,6.69,12.53,6.98,19.01.17,3.67-.58,9.65-2.94,13.99-1.18,2.18-2.75,4-5.12,4.2-14.38,1.23-29.65-2.79-40-13.27-6.74-6.84-9.05-17.42-1.26-24.41c2.2-1.98,5.35-3.19,8.71-4.07c5.75-1.52,12.14-2.01,16.65-2.64v0Z" clip-rule="evenodd" fill-rule="evenodd" stroke-linecap="round" stroke-linejoin="round" stroke-miterlimit="1.5"/></g><g transform="matrix(.673629 0 0 1 0.003565 0)" clip-rule="evenodd"><circle r="4" transform="translate(1800.8 2076)" clip-rule="evenodd" fill-rule="evenodd" stroke-linecap="round" stroke-linejoin="round" stroke-miterlimit="1.5"/></g><g transform="matrix(.673629 0 0 1-13.3912-9.31067)" clip-rule="evenodd"><circle r="4" transform="translate(1800.8 2076)" clip-rule="evenodd" fill-rule="evenodd" stroke-linecap="round" stroke-linejoin="round" stroke-miterlimit="1.5"/></g><g transform="matrix(.673629 0 0 1 0.003565 0)" clip-rule="evenodd"><g id="eAkPhDwM6KL15_ts" transform="translate(1779.22998,2083.22998) scale(1.34441,1.245289)"><circle r="4.229" transform="translate(0.00002,0.00002)" clip-rule="evenodd" fill-rule="evenodd" stroke="#000" stroke-width="7" stroke-linecap="round" stroke-linejoin="round" stroke-miterlimit="1.5"/></g></g><g transform="matrix(.673629 0 0 1 0.003565 0)" clip-rule="evenodd"><path d="M1651.38,2211.09c-.65-.17-1.31-.42-1.98-.66-1.74-.62-3.49-1.25-5.15-1.47-3.16-.42-6.1.29-8.48,3.88-3.22,4.86-2.98,10.52-.92,16.27c2.55,7.06,7.99,14.28,10.51,19.59.49,1.02,2.08,6.25,3.54,8.62.89,1.45,1.99,2.24,2.81,2.54c3.32,1.19,6.94.76,10.31,1.64c8.72,2.28,16.19,5.23,25.46,4.04c1.75-.23,7.3-1.44,10.51-3.26c2.52-1.43,3.78-3.46,3.84-5.27.53-15.08-12.56-34.06-24.66-42.1-3.54-2.35-8.97-4.57-13.57-4.59-1.27-.01-2.48.15-3.6.47.11-.17.2-.31.26-.4c5.25-7.29,12.02-13.34,17.36-20.57c8.16-11.07,12.37-24.67,17.47-37.27c4.33-10.69,10.8-21.06,17.31-30.57c5.85-8.54,12.72-16.74,22.44-20.86c9.21-3.9,18.11-3.35,27.91-3.64c1.93-.06,3.45-1.67,3.39-3.6s-1.67-3.45-3.6-3.4c-10.69.32-20.38-.07-30.43,4.2-10.97,4.65-18.88,13.71-25.48,23.34-6.79,9.92-13.51,20.75-18.03,31.91-4.88,12.06-8.8,25.14-16.61,35.73-5.36,7.26-12.14,13.33-17.41,20.64-.37.52-2.3,3.42-3.2,4.79Zm43.47,44.87c-.04-12.83-11.36-28.44-21.56-35.22-2.08-1.39-5.03-2.75-7.87-3.25-1.79-.31-3.55-.42-4.68.67-.74.72-1.06,1.89-1.13,3.53-.07,1.63-.03,3.36.39,4.95c3.17,11.95,11.25,20.79,19.7,29.44.72.73,1.05,1.7.99,2.66c1.89.14,3.84.12,5.89-.14c1.16-.15,4.48-.84,6.97-1.93.42-.18.96-.5,1.3-.71Zm-41.8-37.72c-.17.02-.33.03-.47.03-2.21-.02-4.64-.95-7-1.76-1.45-.51-2.93-1.38-3.97.2-2.59,3.9-1.03,8.58,1.16,13.19c2.76,5.78,6.84,11.44,8.91,15.79.33.69,1.15,3.29,2.09,5.63.3.74.78,1.69,1.03,2.18c2.93.83,6.06.46,8.99,1.23c2.34.61,4.58,1.3,6.79,1.93-7.66-8.24-14.38-17.04-17.34-28.23-.6-2.26-.73-4.73-.62-7.05.05-1.16.2-2.2.43-3.14Z" clip-rule="evenodd" fill-rule="evenodd" stroke-linecap="round" stroke-linejoin="round" stroke-miterlimit="1.5"/></g><g transform="matrix(.673629 0 0 1 0.003565 0)" clip-rule="evenodd"><path d="M1703.38,2249.44c6.76-9.37,15.57-17.03,22.43-26.32c8.63-11.7,15.84-23.54,25.91-34.19c12.17-12.87,28.44-24.74,37.14-40.36c6-10.77,8-26.84,8.23-38.98.03-1.93-1.51-3.53-3.44-3.56-1.93-.04-3.53,1.5-3.56,3.43-.21,11.11-1.85,25.85-7.34,35.71-8.43,15.12-24.33,26.49-36.12,38.95-10.27,10.86-17.65,22.91-26.46,34.85-6.86,9.31-15.69,16.98-22.47,26.38-1.13,1.56-.77,3.75.79,4.88c1.57,1.13,3.76.78,4.89-.79Z" clip-rule="evenodd" fill-rule="evenodd" stroke-linecap="round" stroke-linejoin="round" stroke-miterlimit="1.5"/></g><g transform="matrix(.673629 0 0 1 0.003565 0)" clip-rule="evenodd"><path d="M1683.88,2219.24c3.58-4.51,7.61-8.81,10.15-14.03c5.57-11.46,6.15-25.66,7.43-38.22.19-1.92-1.21-3.64-3.13-3.83-1.92-.2-3.64,1.2-3.84,3.12-1.2,11.77-1.54,25.13-6.76,35.87-2.31,4.76-6.07,8.63-9.34,12.74-1.2,1.52-.95,3.72.57,4.92c1.51,1.2,3.71.95,4.92-.57Z" clip-rule="evenodd" fill-rule="evenodd" stroke-linecap="round" stroke-linejoin="round" stroke-miterlimit="1.5"/></g><g transform="matrix(.673629 0 0 1 0.003565 0)" clip-rule="evenodd"><path d="M1687.38,2165.29c20,3.34,37.17,14.31,48.86,30.75c1.12,1.57,3.31,1.94,4.88.82s1.94-3.3.82-4.88c-12.78-17.96-31.55-29.95-53.4-33.59-1.91-.32-3.71.97-4.03,2.87-.32,1.91.97,3.71,2.87,4.03Z" clip-rule="evenodd" fill-rule="evenodd" stroke-linecap="round" stroke-linejoin="round" stroke-miterlimit="1.5"/></g><g transform="matrix(.673629 0 0 1 0.003565 0)" clip-rule="evenodd"><path d="M1694.7,2152.57c4.81-.3,10.08-1.24,14.88-.12c18.99,4.42,25.53,18.93,33.68,35c.87,1.72,2.98,2.41,4.7,1.54c1.72-.88,2.41-2.99,1.54-4.71-9.13-18.01-17.05-33.7-38.33-38.65-5.46-1.27-11.44-.38-16.9-.05-1.93.12-3.4,1.78-3.28,3.71s1.78,3.39,3.71,3.28Z" clip-rule="evenodd" fill-rule="evenodd" stroke-linecap="round" stroke-linejoin="round" stroke-miterlimit="1.5"/></g><g transform="matrix(.673629 0 0 1 0.003565 0)" clip-rule="evenodd"><path d="M1702.05,2140.23c22.43.37,45.65,10.9,58.43,30.07c1.07,1.6,3.25,2.04,4.86.97c1.6-1.07,2.04-3.25.97-4.86-14.05-21.06-39.5-32.77-64.15-33.17-1.93-.04-3.52,1.51-3.55,3.44s1.51,3.52,3.44,3.55Z" clip-rule="evenodd" fill-rule="evenodd" stroke-linecap="round" stroke-linejoin="round" stroke-miterlimit="1.5"/></g><g transform="matrix(.673629 0 0 1 0.003565 0)" clip-rule="evenodd"><path d="M1714.53,2120.7c21.96,4.17,43.27,18.5,58.21,35.01c1.29,1.44,3.51,1.55,4.94.25c1.43-1.29,1.54-3.51.25-4.94-15.92-17.6-38.69-32.76-62.09-37.2-1.9-.36-3.73.89-4.09,2.78-.37,1.9.88,3.74,2.78,4.1Z" clip-rule="evenodd" fill-rule="evenodd" stroke-linecap="round" stroke-linejoin="round" stroke-miterlimit="1.5"/></g><g transform="matrix(.673629 0 0 1 0.003565 0)" clip-rule="evenodd"><path d="M1730.03,2104.81c19.98,4.06,41.17,15.73,53.84,32.44c1.17,1.54,3.37,1.84,4.91.67c1.54-1.16,1.84-3.36.67-4.9-13.67-18.03-36.48-30.69-58.02-35.07-1.89-.38-3.74.84-4.13,2.73-.38,1.9.84,3.75,2.73,4.13Z" clip-rule="evenodd" fill-rule="evenodd" stroke-linecap="round" stroke-linejoin="round" stroke-miterlimit="1.5"/></g></g><g transform="translate(-39.3469 77.5275)" clip-rule="evenodd"><g transform="matrix(.673629 0 0 1 0.003565 0)" clip-rule="evenodd"><path d="M1681.13,2262.32c0,0-20.73-2.78-31.13-7.32s-20.9-60.72,2-37.93c9.93-14.47,35.59-39.8,42.49-68.63c6.89-28.82,30.61-60.37,68.9-54.44-5.99-13.8-16.59-47.61,39.61-34c14.69,18.38,19.35,29.35,10,41-17.27,7.11-6.6.86-18,7-2.66,17.27-1.69,42.69-37,69.93-38.86,47.51-55.89,68.07-55.89,68.07s-3.35,18.25-20.98,16.32Z" clip-rule="evenodd" fill="#fff" fill-rule="evenodd" stroke-linecap="round" stroke-linejoin="round" stroke-miterlimit="1.5"/></g><g transform="matrix(.673629 0 0 1 0.003565 0)" clip-rule="evenodd"><path d="M1788.84,2052.1c-4.73.66-11.43,1.21-17.46,2.8-4.5,1.19-8.64,2.98-11.6,5.63-11,9.87-8.58,24.87.96,34.53c11.8,11.97,29.17,16.74,45.57,15.34c4.75-.41,8.31-3.48,10.68-7.84c2.98-5.48,4-13.01,3.79-17.65-.75-16.18-12.53-35.55-31.94-32.81Zm.98,6.93c7.26-1.03,12.97,2.23,16.98,7.19c4.29,5.31,6.69,12.53,6.98,19.01.17,3.67-.58,9.65-2.94,13.99-1.18,2.18-2.75,4-5.12,4.2-14.38,1.23-29.65-2.79-40-13.27-6.74-6.84-9.05-17.42-1.26-24.41c2.2-1.98,5.35-3.19,8.71-4.07c5.75-1.52,12.14-2.01,16.65-2.64Z" clip-rule="evenodd" fill-rule="evenodd" stroke-linecap="round" stroke-linejoin="round" stroke-miterlimit="1.5"/></g><g transform="matrix(.673629 0 0 1 0.003565 0)" clip-rule="evenodd"><circle r="4" transform="translate(1800.8 2076)" clip-rule="evenodd" fill-rule="evenodd" stroke-linecap="round" stroke-linejoin="round" stroke-miterlimit="1.5"/></g><g transform="matrix(.673629 0 0 1-13.3912-9.31067)" clip-rule="evenodd"><circle r="4" transform="translate(1800.8 2076)" clip-rule="evenodd" fill-rule="evenodd" stroke-linecap="round" stroke-linejoin="round" stroke-miterlimit="1.5"/></g><g transform="matrix(.673629 0 0 1 0.003565 0)" clip-rule="evenodd"><g id="eAkPhDwM6KL42_ts" transform="translate(1779.22998,2083.22998) scale(0.654018,0.618779)"><circle r="4.229" transform="translate(0.00002,0.00002)" clip-rule="evenodd" fill-rule="evenodd" stroke="#000" stroke-width="7" stroke-linecap="round" stroke-linejoin="round" stroke-miterlimit="1.5"/></g></g><g transform="matrix(.673629 0 0 1 0.003565 0)" clip-rule="evenodd"><path d="M1651.38,2211.09c-.65-.17-1.31-.42-1.98-.66-1.74-.62-3.49-1.25-5.15-1.47-3.16-.42-6.1.29-8.48,3.88-3.22,4.86-2.98,10.52-.92,16.27c2.55,7.06,7.99,14.28,10.51,19.59.49,1.02,2.08,6.25,3.54,8.62.89,1.45,1.99,2.24,2.81,2.54c3.32,1.19,6.94.76,10.31,1.64c8.72,2.28,16.19,5.23,25.46,4.04c1.75-.23,7.3-1.44,10.51-3.26c2.52-1.43,3.78-3.46,3.84-5.27.53-15.08-12.56-34.06-24.66-42.1-3.54-2.35-8.97-4.57-13.57-4.59-1.27-.01-2.48.15-3.6.47.11-.17.2-.31.26-.4c5.25-7.29,12.02-13.34,17.36-20.57c8.16-11.07,12.37-24.67,17.47-37.27c4.33-10.69,10.8-21.06,17.31-30.57c5.85-8.54,12.72-16.74,22.44-20.86c9.21-3.9,18.11-3.35,27.91-3.64c1.93-.06,3.45-1.67,3.39-3.6s-1.67-3.45-3.6-3.4c-10.69.32-20.38-.07-30.43,4.2-10.97,4.65-18.88,13.71-25.48,23.34-6.79,9.92-13.51,20.75-18.03,31.91-4.88,12.06-8.8,25.14-16.61,35.73-5.36,7.26-12.14,13.33-17.41,20.64-.37.52-2.3,3.42-3.2,4.79Zm43.47,44.87c-.04-12.83-11.36-28.44-21.56-35.22-2.08-1.39-5.03-2.75-7.87-3.25-1.79-.31-3.55-.42-4.68.67-.74.72-1.06,1.89-1.13,3.53-.07,1.63-.03,3.36.39,4.95c3.17,11.95,11.25,20.79,19.7,29.44.72.73,1.05,1.7.99,2.66c1.89.14,3.84.12,5.89-.14c1.16-.15,4.48-.84,6.97-1.93.42-.18.96-.5,1.3-.71Zm-41.8-37.72c-.17.02-.33.03-.47.03-2.21-.02-4.64-.95-7-1.76-1.45-.51-2.93-1.38-3.97.2-2.59,3.9-1.03,8.58,1.16,13.19c2.76,5.78,6.84,11.44,8.91,15.79.33.69,1.15,3.29,2.09,5.63.3.74.78,1.69,1.03,2.18c2.93.83,6.06.46,8.99,1.23c2.34.61,4.58,1.3,6.79,1.93-7.66-8.24-14.38-17.04-17.34-28.23-.6-2.26-.73-4.73-.62-7.05.05-1.16.2-2.2.43-3.14Z" clip-rule="evenodd" fill-rule="evenodd" stroke-linecap="round" stroke-linejoin="round" stroke-miterlimit="1.5"/></g><g transform="matrix(.673629 0 0 1 0.003565 0)" clip-rule="evenodd"><path d="M1703.38,2249.44c6.76-9.37,15.57-17.03,22.43-26.32c8.63-11.7,15.84-23.54,25.91-34.19c12.17-12.87,28.44-24.74,37.14-40.36c6-10.77,8-26.84,8.23-38.98.03-1.93-1.51-3.53-3.44-3.56-1.93-.04-3.53,1.5-3.56,3.43-.21,11.11-1.85,25.85-7.34,35.71-8.43,15.12-24.33,26.49-36.12,38.95-10.27,10.86-17.65,22.91-26.46,34.85-6.86,9.31-15.69,16.98-22.47,26.38-1.13,1.56-.77,3.75.79,4.88c1.57,1.13,3.76.78,4.89-.79Z" clip-rule="evenodd" fill-rule="evenodd" stroke-linecap="round" stroke-linejoin="round" stroke-miterlimit="1.5"/></g><g transform="matrix(.673629 0 0 1 0.003565 0)" clip-rule="evenodd"><path d="M1683.88,2219.24c3.58-4.51,7.61-8.81,10.15-14.03c5.57-11.46,6.15-25.66,7.43-38.22.19-1.92-1.21-3.64-3.13-3.83-1.92-.2-3.64,1.2-3.84,3.12-1.2,11.77-1.54,25.13-6.76,35.87-2.31,4.76-6.07,8.63-9.34,12.74-1.2,1.52-.95,3.72.57,4.92c1.51,1.2,3.71.95,4.92-.57Z" clip-rule="evenodd" fill-rule="evenodd" stroke-linecap="round" stroke-linejoin="round" stroke-miterlimit="1.5"/></g><g transform="matrix(.673629 0 0 1 0.003565 0)" clip-rule="evenodd"><path d="M1687.38,2165.29c20,3.34,37.17,14.31,48.86,30.75c1.12,1.57,3.31,1.94,4.88.82s1.94-3.3.82-4.88c-12.78-17.96-31.55-29.95-53.4-33.59-1.91-.32-3.71.97-4.03,2.87-.32,1.91.97,3.71,2.87,4.03Z" clip-rule="evenodd" fill-rule="evenodd" stroke-linecap="round" stroke-linejoin="round" stroke-miterlimit="1.5"/></g><g transform="matrix(.673629 0 0 1 0.003565 0)" clip-rule="evenodd"><path d="M1694.7,2152.57c4.81-.3,10.08-1.24,14.88-.12c18.99,4.42,25.53,18.93,33.68,35c.87,1.72,2.98,2.41,4.7,1.54c1.72-.88,2.41-2.99,1.54-4.71-9.13-18.01-17.05-33.7-38.33-38.65-5.46-1.27-11.44-.38-16.9-.05-1.93.12-3.4,1.78-3.28,3.71s1.78,3.39,3.71,3.28Z" clip-rule="evenodd" fill-rule="evenodd" stroke-linecap="round" stroke-linejoin="round" stroke-miterlimit="1.5"/></g><g transform="matrix(.673629 0 0 1 0.003565 0)" clip-rule="evenodd"><path d="M1702.05,2140.23c22.43.37,45.65,10.9,58.43,30.07c1.07,1.6,3.25,2.04,4.86.97c1.6-1.07,2.04-3.25.97-4.86-14.05-21.06-39.5-32.77-64.15-33.17-1.93-.04-3.52,1.51-3.55,3.44s1.51,3.52,3.44,3.55Z" clip-rule="evenodd" fill-rule="evenodd" stroke-linecap="round" stroke-linejoin="round" stroke-miterlimit="1.5"/></g><g transform="matrix(.673629 0 0 1 0.003565 0)" clip-rule="evenodd"><path d="M1714.53,2120.7c21.96,4.17,43.27,18.5,58.21,35.01c1.29,1.44,3.51,1.55,4.94.25c1.43-1.29,1.54-3.51.25-4.94-15.92-17.6-38.69-32.76-62.09-37.2-1.9-.36-3.73.89-4.09,2.78-.37,1.9.88,3.74,2.78,4.1Z" clip-rule="evenodd" fill-rule="evenodd" stroke-linecap="round" stroke-linejoin="round" stroke-miterlimit="1.5"/></g><g transform="matrix(.673629 0 0 1 0.003565 0)" clip-rule="evenodd"><path d="M1730.03,2104.81c19.98,4.06,41.17,15.73,53.84,32.44c1.17,1.54,3.37,1.84,4.91.67c1.54-1.16,1.84-3.36.67-4.9-13.67-18.03-36.48-30.69-58.02-35.07-1.89-.38-3.74.84-4.13,2.73-.38,1.9.84,3.75,2.73,4.13Z" clip-rule="evenodd" fill-rule="evenodd" stroke-linecap="round" stroke-linejoin="round" stroke-miterlimit="1.5"/></g></g><g transform="translate(12.1458 101.123)" clip-rule="evenodd"><g transform="matrix(.673629 0 0 1 0.003565 0)" clip-rule="evenodd"><path d="M1681.13,2262.32c0,0-20.73-2.78-31.13-7.32s-20.9-60.72,2-37.93c9.93-14.47,35.59-39.8,42.49-68.63c6.89-28.82,30.61-60.37,68.9-54.44-5.99-13.8-16.59-47.61,39.61-34c14.69,18.38,19.35,29.35,10,41-17.27,7.11-6.6.86-18,7-2.66,17.27-1.69,42.69-37,69.93-38.86,47.51-55.89,68.07-55.89,68.07s-3.35,18.25-20.98,16.32Z" clip-rule="evenodd" fill="#fff" fill-rule="evenodd" stroke-linecap="round" stroke-linejoin="round" stroke-miterlimit="1.5"/></g><g transform="matrix(.673629 0 0 1 0.003565 0)" clip-rule="evenodd"><path d="M1788.84,2052.1c-4.73.66-11.43,1.21-17.46,2.8-4.5,1.19-8.64,2.98-11.6,5.63-11,9.87-8.58,24.87.96,34.53c11.8,11.97,29.17,16.74,45.57,15.34c4.75-.41,8.31-3.48,10.68-7.84c2.98-5.48,4-13.01,3.79-17.65-.75-16.18-12.53-35.55-31.94-32.81Zm.98,6.93c7.26-1.03,12.97,2.23,16.98,7.19c4.29,5.31,6.69,12.53,6.98,19.01.17,3.67-.58,9.65-2.94,13.99-1.18,2.18-2.75,4-5.12,4.2-14.38,1.23-29.65-2.79-40-13.27-6.74-6.84-9.05-17.42-1.26-24.41c2.2-1.98,5.35-3.19,8.71-4.07c5.75-1.52,12.14-2.01,16.65-2.64v0Z" clip-rule="evenodd" fill-rule="evenodd" stroke-linecap="round" stroke-linejoin="round" stroke-miterlimit="1.5"/></g><g transform="matrix(.673629 0 0 1 0.003565 0)" clip-rule="evenodd"><circle r="4" transform="translate(1800.8 2076)" clip-rule="evenodd" fill-rule="evenodd" stroke-linecap="round" stroke-linejoin="round" stroke-miterlimit="1.5"/></g><g transform="matrix(.673629 0 0 1-13.3912-9.31067)" clip-rule="evenodd"><circle r="4" transform="translate(1800.8 2076)" clip-rule="evenodd" fill-rule="evenodd" stroke-linecap="round" stroke-linejoin="round" stroke-miterlimit="1.5"/></g><g transform="matrix(.673629 0 0 1 0.003565 0)" clip-rule="evenodd"><g id="eAkPhDwM6KL69_ts" transform="translate(1779.22998,2083.22998) scale(1.440259,1.375781)"><circle r="4.229" transform="translate(0.00002,0.00002)" clip-rule="evenodd" fill-rule="evenodd" stroke="#000" stroke-width="7" stroke-linecap="round" stroke-linejoin="round" stroke-miterlimit="1.5"/></g></g><g transform="matrix(.673629 0 0 1 0.003565 0)" clip-rule="evenodd"><path d="M1651.38,2211.09c-.65-.17-1.31-.42-1.98-.66-1.74-.62-3.49-1.25-5.15-1.47-3.16-.42-6.1.29-8.48,3.88-3.22,4.86-2.98,10.52-.92,16.27c2.55,7.06,7.99,14.28,10.51,19.59.49,1.02,2.08,6.25,3.54,8.62.89,1.45,1.99,2.24,2.81,2.54c3.32,1.19,6.94.76,10.31,1.64c8.72,2.28,16.19,5.23,25.46,4.04c1.75-.23,7.3-1.44,10.51-3.26c2.52-1.43,3.78-3.46,3.84-5.27.53-15.08-12.56-34.06-24.66-42.1-3.54-2.35-8.97-4.57-13.57-4.59-1.27-.01-2.48.15-3.6.47.11-.17.2-.31.26-.4c5.25-7.29,12.02-13.34,17.36-20.57c8.16-11.07,12.37-24.67,17.47-37.27c4.33-10.69,10.8-21.06,17.31-30.57c5.85-8.54,12.72-16.74,22.44-20.86c9.21-3.9,18.11-3.35,27.91-3.64c1.93-.06,3.45-1.67,3.39-3.6s-1.67-3.45-3.6-3.4c-10.69.32-20.38-.07-30.43,4.2-10.97,4.65-18.88,13.71-25.48,23.34-6.79,9.92-13.51,20.75-18.03,31.91-4.88,12.06-8.8,25.14-16.61,35.73-5.36,7.26-12.14,13.33-17.41,20.64-.37.52-2.3,3.42-3.2,4.79Zm43.47,44.87c-.04-12.83-11.36-28.44-21.56-35.22-2.08-1.39-5.03-2.75-7.87-3.25-1.79-.31-3.55-.42-4.68.67-.74.72-1.06,1.89-1.13,3.53-.07,1.63-.03,3.36.39,4.95c3.17,11.95,11.25,20.79,19.7,29.44.72.73,1.05,1.7.99,2.66c1.89.14,3.84.12,5.89-.14c1.16-.15,4.48-.84,6.97-1.93.42-.18.96-.5,1.3-.71Zm-41.8-37.72c-.17.02-.33.03-.47.03-2.21-.02-4.64-.95-7-1.76-1.45-.51-2.93-1.38-3.97.2-2.59,3.9-1.03,8.58,1.16,13.19c2.76,5.78,6.84,11.44,8.91,15.79.33.69,1.15,3.29,2.09,5.63.3.74.78,1.69,1.03,2.18c2.93.83,6.06.46,8.99,1.23c2.34.61,4.58,1.3,6.79,1.93-7.66-8.24-14.38-17.04-17.34-28.23-.6-2.26-.73-4.73-.62-7.05.05-1.16.2-2.2.43-3.14Z" clip-rule="evenodd" fill-rule="evenodd" stroke-linecap="round" stroke-linejoin="round" stroke-miterlimit="1.5"/></g><g transform="matrix(.673629 0 0 1 0.003565 0)" clip-rule="evenodd"><path d="M1703.38,2249.44c6.76-9.37,15.57-17.03,22.43-26.32c8.63-11.7,15.84-23.54,25.91-34.19c12.17-12.87,28.44-24.74,37.14-40.36c6-10.77,8-26.84,8.23-38.98.03-1.93-1.51-3.53-3.44-3.56-1.93-.04-3.53,1.5-3.56,3.43-.21,11.11-1.85,25.85-7.34,35.71-8.43,15.12-24.33,26.49-36.12,38.95-10.27,10.86-17.65,22.91-26.46,34.85-6.86,9.31-15.69,16.98-22.47,26.38-1.13,1.56-.77,3.75.79,4.88c1.57,1.13,3.76.78,4.89-.79Z" clip-rule="evenodd" fill-rule="evenodd" stroke-linecap="round" stroke-linejoin="round" stroke-miterlimit="1.5"/></g><g transform="matrix(.673629 0 0 1 0.003565 0)" clip-rule="evenodd"><path d="M1683.88,2219.24c3.58-4.51,7.61-8.81,10.15-14.03c5.57-11.46,6.15-25.66,7.43-38.22.19-1.92-1.21-3.64-3.13-3.83-1.92-.2-3.64,1.2-3.84,3.12-1.2,11.77-1.54,25.13-6.76,35.87-2.31,4.76-6.07,8.63-9.34,12.74-1.2,1.52-.95,3.72.57,4.92c1.51,1.2,3.71.95,4.92-.57Z" clip-rule="evenodd" fill-rule="evenodd" stroke-linecap="round" stroke-linejoin="round" stroke-miterlimit="1.5"/></g><g transform="matrix(.673629 0 0 1 0.003565 0)" clip-rule="evenodd"><path d="M1687.38,2165.29c20,3.34,37.17,14.31,48.86,30.75c1.12,1.57,3.31,1.94,4.88.82s1.94-3.3.82-4.88c-12.78-17.96-31.55-29.95-53.4-33.59-1.91-.32-3.71.97-4.03,2.87-.32,1.91.97,3.71,2.87,4.03Z" clip-rule="evenodd" fill-rule="evenodd" stroke-linecap="round" stroke-linejoin="round" stroke-miterlimit="1.5"/></g><g transform="matrix(.673629 0 0 1 0.003565 0)" clip-rule="evenodd"><path d="M1694.7,2152.57c4.81-.3,10.08-1.24,14.88-.12c18.99,4.42,25.53,18.93,33.68,35c.87,1.72,2.98,2.41,4.7,1.54c1.72-.88,2.41-2.99,1.54-4.71-9.13-18.01-17.05-33.7-38.33-38.65-5.46-1.27-11.44-.38-16.9-.05-1.93.12-3.4,1.78-3.28,3.71s1.78,3.39,3.71,3.28Z" clip-rule="evenodd" fill-rule="evenodd" stroke-linecap="round" stroke-linejoin="round" stroke-miterlimit="1.5"/></g><g transform="matrix(.673629 0 0 1 0.003565 0)" clip-rule="evenodd"><path d="M1702.05,2140.23c22.43.37,45.65,10.9,58.43,30.07c1.07,1.6,3.25,2.04,4.86.97c1.6-1.07,2.04-3.25.97-4.86-14.05-21.06-39.5-32.77-64.15-33.17-1.93-.04-3.52,1.51-3.55,3.44s1.51,3.52,3.44,3.55Z" clip-rule="evenodd" fill-rule="evenodd" stroke-linecap="round" stroke-linejoin="round" stroke-miterlimit="1.5"/></g><g transform="matrix(.673629 0 0 1 0.003565 0)" clip-rule="evenodd"><path d="M1714.53,2120.7c21.96,4.17,43.27,18.5,58.21,35.01c1.29,1.44,3.51,1.55,4.94.25c1.43-1.29,1.54-3.51.25-4.94-15.92-17.6-38.69-32.76-62.09-37.2-1.9-.36-3.73.89-4.09,2.78-.37,1.9.88,3.74,2.78,4.1Z" clip-rule="evenodd" fill-rule="evenodd" stroke-linecap="round" stroke-linejoin="round" stroke-miterlimit="1.5"/></g><g transform="matrix(.673629 0 0 1 0.003565 0)" clip-rule="evenodd"><path d="M1730.03,2104.81c19.98,4.06,41.17,15.73,53.84,32.44c1.17,1.54,3.37,1.84,4.91.67c1.54-1.16,1.84-3.36.67-4.9-13.67-18.03-36.48-30.69-58.02-35.07-1.89-.38-3.74.84-4.13,2.73-.38,1.9.84,3.75,2.73,4.13Z" clip-rule="evenodd" fill-rule="evenodd" stroke-linecap="round" stroke-linejoin="round" stroke-miterlimit="1.5"/></g></g><g id="eAkPhDwM6KL86_to" transform="translate(27.115492,-296)"><g transform="translate(0,0)" clip-rule="evenodd"><g transform="matrix(.673629 0 0 1-4.71184 6)" clip-rule="evenodd"><path d="M1745,2394c0,0-11.31,5.13-13,11" clip-rule="evenodd" fill="none" fill-rule="evenodd" stroke="#000" stroke-width="7" stroke-linecap="round" stroke-linejoin="round" stroke-miterlimit="1.5"/></g><g transform="matrix(.673629 0 0 1-4.71184 6)" clip-rule="evenodd"><path d="M1727,2396.41l1,13.59l14.05-1.9" clip-rule="evenodd" fill="none" fill-rule="evenodd" stroke="#000" stroke-width="7" stroke-linecap="round" stroke-linejoin="round" stroke-miterlimit="1.5"/></g></g></g><g transform="matrix(.709127 0.157663-.106207 1.0527 37.1948-340.925)" clip-rule="evenodd"><g id="eAkPhDwM6KL92_to" transform="translate(1879.969119,1999.763852)"><g transform="translate(-1881.782349,-1992.842713)"><path d="M1839.92,1992.79c-.19.79-.58,1.28-1.19,1.46-.6.17-1.26.06-1.97-.35-.24-.14-.52-.3-.82-.48-.3-.17-.6-.32-.9-.45-.3-.12-.58-.17-.82-.14-.25.03-.43.18-.54.45-.19.49.01.88.62,1.15.6.27,1.35.59,2.26.95c1.48.54,2.52,1.37,3.12,2.48s.79,2.43.57,3.96c-.13.91-.42,1.68-.86,2.32-.44.65-.98,1.19-1.62,1.63-.65.44-1.36.75-2.16.94-.79.19-1.61.29-2.46.29-1.51-.06-2.74-.56-3.7-1.5s-1.41-2.16-1.35-3.63c.02-.52.16-.99.41-1.4.24-.41.55-.71.92-.88.37-.18.77-.23,1.19-.15.43.08.84.34,1.25.78.66.71,1.3,1.13,1.94,1.24.62.1,1.01.05,1.14-.17.25-.41.22-.81-.08-1.21s-.68-.75-1.13-1.05-.91-.55-1.37-.76c-.47-.2-.74-.33-.82-.39-.72-.33-1.33-.71-1.83-1.15-.51-.44-.86-1.08-1.05-1.93-.33-1.62-.12-2.92.62-3.92s1.86-1.78,3.36-2.32c.36-.14.81-.23,1.36-.27s1.12-.03,1.73.04c.6.07,1.19.21,1.76.41.58.21,1.07.49,1.48.84.41.36.71.8.9,1.34.2.53.21,1.16.04,1.87Z" clip-rule="evenodd" stroke-linecap="round" stroke-linejoin="round" stroke-miterlimit="1.5"/><path d="M1851.38,1988.52c1.1,0,2.06.18,2.88.55s1.51.84,2.08,1.42c.56.57.98,1.22,1.27,1.93s.44,1.41.47,2.09c.03.69-.07,1.31-.31,1.87-.23.56-.59,1.01-1.09,1.34-.16.11-.41.18-.74.22-.32.04-.69.07-1.08.09-.4.01-.81.01-1.24,0-.42-.02-.81-.03-1.17-.03-.33,0-.74.02-1.23.05-.49.02-1.04.04-1.64.04-.25,0-.41.14-.49.43-.09.29-.1.66-.05,1.13.06.54.37.98.93,1.31s1.17.51,1.83.54c.54,0,1.02-.12,1.43-.35.41-.24.81-.5,1.17-.78.37-.29.74-.54,1.09-.76.36-.22.76-.32,1.19-.29.88.08,1.45.44,1.71,1.07s.31,1.34.14,2.13c-.13.6-.4,1.13-.8,1.58-.39.46-.86.85-1.39,1.18-.54.32-1.11.6-1.71.84-.6.23-1.18.41-1.73.55-1.39.39-2.63.41-3.71.08s-2.01-.89-2.78-1.68c-.76-.79-1.36-1.77-1.78-2.92-.43-1.15-.68-2.34-.76-3.57s.01-2.46.29-3.7c.27-1.23.72-2.32,1.33-3.28.62-.96,1.42-1.73,2.4-2.3.99-.58,2.15-.84,3.49-.78Zm1.2,5.87c.19,0,.24-.18.16-.55s-.22-.67-.41-.89c-.14-.16-.32-.27-.55-.33-.24-.05-.48-.06-.74-.02s-.51.13-.74.27c-.24.14-.41.33-.52.57-.08.17-.15.35-.2.54-.06.19-.03.33.08.41.03.05.19.08.47.08.29,0,.6,0,.93-.02.32-.01.64-.03.94-.04s.49-.02.58-.02Z" clip-rule="evenodd" stroke-linecap="round" stroke-linejoin="round" stroke-miterlimit="1.5"/><path d="M1873.2,1989.17c.65.22,1.26.53,1.83.93.56.39.9.95,1.04,1.66.03.25,0,.54-.1.88-.1.35-.25.67-.47.97s-.51.54-.87.72c-.35.18-.78.21-1.27.1s-1.06-.2-1.7-.27c-.65-.06-1.26-.04-1.85.09-.59.12-1.08.4-1.48.84s-.6,1.11-.6,2.01c0,1.01.15,1.81.46,2.38.3.58.68.98,1.15,1.19.46.22.99.28,1.58.17s1.15-.33,1.7-.66c.82-.49,1.52-.69,2.1-.59.57.09,1.01.37,1.31.82s.45,1,.43,1.66c-.01.66-.18,1.3-.51,1.93-.36.66-.87,1.21-1.54,1.64-.67.44-1.41.77-2.22.99s-1.62.34-2.44.35c-.83.01-1.58-.06-2.26-.23-.88-.24-1.64-.61-2.28-1.11-.65-.49-1.18-1.06-1.6-1.72-.43-.66-.75-1.39-.97-2.2s-.37-1.63-.45-2.48c-.06-.61-.05-1.35.02-2.24s.24-1.8.51-2.73c.28-.93.66-1.83,1.15-2.69.5-.87,1.16-1.56,2-2.1.83-.53,1.85-.86,3.05-.96c1.21-.11,2.63.1,4.28.65Z" clip-rule="evenodd" stroke-linecap="round" stroke-linejoin="round" stroke-miterlimit="1.5"/><path d="M1879.24,1997.72c.02-1.48.26-2.8.69-3.97.44-1.16,1.04-2.15,1.81-2.97.77-.83,1.68-1.44,2.75-1.85s2.28-.61,3.62-.58c1.28.06,2.43.43,3.43,1.13s1.84,1.57,2.52,2.61c.69,1.04,1.2,2.18,1.54,3.41.35,1.23.49,2.41.44,3.53-.14,2.82-.92,4.85-2.32,6.1-1.42,1.25-3.5,1.87-6.27,1.87-1.09,0-2.15-.18-3.16-.53-1.02-.36-1.9-.92-2.65-1.69-.76-.76-1.36-1.73-1.81-2.89-.45-1.17-.65-2.56-.59-4.17Zm5.95-.7c-.11,1.01.08,1.82.58,2.42.49.6,1.07.97,1.74,1.09s1.32-.01,1.95-.41s1.02-1.1,1.15-2.12c.11-1.01-.08-1.87-.57-2.56-.49-.7-1.08-1.15-1.75-1.34s-1.32-.07-1.95.37-1.01,1.29-1.15,2.55Z" clip-rule="evenodd" stroke-linecap="round" stroke-linejoin="round" stroke-miterlimit="1.5"/><path d="M1913.7,1990.32c.66.66,1.12,1.58,1.4,2.76.27,1.17.45,2.41.53,3.71s.1,2.58.04,3.82c-.05,1.25-.08,2.27-.08,3.06c0,1.02-.28,1.8-.82,2.37-.55.56-1.15.86-1.79.9s-1.23-.2-1.77-.72c-.53-.52-.78-1.37-.76-2.55c0-.55.02-1.28.04-2.21.03-.94,0-1.88-.08-2.84s-.24-1.85-.49-2.67-.63-1.38-1.15-1.68c-.3-.17-.62-.28-.97-.35-.34-.07-.65-.06-.94.02s-.53.24-.74.47-.31.54-.31.92c0,.83-.01,1.72-.04,2.67-.03.96-.05,1.87-.08,2.72-.03.84-.06,1.59-.1,2.23-.04.65-.07,1.08-.07,1.3-.02.85-.35,1.5-.96,1.97-.62.46-1.29.7-2.01.72-.73.01-1.39-.22-1.98-.7-.58-.48-.87-1.22-.84-2.24.06-1.86.05-3.81-.02-5.85s-.07-3.97-.02-5.77c.03-.63.08-1.24.17-1.81.08-.58.21-1.08.39-1.52.17-.44.41-.79.69-1.07.29-.27.65-.42,1.09-.45.39-.03.85.02,1.38.14.53.13.98.53,1.33,1.21.17.33.37.49.62.48.25-.02.56-.1.95-.25.38-.15.84-.31,1.37-.49.54-.18,1.16-.27,1.87-.27.66,0,1.35.17,2.09.52.74.34,1.43.82,2.06,1.45Z" clip-rule="evenodd" stroke-linecap="round" stroke-linejoin="round" stroke-miterlimit="1.5"/><path d="M1929.88,1979.77c.39-.66.88-1.11,1.48-1.36s1.2-.31,1.79-.2s1.1.39,1.54.84.67,1.05.7,1.78c.02.53.04,1.21.06,2.06.01.85.02,1.77.02,2.77v3.14c0,1.1-.01,2.15-.02,3.14-.02,1-.03,1.92-.04,2.74-.02.82-.02,1.48-.02,1.97-.03.74-.04,1.61-.02,2.61.01,1,0,1.98-.04,2.93-.05.96-.14,1.85-.29,2.65-.15.81-.39,1.41-.72,1.79-.44.49-.88.78-1.34.86-.45.09-1.03.02-1.74-.2-.25-.08-.45-.18-.6-.29s-.3-.2-.45-.29c-.15-.08-.31-.13-.47-.16-.17-.03-.37,0-.62.08-.96.33-1.98.43-3.06.29s-2.09-.54-3.02-1.21-1.71-1.61-2.34-2.82c-.63-1.2-.96-2.71-.99-4.52-.02-.98.11-2.06.4-3.22.28-1.16.8-2.25,1.54-3.25s1.73-1.8,2.97-2.42c1.25-.61,2.82-.87,4.71-.76.16.03.31-.07.43-.29s.18-.48.18-.78c.03-.68.01-1.43-.06-2.24-.07-.8-.13-1.58-.18-2.32-.06-.74-.08-1.41-.06-2.01.01-.6.1-1.04.26-1.31Zm-.28,20.45c.08,0,.14-.28.18-.84s.06-1.18.04-1.85c-.01-.67-.05-1.28-.1-1.83-.06-.54-.14-.82-.25-.82-.33.03-.71.09-1.15.17s-.85.23-1.25.45-.74.53-1.03.92c-.29.4-.43.91-.43,1.54c0,.52.14.93.41,1.23.28.31.62.53,1.03.68s.84.25,1.29.29.87.06,1.26.06Z" clip-rule="evenodd" stroke-linecap="round" stroke-linejoin="round" stroke-miterlimit="1.5"/></g></g><g id="eAkPhDwM6KL99_to" transform="translate(2009.228215,2002.930718)"><g transform="translate(-2015.408631,-1993.455628)"><path d="M1967.1,1989.17c.66.22,1.26.53,1.83.93.56.39.91.95,1.04,1.66.03.25,0,.54-.1.88-.09.35-.25.67-.47.97s-.51.54-.86.72c-.36.18-.78.21-1.28.1-.49-.11-1.06-.2-1.7-.27-.65-.06-1.26-.04-1.85.09-.59.12-1.08.4-1.48.84s-.6,1.11-.6,2.01c0,1.01.16,1.81.46,2.38.3.58.68.98,1.15,1.19.46.22.99.28,1.58.17s1.16-.33,1.7-.66c.82-.49,1.52-.69,2.1-.59.57.09,1.01.37,1.31.82s.45,1,.43,1.66c-.01.66-.18,1.3-.51,1.93-.36.66-.87,1.21-1.54,1.64-.67.44-1.41.77-2.22.99s-1.62.34-2.44.35-1.58-.06-2.26-.23c-.88-.24-1.64-.61-2.28-1.11-.64-.49-1.18-1.06-1.6-1.72-.43-.66-.75-1.39-.97-2.2s-.37-1.63-.45-2.48c-.06-.61-.05-1.35.02-2.24s.24-1.8.51-2.73c.28-.93.66-1.83,1.15-2.69.5-.87,1.16-1.56,2-2.1.83-.53,1.85-.86,3.06-.96c1.2-.11,2.62.1,4.27.65Z" clip-rule="evenodd" stroke-linecap="round" stroke-linejoin="round" stroke-miterlimit="1.5"/><path d="M1973.14,1997.72c.02-1.48.26-2.8.69-3.97.44-1.16,1.05-2.15,1.81-2.97.77-.83,1.69-1.44,2.75-1.85c1.07-.41,2.28-.61,3.62-.58c1.29.06,2.43.43,3.43,1.13s1.84,1.57,2.53,2.61c.68,1.04,1.19,2.18,1.54,3.41.34,1.23.48,2.41.43,3.53-.14,2.82-.91,4.85-2.32,6.1s-3.5,1.87-6.27,1.87c-1.09,0-2.15-.18-3.16-.53-1.02-.36-1.9-.92-2.65-1.69-.75-.76-1.36-1.73-1.81-2.89-.45-1.17-.65-2.56-.59-4.17Zm5.95-.7c-.11,1.01.08,1.82.58,2.42.49.6,1.07.97,1.74,1.09s1.32-.01,1.95-.41s1.02-1.1,1.15-2.12c.11-1.01-.08-1.87-.57-2.56-.49-.7-1.08-1.15-1.75-1.34s-1.32-.07-1.95.37-1.01,1.29-1.15,2.55Z" clip-rule="evenodd" stroke-linecap="round" stroke-linejoin="round" stroke-miterlimit="1.5"/><path d="M1995.36,2004.04c-.93-1.78-1.48-3.63-1.64-5.54-.17-1.92-.22-3.88-.17-5.88.03-1.06.32-1.98.86-2.73.55-.75,1.17-1.24,1.87-1.48.7-.23,1.4-.16,2.1.21s1.21,1.11,1.54,2.24c.14.44.22,1,.24,1.68.03.69.05,1.42.05,2.2s.02,1.55.06,2.32.13,1.45.26,2.05c.14.61.35,1.09.62,1.46s.67.54,1.19.52c.55-.03.98-.22,1.29-.58.32-.36.55-.81.7-1.36.15-.54.24-1.16.27-1.84.03-.69.03-1.37.02-2.06-.01-.68-.03-1.33-.06-1.95s-.03-1.13,0-1.54c.05-1.01.38-1.8.97-2.36.58-.56,1.23-.86,1.95-.9.71-.05,1.37.17,1.99.63.61.47.98,1.22,1.09,2.26.11,1.01.18,2.12.2,3.33.03,1.2.04,2.39.04,3.57s0,2.28-.02,3.29c-.01,1.01,0,1.83.02,2.46.06.96-.18,1.67-.72,2.14-.53.46-1.14.74-1.82.84-.69.1-1.33.04-1.93-.18-.61-.22-.95-.54-1.03-.95-.11-.47-.23-.72-.37-.76s-.36.13-.66.51c-.46.58-1.11.98-1.93,1.2s-1.68.25-2.57.1-1.73-.47-2.54-.95-1.43-1.13-1.87-1.95Z" clip-rule="evenodd" stroke-linecap="round" stroke-linejoin="round" stroke-miterlimit="1.5"/><path d="M2026.82,1992.79c-.19.79-.59,1.28-1.19,1.46-.6.17-1.26.06-1.97-.35-.25-.14-.52-.3-.82-.48-.3-.17-.6-.32-.91-.45-.3-.12-.57-.17-.82-.14-.24.03-.42.18-.53.45-.19.49.01.88.61,1.15.61.27,1.36.59,2.27.95c1.47.54,2.51,1.37,3.12,2.48.6,1.11.79,2.43.57,3.96-.13.91-.42,1.68-.86,2.32-.44.65-.98,1.19-1.62,1.63-.65.44-1.37.75-2.16.94s-1.62.29-2.46.29c-1.51-.06-2.74-.56-3.7-1.5s-1.41-2.16-1.36-3.63c.03-.52.17-.99.41-1.4.25-.41.56-.71.93-.88.37-.18.77-.23,1.19-.15s.84.34,1.25.78c.66.71,1.3,1.13,1.93,1.24.63.1,1.02.05,1.15-.17.25-.41.22-.81-.08-1.21s-.68-.75-1.13-1.05-.91-.55-1.37-.76c-.47-.2-.74-.33-.83-.39-.71-.33-1.32-.71-1.82-1.15-.51-.44-.86-1.08-1.05-1.93-.33-1.62-.13-2.92.61-3.92s1.87-1.78,3.37-2.32c.36-.14.81-.23,1.36-.27s1.12-.03,1.72.04c.61.07,1.19.21,1.77.41.58.21,1.07.49,1.48.84.41.36.71.8.9,1.34.19.53.21,1.16.04,1.87Z" clip-rule="evenodd" stroke-linecap="round" stroke-linejoin="round" stroke-miterlimit="1.5"/><path d="M2038,1995.87c.02.71.05,1.48.08,2.3s.03,1.64,0,2.46c-.03.83-.1,1.64-.21,2.45-.11.8-.26,1.55-.45,2.24-.14.49-.38.86-.72,1.12-.34.27-.72.44-1.13.52s-.83.1-1.27.06-.82-.12-1.15-.22c-.33-.12-.62-.41-.86-.89-.25-.48-.44-1.02-.58-1.62s-.24-1.21-.33-1.81c-.08-.6-.12-1.09-.12-1.48-.03-.49-.06-1.17-.08-2.03-.03-.86-.03-1.78,0-2.75.02-.97.08-1.94.16-2.9s.23-1.79.45-2.5c.22-.77.59-1.35,1.09-1.73.51-.38,1.04-.57,1.6-.55.57.01,1.11.22,1.63.61.52.4.91.99,1.19,1.79.22.68.37,1.48.47,2.4s.17,1.76.23,2.53Zm-.87-13.15c.03.69-.1,1.26-.39,1.73-.28.46-.65.82-1.11,1.07-.45.24-.94.37-1.48.39-.53.01-1.02-.08-1.47-.29s-.82-.53-1.11-.97c-.29-.43-.42-1-.39-1.68-.03-.66.1-1.21.39-1.66s.65-.8,1.09-1.05c.43-.25.91-.38,1.41-.41.51-.03.98.06,1.42.27.44.2.82.52,1.13.96s.49.99.51,1.64Z" clip-rule="evenodd" stroke-linecap="round" stroke-linejoin="round" stroke-miterlimit="1.5"/><path d="M2056.64,1990.32c.66.66,1.13,1.58,1.4,2.76.28,1.17.45,2.41.53,3.71.09,1.3.1,2.58.05,3.82-.06,1.25-.09,2.27-.09,3.06c0,1.02-.27,1.8-.82,2.37-.55.56-1.14.86-1.78.9-.65.04-1.24-.2-1.77-.72-.54-.52-.79-1.37-.76-2.55c0-.55.01-1.28.04-2.21.03-.94,0-1.88-.08-2.84s-.25-1.85-.49-2.67c-.25-.82-.63-1.38-1.15-1.68-.31-.17-.63-.28-.97-.35s-.66-.06-.95.02c-.28.08-.53.24-.73.47-.21.23-.31.54-.31.92c0,.83-.02,1.72-.04,2.67-.03.96-.06,1.87-.08,2.72-.03.84-.07,1.59-.11,2.23-.04.65-.06,1.08-.06,1.3-.03.85-.35,1.5-.96,1.97-.62.46-1.29.7-2.02.72-.72.01-1.38-.22-1.97-.7s-.87-1.22-.84-2.24c.05-1.86.05-3.81-.02-5.85s-.08-3.97-.02-5.77c.02-.63.08-1.24.16-1.81.08-.58.21-1.08.39-1.52s.41-.79.7-1.07c.29-.27.65-.42,1.09-.45.38-.03.84.02,1.38.14.53.13.97.53,1.33,1.21.16.33.37.49.62.48.24-.02.56-.1.94-.25s.84-.31,1.38-.49c.53-.18,1.15-.27,1.87-.27.65,0,1.35.17,2.09.52.74.34,1.42.82,2.05,1.45Z" clip-rule="evenodd" stroke-linecap="round" stroke-linejoin="round" stroke-miterlimit="1.5"/><path d="M2074.35,1992.79c-.19.79-.59,1.28-1.19,1.46-.61.17-1.26.06-1.97-.35-.25-.14-.53-.3-.83-.48-.3-.17-.6-.32-.9-.45-.3-.12-.57-.17-.82-.14s-.43.18-.53.45c-.2.49.01.88.61,1.15s1.36.59,2.26.95c1.48.54,2.52,1.37,3.12,2.48s.8,2.43.58,3.96c-.14.91-.43,1.68-.87,2.32-.43.65-.97,1.19-1.62,1.63-.64.44-1.36.75-2.16.94-.79.19-1.61.29-2.46.29-1.5-.06-2.74-.56-3.7-1.5s-1.41-2.16-1.35-3.63c.03-.52.16-.99.41-1.4s.55-.71.92-.88c.37-.18.77-.23,1.2-.15.42.08.84.34,1.25.78.65.71,1.3,1.13,1.93,1.24.63.1,1.01.05,1.15-.17.24-.41.22-.81-.08-1.21-.31-.4-.68-.75-1.13-1.05s-.91-.55-1.38-.76c-.47-.2-.74-.33-.82-.39-.71-.33-1.32-.71-1.83-1.15s-.86-1.08-1.05-1.93c-.33-1.62-.12-2.92.62-3.92s1.86-1.78,3.37-2.32c.35-.14.81-.23,1.35-.27.55-.04,1.13-.03,1.73.04s1.19.21,1.77.41c.57.21,1.06.49,1.47.84.41.36.72.8.91,1.34.19.53.2,1.16.04,1.87Z" clip-rule="evenodd" stroke-linecap="round" stroke-linejoin="round" stroke-miterlimit="1.5"/></g></g></g><g transform="matrix(.673629 0 0 1-12.6251 77)" clip-rule="evenodd"><path id="eAkPhDwM6KL108" d="M1613.437129,2065.395334c0,0,55.49633-44.557257,76.732871-29.835334c31.03,15.98,20.62,47.69.21,63.44" clip-rule="evenodd" fill="none" fill-rule="evenodd" stroke="#000" stroke-width="7" stroke-linecap="round" stroke-linejoin="round" stroke-miterlimit="1.5"/></g><g transform="matrix(.673629 0 0 1-5.88878 74)" clip-rule="evenodd"><path d="M1805,2071l49.56,23" clip-rule="evenodd" fill="none" fill-rule="evenodd" stroke="#000" stroke-width="7" stroke-linecap="round" stroke-linejoin="round" stroke-miterlimit="1.5"/></g><g transform="matrix(.673629 0 0 1-5.21515 70)" clip-rule="evenodd"><path d="M1819,2079.18l10.72-15.18l16.28,7-6,18.51-21-10.33Z" clip-rule="evenodd" fill-rule="evenodd" stroke="#000" stroke-width="5.5" stroke-linecap="round" stroke-linejoin="round" stroke-miterlimit="1.5"/></g></g></g></g></svg>