<?xml version="1.0" encoding="UTF-8" standalone="no"?>
<!DOCTYPE svg PUBLIC "-//W3C//DTD SVG 1.1//EN" "http://www.w3.org/Graphics/SVG/1.1/DTD/svg11.dtd">
<svg width="100%" height="100%" viewBox="0 0 53 46" version="1.1" xmlns="http://www.w3.org/2000/svg" xmlns:xlink="http://www.w3.org/1999/xlink" xml:space="preserve" xmlns:serif="http://www.serif.com/" style="fill-rule:evenodd;clip-rule:evenodd;stroke-linejoin:round;stroke-miterlimit:2;">
    <g id="Artboard1" transform="matrix(1,0,0,0.92,0.03125,0)">
        <rect x="-0.031" y="0" width="52.031" height="50" style="fill:none;"/>
        <g transform="matrix(1,0,0,1.08696,0.96875,-2.17391)">
            <path d="M24.156,3C23.852,3 23.551,3.063 23.25,3.156C22.645,3.348 22.066,3.707 21.563,4.219C18.128,8.501 14.179,12.393 9.813,15.969L4,16.969C2.332,16.969 0.969,18.332 0.969,20L-0.031,31C-0.031,32.668 1.332,34.031 3,34.031L9.813,34.031C14.411,37.209 18.341,41.069 21.531,45.688C22.648,46.809 24.082,47.301 25.25,46.75C26.426,46.195 27,44.859 27,43.313C26.283,31.012 26.234,18.681 27,6.313C27,4.813 26.234,3.566 25.063,3.156C24.77,3.055 24.461,3 24.156,3ZM24.188,5C24.289,5 24.367,5.008 24.438,5.031C24.723,5.129 25,5.383 25,6.313C24.008,18.646 24.091,30.979 25,43.313C25,44.379 24.648,44.855 24.406,44.969C24.164,45.082 23.676,45.094 22.906,44.313C19.902,38.8 15.608,34.708 10.313,31.719C10.293,31.707 10.27,31.695 10.25,31.688C10.324,31.754 10,31.121 10,30.75L10,19.25C10,18.879 10.336,18.238 10.25,18.313C10.273,18.293 10.293,18.273 10.313,18.25C14.723,14.333 18.971,10.169 22.969,5.625C23.438,5.152 23.879,5.004 24.188,5ZM37.281,5.813C36.844,5.887 36.508,6.242 36.457,6.684C36.41,7.125 36.652,7.547 37.063,7.719C43.012,10.719 48.063,17.871 48.063,25C48.063,32.129 44.012,38.281 38.063,41.281C37.695,41.406 37.438,41.734 37.395,42.117C37.352,42.504 37.535,42.879 37.867,43.082C38.195,43.281 38.613,43.273 38.938,43.063C45.539,39.73 49.063,31.895 49.063,24C49.063,16.105 44.539,9.27 37.938,5.938C37.766,5.84 37.57,5.797 37.375,5.813L37.281,5.813ZM34.719,12.125C34.273,12.18 33.918,12.527 33.855,12.973C33.789,13.414 34.027,13.848 34.438,14.031C38.34,16.137 41,21.246 41,26C41,30.738 38.352,33.859 34.469,35.969C33.984,36.234 33.809,36.844 34.078,37.328C34.344,37.813 34.953,37.988 35.438,37.719C39.945,35.27 43,31.484 43,26C43,20.5 39.938,14.695 35.406,12.25C35.227,12.148 35.02,12.105 34.813,12.125L34.719,12.125ZM4,19.031L8.188,18.031C8.059,18.414 8,18.832 8,19.25L8,30.75C8,31.168 8.063,31.582 8.188,31.969L3,31.969C2.461,31.969 2.031,31.539 2.031,31L3.031,20C3.031,19.461 3.461,19.031 4,19.031ZM31.531,17.406C31.047,17.465 30.68,17.863 30.656,18.352C30.633,18.836 30.961,19.27 31.438,19.375C33.484,19.91 34,22.777 34,25C34,27.223 32.484,29.09 30.438,29.625C29.902,29.762 29.582,30.309 29.719,30.844C29.855,31.379 30.402,31.699 30.938,31.563C33.848,30.801 36,28.137 36,25C36,21.863 34.848,18.199 31.938,17.438C31.805,17.398 31.668,17.391 31.531,17.406Z" style="fill-rule:nonzero;stroke:black;stroke-width:1.5px;"/>
        </g>
    </g>
</svg>
