<?xml version="1.0" encoding="UTF-8" standalone="no"?><!DOCTYPE svg PUBLIC "-//W3C//DTD SVG 1.1//EN" "http://www.w3.org/Graphics/SVG/1.1/DTD/svg11.dtd"><svg width="100%" height="100%" viewBox="0 0 1286 618" version="1.1" xmlns="http://www.w3.org/2000/svg" xmlns:xlink="http://www.w3.org/1999/xlink" xml:space="preserve" xmlns:serif="http://www.serif.com/" style="fill-rule:evenodd;clip-rule:evenodd;stroke-linecap:round;stroke-linejoin:round;stroke-miterlimit:1.5;"><g id="three-trolleys"><g id="trolley"><path d="M111.713,282.454l-64.878,-20.715c-0,-0 -1.85,-78.828 -2.133,-88.237c-0.283,-9.41 -4.032,-48.227 -7,-63.276c-11.582,-4.462 -61.245,-19.021 -16,-47.724c25.52,-5.724 70.853,-11.03 80.602,-18.178c9.75,-7.148 0.04,-6.586 0,-15.822c16.79,-9.784 31.605,-24.493 92.398,-25.632c60.793,-1.139 190.19,13.051 230,30.745c39.81,17.694 56.632,19.759 61.414,26.553c-13.412,1.679 -14.414,0 -14.414,0l2,38.334c0,-0 52.656,16.454 52.53,47c-3.543,9.624 -9.539,19.127 -16.53,22c0.93,10.968 1.69,126.199 0,134c-1.69,7.801 0.81,39.96 -50,61c-11.968,6.858 -35.199,14.838 -55,19c-16.242,-0.031 -64.499,-4.424 -110.78,-35c-8.113,4.373 -30.116,7.383 -23.266,-8c-8.06,8.952 -30.65,9.174 -29.954,-8c0.536,-13.228 -3.687,-12.819 0,-21c-11.187,-0.902 -16.756,15.118 -34.215,-7.017c-28.642,-2.034 -27.16,-13.463 -34.785,-24.983c9.826,23.054 -6.027,33.077 -16.257,31.496c-10.886,-1.682 -26.002,-0.499 -32.077,-4.575c-15.237,-10.224 -10.628,-28.256 -11.655,-21.969Z" style="fill:#fff;"/><path d="M39.702,112.502c0,-0 5.526,140.638 9,148c3.475,7.361 51.677,20.22 64,24c12.323,3.779 2.823,-39.601 30,-32c27.177,7.6 149.105,58.164 152,61c2.896,2.835 -2.634,26.869 7,35c9.634,8.13 79.79,30.683 91,33c11.21,2.316 104.721,-65.918 113,-75c8.28,-9.083 3.275,-121.965 1,-133" style="fill:none;stroke:#000;stroke-width:7px;"/><path d="M101.702,40.502c0,-0 -203.204,50.654 -25,75c87.685,19.612 167.486,41.612 198.295,45c30.808,3.387 144.081,32.311 214.705,17c70.624,-15.312 30.16,-70.189 -3,-77c-41.464,4.667 -76.963,13.675 -92,15c-15.036,1.324 -265.149,-51.916 -284,-59c-0.168,-8.414 -9,-16 -9,-16Z" style="fill:none;stroke:#000;stroke-width:7px;"/><path d="M85.702,33.502c0,-0 219.815,19.423 290,51c22.718,-11.439 27.334,-21.233 110,-19c-21.211,-18.741 -98.663,-62.299 -308,-62c-29.368,-0 -71.958,12.157 -92,30Z" style="fill:none;stroke:#000;stroke-width:7px;"/><path d="M377.702,84.502l0,28" style="fill:none;stroke:#000;stroke-width:7px;"/><path d="M472.702,65.502l0,34.5" style="fill:none;stroke:#000;stroke-width:7px;"/><path d="M300.702,65.502l0,32.5" style="fill:none;stroke:#000;stroke-width:7px;"/><path d="M165.702,67.502l0,-25" style="fill:none;stroke:#000;stroke-width:7px;"/><path d="M62.702,176.502l31,5.441c0,-0 1.129,-41.441 -11,-41.441c-12.129,-0 -20,12.148 -20,36Z" style="fill:none;stroke:#000;stroke-width:7px;"/><path d="M116.702,188.502l34,5c0,-0 9.287,-39 -11,-39c-20.287,-0 -23,21.415 -23,34Z" style="fill:none;stroke:#000;stroke-width:7px;"/><path d="M174.702,202.502l36,8c0,-0 5.936,-42.58 -10,-42c-15.935,0.579 -26,15.896 -26,34Z" style="fill:none;stroke:#000;stroke-width:7px;"/><path d="M238.702,216.502l36,6c0,-0 8.087,-40.559 -15,-40.559c-23.087,-0 -21,19.788 -21,34.559Z" style="fill:none;stroke:#000;stroke-width:7px;"/><path d="M313.702,339.502l61,17l2,-163l-64,-11.559l1,157.559Z" style="fill:none;stroke:#000;stroke-width:7px;"/><path d="M344.702,189.499l0,158.003" style="fill:none;stroke:#000;stroke-width:7px;"/><rect x="322.702" y="210.502" width="10" height="43" style="fill:none;stroke:#000;stroke-width:7px;"/><path d="M414.702,268.5l93,-36.999" style="fill:none;stroke:#000;stroke-width:7px;"/><path d="M450.463,202.502c-0,-0 36.232,-49.747 35.239,37" style="fill:none;stroke:#000;stroke-width:7px;"/><path d="M481.702,194.502c0,-0 14.052,-19.973 26,-3" style="fill:none;stroke:#000;stroke-width:7px;"/><path d="M416.702,336.502c0,-0 -19.438,7.99 -4.273,20c11.717,9.278 18.058,-26.353 4.273,-20Z" style="fill:none;stroke:#000;stroke-width:7px;"/><path d="M493.702,287.502c0,-0 -12.855,11.206 0,13c12.856,1.793 5.201,-19.78 0,-13Z" style="fill:none;stroke:#000;stroke-width:7px;"/><path d="M394.702,381.502c5.994,0.958 117.593,-19.482 111,-73.714" style="fill:none;stroke:#000;stroke-width:7px;"/><path d="M172.997,291.923c0,0 19.791,21.676 22.705,1.135c2.914,-20.541 1.04,38.977 27,-9.556c-0.821,15.01 -2.185,38.49 37.311,15" style="fill:none;stroke:#000;stroke-width:7px;"/><path d="M147.594,262.4c8.553,3.127 12.633,13.5 9.105,23.151c-3.528,9.651 -13.336,14.948 -21.889,11.821c-8.553,-3.126 -12.633,-13.5 -9.105,-23.151c3.528,-9.651 13.336,-14.948 21.889,-11.821Z" style="fill:#fff;stroke:#000;stroke-width:7px;"/><path d="M176.045,272.833c7.381,2.699 10.901,11.651 7.857,19.979c-3.044,8.328 -11.508,12.899 -18.889,10.201c-7.381,-2.698 -10.902,-11.65 -7.857,-19.978c3.044,-8.329 11.508,-12.9 18.889,-10.202Z" style="fill:#fff;stroke:#000;stroke-width:7px;"/><path d="M260.53,308.778c7.38,2.698 10.901,11.65 7.856,19.978c-3.044,8.329 -11.508,12.9 -18.889,10.201c-7.381,-2.698 -10.901,-11.65 -7.857,-19.978c3.045,-8.328 11.509,-12.899 18.89,-10.201Z" style="fill:#fff;stroke:#000;stroke-width:7px;"/><path d="M287.354,319.474c7.38,2.698 10.901,11.65 7.857,19.978c-3.045,8.328 -11.509,12.899 -18.89,10.201c-7.381,-2.698 -10.901,-11.65 -7.857,-19.978c3.045,-8.329 11.509,-12.9 18.89,-10.201Z" style="fill:#fff;stroke:#000;stroke-width:7px;"/><path d="M442.702,330.502l34,-24l0,-40l-36,14.528l2,49.472Z" style="fill:none;stroke:#000;stroke-width:7px;"/><path d="M402.702,180.502l-9,201.057" style="fill:none;stroke:#000;stroke-width:7px;"/><path d="M413.702,268.5c0,0 -9.027,-73.998 21,-73.998c25.028,-1 15,47.401 15,59" style="fill:none;stroke:#000;stroke-width:7px;"/><path d="M353.702,210.502l13,-0l-2,47l-11,-1l0,-46Z" style="fill:none;stroke:#000;stroke-width:7px;"/></g><g id="trolley1" serif:id="trolley"><path d="M492.22,400.141l-64.878,-20.715c0,0 -1.849,-78.828 -2.132,-88.237c-0.284,-9.409 -4.032,-48.227 -7,-63.275c-11.582,-4.462 -61.245,-19.022 -16,-47.725c25.52,-5.723 70.852,-11.03 80.602,-18.177c9.749,-7.148 0.04,-6.586 -0,-15.823c16.789,-9.784 31.605,-24.493 92.398,-25.632c60.792,-1.138 190.19,13.051 230,30.745c39.81,17.694 56.632,19.76 61.414,26.554c-13.413,1.678 -14.414,-0 -14.414,-0l2,38.333c-0,-0 52.655,16.454 52.53,47c-3.543,9.625 -9.54,19.128 -16.53,22c0.93,10.969 1.689,126.199 -0,134c-1.69,7.801 0.809,39.96 -50,61c-11.968,6.859 -35.2,14.838 -55,19c-16.242,-0.03 -64.5,-4.423 -110.78,-35c-8.113,4.373 -30.116,7.383 -23.267,-8c-8.059,8.952 -30.649,9.175 -29.953,-8c0.535,-13.228 -3.687,-12.818 -0,-21c-11.188,-0.901 -16.757,15.118 -34.216,-7.016c-28.641,-2.035 -27.16,-13.463 -34.784,-24.984c9.825,23.055 -6.028,33.078 -16.258,31.497c-10.885,-1.683 -26.002,-0.5 -32.077,-4.576c-15.237,-10.224 -10.628,-28.255 -11.655,-21.969Z" style="fill:#fff;"/><path d="M420.21,230.189c-0,-0 5.525,140.638 9,148c3.474,7.361 51.677,20.221 64,24c12.322,3.779 2.822,-39.601 30,-32c27.177,7.601 149.104,58.164 152,61c2.895,2.836 -2.634,26.869 7,35c9.634,8.131 79.789,30.683 91,33c11.21,2.317 104.72,-65.918 113,-75c8.279,-9.082 3.274,-121.965 1,-133" style="fill:none;stroke:#000;stroke-width:7px;"/><path d="M482.21,158.189c-0,-0 -203.204,50.655 -25,75c87.685,19.613 167.485,41.612 198.294,45c30.809,3.388 144.082,32.312 214.706,17c70.623,-15.312 30.159,-70.188 -3,-77c-41.464,4.667 -76.964,13.676 -92,15c-15.037,1.324 -265.15,-51.915 -284,-59c-0.169,-8.414 -9,-16 -9,-16Z" style="fill:none;stroke:#000;stroke-width:7px;"/><path d="M466.21,151.189c-0,-0 219.814,19.423 290,51c22.718,-11.439 27.334,-21.233 110,-19c-21.212,-18.741 -98.664,-62.299 -308,-62c-29.369,-0 -71.958,12.157 -92,30Z" style="fill:none;stroke:#000;stroke-width:7px;"/><path d="M758.21,202.189l-0,28" style="fill:none;stroke:#000;stroke-width:7px;"/><path d="M853.21,183.189l-0,34.5" style="fill:none;stroke:#000;stroke-width:7px;"/><path d="M681.21,183.189l-0,32.5" style="fill:none;stroke:#000;stroke-width:7px;"/><path d="M546.21,185.189l-0,-25" style="fill:none;stroke:#000;stroke-width:7px;"/><path d="M443.21,294.189l31,5.441c-0,-0 1.129,-41.441 -11,-41.441c-12.13,-0 -20,12.148 -20,36Z" style="fill:none;stroke:#000;stroke-width:7px;"/><path d="M497.21,306.189l34,5c-0,-0 9.287,-39 -11,-39c-20.288,-0 -23,21.415 -23,34Z" style="fill:none;stroke:#000;stroke-width:7px;"/><path d="M555.21,320.189l36,8c-0,-0 5.935,-42.579 -10,-42c-15.936,0.579 -26,15.896 -26,34Z" style="fill:none;stroke:#000;stroke-width:7px;"/><path d="M619.21,334.189l36,6c-0,-0 8.086,-40.559 -15,-40.559c-23.087,-0 -21,19.789 -21,34.559Z" style="fill:none;stroke:#000;stroke-width:7px;"/><path d="M694.21,457.189l61,17l2,-163l-64,-11.559l1,157.559Z" style="fill:none;stroke:#000;stroke-width:7px;"/><path d="M725.21,307.186l-0,158.003" style="fill:none;stroke:#000;stroke-width:7px;"/><rect x="703.21" y="328.189" width="10" height="43" style="fill:none;stroke:#000;stroke-width:7px;"/><path d="M795.21,386.187l93,-36.999" style="fill:none;stroke:#000;stroke-width:7px;"/><path d="M830.97,320.189c-0,-0 36.232,-49.747 35.24,37" style="fill:none;stroke:#000;stroke-width:7px;"/><path d="M862.21,312.189c-0,-0 14.052,-19.973 26,-3" style="fill:none;stroke:#000;stroke-width:7px;"/><path d="M797.21,454.189c-0,-0 -19.439,7.99 -4.273,20c11.716,9.279 18.057,-26.353 4.273,-20Z" style="fill:none;stroke:#000;stroke-width:7px;"/><path d="M874.21,405.189c-0,-0 -12.856,11.207 -0,13c12.855,1.793 5.2,-19.78 -0,-13Z" style="fill:none;stroke:#000;stroke-width:7px;"/><path d="M775.21,499.189c5.993,0.958 117.592,-19.482 111,-73.713" style="fill:none;stroke:#000;stroke-width:7px;"/><path d="M553.505,409.611c-0,-0 19.79,21.676 22.705,1.135c2.914,-20.541 1.04,38.976 27,-9.557c-0.822,15.01 -2.186,38.491 37.311,15" style="fill:none;stroke:#000;stroke-width:7px;"/><path d="M528.102,380.087c8.553,3.127 12.633,13.501 9.105,23.152c-3.528,9.651 -13.337,14.948 -21.89,11.821c-8.553,-3.127 -12.632,-13.501 -9.104,-23.151c3.528,-9.651 13.336,-14.948 21.889,-11.822Z" style="fill:#fff;stroke:#000;stroke-width:7px;"/><path d="M556.553,390.521c7.38,2.698 10.901,11.65 7.856,19.978c-3.044,8.329 -11.508,12.899 -18.889,10.201c-7.381,-2.698 -10.901,-11.65 -7.857,-19.978c3.045,-8.328 11.509,-12.899 18.89,-10.201Z" style="fill:#fff;stroke:#000;stroke-width:7px;"/><path d="M641.037,426.465c7.381,2.699 10.901,11.651 7.857,19.979c-3.045,8.328 -11.509,12.899 -18.889,10.201c-7.381,-2.698 -10.902,-11.65 -7.857,-19.979c3.044,-8.328 11.508,-12.899 18.889,-10.201Z" style="fill:#fff;stroke:#000;stroke-width:7px;"/><path d="M667.861,437.161c7.381,2.698 10.901,11.65 7.857,19.978c-3.044,8.329 -11.508,12.9 -18.889,10.201c-7.381,-2.698 -10.902,-11.65 -7.857,-19.978c3.044,-8.328 11.508,-12.899 18.889,-10.201Z" style="fill:#fff;stroke:#000;stroke-width:7px;"/><path d="M823.21,448.189l34,-24l-0,-40l-36,14.529l2,49.471Z" style="fill:none;stroke:#000;stroke-width:7px;"/><path d="M783.21,298.189l-9,201.058" style="fill:none;stroke:#000;stroke-width:7px;"/><path d="M794.21,386.187c-0,0 -9.028,-73.998 21,-73.998c25.027,-1 15,47.402 15,59" style="fill:none;stroke:#000;stroke-width:7px;"/><path d="M734.21,328.189l13,-0l-2,47l-11,-1l-0,-46Z" style="fill:none;stroke:#000;stroke-width:7px;"/></g><g id="trolley2" serif:id="trolley"><path d="M865.341,515.314l-64.878,-20.715c0,-0 -1.849,-78.828 -2.132,-88.237c-0.283,-9.409 -4.032,-48.227 -7,-63.276c-11.582,-4.461 -61.245,-19.021 -16,-47.724c25.52,-5.724 70.852,-11.03 80.602,-18.178c9.75,-7.147 0.04,-6.586 -0,-15.822c16.789,-9.784 31.605,-24.493 92.398,-25.632c60.793,-1.139 190.19,13.051 230,30.745c39.81,17.694 56.632,19.76 61.414,26.553c-13.413,1.679 -14.414,0 -14.414,0l2,38.334c-0,-0 52.655,16.454 52.53,47c-3.543,9.624 -9.54,19.128 -16.53,22c0.93,10.969 1.69,126.199 -0,134c-1.69,7.801 0.81,39.96 -50,61c-11.968,6.858 -35.2,14.838 -55,19c-16.242,-0.031 -64.5,-4.423 -110.78,-35c-8.113,4.373 -30.116,7.383 -23.267,-8c-8.059,8.952 -30.649,9.175 -29.953,-8c0.536,-13.228 -3.687,-12.818 -0,-21c-11.188,-0.902 -16.757,15.118 -34.215,-7.017c-28.642,-2.034 -27.161,-13.463 -34.785,-24.983c9.825,23.054 -6.028,33.077 -16.258,31.497c-10.885,-1.683 -26.002,-0.5 -32.076,-4.576c-15.238,-10.224 -10.629,-28.256 -11.656,-21.969Z" style="fill:#fff;"/><path d="M793.331,345.362c-0,-0 5.525,140.638 9,148c3.474,7.361 51.677,20.22 64,24c12.322,3.779 2.822,-39.601 30,-32c27.177,7.6 149.104,58.164 152,61c2.895,2.835 -2.634,26.869 7,35c9.634,8.13 79.789,30.683 91,33c11.21,2.317 104.72,-65.918 113,-75c8.279,-9.083 3.274,-121.965 1,-133" style="fill:none;stroke:#000;stroke-width:7px;"/><path d="M855.331,273.362c-0,-0 -203.204,50.654 -25,75c87.685,19.612 167.485,41.612 198.294,45c30.809,3.387 144.082,32.311 214.706,17c70.624,-15.312 30.159,-70.188 -3,-77c-41.464,4.667 -76.964,13.675 -92,15c-15.037,1.324 -265.15,-51.916 -284,-59c-0.169,-8.414 -9,-16 -9,-16Z" style="fill:none;stroke:#000;stroke-width:7px;"/><path d="M839.331,266.362c-0,-0 219.815,19.423 290,51c22.718,-11.439 27.334,-21.233 110,-19c-21.212,-18.741 -98.664,-62.299 -308,-62c-29.368,-0 -71.958,12.157 -92,30Z" style="fill:none;stroke:#000;stroke-width:7px;"/><path d="M1131.33,317.362l-0,28" style="fill:none;stroke:#000;stroke-width:7px;"/><path d="M1226.33,298.362l-0,34.5" style="fill:none;stroke:#000;stroke-width:7px;"/><path d="M1054.33,298.362l-0,32.5" style="fill:none;stroke:#000;stroke-width:7px;"/><path d="M919.331,300.362l-0,-25" style="fill:none;stroke:#000;stroke-width:7px;"/><path d="M816.331,409.362l31,5.441c-0,-0 1.129,-41.441 -11,-41.441c-12.129,-0 -20,12.148 -20,36Z" style="fill:none;stroke:#000;stroke-width:7px;"/><path d="M870.331,421.362l34,5c-0,-0 9.287,-39 -11,-39c-20.288,-0 -23,21.415 -23,34Z" style="fill:none;stroke:#000;stroke-width:7px;"/><path d="M928.331,435.362l36,8c-0,-0 5.935,-42.58 -10,-42c-15.936,0.579 -26,15.896 -26,34Z" style="fill:none;stroke:#000;stroke-width:7px;"/><path d="M992.331,449.362l36,6c-0,-0 8.087,-40.559 -15,-40.559c-23.087,-0 -21,19.788 -21,34.559Z" style="fill:none;stroke:#000;stroke-width:7px;"/><path d="M1067.33,572.362l61,17l2,-163l-64,-11.559l1,157.559Z" style="fill:none;stroke:#000;stroke-width:7px;"/><path d="M1098.33,422.359l-0,158.003" style="fill:none;stroke:#000;stroke-width:7px;"/><rect x="1076.33" y="443.362" width="10" height="43" style="fill:none;stroke:#000;stroke-width:7px;"/><path d="M1168.33,501.36l93,-36.999" style="fill:none;stroke:#000;stroke-width:7px;"/><path d="M1204.09,435.362c0,-0 36.232,-49.747 35.24,37" style="fill:none;stroke:#000;stroke-width:7px;"/><path d="M1235.33,427.362c-0,-0 14.052,-19.973 26,-3" style="fill:none;stroke:#000;stroke-width:7px;"/><path d="M1170.33,569.362c-0,-0 -19.439,7.99 -4.273,20c11.716,9.278 18.058,-26.353 4.273,-20Z" style="fill:none;stroke:#000;stroke-width:7px;"/><path d="M1247.33,520.362c-0,-0 -12.856,11.207 -0,13c12.855,1.793 5.2,-19.78 -0,-13Z" style="fill:none;stroke:#000;stroke-width:7px;"/><path d="M1148.33,614.362c5.993,0.958 117.592,-19.482 111,-73.714" style="fill:none;stroke:#000;stroke-width:7px;"/><path d="M926.626,524.783c-0,0 19.791,21.676 22.705,1.135c2.914,-20.541 1.04,38.977 27,-9.556c-0.822,15.01 -2.186,38.49 37.311,15" style="fill:none;stroke:#000;stroke-width:7px;"/><path d="M901.223,495.26c8.553,3.127 12.633,13.5 9.105,23.151c-3.528,9.651 -13.337,14.948 -21.89,11.822c-8.553,-3.127 -12.632,-13.501 -9.104,-23.152c3.528,-9.651 13.336,-14.948 21.889,-11.821Z" style="fill:#fff;stroke:#000;stroke-width:7px;"/><path d="M929.674,505.694c7.38,2.698 10.901,11.65 7.857,19.978c-3.045,8.328 -11.509,12.899 -18.89,10.201c-7.381,-2.698 -10.901,-11.65 -7.857,-19.978c3.045,-8.329 11.509,-12.9 18.89,-10.201Z" style="fill:#fff;stroke:#000;stroke-width:7px;"/><path d="M1014.16,541.638c7.381,2.698 10.901,11.65 7.857,19.979c-3.044,8.328 -11.508,12.899 -18.889,10.201c-7.381,-2.698 -10.902,-11.651 -7.857,-19.979c3.044,-8.328 11.508,-12.899 18.889,-10.201Z" style="fill:#fff;stroke:#000;stroke-width:7px;"/><path d="M1040.98,552.334c7.381,2.698 10.902,11.65 7.857,19.978c-3.044,8.328 -11.508,12.899 -18.889,10.201c-7.381,-2.698 -10.902,-11.65 -7.857,-19.978c3.044,-8.328 11.508,-12.899 18.889,-10.201Z" style="fill:#fff;stroke:#000;stroke-width:7px;"/><path d="M1196.33,563.362l34,-24l-0,-40l-36,14.529l2,49.471Z" style="fill:none;stroke:#000;stroke-width:7px;"/><path d="M1156.33,413.362l-9,201.057" style="fill:none;stroke:#000;stroke-width:7px;"/><path d="M1167.33,501.36c-0,0 -9.028,-73.998 21,-73.998c25.027,-1 15,47.402 15,59" style="fill:none;stroke:#000;stroke-width:7px;"/><path d="M1107.33,443.362l13,-0l-2,47l-11,-1l-0,-46Z" style="fill:none;stroke:#000;stroke-width:7px;"/></g></g></svg>