<svg id="eRYTXJBufUq1" xmlns="http://www.w3.org/2000/svg" xmlns:xlink="http://www.w3.org/1999/xlink" viewBox="0 0 458 318" shape-rendering="geometricPrecision" text-rendering="geometricPrecision"><style><![CDATA[#eRYTXJBufUq5_ts {animation: eRYTXJBufUq5_ts__ts 500ms linear infinite alternate-reverse forwards}@keyframes eRYTXJBufUq5_ts__ts { 0% {transform: translate(482.608264px,2094.78026px) scale(0.703165,1.00272);animation-timing-function: cubic-bezier(0.42,0,0.58,1)} 100% {transform: translate(482.608264px,2094.78026px) scale(0.703165,0.803011)}} #eRYTXJBufUq12 {animation: eRYTXJBufUq12__m 500ms linear infinite alternate-reverse forwards}@keyframes eRYTXJBufUq12__m { 0% {d: path('M487,2460L494,2424C500.304,2441.48,512.701,2452.87,532,2457.36L560,2417C559.573,2441.97,569.218,2460.34,586,2474.03L636,2425C639.694,2448.86,650.636,2468.89,669,2485L707,2456C708.797,2477.91,722.33,2492,739,2504L795,2468C789.755,2489.09,796.045,2503.54,811,2513');animation-timing-function: cubic-bezier(0.42,0,0.58,1)} 100% {d: path('M487,2460L494,2424C499.474042,2443.69437,512.373313,2453.744285,532,2457.36L557.727589,2420.494933C557.300589,2459.575624,569.218,2464.934842,586,2474.03L637.586941,2427.927554C629.693867,2462.613117,647.139943,2476.468708,669,2485L710.017516,2459.516191C710.527629,2481.426191,721.34933,2492,739,2504L792.198366,2471.903896C781.983798,2500.395611,796.045,2503.54,811,2513')}} #eRYTXJBufUq12_to {animation: eRYTXJBufUq12_to__to 500ms linear infinite alternate-reverse forwards}@keyframes eRYTXJBufUq12_to__to { 0% {transform: translate(649px,2465px);animation-timing-function: cubic-bezier(0.42,0,0.58,1)} 100% {transform: translate(649px,2472.999976px)}} #eRYTXJBufUq12_ts {animation: eRYTXJBufUq12_ts__ts 500ms linear infinite alternate-reverse forwards}@keyframes eRYTXJBufUq12_ts__ts { 0% {transform: scale(1,1);animation-timing-function: cubic-bezier(0.42,0,0.58,1)} 100% {transform: scale(1,0.749611)}} #eRYTXJBufUq13_ts {animation: eRYTXJBufUq13_ts__ts 500ms linear infinite alternate-reverse forwards}@keyframes eRYTXJBufUq13_ts__ts { 0% {transform: translate(218.380342px,2027.977545px) scale(0.703165,0.644764);animation-timing-function: cubic-bezier(0.42,0,0.58,1)} 100% {transform: translate(218.380342px,2027.977545px) scale(0.703165,1.04385)}} #eRYTXJBufUq15_ts {animation: eRYTXJBufUq15_ts__ts 500ms linear infinite alternate-reverse forwards}@keyframes eRYTXJBufUq15_ts__ts { 0% {transform: translate(257.970175px,2038.941911px) scale(0.703165,1.04385);animation-timing-function: cubic-bezier(0.42,0,0.58,1)} 100% {transform: translate(257.970175px,2038.941911px) scale(0.703165,0.614565)}} #eRYTXJBufUq17_ts {animation: eRYTXJBufUq17_ts__ts 500ms linear infinite alternate-reverse forwards}@keyframes eRYTXJBufUq17_ts__ts { 0% {transform: translate(297.245347px,2056.403489px) scale(0.703165,0.688875);animation-timing-function: cubic-bezier(0.42,0,0.58,1)} 100% {transform: translate(297.245347px,2056.403489px) scale(0.703165,1.04385)}} #eRYTXJBufUq19_ts {animation: eRYTXJBufUq19_ts__ts 500ms linear infinite alternate-reverse forwards}@keyframes eRYTXJBufUq19_ts__ts { 0% {transform: translate(339.868407px,2066.599288px) scale(0.703165,1.04385);animation-timing-function: cubic-bezier(0.42,0,0.58,1)} 100% {transform: translate(339.868407px,2066.599288px) scale(0.703165,0.5292)}}]]></style><g transform="translate(-433.021-2413.5)" clip-rule="evenodd"><g transform="matrix(1.4845 0 0 1-.005292 0)" clip-rule="evenodd"><g transform="matrix(.957995 0 0 0.957995 108.197 589.749)" clip-rule="evenodd"><g id="eRYTXJBufUq5_ts" transform="translate(482.608264,2094.78026) scale(0.703165,0.803011)"><g transform="translate(-846.949534,-2597.902964)" clip-rule="evenodd"><path d="M805,2614l9-29.45c.344586,7.789115,6.063836,16.267028,10,20.45l18-29c.920125,9.03454,8.141202,17.387581,13,21.21l20-33.97c.610906,7.636206,4.213584,17.048567,7.232,18.76L805,2614Z" clip-rule="evenodd" fill="#fff" fill-rule="evenodd" stroke="#000" stroke-width="7.14" stroke-linecap="round" stroke-linejoin="round" stroke-miterlimit="1.5"/></g></g><g transform="matrix(.673629 0 0 1 0.003565 0)" clip-rule="evenodd"><path d="M288,1962c0,0,5.525,140.64,9,148s51.677,20.22,64,24s2.823-39.6,30-32s149.105,58.16,152,61-2.634,26.87,7,35s79.79,30.68,91,33s104.721-65.92,113-75s3.275-121.96,1-133" clip-rule="evenodd" fill="none" fill-rule="evenodd" stroke="#000" stroke-width="7.31" stroke-linecap="round" stroke-linejoin="round" stroke-miterlimit="1.5"/></g><g transform="matrix(.673629 0 0 1 0.003565 0)" clip-rule="evenodd"><path d="M751.57,2023.87c23.606-5.12-238.667-65.24-238.667-65.24l-123.155-26.64c-5.897,2.67-169.551,31.39-64.748,33.01c87.685,19.61,167.486,41.61,198.294,45c30.809,3.39,157.652,29.18,228.276,13.87Z" clip-rule="evenodd" fill="none" fill-rule="evenodd" stroke="#000" stroke-width="7.31" stroke-linecap="round" stroke-linejoin="round" stroke-miterlimit="1.5"/></g><g transform="matrix(.703165 0 0 1.04385-112.937-615.608)" clip-rule="evenodd"><g id="eRYTXJBufUq12_to" transform="translate(649,2472.999976)"><g id="eRYTXJBufUq12_ts" transform="scale(1,0.749611)"><path id="eRYTXJBufUq12" d="M487,2460l7-36c5.474042,19.69437,18.373313,29.744285,38,33.36l25.727589-36.865067C557.300589,2459.575624,569.218,2464.934842,586,2474.03l51.586941-46.102446C629.693867,2462.613117,647.139943,2476.468708,669,2485l41.017516-25.483809C710.527629,2481.426191,721.34933,2492,739,2504l53.198366-32.096104C781.983798,2500.395611,796.045,2503.54,811,2513" transform="translate(-649,-2465)" clip-rule="evenodd" fill="#fff" fill-rule="evenodd" stroke="#000" stroke-width="7" stroke-linecap="round" stroke-linejoin="round" stroke-miterlimit="1.5"/></g></g></g><g id="eRYTXJBufUq13_ts" transform="translate(218.380342,2027.977545) scale(0.703165,1.04385)"><g transform="translate(-471.18009,-2532.533933)" clip-rule="evenodd"><path d="M463,2530l8-17c.708406,5.731376,5.504805,16.009077,9,21" clip-rule="evenodd" fill="none" fill-rule="evenodd" stroke="#000" stroke-width="7" stroke-linecap="round" stroke-linejoin="round" stroke-miterlimit="1.5"/></g></g><g id="eRYTXJBufUq15_ts" transform="translate(257.970175,2038.941911) scale(0.703165,0.614565)"><g transform="translate(-527.482418,-2543.037705)" clip-rule="evenodd"><path d="M519,2541.09l10-17.26c-.321152,6.478036,3.298032,15.854687,7,18.97" clip-rule="evenodd" fill="none" fill-rule="evenodd" stroke="#000" stroke-width="7" stroke-linecap="round" stroke-linejoin="round" stroke-miterlimit="1.5"/></g></g><g id="eRYTXJBufUq17_ts" transform="translate(297.245347,2056.403489) scale(0.703165,1.04385)"><g transform="translate(-583.337267,-2559.765761)" clip-rule="evenodd"><path d="M574,2554.53l9.57-16.53c.5541,7.795499,5.00452,19.255079,9.43,22.39" clip-rule="evenodd" fill="none" fill-rule="evenodd" stroke="#000" stroke-width="7" stroke-linecap="round" stroke-linejoin="round" stroke-miterlimit="1.5"/></g></g><g id="eRYTXJBufUq19_ts" transform="translate(339.868407,2066.599288) scale(0.703165,0.5292)"><g transform="translate(-643.953283,-2569.533255)" clip-rule="evenodd"><path d="M633,2566.11L647,2548c-.834215,8.583726,3.44946,19.137013,8,21.8" clip-rule="evenodd" fill="none" fill-rule="evenodd" stroke="#000" stroke-width="7" stroke-linecap="round" stroke-linejoin="round" stroke-miterlimit="1.5"/></g></g><g transform="matrix(.673629 0 0 1 0.003565 0)" clip-rule="evenodd"><path d="M311,2026l31,5.44c0,0,1.129-41.44-11-41.44s-20,12.15-20,36Z" clip-rule="evenodd" fill="none" fill-rule="evenodd" stroke="#000" stroke-width="7.31" stroke-linecap="round" stroke-linejoin="round" stroke-miterlimit="1.5"/></g><g transform="matrix(.673629 0 0 1 0.003565 0)" clip-rule="evenodd"><path d="M365,2038l34,5c0,0,9.287-39-11-39s-23,21.41-23,34Z" clip-rule="evenodd" fill="none" fill-rule="evenodd" stroke="#000" stroke-width="7.31" stroke-linecap="round" stroke-linejoin="round" stroke-miterlimit="1.5"/></g><g transform="matrix(.673629 0 0 1 0.003565 0)" clip-rule="evenodd"><path d="M423,2052l36,8c0,0,5.936-42.58-10-42s-26,15.9-26,34Z" clip-rule="evenodd" fill="none" fill-rule="evenodd" stroke="#000" stroke-width="7.31" stroke-linecap="round" stroke-linejoin="round" stroke-miterlimit="1.5"/></g><g transform="matrix(.673629 0 0 1 0.003565 0)" clip-rule="evenodd"><path d="M487,2066l36,6c0,0,8.087-40.56-15-40.56s-21,19.79-21,34.56Z" clip-rule="evenodd" fill="none" fill-rule="evenodd" stroke="#000" stroke-width="7.31" stroke-linecap="round" stroke-linejoin="round" stroke-miterlimit="1.5"/></g><g transform="matrix(.673629 0 0 1 0.003565 0)" clip-rule="evenodd"><path d="M562,2189l61,17l2-163-64-11.56L562,2189Z" clip-rule="evenodd" fill="none" fill-rule="evenodd" stroke="#000" stroke-width="7.31" stroke-linecap="round" stroke-linejoin="round" stroke-miterlimit="1.5"/></g><g transform="matrix(.673629 0 0 1 0.003565 0)" clip-rule="evenodd"><path d="M593,2039v158" clip-rule="evenodd" fill="none" fill-rule="evenodd" stroke="#000" stroke-width="7.31" stroke-linecap="round" stroke-linejoin="round" stroke-miterlimit="1.5"/></g><g transform="matrix(.673629 0 0 1 0.003565 0)" clip-rule="evenodd"><rect width="10" height="43" rx="0" ry="0" transform="translate(571 2060)" clip-rule="evenodd" fill="none" fill-rule="evenodd" stroke="#000" stroke-width="7.31" stroke-linecap="round" stroke-linejoin="round" stroke-miterlimit="1.5"/></g><g transform="matrix(.673629 0 0 1 0.003565 0)" clip-rule="evenodd"><path d="M663,2118l93-37" clip-rule="evenodd" fill="none" fill-rule="evenodd" stroke="#000" stroke-width="7.31" stroke-linecap="round" stroke-linejoin="round" stroke-miterlimit="1.5"/></g><g transform="matrix(.673629 0 0 1 0.003565 0)" clip-rule="evenodd"><path d="M698.76,2052c0,0,36.233-49.75,35.24,37" clip-rule="evenodd" fill="none" fill-rule="evenodd" stroke="#000" stroke-width="7.31" stroke-linecap="round" stroke-linejoin="round" stroke-miterlimit="1.5"/></g><g transform="matrix(.673629 0 0 1 0.003565 0)" clip-rule="evenodd"><path d="M730,2044c0,0,14.052-19.97,26-3" clip-rule="evenodd" fill="none" fill-rule="evenodd" stroke="#000" stroke-width="7.31" stroke-linecap="round" stroke-linejoin="round" stroke-miterlimit="1.5"/></g><g transform="matrix(.673629 0 0 1 0.003565 0)" clip-rule="evenodd"><path d="M665,2186c0,0-19.438,7.99-4.273,20c11.717,9.28,18.058-26.35,4.273-20Z" clip-rule="evenodd" fill="none" fill-rule="evenodd" stroke="#000" stroke-width="7.31" stroke-linecap="round" stroke-linejoin="round" stroke-miterlimit="1.5"/></g><g transform="matrix(.673629 0 0 1 1.35082 2)" clip-rule="evenodd"><path d="M740,2135c0,0-12.856,11.21,0,13s5.2-19.78,0-13Z" clip-rule="evenodd" fill="none" fill-rule="evenodd" stroke="#000" stroke-width="7.31" stroke-linecap="round" stroke-linejoin="round" stroke-miterlimit="1.5"/></g><g transform="matrix(.673629 0 0 1 0.003565 0)" clip-rule="evenodd"><path d="M643,2231c5.994.96,117.593-19.48,111-73.71" clip-rule="evenodd" fill="none" fill-rule="evenodd" stroke="#000" stroke-width="7.31" stroke-linecap="round" stroke-linejoin="round" stroke-miterlimit="1.5"/></g><g transform="matrix(.673629 0 0 1 0.003565 0)" clip-rule="evenodd"><path d="M421.295,2141.42c0,0,19.791,21.68,22.705,1.14s1.04,38.97,27-9.56c-.821,15.01-2.186,38.49,37.311,15" clip-rule="evenodd" fill="none" fill-rule="evenodd" stroke="#000" stroke-width="7.31" stroke-linecap="round" stroke-linejoin="round" stroke-miterlimit="1.5"/></g><g transform="matrix(.311619 0.169107-.124387 0.505121 398.232 971.615)" clip-rule="evenodd"><ellipse rx="33.5" ry="34.618" transform="translate(422.5 2150.62)" clip-rule="evenodd" fill="#fff" fill-rule="evenodd" stroke="#000" stroke-width="14.17" stroke-linecap="round" stroke-linejoin="round" stroke-miterlimit="1.5"/></g><g transform="matrix(.26891 0.14593-.107339 0.435892 399.368 1138.33)" clip-rule="evenodd"><ellipse rx="33.5" ry="34.618" transform="translate(422.5 2150.62)" clip-rule="evenodd" fill="#fff" fill-rule="evenodd" stroke="#000" stroke-width="16.42" stroke-linecap="round" stroke-linejoin="round" stroke-miterlimit="1.5"/></g><g transform="matrix(.26891 0.14593-.107339 0.435892 456.28 1174.27)" clip-rule="evenodd"><ellipse rx="33.5" ry="34.618" transform="translate(422.5 2150.62)" clip-rule="evenodd" fill="#fff" fill-rule="evenodd" stroke="#000" stroke-width="16.42" stroke-linecap="round" stroke-linejoin="round" stroke-miterlimit="1.5"/></g><g transform="matrix(.26891 0.14593-.107339 0.435892 474.349 1184.97)" clip-rule="evenodd"><ellipse rx="33.5" ry="34.618" transform="translate(422.5 2150.62)" clip-rule="evenodd" fill="#fff" fill-rule="evenodd" stroke="#000" stroke-width="16.42" stroke-linecap="round" stroke-linejoin="round" stroke-miterlimit="1.5"/></g><g transform="matrix(.673629 0 0 1 0.003565 0)" clip-rule="evenodd"><path d="M691,2180l34-24v-40l-36,14.53l2,49.47Z" clip-rule="evenodd" fill="none" fill-rule="evenodd" stroke="#000" stroke-width="7.31" stroke-linecap="round" stroke-linejoin="round" stroke-miterlimit="1.5"/></g><g transform="matrix(.673629 0 0 1 0.003565 0)" clip-rule="evenodd"><path d="M651,2030l-9,201.06" clip-rule="evenodd" fill="none" fill-rule="evenodd" stroke="#000" stroke-width="7.31" stroke-linecap="round" stroke-linejoin="round" stroke-miterlimit="1.5"/></g><g transform="matrix(.673629 0 0 1 0.003565 0)" clip-rule="evenodd"><path d="M662,2118c0,0-9.028-74,21-74c25.028-1,15,47.4,15,59" clip-rule="evenodd" fill="none" fill-rule="evenodd" stroke="#000" stroke-width="7.31" stroke-linecap="round" stroke-linejoin="round" stroke-miterlimit="1.5"/></g><g transform="matrix(.673629 0 0 1 0.003565 0)" clip-rule="evenodd"><path d="M602,2060h13l-2,47-11-1v-46Z" clip-rule="evenodd" fill="none" fill-rule="evenodd" stroke="#000" stroke-width="7.31" stroke-linecap="round" stroke-linejoin="round" stroke-miterlimit="1.5"/></g></g></g></g></svg>