<svg id="eUPKCM3oQpB1" xmlns="http://www.w3.org/2000/svg" xmlns:xlink="http://www.w3.org/1999/xlink" viewBox="0 0 278 286" shape-rendering="geometricPrecision" text-rendering="geometricPrecision"><style><![CDATA[#eUPKCM3oQpB5_to {animation: eUPKCM3oQpB5_to__to 400ms linear infinite alternate-reverse forwards}@keyframes eUPKCM3oQpB5_to__to { 0% {transform: translate(1170.590088px,2040.359986px);animation-timing-function: cubic-bezier(0.42,0,0.58,1)} 100% {transform: translate(1173.284596px,2043.359986px)}} #eUPKCM3oQpB13_to {animation: eUPKCM3oQpB13_to__to 400ms linear infinite alternate-reverse forwards}@keyframes eUPKCM3oQpB13_to__to { 0% {transform: translate(1581.972168px,2040.047302px);animation-timing-function: cubic-bezier(0.42,0,0.58,1)} 100% {transform: translate(1579.972172px,2036.047302px)}} #eUPKCM3oQpB14_to {animation: eUPKCM3oQpB14_to__to 400ms linear infinite alternate-reverse forwards}@keyframes eUPKCM3oQpB14_to__to { 0% {transform: translate(1611.298218px,2034.138px);animation-timing-function: cubic-bezier(0.42,0,0.58,1)} 100% {transform: translate(1609.298222px,2038.138px)}} #eUPKCM3oQpB15_to {animation: eUPKCM3oQpB15_to__to 400ms linear infinite alternate-reverse forwards}@keyframes eUPKCM3oQpB15_to__to { 0% {transform: translate(1639.759521px,2034.13324px);animation-timing-function: cubic-bezier(0.42,0,0.58,1)} 100% {transform: translate(1637.759525px,2032.13324px)}}]]></style><g transform="translate(-1635-1983)" clip-rule="evenodd"><g transform="matrix(1.4845 0 0 1-.005292 0)" clip-rule="evenodd"><g clip-rule="evenodd"><g id="eUPKCM3oQpB5_to" transform="translate(1173.284596,2043.359986)"><g transform="translate(-1170.590088,-2040.359985)"><g transform="matrix(.673629 0 0 1 0.003565 0)" clip-rule="evenodd"><path d="M1725.33,2028.72c0,0,14.43,1.61,24.67,23.28" clip-rule="evenodd" fill="none" fill-rule="evenodd" stroke="#000" stroke-width="7" stroke-linecap="round" stroke-linejoin="round" stroke-miterlimit="1.5"/></g><g transform="matrix(.673629 0 0 1 0.003565 0)" clip-rule="evenodd"><path d="M1734,2051.25c0,0,6.51-2.62,16,.75" clip-rule="evenodd" fill="none" fill-rule="evenodd" stroke="#000" stroke-width="7" stroke-linecap="round" stroke-linejoin="round" stroke-miterlimit="1.5"/></g><g transform="matrix(.673629 0 0 1 0.003565 0)" clip-rule="evenodd"><path d="M1750,2035.36c0,0,.3,11.56,0,15.89" clip-rule="evenodd" fill="none" fill-rule="evenodd" stroke="#000" stroke-width="7" stroke-linecap="round" stroke-linejoin="round" stroke-miterlimit="1.5"/></g></g></g><g transform="matrix(.673629 0 0 1 49.6192-29.88)" clip-rule="evenodd"><g id="eUPKCM3oQpB13_to" transform="translate(1579.972172,2036.047302)"><path d="M1591.38,2021.5c1.32.12,2.27.57,2.84,1.36.56.8.86,1.78.87,2.95.02,1.17-.16,2.47-.53,3.88-.38,1.42-.83,2.81-1.34,4.17s-1.03,2.61-1.55,3.76c-.53,1.16-.93,2.05-1.19,2.69-.68,1.67-1.23,3.13-1.65,4.4-.41,1.26-.85,2.47-1.3,3.62s-.99,2.33-1.62,3.54c-.62,1.21-1.44,2.57-2.46,4.08-.83,1.21-1.87,1.99-3.12,2.35-1.24.36-2.51.4-3.79.12-1.29-.29-2.5-.82-3.66-1.59-1.15-.77-2.04-1.67-2.69-2.69-.34-.57-.58-1.18-.73-1.84s-.15-1.27,0-1.82c.15-.54.44-.96.87-1.24.44-.29,1.05-.31,1.85-.09.79.23,1.47.47,2.04.74.56.26,1.05.46,1.47.59.41.14.77.18,1.08.15.3-.04.56-.27.79-.68.3-.46.35-1.28.14-2.47s-.71-2.6-1.5-4.22c-.76-1.51-1.44-2.91-2.04-4.19-.61-1.29-1.27-2.7-1.98-4.25-.65-1.32-1.21-2.61-1.7-3.85-.49-1.25-.97-2.54-1.42-3.86-.34-.98-.26-1.88.23-2.72.49-.83,1.15-1.42,1.98-1.78s1.73-.41,2.69-.14c.96.26,1.75,1.02,2.35,2.26.11.27.32.75.62,1.45.31.7.65,1.49,1.02,2.38.38.89.78,1.81,1.19,2.77.42.97.84,1.85,1.25,2.67.42.81.8,1.48,1.16,2.01s.67.79.94.79c.26,0,.55-.39.88-1.16.32-.77.68-1.74,1.07-2.89.4-1.15.84-2.4,1.33-3.74s1.02-2.58,1.59-3.71s1.18-2.07,1.84-2.8c.66-.74,1.39-1.07,2.18-1Z" transform="translate(-1581.972168,-2040.047302)" clip-rule="evenodd" stroke-linecap="round" stroke-linejoin="round" stroke-miterlimit="1.5"/></g><g id="eUPKCM3oQpB14_to" transform="translate(1609.298222,2038.138)"><path d="M1599.71,2034.19c.04-2.03.36-3.86.96-5.46.61-1.61,1.44-2.98,2.5-4.11s2.32-1.98,3.79-2.55c1.48-.57,3.14-.83,4.99-.79c1.77.07,3.35.59,4.73,1.56c1.38.96,2.54,2.16,3.48,3.59.95,1.44,1.66,3.01,2.13,4.71s.67,3.32.59,4.87c-.19,3.89-1.25,6.69-3.2,8.41-1.94,1.72-4.82,2.58-8.64,2.58-1.51,0-2.96-.25-4.36-.74s-2.62-1.26-3.65-2.32c-1.04-1.06-1.87-2.39-2.5-3.99-.62-1.61-.89-3.53-.82-5.76Zm8.22-.96c-.15,1.4.11,2.51.79,3.35.68.83,1.48,1.33,2.41,1.5.92.17,1.82-.02,2.69-.57s1.4-1.52,1.58-2.92c.16-1.4-.11-2.58-.79-3.54s-1.48-1.58-2.41-1.84c-.92-.27-1.82-.09-2.69.51s-1.39,1.78-1.58,3.51Z" transform="translate(-1611.298218,-2034.138)" clip-rule="evenodd" stroke-linecap="round" stroke-linejoin="round" stroke-miterlimit="1.5"/></g><g id="eUPKCM3oQpB15_to" transform="translate(1637.759525,2032.13324)"><path d="M1630.36,2042.92c-1.28-2.45-2.04-5-2.26-7.65-.23-2.64-.31-5.34-.23-8.1.04-1.47.43-2.73,1.19-3.77s1.61-1.72,2.58-2.04c.96-.32,1.92-.22,2.89.29.96.51,1.67,1.53,2.12,3.08.19.61.3,1.38.34,2.33.04.94.06,1.95.06,3.03c0,1.07.03,2.14.08,3.2.06,1.06.18,2,.37,2.83s.47,1.5.85,2.01.93.75,1.64.71c.76-.04,1.36-.3,1.79-.79s.75-1.12.96-1.87c.21-.76.33-1.61.37-2.55.04-.95.05-1.89.03-2.83-.02-.95-.05-1.84-.09-2.69-.03-.85-.03-1.56,0-2.13.08-1.4.52-2.48,1.33-3.26.82-.77,1.71-1.19,2.7-1.24.98-.06,1.9.23,2.74.87.85.65,1.35,1.69,1.51,3.12.15,1.4.24,2.93.28,4.59s.06,3.3.06,4.93c0,1.62-.01,3.13-.03,4.53s-.01,2.53.03,3.4c.07,1.32-.26,2.31-1,2.95-.73.64-1.57,1.03-2.52,1.16-.94.13-1.83.05-2.66-.26-.83-.3-1.3-.73-1.42-1.3-.15-.64-.32-.99-.51-1.05-.18-.05-.49.18-.9.71-.64.79-1.53,1.34-2.67,1.64-1.13.31-2.31.35-3.54.14-1.22-.2-2.39-.64-3.51-1.3-1.11-.66-1.97-1.56-2.58-2.69Z" transform="translate(-1639.759521,-2034.13324)" clip-rule="evenodd" stroke-linecap="round" stroke-linejoin="round" stroke-miterlimit="1.5"/></g></g><g transform="matrix(.673629 0 0 1 0.003565 0)" clip-rule="evenodd"><path d="M1772.62,2097c0,0-40.46-28.16-118.62,115-5.79,5.16-22.71-7.44-18.09,15s11.09,35,11.09,35l17-4l4,8.73l19-9.73l30-37c0,0,37.55-34.95,46-46s48.99-55.18,9.62-77Z" clip-rule="evenodd" fill="#fff" fill-rule="evenodd" stroke-linecap="round" stroke-linejoin="round" stroke-miterlimit="1.5"/></g><g transform="matrix(.570789 0.53106-.357738 0.847334 1180.74-118.659)" clip-rule="evenodd"><path d="M1196.5,1815c13.46,1.28,24.5,11.43,24.5,25.5s-10.98,25.5-24.5,25.5-17.73-13.16-24.5-25.5c-9.05-16.48,3.5-27.49,24.5-25.5Z" clip-rule="evenodd" fill="#fff" fill-rule="evenodd" stroke="#000" stroke-width="7" stroke-linecap="round" stroke-linejoin="round" stroke-miterlimit="1.5"/></g><g transform="matrix(1.2859 1.1964-.805928 1.90891 1155.83-2856.59)" clip-rule="evenodd"><circle r="2" transform="translate(1188 1836)" clip-rule="evenodd" fill-rule="evenodd" stroke-linecap="round" stroke-linejoin="round" stroke-miterlimit="1.5"/></g><g transform="matrix(1.2859 1.1964-.805928 1.90891 1165.78-2851.45)" clip-rule="evenodd"><circle r="2" transform="translate(1188 1836)" clip-rule="evenodd" fill-rule="evenodd" stroke-linecap="round" stroke-linejoin="round" stroke-miterlimit="1.5"/></g><g transform="matrix(.570789 0.53106-.357738 0.847334 1180.74-117.659)" clip-rule="evenodd"><path d="M1188.51,1852c0,0,6.25-9.08,12.33-5s5.82,3.3,9.01,1" clip-rule="evenodd" fill="none" fill-rule="evenodd" stroke="#020200" stroke-width="7" stroke-linecap="round" stroke-linejoin="round" stroke-miterlimit="1.5"/></g><g transform="matrix(.673629 0 0 1 0.003565 0)" clip-rule="evenodd"><path d="M1648,2263.52c0,0-25.85-85.14,11-39.52c9.64,22.83,4,33,4,33-3.4,7.59-8.53,9.32-15,6.52Z" clip-rule="evenodd" fill="none" fill-rule="evenodd" stroke="#020200" stroke-width="7" stroke-linecap="round" stroke-linejoin="round" stroke-miterlimit="1.5"/></g><g transform="matrix(.673629 0 0 1 0.003565 0)" clip-rule="evenodd"><path d="M1675,2237c0,0,33.41-50.01,26,.67-7.3,15.82-15.52,30.47-32.83,22.11-3.38-1.63.18-6.95,6.83-22.78Z" clip-rule="evenodd" fill="none" fill-rule="evenodd" stroke="#020200" stroke-width="7" stroke-linecap="round" stroke-linejoin="round" stroke-miterlimit="1.5"/></g><g transform="matrix(.673629 0 0 1 0.003565 0)" clip-rule="evenodd"><path d="M1683.92,2164.29c0,0,44.53-14.62,56.08,34.71" clip-rule="evenodd" fill="none" fill-rule="evenodd" stroke="#020200" stroke-width="7" stroke-linecap="round" stroke-linejoin="round" stroke-miterlimit="1.5"/></g><g transform="matrix(.673629 0 0 1 0.677194-4)" clip-rule="evenodd"><path d="M1700.13,2138c0,0,51.76,11.57,58.87,42.63" clip-rule="evenodd" fill="none" fill-rule="evenodd" stroke="#020200" stroke-width="7" stroke-linecap="round" stroke-linejoin="round" stroke-miterlimit="1.5"/></g><g transform="matrix(.673629 0 0 1 0.003565-2)" clip-rule="evenodd"><path d="M1721,2114c0,0,43.64,5.58,62,38" clip-rule="evenodd" fill="none" fill-rule="evenodd" stroke="#020200" stroke-width="7" stroke-linecap="round" stroke-linejoin="round" stroke-miterlimit="1.5"/></g><g transform="matrix(.673629 0 0 1 0.003565-2)" clip-rule="evenodd"><path d="M1711.96,2124c0,0,45.68,12.91,59.04,38.26" clip-rule="evenodd" fill="none" fill-rule="evenodd" stroke="#020200" stroke-width="7" stroke-linecap="round" stroke-linejoin="round" stroke-miterlimit="1.5"/></g><g transform="matrix(.673629 0 0 1-1.34369 2)" clip-rule="evenodd"><path d="M1740,2098c0,0,36.79,13.98,50,35" clip-rule="evenodd" fill="none" fill-rule="evenodd" stroke="#020200" stroke-width="7" stroke-linecap="round" stroke-linejoin="round" stroke-miterlimit="1.5"/></g><g transform="matrix(.673629 0 0 1 0.003565 0)" clip-rule="evenodd"><path d="M1654,2215c0,0,69.76-143.19,113.34-121.11c43.58,22.07,22.53,55.67-67.21,146.73" clip-rule="evenodd" fill="none" fill-rule="evenodd" stroke="#020200" stroke-width="7" stroke-linecap="round" stroke-linejoin="round" stroke-miterlimit="1.5"/></g><g transform="matrix(.673629 0 0 1 525.545 56.4268)" clip-rule="evenodd"><path d="M1081,2025c0,0-50.45,32.11-9,39s66.83-12.09,9-39" transform="translate(0 0.000001)" clip-rule="evenodd" fill="none" fill-rule="evenodd" stroke="#000" stroke-width="7" stroke-linecap="round" stroke-linejoin="round" stroke-miterlimit="1.5"/></g><g transform="matrix(.673629 0 0 1 525.545 56.4268)" clip-rule="evenodd"><path d="M1085.23,2025l29.58-79" clip-rule="evenodd" fill="none" fill-rule="evenodd" stroke="#000" stroke-width="7" stroke-linecap="round" stroke-linejoin="round" stroke-miterlimit="1.5"/></g><g transform="matrix(.673629 0 0 1 525.545 56.4268)" clip-rule="evenodd"><path d="M1114.81,1946c0,0-15.27-13.48,0-15s22.68,10.66,0,15Z" clip-rule="evenodd" fill="none" fill-rule="evenodd" stroke="#000" stroke-width="7" stroke-linecap="round" stroke-linejoin="round" stroke-miterlimit="1.5"/></g><g transform="matrix(.673629 0 0 1 0.003565 0)" clip-rule="evenodd"><path d="M1705,2180.74c0,0-33.88,31.08-37.3,70.26" clip-rule="evenodd" fill="none" fill-rule="evenodd" stroke="#000" stroke-width="7" stroke-linecap="round" stroke-linejoin="round" stroke-miterlimit="1.5"/></g><g transform="matrix(.673629 0 0 1-.670065-2)" clip-rule="evenodd"><path d="M1695,2149c0,0,34.58-1.67,55,39" clip-rule="evenodd" fill="none" fill-rule="evenodd" stroke="#000" stroke-width="7" stroke-linecap="round" stroke-linejoin="round" stroke-miterlimit="1.5"/></g></g></g></g></svg>