<?xml version="1.0" encoding="UTF-8" standalone="no"?>
<!DOCTYPE svg PUBLIC "-//W3C//DTD SVG 1.1//EN" "http://www.w3.org/Graphics/SVG/1.1/DTD/svg11.dtd">
<svg width="100%" height="100%" viewBox="0 0 285 107" version="1.1" xmlns="http://www.w3.org/2000/svg" xmlns:xlink="http://www.w3.org/1999/xlink" xml:space="preserve" xmlns:serif="http://www.serif.com/" style="fill-rule:evenodd;clip-rule:evenodd;stroke-linejoin:round;stroke-miterlimit:2;">
    <g transform="matrix(1,0,0,1,-1677,-3124.75)">
        <g id="paper" transform="matrix(0.993031,0,0,0.990741,11.6864,311.787)">
            <rect x="1677" y="2839.25" width="287" height="108" style="fill:none;"/>
            <clipPath id="_clip1">
                <rect x="1677" y="2839.25" width="287" height="108"/>
            </clipPath>
            <g clip-path="url(#_clip1)">
                <g id="paper1" serif:id="paper" transform="matrix(1.01016,0,0,1.19519,1559.94,2759.01)">
                    <path d="M400,75.792C400,71.013 395.42,67.133 389.778,67.133L126.107,67.133C120.466,67.133 115.886,71.013 115.886,75.792L115.886,148.836C115.886,153.615 120.466,157.495 126.107,157.495L389.778,157.495C395.42,157.495 400,153.615 400,148.836L400,75.792Z" style="fill:rgb(241,242,246);"/>
                    <clipPath id="_clip2">
                        <path d="M400,75.792C400,71.013 395.42,67.133 389.778,67.133L126.107,67.133C120.466,67.133 115.886,71.013 115.886,75.792L115.886,148.836C115.886,153.615 120.466,157.495 126.107,157.495L389.778,157.495C395.42,157.495 400,153.615 400,148.836L400,75.792Z"/>
                    </clipPath>
                    <g clip-path="url(#_clip2)">
                        <g transform="matrix(0.996892,0,0,0.984068,-0.53323,1.06957)">
                            <g opacity="0.71">
                                <g transform="matrix(1,-1.29557e-34,0,0.336348,-297.868,-337.326)">
                                    <rect x="413.753" y="1458" width="41.247" height="13.156" style="fill:rgb(211,214,227);"/>
                                </g>
                                <g transform="matrix(1,-1.29557e-34,0,0.336348,-297.868,-341.751)">
                                    <rect x="413.753" y="1458" width="41.247" height="13.156" style="fill:rgb(180,185,207);"/>
                                </g>
                            </g>
                        </g>
                        <g transform="matrix(0.996892,0,0,0.984068,40.5853,1.06957)">
                            <g opacity="0.71">
                                <g transform="matrix(1,-1.29557e-34,0,0.336348,-297.868,-337.326)">
                                    <rect x="413.753" y="1458" width="41.247" height="13.156" style="fill:rgb(211,214,227);"/>
                                </g>
                                <g transform="matrix(1,-1.29557e-34,0,0.336348,-297.868,-341.751)">
                                    <rect x="413.753" y="1458" width="41.247" height="13.156" style="fill:rgb(180,185,207);"/>
                                </g>
                            </g>
                        </g>
                        <g transform="matrix(0.996892,0,0,0.984068,40.5853,-7.63971)">
                            <g opacity="0.71">
                                <g transform="matrix(1,-1.29557e-34,0,0.336348,-297.868,-337.326)">
                                    <rect x="413.753" y="1458" width="41.247" height="13.156" style="fill:rgb(211,214,227);"/>
                                </g>
                                <g transform="matrix(1,-1.29557e-34,0,0.336348,-297.868,-341.751)">
                                    <path d="M455,1458L416.539,1458C415.8,1458 415.092,1458.75 414.569,1460.08C414.047,1461.41 413.753,1463.22 413.753,1465.11C413.753,1468.21 413.753,1471.16 413.753,1471.16L455,1471.16L455,1458Z" style="fill:rgb(180,185,207);"/>
                                </g>
                            </g>
                        </g>
                        <g transform="matrix(0.996892,0,0,0.984068,81.7037,-16.349)">
                            <g opacity="0.71">
                                <g transform="matrix(1,-1.29557e-34,0,0.336348,-297.868,-337.326)">
                                    <rect x="413.753" y="1458" width="41.247" height="13.156" style="fill:rgb(211,214,227);"/>
                                </g>
                                <g transform="matrix(1,-1.29557e-34,0,0.336348,-297.868,-341.751)">
                                    <path d="M455,1458L415.751,1458C414.648,1458 413.753,1460.28 413.753,1463.1C413.753,1466.8 413.753,1471.16 413.753,1471.16L455,1471.16L455,1458Z" style="fill:rgb(180,185,207);"/>
                                </g>
                            </g>
                        </g>
                        <g transform="matrix(0.996892,0,0,0.984068,81.7037,-7.63971)">
                            <g opacity="0.71">
                                <g transform="matrix(1,-1.29557e-34,0,0.336348,-297.868,-337.326)">
                                    <rect x="413.753" y="1458" width="41.247" height="13.156" style="fill:rgb(211,214,227);"/>
                                </g>
                                <g transform="matrix(1,-1.29557e-34,0,0.336348,-297.868,-341.751)">
                                    <rect x="413.753" y="1458" width="41.247" height="13.156" style="fill:rgb(180,185,207);"/>
                                </g>
                            </g>
                        </g>
                        <g transform="matrix(0.996892,0,0,0.984068,81.7037,1.06957)">
                            <g opacity="0.71">
                                <g transform="matrix(1,-1.29557e-34,0,0.336348,-297.868,-337.326)">
                                    <rect x="413.753" y="1458" width="41.247" height="13.156" style="fill:rgb(211,214,227);"/>
                                </g>
                                <g transform="matrix(1,-1.29557e-34,0,0.336348,-297.868,-341.751)">
                                    <rect x="413.753" y="1458" width="41.247" height="13.156" style="fill:rgb(180,185,207);"/>
                                </g>
                            </g>
                        </g>
                        <g transform="matrix(0.996892,0,0,0.984068,122.822,-25.0583)">
                            <g opacity="0.71">
                                <g transform="matrix(1,-1.29557e-34,0,0.336348,-297.868,-337.326)">
                                    <rect x="413.753" y="1458" width="41.247" height="13.156" style="fill:rgb(211,214,227);"/>
                                </g>
                                <g transform="matrix(1,-1.29557e-34,0,0.336348,-297.868,-341.751)">
                                    <path d="M455,1458L416.063,1458C415.45,1458 414.863,1458.62 414.43,1459.73C413.997,1460.83 413.753,1462.33 413.753,1463.89C413.753,1467.39 413.753,1471.16 413.753,1471.16L455,1471.16L455,1458Z" style="fill:rgb(180,185,207);"/>
                                </g>
                            </g>
                        </g>
                        <g transform="matrix(0.996892,0,0,0.984068,163.941,-33.7676)">
                            <g opacity="0.71">
                                <g transform="matrix(1,-1.29557e-34,0,0.336348,-297.868,-337.326)">
                                    <rect x="413.753" y="1458" width="41.247" height="13.156" style="fill:rgb(211,214,227);"/>
                                </g>
                                <g transform="matrix(1,-1.29557e-34,0,0.336348,-297.868,-341.751)">
                                    <path d="M455,1458L416.236,1458C414.865,1458 413.753,1460.84 413.753,1464.34C413.753,1467.7 413.753,1471.16 413.753,1471.16L455,1471.16L455,1458Z" style="fill:rgb(180,185,207);"/>
                                </g>
                            </g>
                        </g>
                        <g transform="matrix(0.996892,0,0,0.984068,205.059,-42.4769)">
                            <g opacity="0.71">
                                <g transform="matrix(1,-1.29557e-34,0,0.336348,-297.868,-337.326)">
                                    <rect x="413.753" y="1458" width="41.247" height="13.156" style="fill:rgb(211,214,227);"/>
                                </g>
                                <g transform="matrix(1,-1.29557e-34,0,0.336348,-297.868,-341.751)">
                                    <path d="M455,1458L416.354,1458C415.664,1458 415.003,1458.7 414.515,1459.94C414.027,1461.19 413.753,1462.88 413.753,1464.63C413.753,1467.9 413.753,1471.16 413.753,1471.16L455,1471.16L455,1458Z" style="fill:rgb(180,185,207);"/>
                                </g>
                            </g>
                        </g>
                        <g transform="matrix(0.996892,0,0,0.984068,246.178,-51.1861)">
                            <g opacity="0.71">
                                <g transform="matrix(1,-1.29557e-34,0,0.336348,-297.868,-337.326)">
                                    <rect x="413.753" y="1458" width="41.247" height="13.156" style="fill:rgb(211,214,227);"/>
                                </g>
                                <g transform="matrix(1,-1.29557e-34,0,0.336348,-297.868,-341.751)">
                                    <path d="M455,1458C455,1458 425.81,1458 416.542,1458C415.002,1458 413.753,1461.19 413.753,1465.12C413.753,1468.22 413.753,1471.16 413.753,1471.16L455,1471.16L455,1458Z" style="fill:rgb(180,185,207);"/>
                                </g>
                            </g>
                        </g>
                        <g transform="matrix(0.996892,0,0,0.984068,122.822,-16.349)">
                            <g opacity="0.71">
                                <g transform="matrix(1,-1.29557e-34,0,0.336348,-297.868,-337.326)">
                                    <rect x="413.753" y="1458" width="41.247" height="13.156" style="fill:rgb(211,214,227);"/>
                                </g>
                                <g transform="matrix(1,-1.29557e-34,0,0.336348,-297.868,-341.751)">
                                    <rect x="413.753" y="1458" width="41.247" height="13.156" style="fill:rgb(180,185,207);"/>
                                </g>
                            </g>
                        </g>
                        <g transform="matrix(0.996892,0,0,0.984068,122.822,-7.63971)">
                            <g opacity="0.71">
                                <g transform="matrix(1,-1.29557e-34,0,0.336348,-297.868,-337.326)">
                                    <rect x="413.753" y="1458" width="41.247" height="13.156" style="fill:rgb(211,214,227);"/>
                                </g>
                                <g transform="matrix(1,-1.29557e-34,0,0.336348,-297.868,-341.751)">
                                    <rect x="413.753" y="1458" width="41.247" height="13.156" style="fill:rgb(180,185,207);"/>
                                </g>
                            </g>
                        </g>
                        <g transform="matrix(0.996892,0,0,0.984068,122.822,1.06957)">
                            <g opacity="0.71">
                                <g transform="matrix(1,-1.29557e-34,0,0.336348,-297.868,-337.326)">
                                    <rect x="413.753" y="1458" width="41.247" height="13.156" style="fill:rgb(211,214,227);"/>
                                </g>
                                <g transform="matrix(1,-1.29557e-34,0,0.336348,-297.868,-341.751)">
                                    <rect x="413.753" y="1458" width="41.247" height="13.156" style="fill:rgb(180,185,207);"/>
                                </g>
                            </g>
                        </g>
                        <g transform="matrix(0.996892,0,0,0.984068,163.941,-25.0583)">
                            <g opacity="0.71">
                                <g transform="matrix(1,-1.29557e-34,0,0.336348,-297.868,-337.326)">
                                    <rect x="413.753" y="1458" width="41.247" height="13.156" style="fill:rgb(211,214,227);"/>
                                </g>
                                <g transform="matrix(1,-1.29557e-34,0,0.336348,-297.868,-341.751)">
                                    <rect x="413.753" y="1458" width="41.247" height="13.156" style="fill:rgb(180,185,207);"/>
                                </g>
                            </g>
                        </g>
                        <g transform="matrix(0.996892,0,0,0.984068,163.941,-16.349)">
                            <g opacity="0.71">
                                <g transform="matrix(1,-1.29557e-34,0,0.336348,-297.868,-337.326)">
                                    <rect x="413.753" y="1458" width="41.247" height="13.156" style="fill:rgb(211,214,227);"/>
                                </g>
                                <g transform="matrix(1,-1.29557e-34,0,0.336348,-297.868,-341.751)">
                                    <rect x="413.753" y="1458" width="41.247" height="13.156" style="fill:rgb(180,185,207);"/>
                                </g>
                            </g>
                        </g>
                        <g transform="matrix(0.996892,0,0,0.984068,163.941,-7.63971)">
                            <g opacity="0.71">
                                <g transform="matrix(1,-1.29557e-34,0,0.336348,-297.868,-337.326)">
                                    <rect x="413.753" y="1458" width="41.247" height="13.156" style="fill:rgb(211,214,227);"/>
                                </g>
                                <g transform="matrix(1,-1.29557e-34,0,0.336348,-297.868,-341.751)">
                                    <rect x="413.753" y="1458" width="41.247" height="13.156" style="fill:rgb(180,185,207);"/>
                                </g>
                            </g>
                        </g>
                        <g transform="matrix(0.996892,0,0,0.984068,163.941,1.06957)">
                            <g opacity="0.71">
                                <g transform="matrix(1,-1.29557e-34,0,0.336348,-297.868,-337.326)">
                                    <rect x="413.753" y="1458" width="41.247" height="13.156" style="fill:rgb(211,214,227);"/>
                                </g>
                                <g transform="matrix(1,-1.29557e-34,0,0.336348,-297.868,-341.751)">
                                    <rect x="413.753" y="1458" width="41.247" height="13.156" style="fill:rgb(180,185,207);"/>
                                </g>
                            </g>
                        </g>
                        <g transform="matrix(0.996892,0,0,0.984068,205.059,-33.7676)">
                            <g opacity="0.71">
                                <g transform="matrix(1,-1.29557e-34,0,0.336348,-297.868,-337.326)">
                                    <rect x="413.753" y="1458" width="41.247" height="13.156" style="fill:rgb(211,214,227);"/>
                                </g>
                                <g transform="matrix(1,-1.29557e-34,0,0.336348,-297.868,-341.751)">
                                    <rect x="413.753" y="1458" width="41.247" height="13.156" style="fill:rgb(180,185,207);"/>
                                </g>
                            </g>
                        </g>
                        <g transform="matrix(0.996892,0,0,0.984068,205.059,-25.0583)">
                            <g opacity="0.71">
                                <g transform="matrix(1,-1.29557e-34,0,0.336348,-297.868,-337.326)">
                                    <rect x="413.753" y="1458" width="41.247" height="13.156" style="fill:rgb(211,214,227);"/>
                                </g>
                                <g transform="matrix(1,-1.29557e-34,0,0.336348,-297.868,-341.751)">
                                    <rect x="413.753" y="1458" width="41.247" height="13.156" style="fill:rgb(180,185,207);"/>
                                </g>
                            </g>
                        </g>
                        <g transform="matrix(0.996892,0,0,0.984068,205.059,-16.349)">
                            <g opacity="0.71">
                                <g transform="matrix(1,-1.29557e-34,0,0.336348,-297.868,-337.326)">
                                    <rect x="413.753" y="1458" width="41.247" height="13.156" style="fill:rgb(211,214,227);"/>
                                </g>
                                <g transform="matrix(1,-1.29557e-34,0,0.336348,-297.868,-341.751)">
                                    <rect x="413.753" y="1458" width="41.247" height="13.156" style="fill:rgb(180,185,207);"/>
                                </g>
                            </g>
                        </g>
                        <g transform="matrix(0.996892,0,0,0.984068,205.059,-7.63971)">
                            <g opacity="0.71">
                                <g transform="matrix(1,-1.29557e-34,0,0.336348,-297.868,-337.326)">
                                    <rect x="413.753" y="1458" width="41.247" height="13.156" style="fill:rgb(211,214,227);"/>
                                </g>
                                <g transform="matrix(1,-1.29557e-34,0,0.336348,-297.868,-341.751)">
                                    <rect x="413.753" y="1458" width="41.247" height="13.156" style="fill:rgb(180,185,207);"/>
                                </g>
                            </g>
                        </g>
                        <g transform="matrix(0.996892,0,0,0.984068,205.059,1.06957)">
                            <g opacity="0.71">
                                <g transform="matrix(1,-1.29557e-34,0,0.336348,-297.868,-337.326)">
                                    <rect x="413.753" y="1458" width="41.247" height="13.156" style="fill:rgb(211,214,227);"/>
                                </g>
                                <g transform="matrix(1,-1.29557e-34,0,0.336348,-297.868,-341.751)">
                                    <rect x="413.753" y="1458" width="41.247" height="13.156" style="fill:rgb(180,185,207);"/>
                                </g>
                            </g>
                        </g>
                        <g transform="matrix(0.996892,0,0,0.984068,246.178,-42.4769)">
                            <g opacity="0.71">
                                <g transform="matrix(1,-1.29557e-34,0,0.336348,-297.868,-337.326)">
                                    <rect x="413.753" y="1458" width="41.247" height="13.156" style="fill:rgb(211,214,227);"/>
                                </g>
                                <g transform="matrix(1,-1.29557e-34,0,0.336348,-297.868,-341.751)">
                                    <rect x="413.753" y="1458" width="41.247" height="13.156" style="fill:rgb(180,185,207);"/>
                                </g>
                            </g>
                        </g>
                        <g transform="matrix(0.996892,0,0,0.984068,246.178,-33.7676)">
                            <g opacity="0.71">
                                <g transform="matrix(1,-1.29557e-34,0,0.336348,-297.868,-337.326)">
                                    <rect x="413.753" y="1458" width="41.247" height="13.156" style="fill:rgb(211,214,227);"/>
                                </g>
                                <g transform="matrix(1,-1.29557e-34,0,0.336348,-297.868,-341.751)">
                                    <rect x="413.753" y="1458" width="41.247" height="13.156" style="fill:rgb(180,185,207);"/>
                                </g>
                            </g>
                        </g>
                        <g transform="matrix(0.996892,0,0,0.984068,246.178,-25.0583)">
                            <g opacity="0.71">
                                <g transform="matrix(1,-1.29557e-34,0,0.336348,-297.868,-337.326)">
                                    <rect x="413.753" y="1458" width="41.247" height="13.156" style="fill:rgb(211,214,227);"/>
                                </g>
                                <g transform="matrix(1,-1.29557e-34,0,0.336348,-297.868,-341.751)">
                                    <rect x="413.753" y="1458" width="41.247" height="13.156" style="fill:rgb(180,185,207);"/>
                                </g>
                            </g>
                        </g>
                        <g transform="matrix(0.996892,0,0,0.984068,246.178,-16.349)">
                            <g opacity="0.71">
                                <g transform="matrix(1,-1.29557e-34,0,0.336348,-297.868,-337.326)">
                                    <rect x="413.753" y="1458" width="41.247" height="13.156" style="fill:rgb(211,214,227);"/>
                                </g>
                                <g transform="matrix(1,-1.29557e-34,0,0.336348,-297.868,-341.751)">
                                    <rect x="413.753" y="1458" width="41.247" height="13.156" style="fill:rgb(180,185,207);"/>
                                </g>
                            </g>
                        </g>
                        <g transform="matrix(0.996892,0,0,0.984068,246.178,-7.63971)">
                            <g opacity="0.71">
                                <g transform="matrix(1,-1.29557e-34,0,0.336348,-297.868,-337.326)">
                                    <rect x="413.753" y="1458" width="41.247" height="13.156" style="fill:rgb(211,214,227);"/>
                                </g>
                                <g transform="matrix(1,-1.29557e-34,0,0.336348,-297.868,-341.751)">
                                    <rect x="413.753" y="1458" width="41.247" height="13.156" style="fill:rgb(180,185,207);"/>
                                </g>
                            </g>
                        </g>
                        <g transform="matrix(0.996892,0,0,0.984068,246.178,1.06957)">
                            <g opacity="0.71">
                                <g transform="matrix(1,-1.29557e-34,0,0.336348,-297.868,-337.326)">
                                    <rect x="413.753" y="1458" width="41.247" height="13.156" style="fill:rgb(211,214,227);"/>
                                </g>
                                <g transform="matrix(1,-1.29557e-34,0,0.336348,-297.868,-341.751)">
                                    <rect x="413.753" y="1458" width="41.247" height="13.156" style="fill:rgb(180,185,207);"/>
                                </g>
                            </g>
                        </g>
                        <g transform="matrix(0.706595,0,0,0.597405,118.478,-740.488)">
                            <path d="M154.847,1427.64L154.847,1437L149.372,1437L149.372,1410.43L159.738,1410.43C161.733,1410.43 163.488,1410.8 165.003,1411.53C166.517,1412.25 167.682,1413.29 168.497,1414.64C169.312,1415.98 169.72,1417.51 169.72,1419.23C169.72,1421.83 168.829,1423.88 167.046,1425.38C165.264,1426.89 162.797,1427.64 159.646,1427.64L154.847,1427.64ZM154.847,1423.2L159.738,1423.2C161.185,1423.2 162.29,1422.86 163.05,1422.18C163.81,1421.5 164.19,1420.53 164.19,1419.26C164.19,1417.96 163.807,1416.91 163.041,1416.11C162.274,1415.3 161.216,1414.89 159.865,1414.86L154.847,1414.86L154.847,1423.2Z" style="fill-rule:nonzero;"/>
                            <path d="M184.374,1437C184.13,1436.53 183.954,1435.93 183.845,1435.23C182.567,1436.65 180.906,1437.37 178.863,1437.37C176.928,1437.37 175.325,1436.81 174.054,1435.69C172.783,1434.57 172.147,1433.16 172.147,1431.45C172.147,1429.36 172.923,1427.75 174.474,1426.63C176.025,1425.52 178.266,1424.95 181.198,1424.94L183.626,1424.94L183.626,1423.81C183.626,1422.89 183.391,1422.16 182.923,1421.62C182.455,1421.07 181.715,1420.8 180.706,1420.8C179.818,1420.8 179.121,1421.01 178.616,1421.43C178.111,1421.86 177.859,1422.44 177.859,1423.19L172.585,1423.19C172.585,1422.04 172.938,1420.98 173.643,1420.01C174.349,1419.04 175.347,1418.27 176.636,1417.72C177.926,1417.17 179.374,1416.89 180.979,1416.89C183.413,1416.89 185.344,1417.5 186.773,1418.72C188.203,1419.95 188.918,1421.66 188.918,1423.88L188.918,1432.44C188.93,1434.31 189.191,1435.73 189.702,1436.69L189.702,1437L184.374,1437ZM180.012,1433.33C180.791,1433.33 181.509,1433.16 182.166,1432.81C182.823,1432.46 183.309,1432 183.626,1431.42L183.626,1428.02L181.655,1428.02C179.015,1428.02 177.609,1428.93 177.439,1430.76L177.421,1431.07C177.421,1431.73 177.652,1432.27 178.114,1432.69C178.577,1433.12 179.209,1433.33 180.012,1433.33Z" style="fill-rule:nonzero;"/>
                            <path d="M210.743,1427.31C210.743,1430.35 210.053,1432.79 208.672,1434.62C207.291,1436.45 205.427,1437.37 203.079,1437.37C201.084,1437.37 199.472,1436.67 198.243,1435.29L198.243,1444.59L192.969,1444.59L192.969,1417.26L197.86,1417.26L198.042,1419.19C199.32,1417.66 200.986,1416.89 203.042,1416.89C205.476,1416.89 207.367,1417.79 208.718,1419.59C210.068,1421.39 210.743,1423.87 210.743,1427.04L210.743,1427.31ZM205.469,1426.93C205.469,1425.09 205.144,1423.67 204.493,1422.67C203.842,1421.68 202.896,1421.18 201.655,1421.18C200.001,1421.18 198.863,1421.81 198.243,1423.08L198.243,1431.16C198.888,1432.46 200.037,1433.11 201.692,1433.11C204.21,1433.11 205.469,1431.05 205.469,1426.93Z" style="fill-rule:nonzero;"/>
                            <path d="M223.098,1437.37C220.202,1437.37 217.845,1436.48 216.026,1434.7C214.208,1432.92 213.298,1430.56 213.298,1427.6L213.298,1427.09C213.298,1425.11 213.681,1423.34 214.448,1421.77C215.214,1420.21 216.3,1419 217.705,1418.16C219.111,1417.31 220.713,1416.89 222.514,1416.89C225.215,1416.89 227.341,1417.74 228.892,1419.44C230.443,1421.15 231.219,1423.56 231.219,1426.69L231.219,1428.84L218.645,1428.84C218.815,1430.13 219.329,1431.17 220.187,1431.94C221.045,1432.72 222.131,1433.11 223.445,1433.11C225.476,1433.11 227.064,1432.38 228.208,1430.9L230.799,1433.81C230.008,1434.93 228.938,1435.8 227.587,1436.42C226.237,1437.05 224.74,1437.37 223.098,1437.37ZM222.496,1421.16C221.449,1421.16 220.601,1421.51 219.95,1422.22C219.299,1422.92 218.882,1423.93 218.7,1425.25L226.036,1425.25L226.036,1424.83C226.012,1423.66 225.695,1422.76 225.087,1422.12C224.479,1421.48 223.615,1421.16 222.496,1421.16Z" style="fill-rule:nonzero;"/>
                            <path d="M245.307,1422.2C244.589,1422.1 243.956,1422.05 243.409,1422.05C241.414,1422.05 240.106,1422.73 239.485,1424.08L239.485,1437L234.211,1437L234.211,1417.26L239.193,1417.26L239.339,1419.61C240.398,1417.8 241.864,1416.89 243.737,1416.89C244.321,1416.89 244.869,1416.97 245.38,1417.13L245.307,1422.2Z" style="fill-rule:nonzero;"/>
                        </g>
                    </g>
                    <path d="M400,75.792L400,148.836C400,153.615 395.42,157.495 389.778,157.495L126.107,157.495C120.466,157.495 115.886,153.615 115.886,148.836L115.886,75.792C115.886,71.013 120.466,67.133 126.107,67.133L389.778,67.133C395.42,67.133 400,71.013 400,75.792ZM398.006,75.792C398.006,71.945 394.319,68.822 389.778,68.822L126.107,68.822C121.566,68.822 117.88,71.945 117.88,75.792L117.88,148.836C117.88,152.683 121.566,155.806 126.107,155.806L389.778,155.806C394.319,155.806 398.006,152.683 398.006,148.836L398.006,75.792Z"/>
                </g>
            </g>
        </g>
    </g>
</svg>
