<?xml version="1.0" encoding="UTF-8" standalone="no"?>
<!DOCTYPE svg PUBLIC "-//W3C//DTD SVG 1.1//EN" "http://www.w3.org/Graphics/SVG/1.1/DTD/svg11.dtd">
<svg width="100%" height="100%" viewBox="0 0 285 107" version="1.1" xmlns="http://www.w3.org/2000/svg" xmlns:xlink="http://www.w3.org/1999/xlink" xml:space="preserve" xmlns:serif="http://www.serif.com/" style="fill-rule:evenodd;clip-rule:evenodd;stroke-linejoin:round;stroke-miterlimit:2;">
    <g transform="matrix(1,0,0,1,-1677,-2113.61)">
        <g id="perfect-circle" transform="matrix(1.00312,0,0,1.01619,-5.6465,-34.219)">
            <rect x="1677.42" y="2113.61" width="284.114" height="105.295" style="fill:none;"/>
            <g id="asteroid-launcher" transform="matrix(1,0,0,1.16526,1561.53,2035.38)">
                <path d="M400,75.792C400,71.013 395.42,67.133 389.778,67.133L126.107,67.133C120.466,67.133 115.886,71.013 115.886,75.792L115.886,148.836C115.886,153.615 120.466,157.495 126.107,157.495L389.778,157.495C395.42,157.495 400,153.615 400,148.836L400,75.792Z"/>
                <clipPath id="_clip1">
                    <path d="M400,75.792C400,71.013 395.42,67.133 389.778,67.133L126.107,67.133C120.466,67.133 115.886,71.013 115.886,75.792L115.886,148.836C115.886,153.615 120.466,157.495 126.107,157.495L389.778,157.495C395.42,157.495 400,153.615 400,148.836L400,75.792Z"/>
                </clipPath>
                <g clip-path="url(#_clip1)">
                    <g transform="matrix(1.13854,0,0,0.875287,-357.654,-1591.92)">
                        <path d="M439.153,1984.79C439.153,1984.79 436.505,1961.78 444.586,1936.11C446.478,1930.1 448.941,1923.93 452.237,1917.92C456.741,1909.72 462.789,1901.84 470.575,1894.85C471.443,1894.04 471.481,1892.7 470.66,1891.85C469.84,1891 468.469,1890.96 467.601,1891.76C459.736,1899.31 453.856,1907.78 449.293,1916.39C445.99,1922.63 443.365,1928.94 441.347,1935.11C432.724,1961.49 434.847,1985.21 434.847,1985.21C434.966,1986.38 436.027,1987.23 437.216,1987.11C438.404,1987 439.272,1985.96 439.153,1984.79Z" style="fill:url(#_Linear2);"/>
                    </g>
                    <g transform="matrix(1.02017,0,0,0.875287,-306.209,-1591.92)">
                        <path d="M638.097,1893.6C646.736,1900.05 653.364,1907.54 658.118,1915.69C661.232,1921.02 663.57,1926.61 665.183,1932.3C666.295,1936.22 667.077,1940.19 667.51,1944.15C667.954,1948.21 668.047,1952.26 667.829,1956.25C667.606,1960.33 667.042,1964.34 666.203,1968.22C663.479,1980.82 657.835,1992.04 650.657,2000.14L648.147,2002.43C646.822,2003.56 646.686,2005.54 647.843,2006.84C648.999,2008.14 651.013,2008.27 652.338,2007.14C652.889,2006.62 653.414,2006.11 653.899,2005.58C654.416,2005.01 654.903,2004.44 655.343,2003.86C662.349,1994.72 667.39,1982.38 669.504,1968.81C670.137,1964.75 670.52,1960.59 670.638,1956.36C670.754,1952.24 670.604,1948.07 670.2,1943.88C669.414,1935.73 667.549,1927.53 664.308,1919.58C659.786,1908.48 652.668,1897.89 642.142,1888.77C640.783,1887.67 638.774,1887.86 637.658,1889.2C636.542,1890.53 636.739,1892.5 638.097,1893.6Z" style="fill:url(#_Linear3);"/>
                    </g>
                    <g transform="matrix(1.05035,0,0,0.841052,-320.169,-1522.73)">
                        <path d="M648.774,2003.13C632.556,2017.35 586.116,2023.13 544.553,2017.6C538.311,2016.76 532.18,2015.64 526.287,2014.24C516.783,2011.97 507.906,2008.93 500.109,2005.27C476.206,1994.02 462.815,1976.34 475.351,1950.91C478.989,1943.53 484.666,1935.47 492.869,1926.76C505.53,1914 529.248,1899.27 553.431,1898.44C573.05,1897.77 592.914,1906.39 607.473,1932.8C609.928,1937.2 609.813,1942.25 607.959,1947.46C604.433,1957.35 594.888,1967.88 583.555,1975.81C579.289,1978.79 574.739,1981.36 570.217,1983.45C562.481,1987.03 554.774,1989.1 548.36,1989C542.858,1988.92 538.358,1987.15 535.921,1982.88C535.294,1981.84 533.924,1981.5 532.864,1982.11C531.804,1982.73 531.452,1984.07 532.079,1985.12C535.485,1990.49 541.263,1992.85 548.388,1992.64C556.193,1992.41 565.635,1989.06 574.859,1983.89C578.239,1981.99 581.583,1979.85 584.836,1977.57C596.637,1969.28 606.905,1958.71 610.821,1948.47C613.148,1942.4 613.287,1936.46 610.527,1931.2C595.454,1902.8 574.23,1893.49 553.3,1893.96C527.781,1894.52 502.596,1909.89 489.151,1923.22C489.133,1923.24 489.114,1923.26 489.096,1923.28C480.474,1932.47 474.431,1940.93 470.73,1948.76C457.458,1976.84 472.345,1996.28 498.891,2007.86C506.94,2011.37 516.085,2014.11 525.801,2016.27C531.776,2017.6 537.967,2018.71 544.266,2019.6C586.966,2025.69 634.703,2020.69 651.71,2006.43C652.638,2005.64 652.733,2004.25 651.923,2003.34C651.113,2002.43 649.702,2002.34 648.774,2003.13Z" style="fill:url(#_Linear4);"/>
                    </g>
                    <g transform="matrix(0.970415,0,0,0.817223,-323.835,-1469.78)">
                        <path d="M563.607,1923.44C563.02,1925.45 561.632,1926.73 559.444,1927.28C557.844,1927.68 556,1927.9 553.914,1927.94C551.908,1927.98 550.024,1927.72 548.262,1927.15C547.675,1927.05 546.793,1926.84 545.618,1926.52C544.788,1926.21 544.393,1925.62 544.433,1924.76C544.656,1921.4 544.99,1916.36 545.436,1909.64C545.314,1909.36 545.254,1909.1 545.254,1908.85C545.254,1908.49 545.365,1908.17 545.588,1907.87C545.811,1907.2 546.337,1906.92 547.168,1907.02C547.978,1907.15 548.687,1907.2 549.295,1907.18C554.299,1907.05 557.905,1907.46 560.113,1908.41C563.253,1909.79 564.823,1912.35 564.823,1916.06C564.823,1918.21 564.417,1920.66 563.607,1923.44ZM560.113,1912.16C558.715,1910.83 556.639,1910.18 553.883,1910.2C552.364,1910.23 551.159,1910.27 550.267,1910.33C549.579,1910.37 549.118,1910.48 548.885,1910.64C548.652,1910.81 548.505,1911.37 548.444,1912.32L548.11,1916.73C548.07,1917.19 547.988,1918.68 547.867,1921.2C547.826,1922.08 547.826,1922.64 547.867,1922.87C548.009,1923.35 548.384,1923.69 548.991,1923.88C550.349,1924.3 551.797,1924.51 553.337,1924.51C554.856,1924.53 556.304,1924.43 557.682,1924.22C559.525,1923.95 560.68,1922.81 561.146,1920.79C561.47,1919.4 561.632,1918.11 561.632,1916.91C561.632,1914.69 561.126,1913.1 560.113,1912.16Z" style="fill:white;fill-rule:nonzero;"/>
                        <path d="M564.593,1923.73C563.899,1926.11 562.275,1927.64 559.692,1928.28C558.026,1928.7 556.107,1928.93 553.935,1928.97C551.836,1929.02 549.862,1928.75 548.02,1928.16C547.415,1928.05 546.526,1927.84 545.354,1927.52C545.321,1927.51 545.288,1927.5 545.256,1927.49C543.951,1927 543.343,1926.06 543.407,1924.71C543.407,1924.7 543.408,1924.7 543.408,1924.69C543.408,1924.69 544.396,1909.8 544.396,1909.8C544.28,1909.48 544.226,1909.16 544.226,1908.85C544.226,1908.32 544.374,1907.83 544.671,1907.39C544.883,1906.86 545.224,1906.48 545.665,1906.25C546.088,1906.02 546.629,1905.91 547.296,1906C547.306,1906 547.315,1906 547.325,1906C548.062,1906.12 548.707,1906.17 549.26,1906.15C549.263,1906.15 549.266,1906.15 549.269,1906.15C554.473,1906.02 558.219,1906.47 560.515,1907.46C560.518,1907.46 560.522,1907.46 560.526,1907.46C564.06,1909.02 565.85,1911.88 565.85,1916.06C565.85,1918.29 565.435,1920.85 564.593,1923.73ZM563.607,1923.44C564.417,1920.66 564.823,1918.21 564.823,1916.06C564.823,1912.35 563.253,1909.79 560.113,1908.41C557.905,1907.46 554.299,1907.05 549.295,1907.18C548.687,1907.2 547.978,1907.15 547.168,1907.02C546.337,1906.92 545.811,1907.2 545.588,1907.87C545.365,1908.17 545.254,1908.49 545.254,1908.85C545.254,1909.1 545.314,1909.36 545.436,1909.64L544.433,1924.76C544.393,1925.62 544.788,1926.21 545.618,1926.52C546.793,1926.84 547.675,1927.05 548.262,1927.15C550.024,1927.72 551.908,1927.98 553.914,1927.94C556,1927.9 557.844,1927.68 559.444,1927.28C561.632,1926.73 563.02,1925.45 563.607,1923.44ZM560.113,1912.16C561.126,1913.1 561.632,1914.69 561.632,1916.91C561.632,1918.11 561.47,1919.4 561.146,1920.79C560.68,1922.81 559.525,1923.95 557.682,1924.22C556.304,1924.43 554.856,1924.53 553.337,1924.51C551.797,1924.51 550.349,1924.3 548.991,1923.88C548.384,1923.69 548.009,1923.35 547.867,1922.87C547.826,1922.64 547.826,1922.08 547.867,1921.2C547.988,1918.68 548.07,1917.19 548.11,1916.73L548.444,1912.32C548.505,1911.37 548.652,1910.81 548.885,1910.64C549.118,1910.48 549.579,1910.37 550.267,1910.33C551.159,1910.27 552.364,1910.23 553.883,1910.2C556.639,1910.18 558.715,1910.83 560.113,1912.16ZM549.603,1911.47C549.562,1911.66 549.491,1912.04 549.469,1912.38C549.469,1912.38 549.469,1912.39 549.469,1912.39L549.134,1916.8C549.134,1916.81 549.134,1916.81 549.133,1916.82C549.093,1917.27 549.013,1918.75 548.893,1921.25C548.862,1921.93 548.847,1922.39 548.871,1922.62C548.938,1922.76 549.098,1922.83 549.294,1922.89C550.557,1923.28 551.904,1923.47 553.337,1923.47C553.341,1923.47 553.346,1923.47 553.351,1923.47C554.811,1923.49 556.204,1923.4 557.528,1923.2L557.532,1923.2C558.937,1922.99 559.79,1922.09 560.145,1920.56L560.146,1920.55C560.45,1919.25 560.605,1918.04 560.605,1916.91C560.605,1915.05 560.26,1913.7 559.414,1912.91L559.409,1912.91C558.175,1911.74 556.326,1911.22 553.894,1911.24C552.401,1911.26 551.216,1911.3 550.339,1911.36C550.336,1911.36 550.333,1911.36 550.33,1911.36C550.061,1911.38 549.771,1911.43 549.603,1911.47Z"/>
                        <path d="M581.626,1916.54C581.606,1917.06 581.576,1917.7 581.535,1918.46C581.474,1919.55 580.907,1920.04 579.834,1919.94C578.8,1919.83 578.304,1919.24 578.345,1918.14C578.365,1917.43 578.253,1916.91 578.01,1916.6C577.909,1916.47 577.696,1916.41 577.372,1916.41C577.048,1916.41 576.602,1916.48 576.035,1916.63C576.015,1916.63 575.326,1916.83 573.969,1917.23C572.835,1917.57 572.105,1917.98 571.781,1918.46C571.457,1918.94 571.315,1919.81 571.356,1921.07C571.417,1923.09 571.417,1924.98 571.356,1926.74C571.315,1927.82 570.748,1928.3 569.654,1928.19C568.601,1928.09 568.094,1927.5 568.135,1926.43C568.155,1925.59 568.165,1924.75 568.165,1923.91C568.165,1920.69 567.932,1917.53 567.466,1914.42C567.365,1913.82 567.527,1913.29 567.952,1912.85C568.378,1912.41 568.874,1912.26 569.441,1912.41C569.745,1912.47 569.978,1912.64 570.14,1912.93C570.302,1913.21 570.459,1913.48 570.611,1913.73C570.763,1913.98 571.011,1914.14 571.356,1914.2C571.619,1914.27 572.257,1914.15 573.27,1913.86C574.546,1913.46 575.255,1913.25 575.397,1913.23C576.248,1913.06 577.008,1912.94 577.676,1912.88C578.426,1912.8 579.145,1912.88 579.834,1913.13C580.624,1913.45 581.125,1913.94 581.338,1914.6C581.55,1915.26 581.647,1915.91 581.626,1916.54Z" style="fill:white;fill-rule:nonzero;"/>
                        <path d="M571.474,1913.17C571.49,1913.17 571.516,1913.18 571.535,1913.19C571.61,1913.18 572.29,1913.07 572.977,1912.87C574.228,1912.48 574.971,1912.26 575.199,1912.22C576.085,1912.04 576.876,1911.92 577.572,1911.85C578.48,1911.75 579.351,1911.86 580.185,1912.16C580.194,1912.17 580.203,1912.17 580.212,1912.17C581.332,1912.62 582.014,1913.34 582.315,1914.28C582.566,1915.06 582.677,1915.83 582.653,1916.57L582.653,1916.58C582.632,1917.11 582.602,1917.75 582.561,1918.51L582.561,1918.52C582.511,1919.4 582.198,1920.03 581.736,1920.43C581.271,1920.83 580.614,1921.05 579.734,1920.97L579.73,1920.97C578.896,1920.88 578.298,1920.56 577.898,1920.07C577.51,1919.61 577.286,1918.96 577.318,1918.11C577.325,1917.84 577.331,1917.62 577.292,1917.45C577.039,1917.46 576.706,1917.52 576.292,1917.63C576.283,1917.63 576.274,1917.64 576.266,1917.64C576.266,1917.64 575.46,1917.87 574.258,1918.22C573.436,1918.47 572.868,1918.69 572.633,1919.04C572.386,1919.4 572.352,1920.08 572.382,1921.04L572.383,1921.04C572.444,1923.08 572.444,1925 572.382,1926.78L572.382,1926.78C572.349,1927.67 572.036,1928.3 571.564,1928.7C571.103,1929.09 570.444,1929.31 569.557,1929.22L569.553,1929.22C568.713,1929.14 568.111,1928.82 567.708,1928.35C567.308,1927.89 567.078,1927.25 567.108,1926.4C567.128,1925.57 567.138,1924.74 567.138,1923.91C567.138,1920.75 566.909,1917.64 566.451,1914.58C566.297,1913.63 566.552,1912.82 567.215,1912.13C567.92,1911.4 568.745,1911.17 569.674,1911.4C570.26,1911.53 570.716,1911.86 571.031,1912.41C571.183,1912.68 571.331,1912.93 571.474,1913.17ZM581.626,1916.54C581.647,1915.91 581.55,1915.26 581.338,1914.6C581.125,1913.94 580.624,1913.45 579.834,1913.13C579.145,1912.88 578.426,1912.8 577.676,1912.88C577.008,1912.94 576.248,1913.06 575.397,1913.23C575.255,1913.25 574.546,1913.46 573.27,1913.86C572.257,1914.15 571.619,1914.27 571.356,1914.2C571.011,1914.14 570.763,1913.98 570.611,1913.73C570.459,1913.48 570.302,1913.21 570.14,1912.93C569.978,1912.64 569.745,1912.47 569.441,1912.41C568.874,1912.26 568.378,1912.41 567.952,1912.85C567.527,1913.29 567.365,1913.82 567.466,1914.42C567.932,1917.53 568.165,1920.69 568.165,1923.91C568.165,1924.75 568.155,1925.59 568.135,1926.43C568.094,1927.5 568.601,1928.09 569.654,1928.19C570.748,1928.3 571.315,1927.82 571.356,1926.74C571.417,1924.98 571.417,1923.09 571.356,1921.07C571.315,1919.81 571.457,1918.94 571.781,1918.46C572.105,1917.98 572.835,1917.57 573.969,1917.23C575.326,1916.83 576.015,1916.63 576.035,1916.63C576.602,1916.48 577.048,1916.41 577.372,1916.41C577.696,1916.41 577.909,1916.47 578.01,1916.6C578.253,1916.91 578.365,1917.43 578.345,1918.14C578.304,1919.24 578.8,1919.83 579.834,1919.94C580.907,1920.04 581.474,1919.55 581.535,1918.46C581.576,1917.7 581.606,1917.06 581.626,1916.54Z"/>
                        <path d="M599.828,1927.56C599.889,1927.67 599.919,1927.78 599.919,1927.91C599.919,1928.37 599.615,1928.69 599.008,1928.86C598.44,1929.02 597.924,1928.97 597.458,1928.7C597.296,1928.61 597.002,1928.35 596.577,1927.91C596.273,1927.6 595.979,1927.44 595.695,1927.44C595.574,1927.44 595.452,1927.46 595.331,1927.5C595.189,1927.44 594.622,1927.45 593.629,1927.53C592.616,1927.72 591.603,1927.86 590.59,1927.94C589.274,1928.05 588.149,1927.84 587.218,1927.31C586.164,1926.72 585.465,1925.8 585.121,1924.54C584.412,1922 584.148,1919.24 584.331,1916.25C584.432,1914.68 585.141,1913.64 586.458,1913.13C587.39,1912.76 588.423,1912.62 589.557,1912.72C590.854,1912.85 591.553,1912.91 591.654,1912.91C592.626,1913.04 593.528,1913.21 594.358,1913.42C594.338,1912.91 594.531,1912.57 594.936,1912.38C595.26,1912.21 595.726,1912.16 596.333,1912.22C597.427,1912.33 597.984,1912.9 598.005,1913.95C598.045,1915.32 598.167,1917.33 598.369,1920C598.633,1923.28 599.119,1925.8 599.828,1927.56ZM595.27,1921.39L595.209,1920.41C595.209,1920.2 595.189,1919.88 595.148,1919.43C595.047,1918.34 594.915,1917.67 594.753,1917.42C594.531,1917.12 593.913,1916.85 592.9,1916.6C592.049,1916.39 591.188,1916.21 590.317,1916.06C589.426,1915.92 588.625,1915.94 587.916,1916.13C587.491,1916.25 587.278,1916.74 587.278,1917.58C587.278,1917.81 587.299,1918.07 587.339,1918.36C587.44,1919.16 587.552,1920.01 587.673,1920.92C587.856,1922.3 587.967,1923.07 588.008,1923.22C588.271,1924.08 588.788,1924.52 589.557,1924.54C590.874,1924.56 592.1,1924.44 593.234,1924.19C594.186,1924 594.779,1923.75 595.012,1923.42C595.245,1923.1 595.331,1922.42 595.27,1921.39Z" style="fill:white;fill-rule:nonzero;"/>
                        <path d="M596.987,1929.62C596.972,1929.61 596.956,1929.6 596.941,1929.59C596.723,1929.46 596.346,1929.15 595.839,1928.63C595.786,1928.57 595.7,1928.51 595.659,1928.48C595.467,1928.54 595.261,1928.55 595.067,1928.5C594.957,1928.5 594.375,1928.51 593.771,1928.56C592.739,1928.75 591.707,1928.88 590.675,1928.97L590.672,1928.97C589.126,1929.1 587.81,1928.83 586.716,1928.21C585.424,1927.49 584.556,1926.36 584.132,1924.82C583.393,1922.17 583.116,1919.3 583.305,1916.19L583.306,1916.19C583.437,1914.15 584.383,1912.83 586.083,1912.17C587.157,1911.74 588.345,1911.57 589.651,1911.69L589.656,1911.7C590.892,1911.82 591.557,1911.88 591.654,1911.88C591.698,1911.88 591.742,1911.88 591.785,1911.89C592.427,1911.97 593.039,1912.07 593.621,1912.19C593.816,1911.87 594.107,1911.63 594.485,1911.45C594.943,1911.22 595.591,1911.1 596.431,1911.19C597.268,1911.27 597.883,1911.57 598.309,1912.01C598.749,1912.47 599.014,1913.1 599.032,1913.92C599.072,1915.28 599.193,1917.28 599.393,1919.92C599.646,1923.06 600.1,1925.48 600.78,1927.18L600.716,1927.04L600.889,1927.46L600.946,1927.91C600.946,1928.81 600.466,1929.52 599.287,1929.85C598.446,1930.1 597.681,1930.01 596.987,1929.62ZM599.828,1927.56C599.119,1925.8 598.633,1923.28 598.369,1920C598.167,1917.33 598.045,1915.32 598.005,1913.95C597.984,1912.9 597.427,1912.33 596.333,1912.22C595.726,1912.16 595.26,1912.21 594.936,1912.38C594.531,1912.57 594.338,1912.91 594.358,1913.42C593.528,1913.21 592.626,1913.04 591.654,1912.91C591.553,1912.91 590.854,1912.85 589.557,1912.72C588.423,1912.62 587.39,1912.76 586.458,1913.13C585.141,1913.64 584.432,1914.68 584.331,1916.25C584.148,1919.24 584.412,1922 585.121,1924.54C585.465,1925.8 586.164,1926.72 587.218,1927.31C588.149,1927.84 589.274,1928.05 590.59,1927.94C591.603,1927.86 592.616,1927.72 593.629,1927.53C594.622,1927.45 595.189,1927.44 595.331,1927.5C595.452,1927.46 595.574,1927.44 595.695,1927.44C595.979,1927.44 596.273,1927.6 596.577,1927.91C597.002,1928.35 597.296,1928.61 597.458,1928.7C597.924,1928.97 598.44,1929.02 599.008,1928.86C599.615,1928.69 599.919,1928.37 599.919,1927.91C599.919,1927.78 599.889,1927.67 599.828,1927.56ZM595.27,1921.39C595.331,1922.42 595.245,1923.1 595.012,1923.42C594.779,1923.75 594.186,1924 593.234,1924.19C592.1,1924.44 590.874,1924.56 589.557,1924.54C588.788,1924.52 588.271,1924.08 588.008,1923.22C587.967,1923.07 587.856,1922.3 587.673,1920.92C587.552,1920.01 587.44,1919.16 587.339,1918.36C587.299,1918.07 587.278,1917.81 587.278,1917.58C587.278,1916.74 587.491,1916.25 587.916,1916.13C588.625,1915.94 589.426,1915.92 590.317,1916.06C591.188,1916.21 592.049,1916.39 592.9,1916.6C593.913,1916.85 594.531,1917.12 594.753,1917.42C594.915,1917.67 595.047,1918.34 595.148,1919.43C595.189,1919.88 595.209,1920.2 595.209,1920.41L595.27,1921.39ZM588.362,1917.08C588.34,1917.19 588.306,1917.4 588.306,1917.58C588.306,1917.77 588.323,1917.98 588.357,1918.22C588.357,1918.23 588.358,1918.23 588.358,1918.23C588.459,1919.03 588.57,1919.88 588.691,1920.78L588.692,1920.78C588.859,1922.05 588.955,1922.77 588.998,1922.94C589.107,1923.28 589.274,1923.5 589.582,1923.51C590.81,1923.52 591.954,1923.42 593.013,1923.18C593.02,1923.18 593.028,1923.18 593.035,1923.18C593.425,1923.1 593.743,1923.01 593.985,1922.91C594.059,1922.88 594.159,1922.82 594.19,1922.8C594.219,1922.74 594.218,1922.65 594.232,1922.54C594.269,1922.25 594.27,1921.89 594.245,1921.45L594.184,1920.48C594.183,1920.45 594.182,1920.43 594.182,1920.41C594.182,1920.22 594.162,1919.93 594.126,1919.53C594.066,1918.89 593.939,1918.26 593.89,1918.03C593.838,1918 593.768,1917.97 593.71,1917.94C593.443,1917.82 593.091,1917.71 592.654,1917.6C591.829,1917.4 590.994,1917.23 590.149,1917.08C589.492,1916.98 588.896,1916.97 588.362,1917.08Z"/>
                        <path d="M622.587,1913.39C622.466,1915.21 621.949,1917.44 621.038,1920.07C620.227,1922.25 619.417,1924.42 618.607,1926.59C618.283,1927.47 617.675,1927.85 616.784,1927.72C615.933,1927.6 615.477,1927.05 615.416,1926.08C615.416,1925.96 615.193,1925.58 614.748,1924.95C614.241,1924.21 613.958,1923.79 613.897,1923.69C612.742,1921.48 611.972,1920.4 611.588,1920.44C611.243,1920.51 610.727,1921.44 610.038,1923.25C609.552,1924.53 609.146,1925.84 608.822,1927.18C608.66,1927.84 608.194,1928.23 607.425,1928.35C606.675,1928.48 606.158,1928.21 605.875,1927.56C605.328,1926.28 604.629,1924.27 603.778,1921.51C602.948,1918.83 602.239,1916.81 601.651,1915.47C601.509,1915.15 601.438,1914.86 601.438,1914.58C601.438,1914.02 601.752,1913.54 602.38,1913.16C602.725,1912.98 603.039,1912.88 603.322,1912.88C603.809,1912.88 604.244,1913.3 604.629,1914.14C604.751,1914.39 604.973,1915.05 605.298,1916.1C605.946,1918.07 606.533,1919.48 607.06,1920.32C607.1,1920.4 607.151,1920.44 607.212,1920.44C607.475,1920.44 607.901,1919.68 608.488,1918.14C609.157,1916.36 609.693,1914.8 610.099,1913.48C610.342,1912.68 610.848,1912.28 611.618,1912.28C612.428,1912.3 612.955,1912.71 613.198,1913.51C613.806,1915.51 614.484,1917.31 615.234,1918.93C615.72,1919.98 616.146,1920.7 616.51,1921.11C616.571,1921.19 616.642,1921.23 616.723,1921.23C617.108,1921.23 617.619,1920.23 618.257,1918.22C618.896,1916.22 619.265,1914.58 619.367,1913.32C619.448,1912.25 620.015,1911.73 621.068,1911.75C622.162,1911.77 622.669,1912.32 622.587,1913.39Z" style="fill:white;fill-rule:nonzero;"/>
                        <path d="M607.255,1918.43C607.348,1918.22 607.442,1918 607.528,1917.78C608.188,1916.01 608.717,1914.48 609.116,1913.18C609.513,1911.87 610.361,1911.25 611.618,1911.25C611.627,1911.25 611.636,1911.25 611.644,1911.25C612.942,1911.28 613.791,1911.93 614.18,1913.21C614.773,1915.15 615.434,1916.92 616.165,1918.49C616.353,1918.9 616.528,1919.25 616.691,1919.55C616.872,1919.12 617.067,1918.57 617.279,1917.91C617.887,1916 618.246,1914.44 618.342,1913.24C618.406,1912.39 618.707,1911.78 619.157,1911.37C619.611,1910.94 620.245,1910.7 621.088,1910.71C621.978,1910.73 622.607,1911.02 623.02,1911.47C623.439,1911.92 623.677,1912.57 623.612,1913.45L623.612,1913.46C623.484,1915.36 622.954,1917.68 622.008,1920.41C622.005,1920.41 622.003,1920.42 622,1920.43C621.19,1922.61 620.379,1924.79 619.57,1926.94C619.316,1927.64 618.926,1928.11 618.448,1928.41C617.958,1928.72 617.359,1928.85 616.641,1928.74L616.634,1928.74C615.927,1928.64 615.396,1928.34 615.017,1927.88C614.692,1927.49 614.471,1926.97 614.404,1926.31C614.331,1926.18 614.134,1925.86 613.911,1925.55C613.908,1925.54 613.906,1925.54 613.903,1925.54C613.37,1924.76 613.073,1924.32 613.009,1924.21C613.002,1924.19 612.995,1924.18 612.988,1924.17C612.536,1923.31 612.048,1922.54 611.704,1922.03C611.494,1922.45 611.228,1923.01 610.997,1923.62C610.527,1924.86 610.134,1926.13 609.821,1927.43L609.819,1927.44C609.556,1928.49 608.839,1929.16 607.592,1929.37C606.967,1929.48 606.443,1929.39 606.012,1929.17C605.556,1928.94 605.184,1928.55 604.934,1927.98L604.931,1927.97C604.375,1926.67 603.662,1924.62 602.797,1921.82C601.982,1919.18 601.288,1917.2 600.715,1915.89C600.505,1915.42 600.411,1914.99 600.411,1914.58C600.411,1913.68 600.85,1912.88 601.853,1912.28C601.865,1912.27 601.876,1912.27 601.888,1912.26C602.411,1911.97 602.892,1911.85 603.322,1911.85C604.102,1911.85 604.943,1912.36 605.56,1913.71C605.692,1913.99 605.935,1914.67 606.276,1915.78C606.622,1916.83 606.947,1917.72 607.255,1918.43ZM622.587,1913.39C622.669,1912.32 622.162,1911.77 621.068,1911.75C620.015,1911.73 619.448,1912.25 619.367,1913.32C619.265,1914.58 618.896,1916.22 618.257,1918.22C617.619,1920.23 617.108,1921.23 616.723,1921.23C616.642,1921.23 616.571,1921.19 616.51,1921.11C616.146,1920.7 615.72,1919.98 615.234,1918.93C614.484,1917.31 613.806,1915.51 613.198,1913.51C612.955,1912.71 612.428,1912.3 611.618,1912.28C610.848,1912.28 610.342,1912.68 610.099,1913.48C609.693,1914.8 609.157,1916.36 608.488,1918.14C607.901,1919.68 607.475,1920.44 607.212,1920.44C607.151,1920.44 607.1,1920.4 607.06,1920.32C606.533,1919.48 605.946,1918.07 605.298,1916.1C604.973,1915.05 604.751,1914.39 604.629,1914.14C604.244,1913.3 603.809,1912.88 603.322,1912.88C603.039,1912.88 602.725,1912.98 602.38,1913.16C601.752,1913.54 601.438,1914.02 601.438,1914.58C601.438,1914.86 601.509,1915.15 601.651,1915.47C602.239,1916.81 602.948,1918.83 603.778,1921.51C604.629,1924.27 605.328,1926.28 605.875,1927.56C606.158,1928.21 606.675,1928.48 607.425,1928.35C608.194,1928.23 608.66,1927.84 608.822,1927.18C609.146,1925.84 609.552,1924.53 610.038,1923.25C610.727,1921.44 611.243,1920.51 611.588,1920.44C611.972,1920.4 612.742,1921.48 613.897,1923.69C613.958,1923.79 614.241,1924.21 614.748,1924.95C615.193,1925.58 615.416,1925.96 615.416,1926.08C615.477,1927.05 615.933,1927.6 616.784,1927.72C617.675,1927.85 618.283,1927.47 618.607,1926.59C619.417,1924.42 620.227,1922.25 621.038,1920.07C621.949,1917.44 622.466,1915.21 622.587,1913.39Z"/>
                        <path d="M655.982,1927.56C656.043,1927.67 656.073,1927.78 656.073,1927.91C656.073,1928.37 655.77,1928.69 655.162,1928.86C654.595,1929.02 654.078,1928.97 653.612,1928.7C653.45,1928.61 653.156,1928.35 652.731,1927.91C652.427,1927.6 652.133,1927.44 651.85,1927.44C651.728,1927.44 651.607,1927.46 651.485,1927.5C651.343,1927.44 650.776,1927.45 649.783,1927.53C648.771,1927.72 647.758,1927.86 646.745,1927.94C645.428,1928.05 644.304,1927.84 643.372,1927.31C642.318,1926.72 641.62,1925.8 641.275,1924.54C640.566,1922 640.303,1919.24 640.485,1916.25C640.586,1914.68 641.295,1913.64 642.612,1913.13C643.544,1912.76 644.577,1912.62 645.712,1912.72C647.008,1912.85 647.707,1912.91 647.808,1912.91C648.781,1913.04 649.682,1913.21 650.513,1913.42C650.492,1912.91 650.685,1912.57 651.09,1912.38C651.414,1912.21 651.88,1912.16 652.488,1912.22C653.582,1912.33 654.139,1912.9 654.159,1913.95C654.2,1915.32 654.321,1917.33 654.524,1920C654.787,1923.28 655.273,1925.8 655.982,1927.56ZM651.424,1921.39L651.364,1920.41C651.364,1920.2 651.343,1919.88 651.303,1919.43C651.201,1918.34 651.07,1917.67 650.908,1917.42C650.685,1917.12 650.067,1916.85 649.054,1916.6C648.203,1916.39 647.342,1916.21 646.471,1916.06C645.58,1915.92 644.78,1915.94 644.071,1916.13C643.645,1916.25 643.433,1916.74 643.433,1917.58C643.433,1917.81 643.453,1918.07 643.493,1918.36C643.595,1919.16 643.706,1920.01 643.828,1920.92C644.01,1922.3 644.121,1923.07 644.162,1923.22C644.425,1924.08 644.942,1924.52 645.712,1924.54C647.028,1924.56 648.254,1924.44 649.388,1924.19C650.341,1924 650.933,1923.75 651.166,1923.42C651.399,1923.1 651.485,1922.42 651.424,1921.39Z" style="fill:white;fill-rule:nonzero;"/>
                        <path d="M653.141,1929.62C653.126,1929.61 653.111,1929.6 653.095,1929.59C652.878,1929.46 652.5,1929.15 651.994,1928.63C651.94,1928.57 651.855,1928.51 651.813,1928.48C651.621,1928.54 651.415,1928.55 651.221,1928.5C651.111,1928.5 650.529,1928.51 649.925,1928.56C648.893,1928.75 647.861,1928.88 646.829,1928.97L646.826,1928.97C645.281,1929.1 643.964,1928.83 642.871,1928.21C641.578,1927.49 640.71,1926.36 640.286,1924.82C639.548,1922.17 639.27,1919.3 639.46,1916.19L639.46,1916.19C639.591,1914.15 640.538,1912.83 642.237,1912.17C643.311,1911.74 644.5,1911.57 645.806,1911.69L645.81,1911.7C647.046,1911.82 647.712,1911.88 647.808,1911.88C647.852,1911.88 647.896,1911.88 647.94,1911.89C648.581,1911.97 649.193,1912.07 649.775,1912.19C649.971,1911.87 650.262,1911.63 650.64,1911.45C651.098,1911.22 651.745,1911.1 652.585,1911.19C653.422,1911.27 654.037,1911.57 654.463,1912.01C654.903,1912.47 655.168,1913.1 655.186,1913.92C655.226,1915.28 655.347,1917.28 655.548,1919.92C655.801,1923.06 656.255,1925.48 656.935,1927.18L656.87,1927.04L657.044,1927.46L657.101,1927.91C657.101,1928.81 656.62,1929.52 655.441,1929.85C654.601,1930.1 653.835,1930.01 653.141,1929.62ZM655.982,1927.56C655.273,1925.8 654.787,1923.28 654.524,1920C654.321,1917.33 654.2,1915.32 654.159,1913.95C654.139,1912.9 653.582,1912.33 652.488,1912.22C651.88,1912.16 651.414,1912.21 651.09,1912.38C650.685,1912.57 650.492,1912.91 650.513,1913.42C649.682,1913.21 648.781,1913.04 647.808,1912.91C647.707,1912.91 647.008,1912.85 645.712,1912.72C644.577,1912.62 643.544,1912.76 642.612,1913.13C641.295,1913.64 640.586,1914.68 640.485,1916.25C640.303,1919.24 640.566,1922 641.275,1924.54C641.62,1925.8 642.318,1926.72 643.372,1927.31C644.304,1927.84 645.428,1928.05 646.745,1927.94C647.758,1927.86 648.771,1927.72 649.783,1927.53C650.776,1927.45 651.343,1927.44 651.485,1927.5C651.607,1927.46 651.728,1927.44 651.85,1927.44C652.133,1927.44 652.427,1927.6 652.731,1927.91C653.156,1928.35 653.45,1928.61 653.612,1928.7C654.078,1928.97 654.595,1929.02 655.162,1928.86C655.77,1928.69 656.073,1928.37 656.073,1927.91C656.073,1927.78 656.043,1927.67 655.982,1927.56ZM651.424,1921.39C651.485,1922.42 651.399,1923.1 651.166,1923.42C650.933,1923.75 650.341,1924 649.388,1924.19C648.254,1924.44 647.028,1924.56 645.712,1924.54C644.942,1924.52 644.425,1924.08 644.162,1923.22C644.121,1923.07 644.01,1922.3 643.828,1920.92C643.706,1920.01 643.595,1919.16 643.493,1918.36C643.453,1918.07 643.433,1917.81 643.433,1917.58C643.433,1916.74 643.645,1916.25 644.071,1916.13C644.78,1915.94 645.58,1915.92 646.471,1916.06C647.342,1916.21 648.203,1916.39 649.054,1916.6C650.067,1916.85 650.685,1917.12 650.908,1917.42C651.07,1917.67 651.201,1918.34 651.303,1919.43C651.343,1919.88 651.364,1920.2 651.364,1920.41L651.424,1921.39ZM644.516,1917.08C644.494,1917.19 644.46,1917.4 644.46,1917.58C644.46,1917.77 644.478,1917.98 644.511,1918.22C644.511,1918.23 644.512,1918.23 644.512,1918.23C644.613,1919.03 644.724,1919.88 644.846,1920.78L644.846,1920.78C645.013,1922.05 645.109,1922.77 645.152,1922.94C645.261,1923.28 645.429,1923.5 645.736,1923.51C646.964,1923.52 648.108,1923.42 649.167,1923.18C649.174,1923.18 649.182,1923.18 649.19,1923.18C649.579,1923.1 649.897,1923.01 650.14,1922.91C650.214,1922.88 650.313,1922.82 650.344,1922.8C650.374,1922.74 650.372,1922.65 650.386,1922.54C650.423,1922.25 650.425,1921.89 650.399,1921.45L650.338,1920.48C650.337,1920.45 650.336,1920.43 650.336,1920.41C650.336,1920.22 650.316,1919.93 650.28,1919.53C650.22,1918.89 650.094,1918.26 650.045,1918.03C649.992,1918 649.922,1917.97 649.864,1917.94C649.598,1917.82 649.245,1917.71 648.808,1917.6C647.983,1917.4 647.148,1917.23 646.304,1917.08C645.647,1916.98 645.05,1916.97 644.516,1917.08Z"/>
                        <path d="M508.38,1947.41C508.623,1948.34 508.744,1949.17 508.744,1949.93C508.744,1950.81 508.572,1951.58 508.228,1952.23C507.032,1954.44 504.612,1955.69 500.965,1955.98C499.284,1956.13 497.734,1956.18 496.316,1956.14C495.364,1956.12 494.777,1956.16 494.554,1956.26C494.25,1956.43 494.047,1956.93 493.946,1957.75C493.885,1958.12 493.835,1959.01 493.794,1960.39C493.754,1961.34 493.328,1961.81 492.518,1961.81C492.376,1961.81 492.234,1961.79 492.092,1961.75C491.019,1961.58 490.522,1960.96 490.603,1959.89C490.745,1957.24 491.009,1953.26 491.394,1947.95C491.454,1947.23 491.353,1946.82 491.09,1946.72C490.441,1946.49 489.935,1946.18 489.57,1945.8C489.145,1945.36 488.973,1944.79 489.054,1944.07C489.155,1943.36 489.601,1942.97 490.391,1942.91C491.87,1942.8 493.369,1942.67 494.888,1942.53C495.739,1942.47 496.6,1942.43 497.471,1942.43C500.692,1942.43 503.346,1942.93 505.432,1943.91C506.951,1944.63 507.934,1945.79 508.38,1947.41ZM505.311,1950.12C505.452,1949.76 505.523,1949.43 505.523,1949.11C505.523,1948.25 504.946,1947.56 503.791,1947.03C501.988,1946.24 499.74,1945.84 497.045,1945.84C495.87,1945.84 495.182,1946 494.979,1946.34C494.777,1946.68 494.65,1947.21 494.599,1947.93C494.549,1948.66 494.493,1949.38 494.432,1950.09C494.371,1950.93 494.361,1951.62 494.402,1952.17C494.463,1952.76 496.083,1953.03 499.264,1952.99C500.763,1952.99 501.928,1952.83 502.758,1952.52C503.953,1952.07 504.804,1951.28 505.311,1950.12Z" style="fill:white;fill-rule:nonzero;"/>
                        <path d="M495.119,1957.21C495.071,1957.36 494.995,1957.63 494.965,1957.87C494.964,1957.88 494.962,1957.9 494.96,1957.91C494.902,1958.27 494.859,1959.11 494.821,1960.42C494.821,1960.43 494.821,1960.43 494.82,1960.44C494.787,1961.2 494.552,1961.76 494.206,1962.15C493.815,1962.58 493.263,1962.84 492.518,1962.84C492.3,1962.84 492.083,1962.81 491.88,1962.76C491.07,1962.62 490.494,1962.28 490.115,1961.8C489.725,1961.32 489.517,1960.66 489.578,1959.82C489.72,1957.17 489.984,1953.19 490.369,1947.87C490.369,1947.87 490.37,1947.86 490.37,1947.86C490.378,1947.76 490.378,1947.64 490.376,1947.55C489.733,1947.27 489.222,1946.93 488.833,1946.52C488.2,1945.87 487.913,1945.02 488.033,1943.95C488.034,1943.94 488.035,1943.93 488.037,1943.93C488.127,1943.29 488.394,1942.81 488.791,1942.46C489.159,1942.14 489.658,1941.93 490.31,1941.88C490.313,1941.88 490.315,1941.88 490.318,1941.88C491.789,1941.77 493.279,1941.64 494.79,1941.5C494.797,1941.5 494.805,1941.5 494.813,1941.5C495.688,1941.43 496.574,1941.4 497.471,1941.4C500.869,1941.4 503.666,1941.94 505.868,1942.98C507.673,1943.83 508.84,1945.21 509.37,1947.13C509.371,1947.14 509.372,1947.14 509.373,1947.15C509.641,1948.17 509.772,1949.1 509.772,1949.93C509.772,1951 509.552,1951.93 509.135,1952.72C509.133,1952.72 509.131,1952.72 509.13,1952.73C507.792,1955.19 505.13,1956.68 501.052,1957.01C499.331,1957.16 497.744,1957.21 496.292,1957.17C495.823,1957.16 495.364,1957.19 495.119,1957.21ZM508.38,1947.41C507.934,1945.79 506.951,1944.63 505.432,1943.91C503.346,1942.93 500.692,1942.43 497.471,1942.43C496.6,1942.43 495.739,1942.47 494.888,1942.53C493.369,1942.67 491.87,1942.8 490.391,1942.91C489.601,1942.97 489.155,1943.36 489.054,1944.07C488.973,1944.79 489.145,1945.36 489.57,1945.8C489.935,1946.18 490.441,1946.49 491.09,1946.72C491.353,1946.82 491.454,1947.23 491.394,1947.95C491.009,1953.26 490.745,1957.24 490.603,1959.89C490.522,1960.96 491.019,1961.58 492.092,1961.75C492.234,1961.79 492.376,1961.81 492.518,1961.81C493.328,1961.81 493.754,1961.34 493.794,1960.39C493.835,1959.01 493.885,1958.12 493.946,1957.75C494.047,1956.93 494.25,1956.43 494.554,1956.26C494.777,1956.16 495.364,1956.12 496.316,1956.14C497.734,1956.18 499.284,1956.13 500.965,1955.98C504.612,1955.69 507.032,1954.44 508.228,1952.23C508.572,1951.58 508.744,1950.81 508.744,1949.93C508.744,1949.17 508.623,1948.34 508.38,1947.41ZM505.311,1950.12C504.804,1951.28 503.953,1952.07 502.758,1952.52C501.928,1952.83 500.763,1952.99 499.264,1952.99C496.083,1953.03 494.463,1952.76 494.402,1952.17C494.361,1951.62 494.371,1950.93 494.432,1950.09C494.493,1949.38 494.549,1948.66 494.599,1947.93C494.65,1947.21 494.777,1946.68 494.979,1946.34C495.182,1946 495.87,1945.84 497.045,1945.84C499.74,1945.84 501.988,1946.24 503.791,1947.03C504.946,1947.56 505.523,1948.25 505.523,1949.11C505.523,1949.43 505.452,1949.76 505.311,1950.12ZM495.407,1951.69C495.548,1951.73 495.739,1951.78 495.918,1951.81C496.687,1951.93 497.798,1951.97 499.25,1951.95C499.255,1951.95 499.259,1951.95 499.264,1951.95C500.606,1951.95 501.652,1951.83 502.396,1951.55C502.399,1951.55 502.401,1951.55 502.404,1951.55C503.319,1951.21 503.973,1950.6 504.364,1949.72L504.369,1949.7C504.45,1949.5 504.496,1949.3 504.496,1949.11C504.496,1948.6 504.054,1948.29 503.373,1947.98C501.682,1947.23 499.571,1946.87 497.045,1946.87C496.54,1946.87 495.978,1946.97 495.794,1947.01C495.697,1947.24 495.654,1947.58 495.624,1948C495.573,1948.73 495.517,1949.45 495.456,1950.17C495.414,1950.75 495.397,1951.26 495.407,1951.69Z"/>
                        <path d="M526.763,1952.39C526.845,1953.65 526.51,1954.59 525.761,1955.22C525.214,1955.66 524.262,1956.03 522.904,1956.33C520.777,1956.79 519.066,1957.09 517.769,1957.24C516.918,1957.33 516.361,1957.43 516.098,1957.56C515.571,1957.81 515.409,1958.27 515.612,1958.94C515.875,1959.74 516.148,1960.14 516.432,1960.14C516.594,1960.16 517.151,1960.13 518.103,1960.05C518.731,1960 519.623,1959.88 520.777,1959.67C521.365,1959.56 521.952,1959.47 522.54,1959.38C523.431,1959.22 523.958,1959.06 524.12,1958.91C524.484,1958.6 524.849,1958.44 525.214,1958.44C525.599,1958.44 525.989,1958.63 526.384,1959.02C526.779,1959.41 526.976,1959.81 526.976,1960.23C526.976,1960.61 526.774,1960.98 526.368,1961.34C525.659,1961.97 524.647,1962.42 523.33,1962.69C523.066,1962.73 521.952,1962.88 519.987,1963.13L516.645,1963.57C516.381,1963.59 516.138,1963.61 515.915,1963.61C514.092,1963.61 512.958,1962.54 512.512,1960.42C512.289,1959.31 512.097,1958.48 511.935,1957.93L511.236,1955.38C511.013,1954.56 510.861,1953.69 510.78,1952.77C510.578,1949.95 511.864,1948.09 514.639,1947.19C516.219,1946.67 518.032,1946.28 520.078,1946.03C520.767,1945.94 521.426,1945.84 522.054,1945.71C524.241,1945.33 525.609,1946.31 526.156,1948.64C526.52,1950.24 526.723,1951.49 526.763,1952.39ZM523.36,1951.1C523.137,1949.9 522.884,1949.27 522.601,1949.21C522.297,1949.14 521.608,1949.17 520.534,1949.3C518.731,1949.53 517.192,1949.85 515.915,1950.25C515.227,1950.48 514.801,1950.63 514.639,1950.72C514.173,1950.97 513.94,1951.32 513.94,1951.76C513.94,1953.14 514.072,1953.88 514.335,1953.96C514.578,1954.05 515.308,1954.04 516.523,1953.93C517.212,1953.87 517.789,1953.81 518.255,1953.74L519.927,1953.49C520.251,1953.41 521.264,1953.2 522.965,1952.86C523.087,1952.84 523.178,1952.82 523.239,1952.8C523.543,1952.74 523.583,1952.17 523.36,1951.1Z" style="fill:white;fill-rule:nonzero;"/>
                        <path d="M516.563,1958.48C516.569,1958.52 516.58,1958.59 516.595,1958.64C516.651,1958.8 516.728,1958.98 516.787,1959.1C517.057,1959.09 517.516,1959.06 518.014,1959.02C518.021,1959.02 518.028,1959.01 518.035,1959.01C518.636,1958.97 519.489,1958.85 520.595,1958.65L520.598,1958.65C521.189,1958.54 521.78,1958.45 522.384,1958.36C522.895,1958.26 523.407,1958.11 523.51,1958.08C524.074,1957.61 524.65,1957.4 525.214,1957.4C525.827,1957.4 526.473,1957.66 527.102,1958.28C527.731,1958.9 528.003,1959.57 528.003,1960.23C528.003,1960.87 527.725,1961.51 527.047,1962.11C526.225,1962.84 525.062,1963.39 523.537,1963.7C523.522,1963.71 523.506,1963.71 523.491,1963.71C523.225,1963.75 522.101,1963.9 520.119,1964.16L516.778,1964.6C516.761,1964.6 516.743,1964.6 516.726,1964.6C516.433,1964.63 516.163,1964.64 515.915,1964.64C514.713,1964.64 513.746,1964.27 512.998,1963.57C512.298,1962.91 511.782,1961.94 511.507,1960.64C511.506,1960.63 511.506,1960.63 511.505,1960.63C511.291,1959.56 511.107,1958.76 510.95,1958.23C510.948,1958.22 510.946,1958.22 510.944,1958.21L510.246,1955.66L510.245,1955.65C510.007,1954.78 509.844,1953.85 509.757,1952.86C509.756,1952.85 509.756,1952.85 509.756,1952.84C509.635,1951.16 509.984,1949.78 510.75,1948.67C511.507,1947.58 512.687,1946.74 514.32,1946.21C515.957,1945.66 517.835,1945.26 519.954,1945C520.616,1944.92 521.249,1944.82 521.853,1944.7C521.862,1944.69 521.871,1944.69 521.88,1944.69C523.292,1944.45 524.432,1944.69 525.315,1945.32C526.172,1945.93 526.813,1946.94 527.156,1948.4L527.157,1948.41C527.538,1950.08 527.746,1951.39 527.789,1952.33C527.893,1953.98 527.4,1955.19 526.419,1956.02C526.414,1956.02 526.409,1956.03 526.403,1956.03C525.772,1956.54 524.687,1957 523.121,1957.34C520.952,1957.81 519.206,1958.12 517.884,1958.27C517.879,1958.27 517.874,1958.27 517.869,1958.27C517.219,1958.33 516.78,1958.38 516.563,1958.48ZM526.763,1952.39C526.723,1951.49 526.52,1950.24 526.156,1948.64C525.609,1946.31 524.241,1945.33 522.054,1945.71C521.426,1945.84 520.767,1945.94 520.078,1946.03C518.032,1946.28 516.219,1946.67 514.639,1947.19C511.864,1948.09 510.578,1949.95 510.78,1952.77C510.861,1953.69 511.013,1954.56 511.236,1955.38L511.935,1957.93C512.097,1958.48 512.289,1959.31 512.512,1960.42C512.958,1962.54 514.092,1963.61 515.915,1963.61C516.138,1963.61 516.381,1963.59 516.645,1963.57L519.987,1963.13C521.952,1962.88 523.066,1962.73 523.33,1962.69C524.647,1962.42 525.659,1961.97 526.368,1961.34C526.774,1960.98 526.976,1960.61 526.976,1960.23C526.976,1959.81 526.779,1959.41 526.384,1959.02C525.989,1958.63 525.599,1958.44 525.214,1958.44C524.849,1958.44 524.484,1958.6 524.12,1958.91C523.958,1959.06 523.431,1959.22 522.54,1959.38C521.952,1959.47 521.365,1959.56 520.777,1959.67C519.623,1959.88 518.731,1960 518.103,1960.05C517.151,1960.13 516.594,1960.16 516.432,1960.14C516.148,1960.14 515.875,1959.74 515.612,1958.94C515.409,1958.27 515.571,1957.81 516.098,1957.56C516.361,1957.43 516.918,1957.33 517.769,1957.24C519.066,1957.09 520.777,1956.79 522.904,1956.33C524.262,1956.03 525.214,1955.66 525.761,1955.22C526.51,1954.59 526.845,1953.65 526.763,1952.39ZM523.36,1951.1C523.583,1952.17 523.543,1952.74 523.239,1952.8C523.178,1952.82 523.087,1952.84 522.965,1952.86C521.264,1953.2 520.251,1953.41 519.927,1953.49L518.255,1953.74C517.789,1953.81 517.212,1953.87 516.523,1953.93C515.308,1954.04 514.578,1954.05 514.335,1953.96C514.072,1953.88 513.94,1953.14 513.94,1951.76C513.94,1951.32 514.173,1950.97 514.639,1950.72C514.801,1950.63 515.227,1950.48 515.915,1950.25C517.192,1949.85 518.731,1949.53 520.534,1949.3C521.608,1949.17 522.297,1949.14 522.601,1949.21C522.884,1949.27 523.137,1949.9 523.36,1951.1ZM515.043,1952.97C515.386,1952.97 515.898,1952.95 516.433,1952.9C517.1,1952.84 517.659,1952.78 518.112,1952.72C518.112,1952.72 519.706,1952.48 519.716,1952.48C520.064,1952.39 520.973,1952.2 522.443,1951.91C522.425,1951.73 522.397,1951.52 522.355,1951.31C522.353,1951.3 522.352,1951.3 522.35,1951.29C522.273,1950.87 522.144,1950.44 522.063,1950.2C521.749,1950.2 521.281,1950.25 520.659,1950.33C518.931,1950.55 517.455,1950.85 516.23,1951.23C515.634,1951.43 515.26,1951.56 515.121,1951.63C515.046,1951.67 514.968,1951.69 514.968,1951.76C514.968,1952.21 515.009,1952.66 515.043,1952.97Z"/>
                        <path d="M544.205,1951.19C544.185,1951.72 544.155,1952.36 544.114,1953.11C544.053,1954.21 543.486,1954.7 542.413,1954.59C541.379,1954.49 540.883,1953.89 540.924,1952.8C540.944,1952.08 540.832,1951.57 540.589,1951.26C540.488,1951.13 540.275,1951.07 539.951,1951.07C539.627,1951.07 539.181,1951.14 538.614,1951.29C538.594,1951.29 537.905,1951.49 536.548,1951.88C535.414,1952.22 534.684,1952.63 534.36,1953.11C534.036,1953.6 533.894,1954.47 533.935,1955.73C533.995,1957.75 533.995,1959.63 533.935,1961.4C533.894,1962.47 533.327,1962.95 532.233,1962.85C531.18,1962.74 530.673,1962.16 530.714,1961.08C530.734,1960.24 530.744,1959.4 530.744,1958.56C530.744,1955.35 530.511,1952.19 530.045,1949.08C529.944,1948.47 530.106,1947.95 530.531,1947.51C530.957,1947.07 531.453,1946.92 532.02,1947.07C532.324,1947.13 532.557,1947.3 532.719,1947.58C532.881,1947.87 533.038,1948.14 533.19,1948.39C533.342,1948.64 533.59,1948.8 533.935,1948.86C534.198,1948.92 534.836,1948.81 535.849,1948.51C537.125,1948.12 537.834,1947.9 537.976,1947.88C538.827,1947.72 539.587,1947.6 540.255,1947.54C541.005,1947.45 541.724,1947.54 542.413,1947.79C543.203,1948.1 543.704,1948.59 543.917,1949.25C544.129,1949.92 544.226,1950.56 544.205,1951.19Z" style="fill:white;fill-rule:nonzero;"/>
                        <path d="M534.053,1947.83C534.069,1947.83 534.095,1947.84 534.114,1947.84C534.189,1947.83 534.869,1947.72 535.556,1947.52C536.807,1947.13 537.549,1946.92 537.778,1946.87C538.664,1946.69 539.455,1946.58 540.151,1946.51C541.059,1946.41 541.93,1946.51 542.764,1946.82C542.773,1946.82 542.782,1946.83 542.791,1946.83C543.911,1947.28 544.593,1948 544.894,1948.94C545.145,1949.72 545.256,1950.48 545.232,1951.23L545.232,1951.23C545.211,1951.76 545.181,1952.41 545.14,1953.17L545.14,1953.17C545.09,1954.06 544.777,1954.68 544.315,1955.08C543.85,1955.49 543.193,1955.71 542.313,1955.62L542.309,1955.62C541.475,1955.54 540.877,1955.21 540.477,1954.73C540.089,1954.26 539.865,1953.61 539.897,1952.77C539.904,1952.5 539.91,1952.27 539.871,1952.1C539.618,1952.11 539.285,1952.18 538.871,1952.29C538.862,1952.29 538.853,1952.29 538.844,1952.29C538.844,1952.29 538.039,1952.52 536.837,1952.88C536.015,1953.12 535.447,1953.34 535.212,1953.69C534.965,1954.06 534.931,1954.74 534.961,1955.69L534.962,1955.7C535.023,1957.74 535.023,1959.65 534.961,1961.43L534.961,1961.44C534.928,1962.33 534.615,1962.95 534.143,1963.35C533.682,1963.75 533.023,1963.96 532.135,1963.88L532.132,1963.88C531.292,1963.79 530.69,1963.47 530.287,1963.01C529.887,1962.54 529.657,1961.9 529.687,1961.06C529.707,1960.23 529.717,1959.39 529.717,1958.56C529.717,1955.4 529.488,1952.3 529.03,1949.24C528.876,1948.29 529.131,1947.47 529.794,1946.79C530.499,1946.06 531.324,1945.82 532.253,1946.06C532.839,1946.19 533.295,1946.52 533.61,1947.07C533.762,1947.34 533.91,1947.59 534.053,1947.83ZM544.205,1951.19C544.226,1950.56 544.129,1949.92 543.917,1949.25C543.704,1948.59 543.203,1948.1 542.413,1947.79C541.724,1947.54 541.005,1947.45 540.255,1947.54C539.587,1947.6 538.827,1947.72 537.976,1947.88C537.834,1947.9 537.125,1948.12 535.849,1948.51C534.836,1948.81 534.198,1948.92 533.935,1948.86C533.59,1948.8 533.342,1948.64 533.19,1948.39C533.038,1948.14 532.881,1947.87 532.719,1947.58C532.557,1947.3 532.324,1947.13 532.02,1947.07C531.453,1946.92 530.957,1947.07 530.531,1947.51C530.106,1947.95 529.944,1948.47 530.045,1949.08C530.511,1952.19 530.744,1955.35 530.744,1958.56C530.744,1959.4 530.734,1960.24 530.714,1961.08C530.673,1962.16 531.18,1962.74 532.233,1962.85C533.327,1962.95 533.894,1962.47 533.935,1961.4C533.995,1959.63 533.995,1957.75 533.935,1955.73C533.894,1954.47 534.036,1953.6 534.36,1953.11C534.684,1952.63 535.414,1952.22 536.548,1951.88C537.905,1951.49 538.594,1951.29 538.614,1951.29C539.181,1951.14 539.627,1951.07 539.951,1951.07C540.275,1951.07 540.488,1951.13 540.589,1951.26C540.832,1951.57 540.944,1952.08 540.924,1952.8C540.883,1953.89 541.379,1954.49 542.413,1954.59C543.486,1954.7 544.053,1954.21 544.114,1953.11C544.155,1952.36 544.185,1951.72 544.205,1951.19Z"/>
                        <path d="M559.429,1947C559.368,1948.09 558.801,1948.59 557.727,1948.48C556.654,1948.38 556.147,1947.78 556.208,1946.69C556.249,1945.8 556.198,1945.18 556.056,1944.83C555.833,1944.28 555.357,1943.98 554.628,1943.91C554.263,1943.89 553.544,1943.84 552.471,1943.76C551.397,1943.69 550.82,1943.98 550.738,1944.61C550.414,1947.07 550.232,1949.27 550.192,1951.22C550.151,1952.46 550.242,1953.24 550.465,1953.56C550.728,1953.98 551.407,1954.21 552.501,1954.25C553.25,1954.27 554.496,1954.17 556.238,1953.96C557.272,1953.84 557.879,1954.32 558.062,1955.41C558.082,1955.58 558.092,1955.73 558.092,1955.86C558.092,1956.65 557.656,1957.12 556.785,1957.24C555.043,1957.51 553.737,1957.65 552.866,1957.65C551.772,1957.67 551.118,1957.81 550.906,1958.08C550.693,1958.34 550.627,1959.08 550.708,1960.3C550.789,1961.33 550.84,1962.37 550.86,1963.42C550.88,1963.94 550.754,1964.33 550.48,1964.58C550.207,1964.83 549.807,1964.93 549.28,1964.87C548.206,1964.76 547.659,1964.17 547.639,1963.1C547.619,1962.18 547.477,1959.96 547.214,1956.45C547.011,1953.74 546.95,1951.53 547.031,1949.81C547.092,1948.27 547.153,1946.75 547.214,1945.24C547.436,1943.41 548.054,1942.11 549.067,1941.33C549.979,1940.64 551.296,1940.3 553.017,1940.32C554.658,1940.37 555.914,1940.53 556.785,1940.83C558.203,1941.31 559.014,1942.18 559.216,1943.43C559.419,1944.68 559.49,1945.87 559.429,1947Z" style="fill:white;fill-rule:nonzero;"/>
                        <path d="M551.744,1944.84C551.434,1947.22 551.258,1949.35 551.219,1951.25C551.218,1951.25 551.218,1951.25 551.218,1951.26C551.2,1951.81 551.209,1952.27 551.25,1952.61C551.266,1952.75 551.309,1952.93 551.322,1952.98C551.364,1953 551.52,1953.08 551.639,1953.11C551.884,1953.17 552.183,1953.2 552.535,1953.22C553.255,1953.23 554.449,1953.14 556.115,1952.94C556.955,1952.84 557.612,1953.03 558.106,1953.42C558.58,1953.8 558.932,1954.39 559.075,1955.24C559.077,1955.26 559.08,1955.27 559.081,1955.29C559.107,1955.5 559.119,1955.69 559.119,1955.86C559.119,1956.56 558.895,1957.1 558.511,1957.51C558.158,1957.88 557.645,1958.16 556.941,1958.26C555.138,1958.55 553.784,1958.68 552.873,1958.68C552.436,1958.69 551.989,1958.76 551.752,1958.81C551.73,1959.09 551.696,1959.67 551.733,1960.22C551.815,1961.27 551.866,1962.32 551.887,1963.39C551.918,1964.28 551.639,1964.91 551.174,1965.34C550.713,1965.77 550.056,1966 549.17,1965.89C548.344,1965.81 547.736,1965.51 547.314,1965.05C546.887,1964.59 546.628,1963.96 546.612,1963.12C546.592,1962.21 546.45,1960.01 546.189,1956.53C545.983,1953.77 545.923,1951.52 546.005,1949.76C546.066,1948.23 546.126,1946.71 546.187,1945.2C546.188,1945.17 546.191,1945.14 546.194,1945.11C546.458,1942.95 547.244,1941.43 548.444,1940.51L548.448,1940.51C549.508,1939.7 551.028,1939.27 553.03,1939.29C553.034,1939.29 553.039,1939.29 553.044,1939.29C554.816,1939.34 556.171,1939.53 557.112,1939.85L557.115,1939.85C558.956,1940.48 559.967,1941.64 560.23,1943.26C560.445,1944.59 560.519,1945.85 560.455,1947.06L560.455,1947.06C560.405,1947.95 560.092,1948.57 559.63,1948.97C559.165,1949.38 558.508,1949.6 557.628,1949.51C556.772,1949.43 556.164,1949.1 555.76,1948.62C555.36,1948.15 555.136,1947.5 555.182,1946.64C555.213,1945.97 555.211,1945.49 555.103,1945.21C555.02,1945.02 554.814,1944.97 554.558,1944.94C554.188,1944.92 553.47,1944.87 552.395,1944.79C552.147,1944.78 551.866,1944.82 551.744,1944.84ZM559.429,1947C559.49,1945.87 559.419,1944.68 559.216,1943.43C559.014,1942.18 558.203,1941.31 556.785,1940.83C555.914,1940.53 554.658,1940.37 553.017,1940.32C551.296,1940.3 549.979,1940.64 549.067,1941.33C548.054,1942.11 547.436,1943.41 547.214,1945.24C547.153,1946.75 547.092,1948.27 547.031,1949.81C546.95,1951.53 547.011,1953.74 547.214,1956.45C547.477,1959.96 547.619,1962.18 547.639,1963.1C547.659,1964.17 548.206,1964.76 549.28,1964.87C549.807,1964.93 550.207,1964.83 550.48,1964.58C550.754,1964.33 550.88,1963.94 550.86,1963.42C550.84,1962.37 550.789,1961.33 550.708,1960.3C550.627,1959.08 550.693,1958.34 550.906,1958.08C551.118,1957.81 551.772,1957.67 552.866,1957.65C553.737,1957.65 555.043,1957.51 556.785,1957.24C557.656,1957.12 558.092,1956.65 558.092,1955.86C558.092,1955.73 558.082,1955.58 558.062,1955.41C557.879,1954.32 557.272,1953.84 556.238,1953.96C554.496,1954.17 553.25,1954.27 552.501,1954.25C551.407,1954.21 550.728,1953.98 550.465,1953.56C550.242,1953.24 550.151,1952.46 550.192,1951.22C550.232,1949.27 550.414,1947.07 550.738,1944.61C550.82,1943.98 551.397,1943.69 552.471,1943.76C553.544,1943.84 554.263,1943.89 554.628,1943.91C555.357,1943.98 555.833,1944.28 556.056,1944.83C556.198,1945.18 556.249,1945.8 556.208,1946.69C556.147,1947.78 556.654,1948.38 557.727,1948.48C558.801,1948.59 559.368,1948.09 559.429,1947Z"/>
                        <path d="M577.631,1952.39C577.712,1953.65 577.377,1954.59 576.628,1955.22C576.081,1955.66 575.129,1956.03 573.771,1956.33C571.644,1956.79 569.933,1957.09 568.636,1957.24C567.785,1957.33 567.228,1957.43 566.965,1957.56C566.438,1957.81 566.276,1958.27 566.479,1958.94C566.742,1959.74 567.016,1960.14 567.299,1960.14C567.461,1960.16 568.018,1960.13 568.97,1960.05C569.598,1960 570.49,1959.88 571.644,1959.67C572.232,1959.56 572.819,1959.47 573.407,1959.38C574.298,1959.22 574.825,1959.06 574.987,1958.91C575.352,1958.6 575.716,1958.44 576.081,1958.44C576.466,1958.44 576.856,1958.63 577.251,1959.02C577.646,1959.41 577.843,1959.81 577.843,1960.23C577.843,1960.61 577.641,1960.98 577.236,1961.34C576.527,1961.97 575.514,1962.42 574.197,1962.69C573.934,1962.73 572.819,1962.88 570.854,1963.13L567.512,1963.57C567.249,1963.59 567.005,1963.61 566.783,1963.61C564.959,1963.61 563.825,1962.54 563.379,1960.42C563.156,1959.31 562.964,1958.48 562.802,1957.93L562.103,1955.38C561.88,1954.56 561.728,1953.69 561.647,1952.77C561.445,1949.95 562.731,1948.09 565.506,1947.19C567.086,1946.67 568.9,1946.28 570.946,1946.03C571.634,1945.94 572.293,1945.84 572.921,1945.71C575.108,1945.33 576.476,1946.31 577.023,1948.64C577.387,1950.24 577.59,1951.49 577.631,1952.39ZM574.227,1951.1C574.004,1949.9 573.751,1949.27 573.468,1949.21C573.164,1949.14 572.475,1949.17 571.401,1949.3C569.598,1949.53 568.059,1949.85 566.783,1950.25C566.094,1950.48 565.668,1950.63 565.506,1950.72C565.04,1950.97 564.807,1951.32 564.807,1951.76C564.807,1953.14 564.939,1953.88 565.202,1953.96C565.446,1954.05 566.175,1954.04 567.39,1953.93C568.079,1953.87 568.656,1953.81 569.122,1953.74L570.794,1953.49C571.118,1953.41 572.131,1953.2 573.832,1952.86C573.954,1952.84 574.045,1952.82 574.106,1952.8C574.41,1952.74 574.45,1952.17 574.227,1951.1Z" style="fill:white;fill-rule:nonzero;"/>
                        <path d="M567.43,1958.48C567.436,1958.52 567.447,1958.59 567.462,1958.64C567.518,1958.8 567.595,1958.98 567.654,1959.1C567.924,1959.09 568.384,1959.06 568.881,1959.02C568.888,1959.02 568.895,1959.01 568.902,1959.01C569.503,1958.97 570.356,1958.85 571.462,1958.65L571.465,1958.65C572.056,1958.54 572.647,1958.45 573.252,1958.36C573.762,1958.26 574.274,1958.11 574.377,1958.08C574.941,1957.61 575.517,1957.4 576.081,1957.4C576.694,1957.4 577.34,1957.66 577.969,1958.28C578.598,1958.9 578.871,1959.57 578.871,1960.23C578.871,1960.87 578.592,1961.51 577.914,1962.11C577.093,1962.84 575.929,1963.39 574.404,1963.7C574.389,1963.71 574.373,1963.71 574.358,1963.71C574.092,1963.75 572.968,1963.9 570.986,1964.16L567.645,1964.6C567.628,1964.6 567.611,1964.6 567.593,1964.6C567.3,1964.63 567.03,1964.64 566.783,1964.64C565.58,1964.64 564.613,1964.27 563.865,1963.57C563.165,1962.91 562.649,1961.94 562.374,1960.64C562.374,1960.63 562.373,1960.63 562.372,1960.63C562.158,1959.56 561.974,1958.76 561.818,1958.23C561.815,1958.22 561.813,1958.22 561.812,1958.21L561.113,1955.66L561.112,1955.65C560.874,1954.78 560.711,1953.85 560.624,1952.86C560.623,1952.85 560.623,1952.85 560.623,1952.84C560.502,1951.16 560.851,1949.78 561.617,1948.67C562.374,1947.58 563.554,1946.74 565.187,1946.21C566.824,1945.66 568.702,1945.26 570.821,1945C571.483,1944.92 572.116,1944.82 572.72,1944.7C572.729,1944.69 572.738,1944.69 572.747,1944.69C574.159,1944.45 575.299,1944.69 576.182,1945.32C577.039,1945.93 577.68,1946.94 578.023,1948.4L578.024,1948.41C578.405,1950.08 578.613,1951.39 578.656,1952.33C578.76,1953.98 578.267,1955.19 577.287,1956.02C577.281,1956.02 577.276,1956.03 577.27,1956.03C576.639,1956.54 575.554,1957 573.988,1957.34C571.819,1957.81 570.073,1958.12 568.751,1958.27C568.746,1958.27 568.741,1958.27 568.737,1958.27C568.086,1958.33 567.647,1958.38 567.43,1958.48ZM577.631,1952.39C577.59,1951.49 577.387,1950.24 577.023,1948.64C576.476,1946.31 575.108,1945.33 572.921,1945.71C572.293,1945.84 571.634,1945.94 570.946,1946.03C568.9,1946.28 567.086,1946.67 565.506,1947.19C562.731,1948.09 561.445,1949.95 561.647,1952.77C561.728,1953.69 561.88,1954.56 562.103,1955.38L562.802,1957.93C562.964,1958.48 563.156,1959.31 563.379,1960.42C563.825,1962.54 564.959,1963.61 566.783,1963.61C567.005,1963.61 567.249,1963.59 567.512,1963.57L570.854,1963.13C572.819,1962.88 573.934,1962.73 574.197,1962.69C575.514,1962.42 576.527,1961.97 577.236,1961.34C577.641,1960.98 577.843,1960.61 577.843,1960.23C577.843,1959.81 577.646,1959.41 577.251,1959.02C576.856,1958.63 576.466,1958.44 576.081,1958.44C575.716,1958.44 575.352,1958.6 574.987,1958.91C574.825,1959.06 574.298,1959.22 573.407,1959.38C572.819,1959.47 572.232,1959.56 571.644,1959.67C570.49,1959.88 569.598,1960 568.97,1960.05C568.018,1960.13 567.461,1960.16 567.299,1960.14C567.016,1960.14 566.742,1959.74 566.479,1958.94C566.276,1958.27 566.438,1957.81 566.965,1957.56C567.228,1957.43 567.785,1957.33 568.636,1957.24C569.933,1957.09 571.644,1956.79 573.771,1956.33C575.129,1956.03 576.081,1955.66 576.628,1955.22C577.377,1954.59 577.712,1953.65 577.631,1952.39ZM574.227,1951.1C574.45,1952.17 574.41,1952.74 574.106,1952.8C574.045,1952.82 573.954,1952.84 573.832,1952.86C572.131,1953.2 571.118,1953.41 570.794,1953.49L569.122,1953.74C568.656,1953.81 568.079,1953.87 567.39,1953.93C566.175,1954.04 565.446,1954.05 565.202,1953.96C564.939,1953.88 564.807,1953.14 564.807,1951.76C564.807,1951.32 565.04,1950.97 565.506,1950.72C565.668,1950.63 566.094,1950.48 566.783,1950.25C568.059,1949.85 569.598,1949.53 571.401,1949.3C572.475,1949.17 573.164,1949.14 573.468,1949.21C573.751,1949.27 574.004,1949.9 574.227,1951.1ZM565.91,1952.97C566.253,1952.97 566.765,1952.95 567.3,1952.9C567.967,1952.84 568.526,1952.78 568.979,1952.72C568.979,1952.72 570.573,1952.48 570.583,1952.48C570.931,1952.39 571.84,1952.2 573.31,1951.91C573.292,1951.73 573.265,1951.52 573.222,1951.31C573.22,1951.3 573.219,1951.3 573.218,1951.29C573.14,1950.87 573.011,1950.44 572.931,1950.2C572.616,1950.2 572.149,1950.25 571.526,1950.33C569.798,1950.55 568.322,1950.85 567.097,1951.23C566.501,1951.43 566.127,1951.56 565.988,1951.63C565.913,1951.67 565.835,1951.69 565.835,1951.76C565.835,1952.21 565.876,1952.66 565.91,1952.97Z"/>
                        <path d="M594.07,1951.16C593.887,1951.98 593.502,1952.39 592.915,1952.39C592.712,1952.39 592.49,1952.35 592.247,1952.26C591.234,1951.86 590.221,1951.45 589.208,1951.03C587.972,1950.59 586.929,1950.42 586.078,1950.53C585.45,1950.61 584.964,1951.21 584.619,1952.33C584.599,1952.39 584.417,1953.25 584.073,1954.91L583.617,1957.21C583.576,1957.38 583.556,1957.54 583.556,1957.68C583.556,1958.33 583.9,1958.71 584.589,1958.82C585.784,1959.01 586.98,1959.07 588.175,1959.01C589.613,1958.96 590.818,1958.94 591.791,1958.94C592.824,1958.94 593.371,1959.51 593.432,1960.64C593.452,1961.19 593.34,1961.6 593.097,1961.87C592.854,1962.14 592.469,1962.28 591.943,1962.28C591.294,1962.28 590.337,1962.32 589.071,1962.41C587.805,1962.49 586.868,1962.53 586.26,1962.53C584.822,1962.53 583.586,1962.25 582.553,1961.68C581.297,1960.99 580.639,1959.96 580.578,1958.6C580.457,1956.43 580.912,1953.72 581.945,1950.47C582.452,1948.87 583.404,1947.85 584.802,1947.41C585.389,1947.22 585.997,1947.13 586.625,1947.13C587.375,1947.13 588.154,1947.28 588.965,1947.57C589.431,1947.74 590.768,1948.21 592.976,1948.99C593.766,1949.26 594.161,1949.77 594.161,1950.53C594.161,1950.74 594.13,1950.95 594.07,1951.16Z" style="fill:white;fill-rule:nonzero;"/>
                        <path d="M595.067,1951.41L595.064,1951.42C594.737,1952.84 593.94,1953.42 592.915,1953.42C592.612,1953.42 592.277,1953.37 591.913,1953.24C591.899,1953.24 591.885,1953.23 591.872,1953.23C590.862,1952.83 589.851,1952.42 588.827,1952C587.795,1951.63 586.925,1951.47 586.207,1951.56C586.1,1951.57 586.039,1951.68 585.96,1951.8C585.824,1952.01 585.711,1952.28 585.608,1952.61C585.608,1952.61 585.385,1953.64 585.079,1955.12L584.624,1957.41C584.621,1957.42 584.618,1957.44 584.615,1957.45C584.595,1957.53 584.583,1957.61 584.583,1957.68C584.583,1957.7 584.586,1957.73 584.589,1957.75C584.628,1957.77 584.694,1957.79 584.743,1957.79L584.749,1957.8C585.873,1957.97 586.997,1958.03 588.121,1957.97C588.129,1957.97 588.137,1957.97 588.145,1957.97C589.595,1957.93 590.81,1957.91 591.791,1957.91C592.636,1957.91 593.266,1958.18 593.713,1958.65C594.133,1959.08 594.411,1959.72 594.457,1960.59C594.458,1960.59 594.458,1960.6 594.458,1960.61C594.491,1961.48 594.253,1962.12 593.863,1962.56C593.453,1963.02 592.829,1963.32 591.943,1963.32C591.31,1963.32 590.375,1963.36 589.139,1963.44C587.842,1963.53 586.883,1963.57 586.26,1963.57C584.63,1963.57 583.232,1963.23 582.061,1962.59L582.059,1962.59C580.459,1961.71 579.632,1960.39 579.552,1958.65C579.426,1956.39 579.887,1953.55 580.967,1950.15C581.588,1948.19 582.779,1946.97 584.489,1946.43C585.177,1946.2 585.889,1946.09 586.625,1946.09C587.486,1946.09 588.383,1946.26 589.311,1946.6C589.776,1946.76 591.111,1947.24 593.31,1948.01C594.586,1948.45 595.188,1949.31 595.188,1950.53C595.188,1950.82 595.148,1951.12 595.067,1951.41ZM594.07,1951.16C594.13,1950.95 594.161,1950.74 594.161,1950.53C594.161,1949.77 593.766,1949.26 592.976,1948.99C590.768,1948.21 589.431,1947.74 588.965,1947.57C588.154,1947.28 587.375,1947.13 586.625,1947.13C585.997,1947.13 585.389,1947.22 584.802,1947.41C583.404,1947.85 582.452,1948.87 581.945,1950.47C580.912,1953.72 580.457,1956.43 580.578,1958.6C580.639,1959.96 581.297,1960.99 582.553,1961.68C583.586,1962.25 584.822,1962.53 586.26,1962.53C586.868,1962.53 587.805,1962.49 589.071,1962.41C590.337,1962.32 591.294,1962.28 591.943,1962.28C592.469,1962.28 592.854,1962.14 593.097,1961.87C593.34,1961.6 593.452,1961.19 593.432,1960.64C593.371,1959.51 592.824,1958.94 591.791,1958.94C590.818,1958.94 589.613,1958.96 588.175,1959.01C586.98,1959.07 585.784,1959.01 584.589,1958.82C583.9,1958.71 583.556,1958.33 583.556,1957.68C583.556,1957.54 583.576,1957.38 583.617,1957.21L584.073,1954.91C584.417,1953.25 584.599,1952.39 584.619,1952.33C584.964,1951.21 585.45,1950.61 586.078,1950.53C586.929,1950.42 587.972,1950.59 589.208,1951.03C590.221,1951.45 591.234,1951.86 592.247,1952.26C592.49,1952.35 592.712,1952.39 592.915,1952.39C593.502,1952.39 593.887,1951.98 594.07,1951.16Z"/>
                        <path d="M606.164,1948.73C606.204,1948.9 606.224,1949.06 606.224,1949.21C606.224,1949.73 606.032,1950.09 605.647,1950.28C605.404,1950.4 604.968,1950.5 604.34,1950.58C603.712,1950.65 603.287,1950.74 603.064,1950.85C602.699,1951.01 602.537,1951.76 602.578,1953.08C602.618,1955.5 602.811,1958.24 603.155,1961.31C603.257,1962.38 602.781,1963.01 601.727,1963.19C601.565,1963.22 601.413,1963.23 601.271,1963.23C600.502,1963.23 600.076,1962.78 599.995,1961.87C599.853,1960.44 599.681,1957.55 599.479,1953.18C599.418,1952.17 599.301,1951.56 599.129,1951.35C598.957,1951.14 598.425,1951.03 597.534,1951.03C596.501,1951.03 596.035,1950.49 596.136,1949.4C596.237,1948.26 596.804,1947.69 597.838,1947.69C598.547,1947.69 598.982,1947.56 599.144,1947.29C599.286,1947.1 599.357,1946.59 599.357,1945.77C599.357,1945.37 599.347,1944.78 599.327,1943.99C599.306,1943.2 599.296,1942.61 599.296,1942.21C599.296,1941.14 599.833,1940.66 600.907,1940.76C601.98,1940.87 602.517,1941.46 602.517,1942.53L602.517,1945.11C602.517,1946.16 602.578,1946.77 602.699,1946.94C602.882,1947.17 603.439,1947.25 604.371,1947.19C605.384,1947.13 605.981,1947.64 606.164,1948.73Z" style="fill:white;fill-rule:nonzero;"/>
                        <path d="M598.275,1946.62C598.297,1946.43 598.33,1946.09 598.33,1945.77C598.33,1945.38 598.32,1944.8 598.3,1944.02C598.279,1943.22 598.269,1942.62 598.269,1942.21C598.269,1941.31 598.562,1940.68 599.014,1940.28C599.461,1939.88 600.113,1939.65 601.006,1939.74C601.843,1939.82 602.453,1940.13 602.871,1940.59C603.293,1941.05 603.544,1941.69 603.544,1942.53L603.544,1945.11C603.544,1945.5 603.569,1945.89 603.59,1946.15C603.786,1946.17 604.054,1946.18 604.302,1946.16L604.307,1946.16C605.125,1946.11 605.764,1946.33 606.247,1946.74C606.696,1947.13 607.028,1947.71 607.17,1948.53C607.226,1948.77 607.252,1949 607.252,1949.21C607.252,1950.2 606.833,1950.84 606.11,1951.2C605.799,1951.36 605.253,1951.51 604.459,1951.6C604.135,1951.64 603.88,1951.67 603.699,1951.72C603.662,1951.96 603.589,1952.52 603.605,1953.05C603.605,1953.06 603.605,1953.06 603.605,1953.07C603.645,1955.45 603.836,1958.16 604.176,1961.19C604.177,1961.19 604.177,1961.2 604.178,1961.21C604.258,1962.05 604.067,1962.71 603.692,1963.21C603.317,1963.7 602.737,1964.06 601.908,1964.21C601.891,1964.22 601.875,1964.22 601.858,1964.22C601.65,1964.25 601.454,1964.26 601.271,1964.26C600.56,1964.26 600.022,1964.02 599.629,1963.6C599.285,1963.23 599.04,1962.7 598.973,1961.97C598.83,1960.54 598.656,1957.62 598.453,1953.23C598.427,1952.81 598.359,1952.38 598.314,1952.13C598.12,1952.1 597.813,1952.07 597.534,1952.07C596.647,1952.07 596.03,1951.77 595.63,1951.3C595.248,1950.85 595.03,1950.2 595.113,1949.3C595.19,1948.44 595.484,1947.82 595.913,1947.39C596.371,1946.93 597.003,1946.66 597.838,1946.66C597.984,1946.66 598.157,1946.64 598.275,1946.62ZM606.164,1948.73C605.981,1947.64 605.384,1947.13 604.371,1947.19C603.439,1947.25 602.882,1947.17 602.699,1946.94C602.578,1946.77 602.517,1946.16 602.517,1945.11L602.517,1942.53C602.517,1941.46 601.98,1940.87 600.907,1940.76C599.833,1940.66 599.296,1941.14 599.296,1942.21C599.296,1942.61 599.306,1943.2 599.327,1943.99C599.347,1944.78 599.357,1945.37 599.357,1945.77C599.357,1946.59 599.286,1947.1 599.144,1947.29C598.982,1947.56 598.547,1947.69 597.838,1947.69C596.804,1947.69 596.237,1948.26 596.136,1949.4C596.035,1950.49 596.501,1951.03 597.534,1951.03C598.425,1951.03 598.957,1951.14 599.129,1951.35C599.301,1951.56 599.418,1952.17 599.479,1953.18C599.681,1957.55 599.853,1960.44 599.995,1961.87C600.076,1962.78 600.502,1963.23 601.271,1963.23C601.413,1963.23 601.565,1963.22 601.727,1963.19C602.781,1963.01 603.257,1962.38 603.155,1961.31C602.811,1958.24 602.618,1955.5 602.578,1953.08C602.537,1951.76 602.699,1951.01 603.064,1950.85C603.287,1950.74 603.712,1950.65 604.34,1950.58C604.968,1950.5 605.404,1950.4 605.647,1950.28C606.032,1950.09 606.224,1949.73 606.224,1949.21C606.224,1949.06 606.204,1948.9 606.164,1948.73Z"/>
                        <path d="M643.661,1959.57C643.681,1959.74 643.691,1959.9 643.691,1960.05C643.691,1960.86 643.266,1961.36 642.415,1961.53C639.923,1962.01 637.897,1962.39 636.337,1962.66C635.507,1962.83 634.697,1962.91 633.906,1962.91C632.63,1962.91 631.415,1962.71 630.26,1962.31C628.174,1961.62 626.624,1960.21 625.611,1958.09C624.76,1956.33 624.335,1954.18 624.335,1951.66C624.335,1950.15 624.537,1948.58 624.942,1946.94C625.489,1944.78 626.766,1943.33 628.771,1942.59C630.331,1942 631.952,1941.71 633.633,1941.71C634.464,1941.71 635.704,1941.76 637.355,1941.87C639.006,1941.97 640.237,1942.02 641.047,1942.02C642.08,1942.02 642.546,1942.59 642.445,1943.73C642.344,1944.82 641.777,1945.36 640.743,1945.36C639.103,1945.34 637.533,1945.25 636.034,1945.08C634.393,1944.91 632.843,1944.98 631.384,1945.27C629.5,1945.65 628.346,1946.67 627.92,1948.33C627.657,1949.35 627.525,1950.41 627.525,1951.51C627.525,1952.12 627.566,1952.74 627.647,1953.37C628.194,1957.34 630.068,1959.35 633.268,1959.41C634.524,1959.44 635.963,1959.31 637.583,1959.04C637.745,1959.02 639.163,1958.74 641.837,1958.22C641.999,1958.2 642.141,1958.19 642.263,1958.19C643.033,1958.19 643.498,1958.65 643.661,1959.57Z" style="fill:white;fill-rule:nonzero;"/>
                        <path d="M644.68,1959.45C644.706,1959.66 644.718,1959.86 644.718,1960.05C644.718,1960.74 644.509,1961.29 644.148,1961.71C643.803,1962.11 643.302,1962.4 642.613,1962.54L642.609,1962.54C640.116,1963.02 638.088,1963.4 636.526,1963.68C635.631,1963.86 634.758,1963.94 633.906,1963.94C632.515,1963.94 631.191,1963.73 629.932,1963.29C627.581,1962.51 625.827,1960.93 624.685,1958.54C623.775,1956.65 623.307,1954.36 623.307,1951.66C623.307,1950.07 623.519,1948.41 623.946,1946.69L623.947,1946.68C624.584,1944.16 626.078,1942.48 628.414,1941.62C630.089,1940.99 631.828,1940.67 633.633,1940.67C634.478,1940.67 635.74,1940.73 637.42,1940.84C639.042,1940.94 640.251,1940.99 641.047,1940.99C641.94,1940.99 642.561,1941.3 642.963,1941.79C643.336,1942.25 643.549,1942.91 643.468,1943.82L643.468,1943.82C643.39,1944.66 643.092,1945.28 642.654,1945.7C642.199,1946.14 641.572,1946.4 640.743,1946.4C640.739,1946.4 640.735,1946.4 640.73,1946.4C639.057,1946.38 637.456,1946.28 635.926,1946.11C634.395,1945.95 632.947,1946.01 631.586,1946.28C630.148,1946.57 629.24,1947.32 628.915,1948.58C628.673,1949.53 628.553,1950.5 628.553,1951.51C628.553,1952.07 628.59,1952.64 628.665,1953.23C628.947,1955.27 629.582,1956.74 630.684,1957.58C631.378,1958.1 632.249,1958.36 633.287,1958.38C634.488,1958.4 635.864,1958.28 637.414,1958.02C637.426,1958.02 637.439,1958.01 637.452,1958.01C637.612,1957.99 639.008,1957.72 641.641,1957.2C641.662,1957.2 641.684,1957.19 641.706,1957.19C641.918,1957.16 642.104,1957.15 642.263,1957.15C642.951,1957.15 643.494,1957.38 643.911,1957.8C644.272,1958.15 644.547,1958.68 644.672,1959.39C644.675,1959.41 644.678,1959.43 644.68,1959.45ZM643.661,1959.57C643.498,1958.65 643.033,1958.19 642.263,1958.19C642.141,1958.19 641.999,1958.2 641.837,1958.22C639.163,1958.74 637.745,1959.02 637.583,1959.04C635.963,1959.31 634.524,1959.44 633.268,1959.41C630.068,1959.35 628.194,1957.34 627.647,1953.37C627.566,1952.74 627.525,1952.12 627.525,1951.51C627.525,1950.41 627.657,1949.35 627.92,1948.33C628.346,1946.67 629.5,1945.65 631.384,1945.27C632.843,1944.98 634.393,1944.91 636.034,1945.08C637.533,1945.25 639.103,1945.34 640.743,1945.36C641.777,1945.36 642.344,1944.82 642.445,1943.73C642.546,1942.59 642.08,1942.02 641.047,1942.02C640.237,1942.02 639.006,1941.97 637.355,1941.87C635.704,1941.76 634.464,1941.71 633.633,1941.71C631.952,1941.71 630.331,1942 628.771,1942.59C626.766,1943.33 625.489,1944.78 624.942,1946.94C624.537,1948.58 624.335,1950.15 624.335,1951.66C624.335,1954.18 624.76,1956.33 625.611,1958.09C626.624,1960.21 628.174,1961.62 630.26,1962.31C631.415,1962.71 632.63,1962.91 633.906,1962.91C634.697,1962.91 635.507,1962.83 636.337,1962.66C637.897,1962.39 639.923,1962.01 642.415,1961.53C643.266,1961.36 643.691,1960.86 643.691,1960.05C643.691,1959.9 643.681,1959.74 643.661,1959.57Z"/>
                        <path d="M649.586,1943.06C649.566,1943.51 649.378,1943.88 649.024,1944.18C648.669,1944.49 648.279,1944.62 647.854,1944.58C646.882,1944.49 646.395,1943.88 646.395,1942.75L646.395,1941.71C646.395,1941.35 646.583,1941.03 646.957,1940.73C647.332,1940.44 647.732,1940.31 648.158,1940.35C648.624,1940.4 649.029,1940.68 649.373,1941.2C649.475,1941.37 649.535,1941.58 649.556,1941.84L649.586,1943.06ZM650.437,1961.4C650.396,1962.47 649.829,1962.95 648.735,1962.85C647.682,1962.74 647.175,1962.16 647.216,1961.08C647.358,1957.01 647.145,1953.26 646.578,1949.84C646.537,1949.69 646.517,1949.54 646.517,1949.4C646.517,1948.6 646.973,1948.12 647.884,1947.95C648.046,1947.93 648.198,1947.91 648.34,1947.91C649.11,1947.91 649.576,1948.36 649.738,1949.24C650.366,1952.96 650.599,1957.01 650.437,1961.4Z" style="fill:white;fill-rule:nonzero;"/>
                        <path d="M650.612,1943.11C650.579,1943.84 650.278,1944.46 649.691,1944.97C649.108,1945.47 648.462,1945.67 647.763,1945.61C646.954,1945.54 646.364,1945.21 645.959,1944.7C645.593,1944.25 645.368,1943.6 645.368,1942.75L645.368,1941.71C645.368,1941.07 645.65,1940.45 646.326,1939.92C646.926,1939.45 647.571,1939.26 648.252,1939.33C648.997,1939.39 649.68,1939.8 650.231,1940.64C650.238,1940.65 650.245,1940.66 650.252,1940.67C650.426,1940.96 650.545,1941.32 650.579,1941.75C650.581,1941.77 650.582,1941.79 650.583,1941.81L650.613,1943.04C650.613,1943.06 650.613,1943.09 650.612,1943.11ZM649.586,1943.06L649.556,1941.84C649.535,1941.58 649.475,1941.37 649.373,1941.2C649.029,1940.68 648.624,1940.4 648.158,1940.35C647.732,1940.31 647.332,1940.44 646.957,1940.73C646.583,1941.03 646.395,1941.35 646.395,1941.71L646.395,1942.75C646.395,1943.88 646.882,1944.49 647.854,1944.58C648.279,1944.62 648.669,1944.49 649.024,1944.18C649.378,1943.88 649.566,1943.51 649.586,1943.06ZM651.463,1961.44C651.43,1962.33 651.117,1962.95 650.645,1963.35C650.184,1963.75 649.525,1963.96 648.638,1963.88L648.634,1963.88C647.794,1963.79 647.192,1963.47 646.789,1963.01C646.387,1962.54 646.157,1961.89 646.189,1961.05C646.328,1957.07 646.123,1953.4 645.573,1950.06C645.517,1949.84 645.49,1949.62 645.49,1949.4C645.49,1948.7 645.715,1948.15 646.114,1947.72C646.469,1947.35 646.988,1947.06 647.699,1946.93C647.717,1946.93 647.735,1946.92 647.753,1946.92C647.962,1946.89 648.157,1946.88 648.34,1946.88C649.021,1946.88 649.559,1947.1 649.971,1947.49C650.34,1947.84 650.62,1948.35 650.748,1949.05C650.749,1949.06 650.75,1949.06 650.751,1949.07C651.39,1952.85 651.628,1956.97 651.463,1961.44ZM650.437,1961.4C650.599,1957.01 650.366,1952.96 649.738,1949.24C649.576,1948.36 649.11,1947.91 648.34,1947.91C648.198,1947.91 648.046,1947.93 647.884,1947.95C646.973,1948.12 646.517,1948.6 646.517,1949.4C646.517,1949.54 646.537,1949.69 646.578,1949.84C647.145,1953.26 647.358,1957.01 647.216,1961.08C647.175,1962.16 647.682,1962.74 648.735,1962.85C649.829,1962.95 650.396,1962.47 650.437,1961.4Z"/>
                        <path d="M667.909,1951.19C667.889,1951.72 667.858,1952.36 667.818,1953.11C667.757,1954.21 667.19,1954.7 666.116,1954.59C665.083,1954.49 664.587,1953.89 664.627,1952.8C664.648,1952.08 664.536,1951.57 664.293,1951.26C664.192,1951.13 663.979,1951.07 663.655,1951.07C663.331,1951.07 662.885,1951.14 662.318,1951.29C662.298,1951.29 661.609,1951.49 660.252,1951.88C659.117,1952.22 658.388,1952.63 658.064,1953.11C657.74,1953.6 657.598,1954.47 657.638,1955.73C657.699,1957.75 657.699,1959.63 657.638,1961.4C657.598,1962.47 657.031,1962.95 655.937,1962.85C654.883,1962.74 654.377,1962.16 654.417,1961.08C654.438,1960.24 654.448,1959.4 654.448,1958.56C654.448,1955.35 654.215,1952.19 653.749,1949.08C653.648,1948.47 653.81,1947.95 654.235,1947.51C654.66,1947.07 655.157,1946.92 655.724,1947.07C656.028,1947.13 656.261,1947.3 656.423,1947.58C656.585,1947.87 656.742,1948.14 656.894,1948.39C657.046,1948.64 657.294,1948.8 657.638,1948.86C657.902,1948.92 658.54,1948.81 659.553,1948.51C660.829,1948.12 661.538,1947.9 661.68,1947.88C662.531,1947.72 663.29,1947.6 663.959,1947.54C664.708,1947.45 665.427,1947.54 666.116,1947.79C666.906,1948.1 667.408,1948.59 667.62,1949.25C667.833,1949.92 667.929,1950.56 667.909,1951.19Z" style="fill:white;fill-rule:nonzero;"/>
                        <path d="M657.756,1947.83C657.772,1947.83 657.798,1947.84 657.818,1947.84C657.893,1947.83 658.572,1947.72 659.26,1947.52C660.511,1947.13 661.253,1946.92 661.482,1946.87C662.367,1946.69 663.159,1946.58 663.855,1946.51C664.763,1946.41 665.633,1946.51 666.467,1946.82C666.477,1946.82 666.486,1946.83 666.495,1946.83C667.615,1947.28 668.296,1948 668.598,1948.94C668.849,1949.72 668.96,1950.48 668.936,1951.23L668.936,1951.23C668.915,1951.76 668.884,1952.41 668.844,1953.17L668.844,1953.17C668.794,1954.06 668.481,1954.68 668.019,1955.08C667.554,1955.49 666.897,1955.71 666.017,1955.62L666.013,1955.62C665.179,1955.54 664.581,1955.21 664.18,1954.73C663.792,1954.26 663.569,1953.61 663.6,1952.77C663.608,1952.5 663.614,1952.27 663.575,1952.1C663.321,1952.11 662.988,1952.18 662.574,1952.29C662.566,1952.29 662.557,1952.29 662.548,1952.29C662.548,1952.29 661.743,1952.52 660.541,1952.88C659.719,1953.12 659.15,1953.34 658.915,1953.69C658.668,1954.06 658.634,1954.74 658.665,1955.69L658.665,1955.7C658.727,1957.74 658.727,1959.65 658.665,1961.43L658.665,1961.44C658.631,1962.33 658.318,1962.95 657.846,1963.35C657.386,1963.75 656.727,1963.96 655.839,1963.88L655.835,1963.88C654.996,1963.79 654.394,1963.47 653.99,1963.01C653.59,1962.54 653.361,1961.9 653.39,1961.06C653.41,1960.23 653.42,1959.39 653.42,1958.56C653.42,1955.4 653.192,1952.3 652.733,1949.24C652.58,1948.29 652.835,1947.47 653.498,1946.79C654.203,1946.06 655.028,1945.82 655.956,1946.06C656.543,1946.19 656.999,1946.52 657.313,1947.07C657.466,1947.34 657.613,1947.59 657.756,1947.83ZM667.909,1951.19C667.929,1950.56 667.833,1949.92 667.62,1949.25C667.408,1948.59 666.906,1948.1 666.116,1947.79C665.427,1947.54 664.708,1947.45 663.959,1947.54C663.29,1947.6 662.531,1947.72 661.68,1947.88C661.538,1947.9 660.829,1948.12 659.553,1948.51C658.54,1948.81 657.902,1948.92 657.638,1948.86C657.294,1948.8 657.046,1948.64 656.894,1948.39C656.742,1948.14 656.585,1947.87 656.423,1947.58C656.261,1947.3 656.028,1947.13 655.724,1947.07C655.157,1946.92 654.66,1947.07 654.235,1947.51C653.81,1947.95 653.648,1948.47 653.749,1949.08C654.215,1952.19 654.448,1955.35 654.448,1958.56C654.448,1959.4 654.438,1960.24 654.417,1961.08C654.377,1962.16 654.883,1962.74 655.937,1962.85C657.031,1962.95 657.598,1962.47 657.638,1961.4C657.699,1959.63 657.699,1957.75 657.638,1955.73C657.598,1954.47 657.74,1953.6 658.064,1953.11C658.388,1952.63 659.117,1952.22 660.252,1951.88C661.609,1951.49 662.298,1951.29 662.318,1951.29C662.885,1951.14 663.331,1951.07 663.655,1951.07C663.979,1951.07 664.192,1951.13 664.293,1951.26C664.536,1951.57 664.648,1952.08 664.627,1952.8C664.587,1953.89 665.083,1954.49 666.116,1954.59C667.19,1954.7 667.757,1954.21 667.818,1953.11C667.858,1952.36 667.889,1951.72 667.909,1951.19Z"/>
                        <path d="M683.771,1951.16C683.588,1951.98 683.204,1952.39 682.616,1952.39C682.414,1952.39 682.191,1952.35 681.948,1952.26C680.935,1951.86 679.922,1951.45 678.909,1951.03C677.673,1950.59 676.63,1950.42 675.779,1950.53C675.151,1950.61 674.665,1951.21 674.321,1952.33C674.3,1952.39 674.118,1953.25 673.774,1954.91L673.318,1957.21C673.277,1957.38 673.257,1957.54 673.257,1957.68C673.257,1958.33 673.601,1958.71 674.29,1958.82C675.485,1959.01 676.681,1959.07 677.876,1959.01C679.314,1958.96 680.519,1958.94 681.492,1958.94C682.525,1958.94 683.072,1959.51 683.133,1960.64C683.153,1961.19 683.042,1961.6 682.798,1961.87C682.555,1962.14 682.17,1962.28 681.644,1962.28C680.995,1962.28 680.038,1962.32 678.772,1962.41C677.506,1962.49 676.569,1962.53 675.961,1962.53C674.523,1962.53 673.287,1962.25 672.254,1961.68C670.998,1960.99 670.34,1959.96 670.279,1958.6C670.158,1956.43 670.613,1953.72 671.647,1950.47C672.153,1948.87 673.105,1947.85 674.503,1947.41C675.09,1947.22 675.698,1947.13 676.326,1947.13C677.076,1947.13 677.856,1947.28 678.666,1947.57C679.132,1947.74 680.469,1948.21 682.677,1948.99C683.467,1949.26 683.862,1949.77 683.862,1950.53C683.862,1950.74 683.832,1950.95 683.771,1951.16Z" style="fill:white;fill-rule:nonzero;"/>
                        <path d="M684.768,1951.41L684.765,1951.42C684.438,1952.84 683.641,1953.42 682.616,1953.42C682.313,1953.42 681.978,1953.37 681.614,1953.24C681.6,1953.24 681.586,1953.23 681.573,1953.23C680.563,1952.83 679.553,1952.42 678.528,1952C677.496,1951.63 676.626,1951.47 675.908,1951.56C675.801,1951.57 675.74,1951.68 675.661,1951.8C675.525,1952.01 675.412,1952.28 675.309,1952.61C675.309,1952.61 675.086,1953.64 674.78,1955.12L674.325,1957.41C674.323,1957.42 674.319,1957.44 674.316,1957.45C674.297,1957.53 674.284,1957.61 674.284,1957.68C674.284,1957.7 674.287,1957.73 674.29,1957.75C674.329,1957.77 674.395,1957.79 674.444,1957.79L674.45,1957.8C675.574,1957.97 676.698,1958.03 677.822,1957.97C677.83,1957.97 677.838,1957.97 677.846,1957.97C679.296,1957.93 680.511,1957.91 681.492,1957.91C682.337,1957.91 682.967,1958.18 683.414,1958.65C683.834,1959.08 684.112,1959.72 684.158,1960.59C684.159,1960.59 684.159,1960.6 684.159,1960.61C684.192,1961.48 683.954,1962.12 683.564,1962.56C683.154,1963.02 682.53,1963.32 681.644,1963.32C681.011,1963.32 680.076,1963.36 678.84,1963.44C677.543,1963.53 676.584,1963.57 675.961,1963.57C674.331,1963.57 672.933,1963.23 671.762,1962.59L671.76,1962.59C670.16,1961.71 669.333,1960.39 669.253,1958.65C669.127,1956.39 669.589,1953.55 670.668,1950.15C671.289,1948.19 672.48,1946.97 674.19,1946.43C674.878,1946.2 675.59,1946.09 676.326,1946.09C677.187,1946.09 678.084,1946.26 679.013,1946.6C679.478,1946.76 680.812,1947.24 683.011,1948.01C684.287,1948.45 684.889,1949.31 684.889,1950.53C684.889,1950.82 684.849,1951.12 684.768,1951.41ZM683.771,1951.16C683.832,1950.95 683.862,1950.74 683.862,1950.53C683.862,1949.77 683.467,1949.26 682.677,1948.99C680.469,1948.21 679.132,1947.74 678.666,1947.57C677.856,1947.28 677.076,1947.13 676.326,1947.13C675.698,1947.13 675.09,1947.22 674.503,1947.41C673.105,1947.85 672.153,1948.87 671.647,1950.47C670.613,1953.72 670.158,1956.43 670.279,1958.6C670.34,1959.96 670.998,1960.99 672.254,1961.68C673.287,1962.25 674.523,1962.53 675.961,1962.53C676.569,1962.53 677.506,1962.49 678.772,1962.41C680.038,1962.32 680.995,1962.28 681.644,1962.28C682.17,1962.28 682.555,1962.14 682.798,1961.87C683.042,1961.6 683.153,1961.19 683.133,1960.64C683.072,1959.51 682.525,1958.94 681.492,1958.94C680.519,1958.94 679.314,1958.96 677.876,1959.01C676.681,1959.07 675.485,1959.01 674.29,1958.82C673.601,1958.71 673.257,1958.33 673.257,1957.68C673.257,1957.54 673.277,1957.38 673.318,1957.21L673.774,1954.91C674.118,1953.25 674.3,1952.39 674.321,1952.33C674.665,1951.21 675.151,1950.61 675.779,1950.53C676.63,1950.42 677.673,1950.59 678.909,1951.03C679.922,1951.45 680.935,1951.86 681.948,1952.26C682.191,1952.35 682.414,1952.39 682.616,1952.39C683.204,1952.39 683.588,1951.98 683.771,1951.16Z"/>
                        <path d="M690.729,1961.31C690.81,1962.38 690.324,1963.01 689.271,1963.19C689.088,1963.22 688.937,1963.23 688.815,1963.23C688.045,1963.23 687.62,1962.79 687.539,1961.9C687.093,1956.44 686.87,1948.61 686.87,1938.4C686.87,1937.33 687.407,1936.85 688.481,1936.95C689.534,1937.06 690.061,1937.64 690.061,1938.72C690.061,1948.19 690.284,1955.72 690.729,1961.31Z" style="fill:white;fill-rule:nonzero;"/>
                        <path d="M691.754,1961.23C691.817,1962.07 691.618,1962.72 691.237,1963.21C690.857,1963.71 690.275,1964.07 689.451,1964.21C689.43,1964.22 689.409,1964.22 689.388,1964.22C689.159,1964.25 688.968,1964.26 688.815,1964.26C688.108,1964.26 687.572,1964.02 687.181,1963.62C686.831,1963.25 686.582,1962.72 686.516,1962C686.515,1962 686.515,1961.99 686.515,1961.99C686.068,1956.51 685.843,1948.64 685.843,1938.4C685.843,1937.5 686.136,1936.87 686.588,1936.47C687.035,1936.06 687.687,1935.84 688.58,1935.92L688.582,1935.92C689.411,1936.01 690.015,1936.32 690.429,1936.78C690.842,1937.24 691.088,1937.88 691.088,1938.72C691.088,1948.15 691.309,1955.66 691.753,1961.22L691.754,1961.23ZM690.729,1961.31C690.284,1955.72 690.061,1948.19 690.061,1938.72C690.061,1937.64 689.534,1937.06 688.481,1936.95C687.407,1936.85 686.87,1937.33 686.87,1938.4C686.87,1948.61 687.093,1956.44 687.539,1961.9C687.62,1962.79 688.045,1963.23 688.815,1963.23C688.937,1963.23 689.088,1963.22 689.271,1963.19C690.324,1963.01 690.81,1962.38 690.729,1961.31Z"/>
                        <path d="M709.782,1952.39C709.863,1953.65 709.528,1954.59 708.779,1955.22C708.232,1955.66 707.28,1956.03 705.923,1956.33C703.796,1956.79 702.084,1957.09 700.787,1957.24C699.936,1957.33 699.379,1957.43 699.116,1957.56C698.589,1957.81 698.427,1958.27 698.63,1958.94C698.893,1959.74 699.167,1960.14 699.45,1960.14C699.612,1960.16 700.169,1960.13 701.122,1960.05C701.75,1960 702.641,1959.88 703.796,1959.67C704.383,1959.56 704.97,1959.47 705.558,1959.38C706.449,1959.22 706.976,1959.06 707.138,1958.91C707.503,1958.6 707.867,1958.44 708.232,1958.44C708.617,1958.44 709.007,1958.63 709.402,1959.02C709.797,1959.41 709.994,1959.81 709.994,1960.23C709.994,1960.61 709.792,1960.98 709.387,1961.34C708.678,1961.97 707.665,1962.42 706.348,1962.69C706.085,1962.73 704.97,1962.88 703.005,1963.13L699.663,1963.57C699.4,1963.59 699.157,1963.61 698.934,1963.61C697.11,1963.61 695.976,1962.54 695.53,1960.42C695.308,1959.31 695.115,1958.48 694.953,1957.93L694.254,1955.38C694.031,1954.56 693.879,1953.69 693.798,1952.77C693.596,1949.95 694.882,1948.09 697.657,1947.19C699.238,1946.67 701.051,1946.28 703.097,1946.03C703.785,1945.94 704.444,1945.84 705.072,1945.71C707.26,1945.33 708.627,1946.31 709.174,1948.64C709.539,1950.24 709.741,1951.49 709.782,1952.39ZM706.378,1951.1C706.156,1949.9 705.902,1949.27 705.619,1949.21C705.315,1949.14 704.626,1949.17 703.552,1949.3C701.75,1949.53 700.21,1949.85 698.934,1950.25C698.245,1950.48 697.82,1950.63 697.657,1950.72C697.192,1950.97 696.959,1951.32 696.959,1951.76C696.959,1953.14 697.09,1953.88 697.354,1953.96C697.597,1954.05 698.326,1954.04 699.541,1953.93C700.23,1953.87 700.808,1953.81 701.273,1953.74L702.945,1953.49C703.269,1953.41 704.282,1953.2 705.983,1952.86C706.105,1952.84 706.196,1952.82 706.257,1952.8C706.561,1952.74 706.601,1952.17 706.378,1951.1Z" style="fill:white;fill-rule:nonzero;"/>
                        <path d="M699.581,1958.48C699.587,1958.52 699.598,1958.59 699.613,1958.64C699.669,1958.8 699.746,1958.98 699.805,1959.1C700.076,1959.09 700.535,1959.06 701.032,1959.02C701.039,1959.02 701.046,1959.01 701.053,1959.01C701.654,1958.97 702.507,1958.85 703.613,1958.65L703.616,1958.65C704.207,1958.54 704.798,1958.45 705.403,1958.36C705.913,1958.26 706.426,1958.11 706.528,1958.08C707.092,1957.61 707.669,1957.4 708.232,1957.4C708.845,1957.4 709.491,1957.66 710.12,1958.28C710.749,1958.9 711.022,1959.57 711.022,1960.23C711.022,1960.87 710.743,1961.51 710.065,1962.11C709.244,1962.84 708.08,1963.39 706.555,1963.7C706.54,1963.71 706.524,1963.71 706.509,1963.71C706.243,1963.75 705.119,1963.9 703.137,1964.16L699.797,1964.6C699.779,1964.6 699.762,1964.6 699.744,1964.6C699.451,1964.63 699.181,1964.64 698.934,1964.64C697.731,1964.64 696.764,1964.27 696.016,1963.57C695.316,1962.91 694.8,1961.94 694.525,1960.64C694.525,1960.63 694.524,1960.63 694.523,1960.63C694.309,1959.56 694.125,1958.76 693.969,1958.23C693.967,1958.22 693.965,1958.22 693.963,1958.21L693.264,1955.66L693.263,1955.65C693.025,1954.78 692.862,1953.85 692.775,1952.86C692.775,1952.85 692.774,1952.85 692.774,1952.84C692.653,1951.16 693.002,1949.78 693.768,1948.67C694.525,1947.58 695.705,1946.74 697.338,1946.21C698.975,1945.66 700.853,1945.26 702.972,1945C703.634,1944.92 704.267,1944.82 704.871,1944.7C704.88,1944.69 704.889,1944.69 704.898,1944.69C706.31,1944.45 707.45,1944.69 708.333,1945.32C709.19,1945.93 709.831,1946.94 710.174,1948.4L710.175,1948.41C710.556,1950.08 710.764,1951.39 710.807,1952.33C710.911,1953.98 710.418,1955.19 709.438,1956.02C709.432,1956.02 709.427,1956.03 709.421,1956.03C708.79,1956.54 707.705,1957 706.139,1957.34C703.97,1957.81 702.224,1958.12 700.902,1958.27C700.897,1958.27 700.893,1958.27 700.888,1958.27C700.237,1958.33 699.798,1958.38 699.581,1958.48ZM709.782,1952.39C709.741,1951.49 709.539,1950.24 709.174,1948.64C708.627,1946.31 707.26,1945.33 705.072,1945.71C704.444,1945.84 703.785,1945.94 703.097,1946.03C701.051,1946.28 699.238,1946.67 697.657,1947.19C694.882,1948.09 693.596,1949.95 693.798,1952.77C693.879,1953.69 694.031,1954.56 694.254,1955.38L694.953,1957.93C695.115,1958.48 695.308,1959.31 695.53,1960.42C695.976,1962.54 697.11,1963.61 698.934,1963.61C699.157,1963.61 699.4,1963.59 699.663,1963.57L703.005,1963.13C704.97,1962.88 706.085,1962.73 706.348,1962.69C707.665,1962.42 708.678,1961.97 709.387,1961.34C709.792,1960.98 709.994,1960.61 709.994,1960.23C709.994,1959.81 709.797,1959.41 709.402,1959.02C709.007,1958.63 708.617,1958.44 708.232,1958.44C707.867,1958.44 707.503,1958.6 707.138,1958.91C706.976,1959.06 706.449,1959.22 705.558,1959.38C704.97,1959.47 704.383,1959.56 703.796,1959.67C702.641,1959.88 701.75,1960 701.122,1960.05C700.169,1960.13 699.612,1960.16 699.45,1960.14C699.167,1960.14 698.893,1959.74 698.63,1958.94C698.427,1958.27 698.589,1957.81 699.116,1957.56C699.379,1957.43 699.936,1957.33 700.787,1957.24C702.084,1957.09 703.796,1956.79 705.923,1956.33C707.28,1956.03 708.232,1955.66 708.779,1955.22C709.528,1954.59 709.863,1953.65 709.782,1952.39ZM706.378,1951.1C706.601,1952.17 706.561,1952.74 706.257,1952.8C706.196,1952.82 706.105,1952.84 705.983,1952.86C704.282,1953.2 703.269,1953.41 702.945,1953.49L701.273,1953.74C700.808,1953.81 700.23,1953.87 699.541,1953.93C698.326,1954.04 697.597,1954.05 697.354,1953.96C697.09,1953.88 696.959,1953.14 696.959,1951.76C696.959,1951.32 697.192,1950.97 697.657,1950.72C697.82,1950.63 698.245,1950.48 698.934,1950.25C700.21,1949.85 701.75,1949.53 703.552,1949.3C704.626,1949.17 705.315,1949.14 705.619,1949.21C705.902,1949.27 706.156,1949.9 706.378,1951.1ZM698.061,1952.97C698.405,1952.97 698.916,1952.95 699.452,1952.9C700.118,1952.84 700.678,1952.78 701.13,1952.72C701.13,1952.72 702.724,1952.48 702.734,1952.48C703.082,1952.39 703.991,1952.2 705.461,1951.91C705.443,1951.73 705.416,1951.52 705.373,1951.31C705.371,1951.3 705.37,1951.3 705.369,1951.29C705.291,1950.87 705.162,1950.44 705.082,1950.2C704.768,1950.2 704.3,1950.25 703.677,1950.33C701.949,1950.55 700.473,1950.85 699.248,1951.23C698.652,1951.43 698.278,1951.56 698.139,1951.63C698.065,1951.67 697.986,1951.69 697.986,1951.76C697.986,1952.21 698.027,1952.66 698.061,1952.97Z"/>
                    </g>
                </g>
            </g>
        </g>
    </g>
    <defs>
        <linearGradient id="_Linear2" x1="0" y1="0" x2="1" y2="-0.070248" gradientUnits="userSpaceOnUse" gradientTransform="matrix(33.5609,-86.9681,88.604,32.9413,434.616,1983.37)"><stop offset="0" style="stop-color:rgb(204,0,0);stop-opacity:1"/><stop offset="1" style="stop-color:rgb(229,91,1);stop-opacity:1"/></linearGradient>
        <linearGradient id="_Linear3" x1="0" y1="0" x2="1" y2="0.00144732" gradientUnits="userSpaceOnUse" gradientTransform="matrix(11.5031,90.44,-92.1412,11.2907,650.242,1903.52)"><stop offset="0" style="stop-color:rgb(229,91,1);stop-opacity:1"/><stop offset="1" style="stop-color:rgb(255,213,0);stop-opacity:1"/></linearGradient>
        <linearGradient id="_Linear4" x1="0" y1="0" x2="1" y2="-0.0691223" gradientUnits="userSpaceOnUse" gradientTransform="matrix(122.415,-73.9246,75.3151,120.155,475.801,1989.86)"><stop offset="0" style="stop-color:rgb(152,254,0);stop-opacity:1"/><stop offset="0.5" style="stop-color:rgb(163,249,0);stop-opacity:1"/><stop offset="0.75" style="stop-color:rgb(247,216,0);stop-opacity:1"/><stop offset="1" style="stop-color:rgb(235,123,0);stop-opacity:1"/></linearGradient>
    </defs>
</svg>
